<?xml version="1.0" encoding="utf-8"?>
<!-- Generator: Adobe Illustrator 16.0.0, SVG Export Plug-In . SVG Version: 6.00 Build 0)  -->
<!DOCTYPE svg PUBLIC "-//W3C//DTD SVG 1.1//EN" "http://www.w3.org/Graphics/SVG/1.1/DTD/svg11.dtd">
<svg version="1.1" id="Layer_1" xmlns="http://www.w3.org/2000/svg" xmlns:xlink="http://www.w3.org/1999/xlink" x="0px" y="0px"
	 width="300px" height="300px" viewBox="0 0 300 300" enable-background="new 0 0 300 300" xml:space="preserve">
<path fill="#FFFFFF" d="M124.921,97.337l37.952,37.925c1.389-3.563,2.236-7.306,2.437-11.119c0.494-9.061-2.598-17.38-8.674-23.457
	l-18.537-18.529c-12.522-12.53-34.938-10.502-48.84,3.416c-13.91,13.903-15.938,36.314-3.416,48.836l18.521,18.553
	c8.96,8.952,22.508,10.891,34.576,6.191l-37.907-37.926c-4.958-4.981-3.138-14.847,2.946-20.942
	C110.062,94.203,119.947,92.372,124.921,97.337z M221.468,165.517l-18.629-18.618c-6.092-6.107-14.435-9.214-23.519-8.74
	c-3.816,0.193-7.557,1.037-11.142,2.414l37.937,37.98c4.966,4.966,3.139,14.847-2.945,20.912
	c-6.084,6.114-15.969,7.934-20.935,2.961l-37.945-37.91c-4.672,12.086-2.706,25.649,6.292,34.652l18.622,18.625
	c12.584,12.568,35.038,10.579,48.948-3.323C232.063,200.555,234.06,178.097,221.468,165.517z"/>
<path fill="#FFFFFF" d="M183.392,166.002c1.558,1.562,2.298,3.736,2.121,6.139c-0.201,2.397-1.312,4.723-3.146,6.542
	c-3.771,3.778-9.453,4.233-12.669,1.021l-43.666-43.678c-3.223-3.216-2.768-8.895,0.995-12.665c3.786-3.778,9.477-4.245,12.7-1.022
	L183.392,166.002z"/>
</svg>
