<?xml version="1.0" encoding="utf-8"?>
<!-- Generator: Adobe Illustrator 16.0.0, SVG Export Plug-In . SVG Version: 6.00 Build 0)  -->
<!DOCTYPE svg PUBLIC "-//W3C//DTD SVG 1.1//EN" "http://www.w3.org/Graphics/SVG/1.1/DTD/svg11.dtd">
<svg version="1.1" id="Layer_1" xmlns="http://www.w3.org/2000/svg" xmlns:xlink="http://www.w3.org/1999/xlink" x="0px" y="0px"
	 width="300px" height="300px" viewBox="0 0 300 300" enable-background="new 0 0 300 300" xml:space="preserve">
<path fill="#FFFFFF" d="M201.172,170.528c11.497-24.166,7.33-53.985-12.646-73.962c-12.281-12.285-28.614-19.051-45.985-19.051
	c-17.374,0-33.707,6.766-45.988,19.051c-25.357,25.357-25.357,66.614,0,91.971c12.281,12.285,28.614,19.051,45.988,19.051
	c9.856,0,19.35-2.249,27.99-6.379l14.927,14.927c4.234,4.231,9.784,6.349,15.33,6.349c5.547,0,11.097-2.117,15.331-6.349
	c8.465-8.469,8.465-22.192,0-30.661L201.172,170.528z M108.813,176.275c-18.594-18.596-18.594-48.851,0-67.447
	c9.008-9.007,20.984-13.97,33.727-13.97c12.739,0,24.716,4.963,33.724,13.97c18.594,18.596,18.594,48.851,0,67.447
	c-9.008,9.008-20.984,13.97-33.724,13.97C129.798,190.245,117.821,185.283,108.813,176.275z"/>
</svg>
