<?xml version="1.0" encoding="utf-8"?>
<!-- Generator: Adobe Illustrator 16.0.0, SVG Export Plug-In . SVG Version: 6.00 Build 0)  -->
<!DOCTYPE svg PUBLIC "-//W3C//DTD SVG 1.1//EN" "http://www.w3.org/Graphics/SVG/1.1/DTD/svg11.dtd">
<svg version="1.1" id="Layer_1" xmlns="http://www.w3.org/2000/svg" xmlns:xlink="http://www.w3.org/1999/xlink" x="0px" y="0px"
	 width="350px" height="350px" viewBox="0 0 350 350" enable-background="new 0 0 350 350" xml:space="preserve">
<path fill="#DA1C5C" d="M338.715,282.501L198.748,40.085c-4.717-8.201-13.619-13.74-23.754-13.74
	c-10.122,0-19.039,5.539-23.742,13.74L11.292,282.501c-2.428,4.175-3.686,8.886-3.686,13.728c0,4.645,1.197,9.42,3.686,13.688
	c5.051,8.765,14.296,13.74,23.735,13.74h279.986c9.434,0,18.639-4.978,23.701-13.74c2.48-4.269,3.678-9.044,3.678-13.688
	C342.393,291.386,341.115,286.676,338.715,282.501z M318.912,298.518c-0.836,1.472-2.367,2.233-3.945,2.26H35.027
	c-1.599-0.024-3.09-0.788-3.96-2.26c-0.428-0.764-0.615-1.524-0.629-2.289c0-0.813,0.228-1.619,0.623-2.272l139.973-242.47
	c0.83-1.365,2.261-2.262,3.96-2.262c1.706,0,3.143,0.896,3.959,2.262l139.973,242.456c0.408,0.67,0.623,1.474,0.623,2.289
	C319.549,296.991,319.354,297.754,318.912,298.518z M172.431,245.105c-12.616,0-22.845,10.25-22.845,22.865
	c0,12.631,10.229,22.838,22.845,22.838c12.624,0,22.844-10.207,22.844-22.838C195.275,255.355,185.055,245.105,172.431,245.105z
	 M172.431,103.422c-17.359,0-31.428,14.088-31.428,31.44c0,2.516,0.335,4.951,0.89,7.278l11.68,96.116h37.716l11.666-96.116
	c0.563-2.327,0.904-4.763,0.904-7.278C203.859,117.51,189.771,103.422,172.431,103.422z"/>
</svg>
