<?xml version="1.0" encoding="utf-8"?>
<!-- Generator: Adobe Illustrator 16.0.0, SVG Export Plug-In . SVG Version: 6.00 Build 0)  -->
<!DOCTYPE svg PUBLIC "-//W3C//DTD SVG 1.1//EN" "http://www.w3.org/Graphics/SVG/1.1/DTD/svg11.dtd">
<svg version="1.1" id="Layer_1" xmlns="http://www.w3.org/2000/svg" xmlns:xlink="http://www.w3.org/1999/xlink" x="0px" y="0px"
	 width="350px" height="350px" viewBox="0 0 350 350" enable-background="new 0 0 350 350" xml:space="preserve">
<path fill="#FFFFFF" d="M338.715,282.501L198.748,40.085c-4.717-8.201-13.619-13.74-23.754-13.74
	c-10.122,0-19.039,5.539-23.742,13.74L11.292,282.501c-2.428,4.175-3.686,8.885-3.686,13.728c0,4.643,1.197,9.419,3.686,13.687
	c5.051,8.764,14.296,13.74,23.735,13.74h279.986c9.432,0,18.637-4.977,23.701-13.74c2.48-4.268,3.678-9.044,3.678-13.687
	C342.393,291.386,341.115,286.676,338.715,282.501z M318.912,298.517c-0.836,1.472-2.367,2.234-3.945,2.261H35.027
	c-1.599-0.026-3.09-0.789-3.96-2.261c-0.428-0.763-0.615-1.525-0.629-2.288c0-0.815,0.228-1.619,0.623-2.274l139.973-242.47
	c0.83-1.365,2.261-2.262,3.96-2.262c1.706,0,3.143,0.896,3.959,2.262L318.926,293.94c0.408,0.669,0.623,1.473,0.623,2.288
	C319.549,296.991,319.354,297.754,318.912,298.517z M172.431,245.106c-12.616,0-22.845,10.249-22.845,22.865
	c0,12.63,10.229,22.838,22.845,22.838c12.624,0,22.844-10.208,22.844-22.838C195.275,255.355,185.055,245.106,172.431,245.106z
	 M172.431,103.422c-17.359,0-31.428,14.088-31.428,31.44c0,2.516,0.335,4.951,0.89,7.278l11.68,96.116h37.716l11.666-96.116
	c0.563-2.327,0.904-4.763,0.904-7.278C203.859,117.51,189.771,103.422,172.431,103.422z"/>
</svg>
