<?xml version="1.0" encoding="utf-8"?>
<!-- Generator: Adobe Illustrator 16.0.0, SVG Export Plug-In . SVG Version: 6.00 Build 0)  -->
<!DOCTYPE svg PUBLIC "-//W3C//DTD SVG 1.1//EN" "http://www.w3.org/Graphics/SVG/1.1/DTD/svg11.dtd">
<svg version="1.1" id="Layer_1" xmlns="http://www.w3.org/2000/svg" xmlns:xlink="http://www.w3.org/1999/xlink" x="0px" y="0px"
	 width="350px" height="350px" viewBox="0 0 350 350" enable-background="new 0 0 350 350" xml:space="preserve">
<path fill="#FFFFFF" d="M255.507,135.242l-20.975-20.958c-2.896-2.912-6.309-4.186-7.637-2.88l-68.244,68.254l-35.569-35.55
	c-1.313-1.316-4.726-0.05-7.606,2.865l-20.974,20.962c-2.888,2.884-4.178,6.301-2.85,7.606l40.782,40.79
	c0.008,0.012,0.008,0.012,0.023,0.031l20.958,20.955c0.015,0.019,0.015,0.026,0.039,0.038c2.888,2.865,8.742,1.652,10.055,0.348
	l26.581-26.581l68.273-68.274C259.66,141.551,258.387,138.122,255.507,135.242z"/>
<g>
	<path fill="#FFFFFF" d="M174.997,9.566C83.625,9.582,9.583,83.624,9.575,175.008c0.008,91.383,74.05,165.426,165.422,165.426
		c91.378,0,165.429-74.043,165.429-165.426C340.426,83.624,266.375,9.582,174.997,9.566z M175,325c-82.843,0-150-67.157-150-150
		S92.157,25,175,25s150,67.157,150,150S257.843,325,175,325z"/>
</g>
</svg>
