<?xml version="1.0" encoding="utf-8"?>
<!-- Generator: Adobe Illustrator 16.0.0, SVG Export Plug-In . SVG Version: 6.00 Build 0)  -->
<!DOCTYPE svg PUBLIC "-//W3C//DTD SVG 1.1//EN" "http://www.w3.org/Graphics/SVG/1.1/DTD/svg11.dtd">
<svg version="1.1" id="Layer_1" xmlns="http://www.w3.org/2000/svg" xmlns:xlink="http://www.w3.org/1999/xlink" x="0px" y="0px"
	 width="100px" height="100px" viewBox="0 0 100 100" enable-background="new 0 0 100 100" xml:space="preserve">
<g>
	<path fill="#FFFFFF" d="M51.887,14.979c14.483,0,29.9,4.828,29.9,13.704c0,2.414-1.09,4.438-3.036,6.229H25.102
		c-1.869-1.791-3.115-3.815-3.115-6.229C21.987,19.806,37.404,14.979,51.887,14.979 M52.751,27.795c0.562,0,1.046-0.166,1.395-0.514
		c1.09-1.09,0.39-3.504-1.558-5.451c-1.325-1.325-2.867-2.037-4.06-2.037c-0.56,0-1.042,0.156-1.391,0.479
		c-1.09,1.09-0.389,3.504,1.558,5.451C50.019,27.048,51.559,27.795,52.751,27.795 M63.434,30.159c1.199,0,2.763-0.733,4.104-2.021
		c1.946-1.946,2.647-4.36,1.558-5.451c-0.349-0.349-0.833-0.514-1.394-0.514c-1.193,0-2.733,0.748-4.058,2.072
		c-1.946,1.947-2.647,4.36-1.557,5.451C62.427,30.01,62.894,30.159,63.434,30.159 M33.377,30.159c1.199,0,2.763-0.733,4.104-2.021
		c1.869-1.946,2.57-4.36,1.558-5.451c-0.349-0.349-0.841-0.514-1.41-0.514c-1.21,0-2.77,0.748-4.041,2.072
		c-1.947,1.947-2.647,4.36-1.558,5.451C32.37,30.01,32.837,30.159,33.377,30.159 M76.805,39.896c4.126,0,7.475,3.348,7.475,7.475
		c0,4.127-3.349,7.475-7.475,7.475H26.97c-4.127,0-7.475-3.348-7.475-7.475c0-4.127,3.348-7.475,7.475-7.475H76.805 M85.628,58.843
		c0.913,0,1.811,0.309,2.545,0.986c1.479,1.401,1.557,3.737,0.155,5.217c-2.647,2.726-4.75,4.672-7.942,5.84
		c0,0.156,0.078,0.312,0.078,0.468c0,5.995-8.254,8.409-28.577,8.409c-20.322,0-28.732-2.414-28.732-8.409
		c0-0.078,0-0.156,0.078-0.234c-3.27-1.168-4.983-3.114-7.786-6.073c-1.402-1.479-1.324-3.815,0.156-5.217
		c0.734-0.678,1.631-0.986,2.515-0.986c0.335,0,0.668,0.044,0.989,0.13c0.701,0.155,1.324,0.467,1.791,0.935
		c3.051,3.189,5.746,4.76,9.012,4.76c2.235,0,4.738-0.735,7.807-2.19c3.979-1.876,8.03-2.885,12.153-2.885
		c0.154,0,0.307,0.001,0.461,0.004c4.127,0,8.409,0.935,12.926,2.803c3.602,1.498,6.682,2.253,9.415,2.253
		c3.946,0,7.171-1.571,10.207-4.744c0.467-0.468,1.09-0.779,1.713-0.935C84.934,58.887,85.282,58.843,85.628,58.843 M51.887,8.749
		c-17.401,0-36.13,6.238-36.13,19.934c0,2.839,0.89,5.517,2.651,7.994c-3.134,2.514-5.143,6.374-5.143,10.694
		c0,2.105,0.478,4.102,1.33,5.886c-1.179,0.447-2.271,1.12-3.219,1.995l-0.029,0.026l-0.029,0.027
		c-1.918,1.817-3.02,4.271-3.101,6.91c-0.083,2.658,0.879,5.186,2.707,7.115l0.444,0.47c1.98,2.096,3.771,3.991,6.21,5.491
		c1.841,5.157,7.156,7.498,10.578,8.495c5.163,1.505,12.704,2.206,23.73,2.206c11.018,0,18.537-0.702,23.666-2.21
		c3.454-1.015,8.852-3.42,10.585-8.766c2.569-1.54,4.579-3.489,6.659-5.631l0.027-0.028l0.027-0.028
		c3.758-3.968,3.581-10.259-0.395-14.024l-0.029-0.027l-0.029-0.027c-0.946-0.873-2.039-1.544-3.22-1.991
		c0.853-1.785,1.331-3.783,1.331-5.889c0-4.291-1.983-8.128-5.08-10.643c1.72-2.424,2.588-5.118,2.588-8.045
		C88.018,14.986,69.288,8.749,51.887,8.749L51.887,8.749z"/>
</g>
</svg>
