<?xml version="1.0" encoding="utf-8"?>
<!-- Generator: Adobe Illustrator 16.0.0, SVG Export Plug-In . SVG Version: 6.00 Build 0)  -->
<!DOCTYPE svg PUBLIC "-//W3C//DTD SVG 1.1//EN" "http://www.w3.org/Graphics/SVG/1.1/DTD/svg11.dtd">
<svg version="1.1" id="Layer_1" xmlns="http://www.w3.org/2000/svg" xmlns:xlink="http://www.w3.org/1999/xlink" x="0px" y="0px"
	 width="100px" height="100px" viewBox="0 0 100 100" enable-background="new 0 0 100 100" xml:space="preserve">
<g>
	<path fill="#FFFFFF" d="M98.696,39.891c0,6.305-0.435,12.609-1.413,18.697c-1.195,7.934-10.108,15.107-17.936,15.979
		c-7.934,0.76-15.76,1.195-23.586,1.303L35,95.979c-0.652,0.652-1.522,0.979-2.391,0.979c-0.543,0-0.979-0.109-1.414-0.217
		c-1.304-0.545-2.065-1.85-2.065-3.262V75.652c-2.826-0.217-5.652-0.326-8.479-0.652c-7.826-0.869-16.739-8.479-18.044-16.412
		C1.738,52.5,1.304,46.195,1.304,40c0-6.413,0.435-12.827,1.304-19.022C3.913,13.043,12.826,5.434,20.652,4.564
		C30.435,3.585,40.217,3.042,50,3.042c9.783,0,19.566,0.543,29.348,1.521c7.827,0.87,16.74,8.479,17.936,16.413
		C98.262,27.173,98.696,33.586,98.696,39.891z"/>
</g>
</svg>
