<?xml version="1.0" encoding="utf-8"?>
<!-- Generator: Adobe Illustrator 16.0.0, SVG Export Plug-In . SVG Version: 6.00 Build 0)  -->
<!DOCTYPE svg PUBLIC "-//W3C//DTD SVG 1.1//EN" "http://www.w3.org/Graphics/SVG/1.1/DTD/svg11.dtd">
<svg version="1.1" id="Layer_1" xmlns="http://www.w3.org/2000/svg" xmlns:xlink="http://www.w3.org/1999/xlink" x="0px" y="0px"
	 width="142.75px" height="56.75px" viewBox="-24.131 -10.245 142.75 56.75" enable-background="new -24.131 -10.245 142.75 56.75"
	 xml:space="preserve">
<g>
	<g>
		<path d="M103.865,16.42c-1.797-0.888-3.691-2.439-4.782-3.855l0.043-0.107c1.141-2.822,0.907-5.258-0.646-6.681
			c-0.862-0.79-2.07-1.243-3.311-1.243c-1.846,0-4.189,1.078-4.735,4.128c-0.278,1.743,0.347,3.49,0.801,4.767
			c0.19,0.54,0.372,1.051,0.39,1.308c0.081,1.338-0.694,2.454-2.369,3.414c-0.51,0.295-1.088,0.531-1.75,0.721
			c-0.239-4.473-2.427-7.928-5.642-8.867c-2.595-0.757-5.533,0.244-7.967,2.641l-0.059-0.125c-0.302-0.638-0.72-1.261-1.202-1.795
			c-0.073-0.08-0.17-0.18-0.277-0.287c2.392-0.236,4.867-0.724,5.756-2.685c1.582-3.478-0.592-9.608-2.557-12.657
			c-1.073-1.665-2.094-2.51-3.032-2.51c-0.346,0-1,0.126-1.448,0.973c-0.585,1.093-7.786,5.346-14.529,6.307
			c-0.84-2.588-2.125-4.071-3.016-4.806l-0.196-0.173c-0.424-0.337-0.718-0.49-0.75-0.507l0,0c-2.005-1.271-4.026-1.917-6.013-1.917
			c-1.959,0-3.305,0.64-3.792,0.914c-3.825,2.155-5.699,5.702-5.011,9.495c0.626,3.45,3.275,6.159,6.661,6.869
			c0.107,0.38,0.278,1.007,0.49,1.825c-1.869-1.781-3.341-2.648-4.485-2.648c-1.054,0-1.579,0.701-1.777,1.232
			c-2.824-1.12-5.442-0.94-7.626,0.501l-0.021-0.05c-1.499-3.949-3.04-5.867-4.715-5.867c-1.186,0-2.208,0.939-3.13,2.874
			c-1.145,2.403-2.963,3.552-5.212,3.421c-1.772-4.005-3.795-5.04-5.358-5.158c0.3-1.222,0.638-2.407,0.947-3.454
			c0.783-2.669,1.3-4.434,0.786-5.481C12.508-6.773,2.566-8.081,1.436-8.219c-0.833-0.1-1.67-0.152-2.488-0.152
			c-9.801,0-16.079,7.019-17.009,13.625c-0.734,5.22,1.748,11.735,10.918,14.371c2.14,0.613,4.832,0.247,6.187-0.196
			c-0.168,0.49-0.426,1.117-0.696,1.72l-4.753-1.174c-1.209-0.333-2.441-0.502-3.658-0.502c-4.07,0-7.63,1.872-9.521,5.007
			c-2.306,3.828-1.964,6.806-0.737,10.107c1.458,3.919,5.215,6.718,9.548,7.124l0.197,0.019c5.3,0.67,9.613-2.711,9.728-2.8
			c1.205-0.809,2.29-1.839,3.312-3.149c2.6,2.63,8.042,7.599,13.062,8.762c0.625,0.147,1.24,0.218,1.828,0.218
			c2.054,0,3.841-0.883,5.171-2.554c2.059-2.597,2.786-6.87,1.85-10.896c-0.359-1.546-0.856-2.646-1.476-3.319
			c0.362,0.036,0.73,0.07,1.122,0.07c2.147,0,4.145-0.594,5.212-0.977c1.596,1.434,3.608,2.214,5.708,2.214
			c2.048,0,3.961-0.739,5.536-2.138l0.07-0.064c0.692,0.372,1.579,0.563,2.638,0.563c1.412,0,2.947-0.334,4.189-0.691
			c0.117,5.606-1.159,8.688-3.791,9.166c-1.13,0.205-1.472,0.938-1.416,1.557c0.103,1.146,1.51,2.152,3.01,2.152h0.125
			c3.521-0.126,6.126-1.193,7.965-3.27c2.555-2.882,3.521-7.635,2.955-14.555c0.1,0.003,0.207,0.009,0.319,0.018
			c0.204,0.012,0.426,0.026,0.66,0.026c0.672,0,1.658-0.107,2.565-0.911c0,0,0,0.003,0,0.006c0.865,4.538,0.81,7.812-0.153,9.215
			c-0.282,0.409-0.64,0.65-1.094,0.731c-0.782,0.143-1.088,0.705-1.044,1.2c0.073,0.803,0.985,1.482,1.99,1.482h0.077
			c2.049-0.073,3.574-0.703,4.657-1.929c1.442-1.631,2.012-4.258,1.742-8.022h0.095c0.47,0,1.346,0,2.053-0.658
			c0.594-0.555,1.299-1.853,1.521-2.616c-0.67,2.865-0.615,5.735,0.182,8.178c0.921,2.813,2.701,4.732,5.015,5.412
			c0.585,0.168,1.19,0.255,1.803,0.255c4.114,0,8.271-3.89,10.046-9.324c0.144,0.012,0.286,0.026,0.425,0.036
			c0.572,0.056,1.052,0.144,1.793-0.044c-0.473,1.767-0.092,3.846,1.096,5.75c1.793,2.874,4.867,4.591,8.222,4.591l0,0
			c1.064,0,2.156-0.174,3.24-0.517c6.251-1.974,7.488-6.233,7.673-8.602C109.412,22.297,107.16,18.048,103.865,16.42z
			 M58.122,15.167c-0.009,0-0.016,0-0.021,0c-0.182,0.031-0.555,0.086-0.944,0.086c-0.454,0-0.658-0.079-0.684-0.079h-0.003
			c-0.615-1.275-0.224-4.266,0.017-5.249c0.172-0.019,0.404-0.032,0.723-0.032c1.135,0,2.788,0.156,4.7,0.338
			c1.856,0.175,3.95,0.371,5.984,0.461c-0.876,0.503-2.445,0.596-4.606,0.254c-0.826-0.183-1.498-0.221-1.913-0.221
			c-1.82,0-2.659,0.709-3.043,1.307c-0.508,0.79-0.563,1.837-0.183,3.14C58.135,15.171,58.13,15.167,58.122,15.167z M44.119,19.961
			c0.087-1.954,0.938-4.523,1.424-5.839c0.475,2.078,0.993,4.636,1.354,7.266c-1.934,0.959-2.256,0.53-2.419,0.36
			C44.207,21.463,44.081,20.829,44.119,19.961z M26.487,22.985c-0.25,0.298-1.063,0.858-1.891,0.858
			c-0.692,0-1.174-0.409-1.472-1.255c-0.397-1.126-0.258-2.377,0.39-3.521c0.645-1.132,1.704-1.968,2.764-2.181l0.331-0.066
			l0.154-0.302c0.113-0.221,0.229-0.441,0.351-0.662C25.897,19.558,26.168,22.121,26.487,22.985z M33.386,17.785
			c0.677-1.659,1.749-2.501,3.186-2.501c0.422,0,0.758,0.077,0.908,0.121c0.617,0.527,0.702,2.124,0.188,3.791
			c-0.652,2.114-1.915,3.539-3.099,3.366c-0.168-0.025-0.641-0.349-1.026-1.024C33.173,20.896,32.666,19.555,33.386,17.785z
			 M3.812,1.744l-2.56,8.785C-5.068,17.534-15.322,0.568,3.812,1.744z M96.561,28.98c0.529-0.166,0.982-0.451,1.346-0.849
			c0.535-0.594,0.833-1.41,0.833-2.305c0-1.846-1.226-3.741-3.352-4.425c0.764-0.687,1.252-1.488,1.551-2.105
			c1.622,1.434,5.009,4.63,4.724,7.154c-0.108,0.977-0.778,1.783-2.037,2.46C98.062,29.75,97.101,29.658,96.561,28.98z
			 M79.399,24.726c-0.823,1.831-1.797,2.669-2.375,2.669c-0.003,0-0.006,0-0.009,0c-0.486-0.123-0.971-1.349-0.834-3.403
			C76.84,24.249,77.851,24.521,79.399,24.726z M80.557,19.118c-1.177-0.161-2.171-0.373-2.812-0.524
			c0.688-1.218,1.428-1.85,1.87-1.85l0.094,0.01C80.109,16.857,80.499,17.706,80.557,19.118z M18.641,28.747
			c-4.643,2.292-8.697,1.55-11.944-2.147c0.236-0.836,0.638-2.144,1.133-3.753c0.617-2.012,1.378-4.496,2.142-7.108
			c0.031,0.015,0.064,0.031,0.094,0.044c0.251,0.11,0.485,0.192,0.684,0.256c0.059,0.623,0.372,1.591,1.385,2.98
			c0.1,0.14,0.204,0.283,0.317,0.424c0.654,0.839,1.344,1.264,2.052,1.264c0.779,0,1.343-0.497,1.72-1.011
			c-0.016,0.929,0.119,1.964,0.466,3.116c0.664,2.19,1.942,3.717,3.754,4.536C19.573,27.674,18.904,28.415,18.641,28.747z
			 M45.176,39.133L45.176,39.133v0.012V39.133z M59.467,33.078L59.467,33.078v0.008V33.078z M69.662,20.37l0.044-0.384l-0.213-0.263
			c-0.283-0.356-0.799-0.406-1.313-0.406c-0.713,0-1.62,0.114-2.036,0.176c-0.149-0.489-0.157-1.686-0.093-2.361
			c0.45,0.021,1.064,0.145,1.72,0.277c0.836,0.168,1.783,0.359,2.684,0.396l0.044,0.001c-0.254,0.616-0.47,1.207-0.642,1.791
			C69.785,19.857,69.723,20.112,69.662,20.37z"/>
		<path d="M111.776,30.504c-1.115-0.085-2.098,0.733-2.183,1.847c-0.087,1.117,0.76,2.103,1.876,2.19
			c1.113,0.082,2.073-0.762,2.158-1.879C113.712,31.549,112.893,30.593,111.776,30.504z"/>
	</g>
	<g>
		<g>
			<g>
				<g>
					<path fill="#FFFFFF" stroke="#000000" stroke-width="0.2338" d="M103.1,11.763"/>
				</g>
				<path fill="#FFFFFF" stroke="#000000" stroke-width="0.2338" d="M58.522,2.971L58.522,2.971L58.522,2.971z"/>
				<path fill="#FFFFFF" stroke="#000000" stroke-width="0.2338" d="M75.344,11.988c-0.279-0.591-0.663-1.154-1.091-1.626
					c-1.072-1.192-2.395-1.811-2.893-0.876c-0.166,0.318-0.427,0.653-0.868,0.931c-0.836,0.527-2.337,0.839-5.18,0.39
					c-0.14-0.022-6.756-1.701-3.814,4.744c0,0,0.048,0.176,0.132,0.475c0.205,0.746,0.615,2.312,0.965,4.169
					c0.823,4.328,1.328,10.198-1.813,10.77c-1.018,0.182-0.225,1.325,0.874,1.287c3.894-0.142,6.307-2.48,5.691-9.608
					c-0.064-0.728,1.439,0.085,2.402-0.813c0.508-0.472,1.222-1.785,1.359-2.407c0.103-0.474-2.589-0.097-2.986-0.026
					c-0.951,0.164-0.666-3.713-0.512-3.751c0.971-0.255,3.136,0.551,5.008,0.626C73.333,14.607,74.271,13.155,75.344,11.988z"/>
				<path fill="#FFFFFF" stroke="#000000" stroke-width="0.2338" d="M105.695,16.216c-2.316-1.142-4.847-3.365-5.741-5.173
					c-1.23-2.482-0.916-2.108-0.916-2.108s1.551,2.5,1.58,2.428c0.982-2.428,0.909-4.636-0.468-5.9
					c-2.035-1.862-6.184-1.408-6.876,2.481c-0.381,2.358,1.129,4.855,1.193,5.92c0.082,1.367-0.529,2.809-2.72,4.064
					c-0.835,0.482-1.779,0.793-2.765,0.995c-0.105-0.044-1.577,0.193-2.281,0.275c-0.126,0.005-0.246,0.008-0.372,0.012
					c0.051-0.128,2.636-0.606,2.633-0.726c-0.111-4.243-2.024-7.722-5.156-8.635c-2.603-0.761-5.451,0.437-7.706,2.885
					c-1.076,1.168-2.011,2.619-2.725,4.283c-0.266,0.623-0.506,1.269-0.706,1.947c-1.841,6.292,0.165,12.421,4.475,13.682
					c4.311,1.258,9.297-2.821,11.14-9.116c1.343-0.009,2.401,0.483,3.577-0.499c0.261-1.422,2.352-2.645,4.352-2.366
					c1.983-1.145,2.577-3.384,2.577-3.384c1.428,1.282,9.77,7.953,3.305,11.416c-3.15,1.689-3.924-0.067-4.408-0.788
					c-0.04-0.062-2.24-0.256-2.27-0.303c-0.059-0.108,1.914,0.003,1.914,0.003c4.519,0.241,3.547-7.125-2.159-6.57
					c-0.167,0.015-2.038-0.056-3.173,2.565c-2.208,4.51,3.442,12.295,11.359,9.796C113.98,30.045,111.184,18.928,105.695,16.216z
					 M78.983,27.243c-1.17-0.296-1.651-2.515-1.24-5.225c0.027,0.038,0.711,0.87,4.791,1.284
					C81.607,25.846,80.142,27.535,78.983,27.243z M79.396,18.364c-0.097-0.025-0.526-0.145-0.533-0.146
					c0.918-1.991,2.153-3.23,3.161-2.977c0.958,0.246,1.457,1.788,1.372,3.835C81.635,18.888,80.153,18.555,79.396,18.364z"/>
			</g>
			<g>
				<g>
					<path fill="#FFFFFF" stroke="#000000" stroke-width="0.2338" d="M21.964,13.308C21.754,13.445,22.069,13.868,21.964,13.308
						L21.964,13.308z"/>
					<path fill="#FFFFFF" stroke="#000000" stroke-width="0.2338" d="M9.452,10.532c0.01-0.195,0.04-0.399,0.081-0.604
						c0.313-1.526,1.28-3.355,2.795-4.057c0.018-0.006,1.166-0.536,1.613-0.546c0.969-4.151,2.496-7.698,1.901-8.913
						C14.205-6.925,4.344-8.25,3.495-8.354c-18.211-2.203-27.298,21.015-8.299,26.475c3.282,0.944,6.338-0.374,6.484-0.469
						c1.272-0.828-0.796,3.484-0.796,3.484l-5.333-1.314c-5.053-1.394-10.069,0.337-12.39,4.187c-2.125,3.523-1.909,6.197-0.682,9.5
						c1.359,3.655,4.85,6.288,8.979,6.674c0.066,0.009,0.131,0.012,0.197,0.018c5.066,0.634,9.25-2.688,9.25-2.688
						c1.237-0.827,2.28-1.877,3.178-3.032c-4.444-5.236-7.323-6.882-8.82-6.829c-1.92,0.064-2.457,1.223-2.069,2.094
						c0.452,1.012,0.582,1.387,0.562,1.366c-0.512-0.434-1.155-0.967-1.265-1.372c-0.381-1.381,1.138-3.052,2.748-2.773
						c3.571,0.618,9.295,6.899,9.305,6.911c2.064,2.156,7.984,7.92,13.284,9.148c6.544,1.526,9.512-5.911,8.006-12.389
						c-1.507-6.476-4.596-2.168-4.596-2.168c-6.317,3.195-10.581,0.588-13.18-2.529c0.46-1.716,2.023-6.551,3.551-11.824
						c-0.006-0.003-0.01-0.003-0.016-0.004C10.553,13.569,9.349,12.517,9.452,10.532z M3.391,9.696
						c-6.322,7.006-16.576-9.961,2.561-8.786L3.391,9.696z"/>
					<path fill="#FFFFFF" stroke="#000000" stroke-width="0.2338" d="M73.84-6.941c-0.882,1.657-12.065,7.945-19.856,6.713
						c-0.247-0.039-3.467-1.144-5.844-2.671c0,0,3.738,1.801,6.069,2.294l0,0c1.226,0.332,3.93,0.229,3.93,0.229
						c-0.807-2.746-2.146-4.225-2.982-4.923c-0.015-0.013-0.026-0.033-0.039-0.043c-0.025-0.018-0.047-0.031-0.075-0.05
						c-0.381-0.303-0.63-0.43-0.63-0.43v0.003c-5.076-3.256-8.721-1.26-9.144-1.022c-7.982,4.495-5.024,14.073,1.859,15.139
						c0,0,1.825,6.14,2.673,12.646c-3.469,1.913-4.346,0.419-4.243-1.85c0.117-2.602,1.515-6.205,1.757-6.815
						c0-0.034-0.006-0.067-0.009-0.097c-0.014-0.153-0.047-0.266-0.099-0.318c-5.249-5.319-5.795-2.119-5.795-2.119l-0.11,0.56
						c-3.164-1.504-5.854-1.267-7.995,0.279c-1.22,0.88-2.452,2.104-3.104,3.846c-1.768,4.745-0.997,7.416-0.859,7.596
						c0.452,0.708-3.519,3.431-4.743-0.037c-1.044-2.961,1.211-6.128,3.677-6.622c0.843-1.657,2.702-4.831,4.221-5.346
						c-1.174-3.096-3.831-8.656-6.556-2.941C22.42,14.47,14.608,8.896,14.608,8.896c4,1.937,4.852,1.595,4.852,1.595
						c-1.585-3.59-3.407-4.811-5.026-4.772c-0.449,0.01-0.881,0.112-1.289,0.292c-0.018,0.007-0.034,0.021-0.05,0.027
						c-1.516,0.699-2.676,2.41-2.988,3.934c-0.043,0.205-0.072,0.408-0.083,0.604c-0.103,1.986,1.1,3.036,2.144,3.576
						c0.006,0.001,0.01,0.006,0.016,0.009c0.103,0.053,0.205,0.103,0.304,0.146c0.63,0.278,1.136,0.365,1.136,0.365
						s-0.399,0.884,1.217,3.104c0.094,0.13,0.192,0.266,0.302,0.404c1.968,2.521,3.107-0.548,3.107-0.548l0.66-3.518
						c1.451-0.302,2.846-0.671,3.055-0.807c-1.249,0.922-3.966,3.509-2.463,8.469c2.108,6.955,10.063,4.442,12.053,3.66
						c0.001,0.012,0.003,0.021-0.001,0.027c2.878,2.826,7.403,3.181,10.595,0.343c-0.837-0.985-0.371-2.719-0.371-2.719
						c0.151,1.646,0.811,2.284,1.154,2.511c1.892,1.105,5.336,0.229,7.255-0.405c0.24,5.384-0.646,10.131-4.336,10.798
						c-1.831,0.336-0.407,2.389,1.567,2.318c6.994-0.244,11.333-4.456,10.228-17.27c-0.114-1.306,2.123,0.33,3.856-1.288
						c0.141-0.133-0.84-4.779-1.138-4.727c-0.459,0.082-2.056,0.296-2.386-0.378c-0.889-1.837-0.064-6.128,0.137-6.179
						c1.6-0.417,7.1,0.5,12.179,0.703c0.439-0.279,0.711-0.476,0.877-0.792c0.498-0.934,1.649-0.607,2.721,0.583
						c2.658-0.226,4.97-0.657,5.728-2.327C81.839,1.742,75.661-10.364,73.84-6.941z M36.607,22.423
						c-1.033-0.151-3.004-2.612-1.73-5.737c1.635-4.008,5.067-2.75,5.067-2.75C42.209,15.48,39.885,22.896,36.607,22.423z"/>
				</g>
			</g>
		</g>
		<g>
			<g>
				<g>
					<path fill="#FFFFFF" d="M113.607,33.706c-1.117-0.085-1.96-1.07-1.873-2.187c0.085-1.117,1.064-1.932,2.182-1.847
						c1.12,0.086,1.938,1.041,1.849,2.159C115.679,32.946,114.721,33.792,113.607,33.706z"/>
					<path fill="none" stroke="#000000" stroke-width="0.2338" d="M113.607,33.706c-1.117-0.085-1.96-1.07-1.873-2.187
						c0.085-1.117,1.064-1.932,2.182-1.847c1.12,0.086,1.938,1.041,1.849,2.159C115.679,32.946,114.721,33.792,113.607,33.706z"/>
				</g>
			</g>
		</g>
	</g>
</g>
</svg>
