<?xml version="1.0" encoding="utf-8"?>
<!-- Generator: Adobe Illustrator 16.0.0, SVG Export Plug-In . SVG Version: 6.00 Build 0)  -->
<!DOCTYPE svg PUBLIC "-//W3C//DTD SVG 1.1//EN" "http://www.w3.org/Graphics/SVG/1.1/DTD/svg11.dtd">
<svg version="1.1" id="Layer_1" xmlns="http://www.w3.org/2000/svg" xmlns:xlink="http://www.w3.org/1999/xlink" x="0px" y="0px"
	 width="92.738px" height="36.51px" viewBox="0 0 92.738 36.51" enable-background="new 0 0 92.738 36.51" xml:space="preserve">
<g>
	<g>
		<path d="M84.072,17.182c-1.197-0.591-2.459-1.625-3.186-2.568l0.029-0.071c0.76-1.88,0.604-3.502-0.43-4.45
			c-0.574-0.526-1.379-0.828-2.205-0.828c-1.229,0-2.791,0.718-3.154,2.75c-0.186,1.161,0.23,2.325,0.533,3.175
			c0.127,0.36,0.248,0.7,0.26,0.871c0.053,0.891-0.463,1.635-1.578,2.274c-0.34,0.196-0.725,0.354-1.166,0.48
			c-0.16-2.979-1.617-5.281-3.758-5.906c-1.729-0.504-3.686,0.163-5.307,1.759l-0.039-0.083c-0.201-0.425-0.479-0.84-0.801-1.196
			c-0.049-0.053-0.113-0.12-0.184-0.191c1.592-0.157,3.242-0.482,3.834-1.788c1.053-2.316-0.395-6.4-1.703-8.431
			c-0.715-1.109-1.395-1.672-2.02-1.672c-0.23,0-0.666,0.084-0.965,0.648c-0.389,0.728-5.186,3.561-9.678,4.201
			c-0.559-1.724-1.416-2.711-2.008-3.201l-0.131-0.115c-0.282-0.225-0.479-0.327-0.5-0.338v0c-1.335-0.847-2.682-1.277-4.005-1.277
			c-1.305,0-2.201,0.426-2.525,0.609c-2.548,1.435-3.796,3.798-3.338,6.324c0.417,2.298,2.181,4.103,4.436,4.576
			c0.071,0.253,0.186,0.671,0.326,1.215c-1.245-1.186-2.225-1.764-2.987-1.764c-0.702,0-1.052,0.467-1.184,0.821
			c-1.88-0.746-3.625-0.626-5.08,0.334l-0.013-0.034c-0.998-2.63-2.025-3.908-3.141-3.908c-0.79,0-1.471,0.626-2.085,1.914
			c-0.763,1.601-1.974,2.366-3.472,2.279c-1.18-2.668-2.528-3.357-3.569-3.436c0.2-0.814,0.425-1.603,0.631-2.301
			c0.521-1.778,0.866-2.953,0.523-3.651c-1.213-2.47-7.836-3.341-8.588-3.433c-0.555-0.067-1.113-0.101-1.658-0.101
			c-6.528,0-10.71,4.675-11.33,9.075c-0.489,3.477,1.164,7.817,7.273,9.574c1.425,0.408,3.218,0.164,4.121-0.132
			c-0.113,0.327-0.284,0.745-0.464,1.146l-3.166-0.782c-0.806-0.222-1.626-0.334-2.437-0.334c-2.711,0-5.082,1.247-6.341,3.335
			c-1.537,2.549-1.309,4.533-0.492,6.732c0.972,2.611,3.474,4.475,6.361,4.746l0.131,0.012c3.53,0.447,6.403-1.805,6.479-1.865
			c0.803-0.539,1.525-1.225,2.206-2.098c1.732,1.752,5.357,5.061,8.7,5.836c0.416,0.098,0.826,0.145,1.218,0.145
			c1.368,0,2.559-0.588,3.444-1.701c1.372-1.729,1.856-4.576,1.233-7.258c-0.239-1.029-0.57-1.762-0.984-2.211
			c0.242,0.025,0.487,0.047,0.748,0.047c1.43,0,2.76-0.395,3.471-0.65c1.064,0.955,2.404,1.475,3.802,1.475
			c1.364,0,2.639-0.492,3.687-1.424l0.047-0.043c0.461,0.248,1.052,0.375,1.757,0.375c0.941,0,1.963-0.223,2.79-0.461
			c0.078,3.734-0.771,5.787-2.524,6.105c-0.753,0.137-0.981,0.625-0.944,1.037c0.069,0.764,1.006,1.434,2.005,1.434h0.083
			c2.345-0.084,4.08-0.795,5.305-2.178c1.702-1.92,2.346-5.086,1.969-9.695c0.066,0.002,0.137,0.006,0.213,0.012
			c0.135,0.008,0.283,0.018,0.439,0.018c0.447,0,1.105-0.072,1.709-0.607c0,0,0,0.002,0,0.004c0.576,3.023,0.539,5.203-0.102,6.137
			c-0.188,0.273-0.426,0.434-0.729,0.488c-0.52,0.094-0.725,0.469-0.695,0.799c0.049,0.535,0.656,0.988,1.326,0.988h0.051
			c1.365-0.049,2.381-0.469,3.102-1.285c0.961-1.086,1.34-2.836,1.16-5.344h0.064c0.312,0,0.896,0,1.367-0.438
			c0.396-0.369,0.865-1.234,1.014-1.742c-0.447,1.908-0.41,3.82,0.121,5.447c0.613,1.873,1.799,3.152,3.34,3.604
			c0.389,0.113,0.793,0.17,1.201,0.17c2.74,0,5.51-2.59,6.691-6.211c0.096,0.008,0.191,0.018,0.283,0.025
			c0.381,0.037,0.701,0.096,1.195-0.029c-0.316,1.176-0.062,2.561,0.729,3.83c1.195,1.914,3.242,3.057,5.477,3.057l0,0
			c0.709,0,1.436-0.115,2.158-0.344c4.164-1.314,4.988-4.152,5.111-5.729C87.766,21.096,86.266,18.266,84.072,17.182z
			 M53.602,16.347c-0.006,0-0.01,0-0.014,0c-0.121,0.021-0.369,0.058-0.629,0.058c-0.303,0-0.439-0.053-0.455-0.053h-0.002
			c-0.41-0.849-0.15-2.841,0.01-3.496c0.115-0.012,0.27-0.021,0.482-0.021c0.756,0,1.857,0.104,3.131,0.225
			c1.236,0.117,2.631,0.247,3.986,0.307c-0.584,0.335-1.629,0.397-3.068,0.169c-0.551-0.122-0.998-0.147-1.275-0.147
			c-1.213,0-1.771,0.473-2.027,0.871c-0.338,0.526-0.375,1.224-0.121,2.091C53.611,16.35,53.607,16.347,53.602,16.347z
			 M44.275,19.541c0.058-1.302,0.625-3.013,0.948-3.89c0.317,1.384,0.662,3.088,0.903,4.84c-1.288,0.639-1.503,0.354-1.612,0.24
			C44.334,20.541,44.25,20.119,44.275,19.541z M32.53,21.555c-0.166,0.199-0.708,0.572-1.26,0.572c-0.461,0-0.782-0.273-0.98-0.836
			c-0.265-0.75-0.172-1.583,0.26-2.344c0.429-0.755,1.134-1.312,1.84-1.454l0.221-0.044l0.103-0.201
			c0.075-0.147,0.152-0.294,0.233-0.441C32.137,19.273,32.318,20.979,32.53,21.555z M37.126,18.091
			c0.451-1.105,1.165-1.666,2.122-1.666c0.281,0,0.505,0.051,0.604,0.08c0.411,0.351,0.468,1.415,0.125,2.525
			c-0.434,1.408-1.275,2.357-2.064,2.242c-0.112-0.016-0.427-0.232-0.684-0.682C36.984,20.164,36.646,19.27,37.126,18.091z
			 M17.427,7.406l-1.706,5.852C11.511,17.924,4.681,6.623,17.427,7.406z M79.207,25.549c0.352-0.111,0.654-0.301,0.896-0.566
			c0.357-0.395,0.555-0.939,0.555-1.535c0-1.229-0.816-2.492-2.232-2.947c0.508-0.457,0.834-0.991,1.033-1.402
			c1.08,0.955,3.336,3.083,3.146,4.765c-0.072,0.65-0.518,1.188-1.357,1.639C80.207,26.061,79.566,26,79.207,25.549z M67.775,22.715
			c-0.549,1.219-1.197,1.777-1.582,1.777c-0.002,0-0.004,0-0.006,0c-0.324-0.082-0.646-0.898-0.555-2.266
			C66.07,22.398,66.744,22.578,67.775,22.715z M68.547,18.979c-0.785-0.107-1.447-0.248-1.873-0.349
			c0.459-0.811,0.951-1.232,1.246-1.232l0.062,0.007C68.248,17.473,68.508,18.038,68.547,18.979z M27.304,25.393
			c-3.092,1.527-5.793,1.033-7.956-1.43c0.158-0.557,0.425-1.428,0.755-2.5c0.411-1.34,0.918-2.995,1.427-4.735
			c0.021,0.01,0.043,0.021,0.063,0.03c0.167,0.073,0.323,0.128,0.455,0.17c0.039,0.415,0.248,1.06,0.922,1.986
			c0.067,0.093,0.136,0.188,0.211,0.282c0.436,0.559,0.896,0.842,1.368,0.842c0.518,0,0.894-0.331,1.145-0.674
			c-0.011,0.619,0.079,1.309,0.311,2.077c0.442,1.459,1.294,2.475,2.501,3.021C27.925,24.678,27.479,25.172,27.304,25.393z
			 M44.979,32.311C44.979,32.311,44.979,32.311,44.979,32.311v0.008V32.311z M54.498,28.279L54.498,28.279v0.004V28.279z
			 M61.289,19.814l0.029-0.256l-0.141-0.175c-0.189-0.238-0.533-0.271-0.875-0.271c-0.475,0-1.08,0.076-1.357,0.118
			c-0.1-0.326-0.104-1.124-0.061-1.574c0.299,0.014,0.709,0.097,1.145,0.185c0.557,0.112,1.188,0.239,1.787,0.264l0.029,0.001
			c-0.168,0.41-0.312,0.804-0.426,1.193C61.371,19.471,61.33,19.642,61.289,19.814z"/>
		<path d="M89.342,26.564c-0.744-0.057-1.398,0.488-1.455,1.23c-0.057,0.744,0.506,1.4,1.25,1.459
			c0.742,0.055,1.381-0.508,1.438-1.252C90.631,27.26,90.086,26.623,89.342,26.564z"/>
	</g>
	<g>
		<g>
			<g>
				<g>
					<path fill="#FFFFFF" stroke="#000000" stroke-width="0.2338" d="M83.562,14.08"/>
				</g>
				<polygon fill="#FFFFFF" stroke="#000000" stroke-width="0.2338" points="53.869,8.223 53.869,8.223 53.869,8.223 				"/>
				<path fill="#FFFFFF" stroke="#000000" stroke-width="0.2338" d="M65.074,14.23c-0.186-0.394-0.441-0.769-0.727-1.083
					c-0.713-0.794-1.594-1.206-1.926-0.584c-0.111,0.212-0.285,0.435-0.578,0.62c-0.557,0.351-1.557,0.559-3.451,0.26
					c-0.092-0.015-4.5-1.133-2.541,3.16c0,0,0.033,0.117,0.088,0.316c0.137,0.497,0.41,1.54,0.643,2.777
					c0.549,2.883,0.885,6.793-1.207,7.174c-0.678,0.121-0.15,0.883,0.582,0.857c2.594-0.094,4.201-1.652,3.791-6.4
					c-0.043-0.484,0.959,0.057,1.6-0.541c0.338-0.314,0.814-1.189,0.906-1.603c0.068-0.316-1.725-0.065-1.99-0.018
					c-0.633,0.11-0.443-2.474-0.34-2.499c0.646-0.17,2.088,0.367,3.336,0.417C63.734,15.974,64.359,15.007,65.074,14.23z"/>
				<path fill="#FFFFFF" stroke="#000000" stroke-width="0.2338" d="M85.291,17.046c-1.543-0.761-3.229-2.242-3.824-3.446
					c-0.82-1.653-0.611-1.404-0.611-1.404s1.033,1.665,1.053,1.617c0.654-1.617,0.605-3.088-0.312-3.93
					c-1.355-1.241-4.119-0.938-4.58,1.652c-0.254,1.571,0.752,3.234,0.795,3.944c0.055,0.91-0.352,1.871-1.811,2.707
					c-0.557,0.321-1.186,0.528-1.842,0.663c-0.07-0.029-1.051,0.129-1.52,0.183c-0.084,0.003-0.164,0.005-0.248,0.008
					c0.035-0.085,1.756-0.404,1.754-0.484c-0.074-2.826-1.348-5.144-3.434-5.752c-1.734-0.507-3.631,0.291-5.133,1.922
					c-0.717,0.778-1.34,1.744-1.816,2.853c-0.176,0.415-0.336,0.845-0.469,1.297c-1.227,4.191,0.109,8.273,2.98,9.113
					c2.871,0.838,6.193-1.879,7.42-6.072c0.895-0.006,1.6,0.322,2.383-0.332c0.174-0.947,1.566-1.762,2.898-1.576
					c1.322-0.763,1.717-2.255,1.717-2.255c0.951,0.854,6.508,5.298,2.201,7.604c-2.098,1.125-2.613-0.045-2.936-0.525
					c-0.027-0.041-1.492-0.17-1.512-0.201c-0.039-0.072,1.275,0.002,1.275,0.002c3.01,0.16,2.363-4.747-1.438-4.377
					c-0.111,0.01-1.357-0.037-2.113,1.709c-1.471,3.004,2.293,8.189,7.566,6.525C90.809,26.258,88.947,18.853,85.291,17.046z
					 M67.498,24.391c-0.779-0.197-1.1-1.674-0.826-3.48c0.018,0.025,0.473,0.58,3.191,0.855
					C69.246,23.461,68.27,24.586,67.498,24.391z M67.773,18.477c-0.064-0.017-0.35-0.096-0.355-0.097
					c0.611-1.327,1.434-2.152,2.105-1.983c0.639,0.164,0.971,1.191,0.914,2.555C69.264,18.826,68.277,18.604,67.773,18.477z"/>
			</g>
			<g>
				<g>
					<path fill="#FFFFFF" stroke="#000000" stroke-width="0.2338" d="M29.517,15.109C29.378,15.2,29.588,15.482,29.517,15.109
						L29.517,15.109z"/>
					<path fill="#FFFFFF" stroke="#000000" stroke-width="0.2338" d="M21.183,13.26c0.007-0.13,0.027-0.266,0.054-0.403
						c0.209-1.016,0.853-2.235,1.862-2.702c0.012-0.004,0.777-0.357,1.075-0.364c0.645-2.765,1.662-5.128,1.266-5.937
						c-1.091-2.222-7.659-3.105-8.224-3.174C5.085-0.787-0.968,14.678,11.687,18.315c2.187,0.629,4.222-0.249,4.32-0.312
						c0.847-0.552-0.531,2.321-0.531,2.321l-3.551-0.876c-3.367-0.928-6.707,0.225-8.253,2.79c-1.415,2.346-1.272,4.127-0.454,6.328
						c0.905,2.434,3.23,4.188,5.981,4.445c0.044,0.006,0.087,0.008,0.131,0.012c3.375,0.422,6.161-1.791,6.161-1.791
						c0.824-0.551,1.519-1.25,2.117-2.02c-2.96-3.488-4.878-4.584-5.875-4.549c-1.279,0.043-1.637,0.814-1.378,1.395
						c0.301,0.674,0.388,0.924,0.374,0.91c-0.341-0.289-0.769-0.645-0.843-0.914c-0.253-0.92,0.758-2.033,1.831-1.848
						c2.378,0.412,6.191,4.596,6.198,4.604c1.375,1.436,5.318,5.275,8.848,6.094c4.36,1.016,6.336-3.938,5.333-8.252
						c-1.003-4.314-3.061-1.445-3.061-1.445c-4.208,2.129-7.048,0.391-8.779-1.684c0.306-1.143,1.347-4.364,2.365-7.877
						c-0.004-0.002-0.007-0.002-0.011-0.003C21.917,15.283,21.115,14.582,21.183,13.26z M17.146,12.703
						c-4.211,4.667-11.041-6.635,1.706-5.852L17.146,12.703z"/>
					<path fill="#FFFFFF" stroke="#000000" stroke-width="0.2338" d="M64.072,1.621c-0.588,1.104-8.037,5.292-13.227,4.472
						c-0.165-0.026-2.309-0.762-3.892-1.779c0,0,2.49,1.199,4.043,1.528v0c0.816,0.221,2.617,0.152,2.617,0.152
						c-0.537-1.829-1.43-2.814-1.986-3.279c-0.01-0.009-0.018-0.022-0.027-0.029c-0.016-0.012-0.031-0.021-0.049-0.033
						c-0.254-0.202-0.42-0.287-0.42-0.287v0.002c-3.381-2.169-5.809-0.839-6.09-0.681c-5.318,2.994-3.347,9.374,1.238,10.084
						c0,0,1.216,4.09,1.78,8.423c-2.31,1.275-2.894,0.279-2.826-1.231c0.078-1.734,1.009-4.134,1.17-4.54
						c0-0.023-0.004-0.045-0.006-0.065c-0.009-0.102-0.031-0.177-0.065-0.212c-3.496-3.543-3.861-1.411-3.861-1.411l-0.073,0.373
						c-2.107-1.002-3.899-0.844-5.325,0.186c-0.812,0.586-1.633,1.402-2.067,2.562c-1.178,3.16-0.664,4.94-0.573,5.06
						c0.301,0.471-2.343,2.285-3.159-0.025c-0.695-1.972,0.807-4.082,2.449-4.411c0.562-1.104,1.8-3.218,2.812-3.561
						c-0.782-2.062-2.552-5.766-4.367-1.959c-2.347,4.923-7.55,1.21-7.55,1.21c2.664,1.29,3.231,1.062,3.231,1.062
						c-1.055-2.391-2.269-3.204-3.347-3.179c-0.299,0.007-0.587,0.075-0.859,0.195c-0.011,0.005-0.022,0.014-0.033,0.018
						c-1.01,0.466-1.782,1.605-1.99,2.62c-0.028,0.137-0.048,0.272-0.055,0.403c-0.068,1.323,0.733,2.022,1.428,2.382
						c0.004,0.001,0.007,0.004,0.011,0.006c0.068,0.035,0.136,0.068,0.202,0.097c0.42,0.185,0.757,0.243,0.757,0.243
						s-0.266,0.589,0.81,2.068c0.063,0.087,0.128,0.177,0.201,0.269c1.311,1.679,2.07-0.365,2.07-0.365l0.439-2.343
						c0.967-0.201,1.896-0.447,2.035-0.537c-0.832,0.614-2.641,2.337-1.64,5.641c1.404,4.633,6.703,2.959,8.028,2.438
						c0.001,0.008,0.002,0.014-0.001,0.018c1.917,1.883,4.932,2.119,7.058,0.229c-0.558-0.656-0.247-1.811-0.247-1.811
						c0.1,1.096,0.54,1.521,0.768,1.672c1.26,0.736,3.554,0.152,4.832-0.27c0.16,3.586-0.43,6.748-2.888,7.193
						c-1.219,0.223-0.271,1.59,1.044,1.543c4.659-0.162,7.549-2.967,6.813-11.502c-0.076-0.871,1.414,0.219,2.568-0.859
						c0.094-0.087-0.559-3.183-0.758-3.148c-0.305,0.054-1.369,0.197-1.588-0.252c-0.592-1.224-0.043-4.082,0.09-4.116
						c1.066-0.278,4.73,0.333,8.113,0.468c0.293-0.186,0.473-0.317,0.584-0.528c0.332-0.622,1.098-0.404,1.812,0.389
						c1.771-0.151,3.311-0.438,3.816-1.55C69.4,7.405,65.285-0.659,64.072,1.621z M39.271,21.18c-0.688-0.1-2.001-1.739-1.152-3.821
						c1.089-2.67,3.375-1.832,3.375-1.832C43.003,16.556,41.455,21.496,39.271,21.18z"/>
				</g>
			</g>
		</g>
		<g>
			<g>
				<g>
					<path fill="#FFFFFF" d="M90.561,28.697c-0.744-0.057-1.305-0.713-1.248-1.457s0.709-1.287,1.453-1.23
						c0.746,0.057,1.291,0.693,1.232,1.438C91.941,28.191,91.303,28.754,90.561,28.697z"/>
					<path fill="none" stroke="#000000" stroke-width="0.2338" d="M90.561,28.697c-0.744-0.057-1.305-0.713-1.248-1.457
						s0.709-1.287,1.453-1.23c0.746,0.057,1.291,0.693,1.232,1.438C91.941,28.191,91.303,28.754,90.561,28.697z"/>
				</g>
			</g>
		</g>
	</g>
</g>
</svg>
