<?xml version="1.0" encoding="utf-8"?>
<!-- Generator: Adobe Illustrator 16.0.0, SVG Export Plug-In . SVG Version: 6.00 Build 0)  -->
<!DOCTYPE svg PUBLIC "-//W3C//DTD SVG 1.1//EN" "http://www.w3.org/Graphics/SVG/1.1/DTD/svg11.dtd">
<svg version="1.1" id="Layer_1" xmlns="http://www.w3.org/2000/svg" xmlns:xlink="http://www.w3.org/1999/xlink" x="0px" y="0px"
	 width="800px" height="290.568px" viewBox="0 0 800 290.568" enable-background="new 0 0 800 290.568" xml:space="preserve">
<g>
	<g>
		<g>
			<path fill="#FFFFFF" d="M246.42,133.006C254.082,130.282,251.359,129.348,246.42,133.006L246.42,133.006z"/>
			<g>
				<path fill="#FFFFFF" d="M668.547,131.683c-0.245-0.064-0.424-0.054-0.424-0.054S668.281,131.652,668.547,131.683z"/>
				<path fill="#FFFFFF" d="M643.567,116.524"/>
			</g>
			<g>
				<path fill="#FFFFFF" d="M385.151,134.297c0.122-0.293,0.204-0.495,0.204-0.495s-0.094-0.007-0.244-0.016
					C385.123,133.952,385.146,134.113,385.151,134.297z"/>
			</g>
			<g>
				<path fill="#FFFFFF" d="M285.304,144.427l-0.005,0.014C285.299,144.438,285.304,144.433,285.304,144.427L285.304,144.427z"/>
				<g>
					<path fill="#FFFFFF" d="M243.101,133.193C242.038,133.891,243.645,136.065,243.101,133.193L243.101,133.193z"/>
				</g>
			</g>
			<path fill="#FFFFFF" d="M243.101,133.193C242.038,133.891,243.645,136.065,243.101,133.193L243.101,133.193z"/>
			<g>
				<path fill="#FFFFFF" d="M160.651,76.354c0,0-0.041-0.033-0.058-0.054c0.03,0.033,0.058,0.065,0.086,0.102
					C160.669,76.383,160.664,76.371,160.651,76.354z"/>
			</g>
			<path fill="#FFFFFF" d="M222.917,125.615C221.852,126.313,223.462,128.485,222.917,125.615L222.917,125.615z"/>
			<polygon fill="#FFFFFF" points="414.736,71.385 414.736,71.385 414.736,71.385 			"/>
			<path fill="#FFFFFF" d="M501.095,117.681c-1.438-3.038-3.411-5.925-5.596-8.35c-5.508-6.121-12.292-9.29-14.844-4.5
				c-0.865,1.635-2.203,3.354-4.459,4.773c-4.304,2.707-12.009,4.308-26.605,2.007c-0.708-0.11-34.676-8.73-19.589,24.352
				c0,0,0.266,0.901,0.687,2.437c1.057,3.838,3.156,11.873,4.965,21.404c4.211,22.223,6.801,52.356-9.313,55.281
				c-5.225,0.945-1.161,6.81,4.483,6.614c19.983-0.713,32.381-12.73,29.214-49.326c-0.326-3.743,7.384,0.444,12.335-4.172
				c2.6-2.432,6.266-9.168,6.972-12.352c0.546-2.437-13.285-0.504-15.323-0.141c-4.882,0.854-3.416-19.062-2.636-19.261
				c4.997-1.309,16.1,2.826,25.722,3.219C490.768,131.12,495.58,123.678,501.095,117.681z"/>
			<path fill="#FFFFFF" d="M656.894,139.39c-11.891-5.866-24.869-17.281-29.469-26.565c-6.313-12.735-4.7-10.822-4.7-10.822
				s7.962,12.832,8.106,12.467c5.034-12.47,4.662-23.804-2.415-30.29c-10.441-9.56-31.743-7.223-35.299,12.73
				c-1.951,12.112,5.798,24.933,6.134,30.392c0.421,7.015-2.712,14.418-13.953,20.868c-4.293,2.468-9.146,4.077-14.202,5.108
				c-0.542-0.221-8.085,0.996-11.716,1.414c-0.629,0.03-1.262,0.046-1.899,0.057c0.255-0.654,13.529-3.116,13.518-3.727
				c-0.572-21.787-10.389-39.641-26.455-44.336c-13.374-3.91-27.997,2.241-39.575,14.814c-5.512,5.997-10.33,13.442-13.985,21.99
				c-1.362,3.194-2.603,6.517-3.621,9.991c-9.452,32.309,0.834,63.759,22.964,70.234c22.13,6.467,47.735-14.487,57.187-46.803
				c6.904-0.035,12.343,2.479,18.365-2.554c1.343-7.304,12.088-13.584,22.344-12.15c10.188-5.878,13.233-17.375,13.233-17.375
				c7.333,6.592,50.157,40.84,16.97,58.616c-16.169,8.663-20.148-0.353-22.62-4.065c-0.215-0.307-11.521-1.306-11.659-1.541
				c-0.307-0.551,9.827,0.011,9.827,0.011c23.185,1.235,18.222-36.573-11.078-33.729c-0.863,0.081-10.466-0.285-16.281,13.163
				c-11.345,23.174,17.66,63.118,58.293,50.295C699.426,210.376,685.081,153.313,656.894,139.39z M519.767,195.995
				c-6.011-1.522-8.473-12.907-6.367-26.819c0.142,0.185,3.632,4.465,24.605,6.578C533.23,188.819,525.719,197.502,519.767,195.995z
				 M521.897,150.408c-0.5-0.13-2.701-0.729-2.739-0.737c4.701-10.228,11.044-16.588,16.217-15.281
				c4.934,1.253,7.477,9.18,7.054,19.688C533.383,153.112,525.765,151.399,521.897,150.408z"/>
		</g>
		<g>
			<path fill="#FFFFFF" d="M58.508,252.343c0.153,0.138,0.263,0.23,0.263,0.23C58.678,252.501,58.598,252.424,58.508,252.343z"/>
			<g>
				<path fill="#FFFFFF" d="M227.046,124.459C225.978,125.158,227.592,127.331,227.046,124.459L227.046,124.459z"/>
				<path fill="#FFFFFF" d="M162.812,110.206c0.053-1.008,0.202-2.05,0.417-3.104c1.611-7.824,7.559-16.604,15.342-20.194
					c0.087-0.041,0.168-0.099,0.255-0.14c2.091-0.931,4.315-1.448,6.614-1.5c4.975-21.305,13.24-41.32,10.182-47.543
					c-8.41-17.129-59.033-23.938-63.384-24.464C38.749,1.95-7.907,121.136,89.625,149.171c16.854,4.85,32.541-1.916,33.296-2.409
					c6.525-4.251-4.09,17.89-4.09,17.89l-27.37-6.758c-25.95-7.151-51.689,1.748-63.61,21.503
					c-10.91,18.089-9.806,31.827-3.504,48.772c6.977,18.765,24.899,32.275,46.101,34.262c0.339,0.046,0.667,0.06,1.01,0.101
					c26.009,3.243,47.485-13.809,47.485-13.809c6.347-4.25,11.703-9.626,16.313-15.578c-22.808-26.874-38.199-32.933-45.804-34.02
					c-3.672-0.535-5.53,0.103-5.53,0.103c-13.127,8.207,1.168,18.55,2.271,19.564c0.069,0.063-5.111-2.781-5.23-2.89
					c-11.634-9.871,1.697-19.172,1.697-19.172c15.665-10.997,54.898,33.252,54.958,33.325
					c10.599,11.062,40.993,40.653,68.191,46.976c33.603,7.819,48.834-30.353,41.104-63.615
					c-7.727-33.26-23.585-11.135-23.585-11.135c-32.426,16.406-54.318,3.009-67.663-12.968c2.354-8.81,10.385-33.637,18.232-60.707
					c-0.028-0.012-0.052-0.023-0.082-0.038C168.465,125.804,162.291,120.394,162.812,110.206z M131.706,105.909
					c-32.457,35.972-85.091-51.135,13.141-45.094L131.706,105.909z"/>
				<path fill="#FFFFFF" d="M493.363,20.5c-4.53,8.508-61.942,40.784-101.931,34.469c-1.276-0.199-17.806-5.87-30.003-13.712
					c0,0,19.199,9.241,31.165,11.78v0.004c6.275,1.699,20.161,1.167,20.161,1.167c-4.124-14.098-11.014-21.688-15.301-25.271
					c-0.076-0.069-0.137-0.173-0.214-0.23c-0.122-0.086-0.247-0.163-0.372-0.255c-1.954-1.558-3.243-2.207-3.243-2.207v0.018
					c-26.056-16.724-44.768-6.47-46.932-5.25c-40.985,23.083-25.799,72.254,9.536,77.726c0,0,9.367,31.52,13.718,64.917
					c-17.795,9.828-22.295,2.16-21.777-9.485c0.6-13.366,7.77-31.861,9.02-34.984c-0.005-0.188-0.025-0.351-0.043-0.512
					c-0.078-0.785-0.24-1.361-0.512-1.636c-26.938-27.312-29.752-10.874-29.752-10.874l-0.562,2.872
					c-16.239-7.723-30.049-6.506-41.042,1.434c-6.259,4.52-12.589,10.805-15.93,19.752c-9.081,24.342-5.114,38.066-4.419,39
					c2.32,3.612-18.052,17.606-24.342-0.203c-5.363-15.195,6.218-31.458,18.875-34.001c4.338-8.508,13.871-24.8,21.667-27.441
					c-6.026-15.886-19.663-44.434-33.649-15.104c-18.087,37.946-58.194,9.33-58.194,9.33c20.526,9.938,24.898,8.184,24.898,8.184
					c-8.128-18.424-17.482-24.692-25.795-24.493c-2.3,0.053-4.524,0.574-6.614,1.503c-0.091,0.039-0.168,0.102-0.257,0.137
					c-7.781,3.593-13.733,12.371-15.339,20.195c-0.214,1.054-0.365,2.097-0.417,3.104c-0.525,10.194,5.652,15.597,11.003,18.363
					c0.028,0.015,0.052,0.025,0.08,0.038c0.528,0.277,1.055,0.532,1.559,0.753c3.239,1.424,5.831,1.875,5.831,1.875
					s-2.041,4.535,6.25,15.94c0.485,0.67,0.989,1.354,1.545,2.065c10.107,12.933,15.956-2.814,15.956-2.814l3.377-18.052
					c7.457-1.553,12.467-3.004,15.683-4.142c0.546,2.872-1.068,0.699,0,0c-6.405,4.731-20.353,18.014-12.643,43.471
					c10.824,35.717,51.67,22.809,61.878,18.795c0.005,0.051,0.014,0.108-0.013,0.122c14.775,14.517,38.017,16.343,54.398,1.764
					c-4.3-5.062-1.908-13.943-1.908-13.943c0.776,8.437,4.16,11.721,5.919,12.885c9.712,5.675,27.388,1.175,37.24-2.079
					c1.239,27.626-3.313,52.009-22.263,55.437c-9.392,1.71-2.094,12.25,8.05,11.89c35.914-1.262,58.188-22.865,52.501-88.639
					c-0.581-6.717,10.91,1.681,19.805-6.622c0.727-0.681-4.299-24.54-5.842-24.264c-2.355,0.41-10.557,1.514-12.231-1.949
					c-4.563-9.432-0.337-31.457,0.689-31.724c8.213-2.146,36.452,2.566,62.533,3.604c2.258-1.425,3.637-2.441,4.499-4.066
					c2.555-4.795,8.454-3.116,13.964,3c13.662-1.17,25.517-3.37,29.414-11.95C534.425,65.084,502.715,2.934,493.363,20.5z
					 M302.219,171.235c-5.306-0.763-15.426-13.388-8.884-29.433c8.4-20.58,26.012-14.121,26.012-14.121
					C330.983,135.607,319.045,173.691,302.219,171.235z"/>
			</g>
		</g>
	</g>
	<g>
		<g>
			<g>
				<path fill="#FFFFFF" d="M697.511,229.182c-5.735-0.439-10.062-5.496-9.621-11.226c0.442-5.731,5.479-9.924,11.214-9.484
					c5.732,0.438,9.938,5.352,9.499,11.078C708.16,225.279,703.236,229.622,697.511,229.182z M698.058,203.14
					c-2.742-0.211-4.479-2.576-3.859-5.255l22.37-96.771c0.619-2.679,3.368-4.689,6.109-4.467l36.638,2.974
					c2.741,0.223,3.983,2.42,2.762,4.884L714.83,199.78c-1.222,2.464-4.465,4.307-7.207,4.096L698.058,203.14z"/>
			</g>
		</g>
	</g>
	<g>
		<g>
			<g>
				<path fill="#FFFFFF" d="M731.125,225.868c-3.84-0.491-6.592-4.03-6.093-7.876c0.487-3.841,4.02-6.492,7.865-6.007
					c3.832,0.486,6.503,3.933,6.012,7.779C738.421,223.604,734.964,226.356,731.125,225.868z M733.982,208.57
					c-2.728-0.347-4.345-2.795-3.593-5.44l17.397-61.215c0.752-2.646,3.598-4.517,6.324-4.158l21.318,2.8
					c2.727,0.358,3.858,2.615,2.516,5.015l-33.381,59.671c-1.343,2.399-4.674,4.079-7.401,3.732L733.982,208.57z"/>
			</g>
		</g>
	</g>
</g>
</svg>
