<?xml version="1.0" encoding="utf-8"?>
<!-- Generator: Adobe Illustrator 16.0.0, SVG Export Plug-In . SVG Version: 6.00 Build 0)  -->
<!DOCTYPE svg PUBLIC "-//W3C//DTD SVG 1.1//EN" "http://www.w3.org/Graphics/SVG/1.1/DTD/svg11.dtd">
<svg version="1.1" id="Layer_1" xmlns="http://www.w3.org/2000/svg" xmlns:xlink="http://www.w3.org/1999/xlink" x="0px" y="0px"
	 width="202.75px" height="82px" viewBox="-54.381 -23.245 202.75 82" enable-background="new -54.381 -23.245 202.75 82"
	 xml:space="preserve">
<g>
	<g>
		<path d="M129.435,15.266c-2.616-1.292-5.375-3.552-6.963-5.612l0.063-0.156c1.661-4.109,1.321-7.655-0.939-9.728
			c-1.256-1.149-3.015-1.809-4.821-1.809c-2.688,0-6.1,1.569-6.895,6.011c-0.404,2.537,0.505,5.082,1.167,6.94
			c0.276,0.786,0.541,1.531,0.566,1.904c0.119,1.948-1.01,3.573-3.449,4.97c-0.742,0.429-1.584,0.773-2.548,1.05
			c-0.349-6.512-3.533-11.543-8.215-12.91c-3.777-1.103-8.057,0.355-11.6,3.845L85.716,9.59c-0.438-0.929-1.048-1.837-1.749-2.614
			c-0.107-0.117-0.248-0.262-0.404-0.418c3.482-0.343,7.086-1.054,8.381-3.909c2.304-5.063-0.861-13.99-3.723-18.429
			c-1.563-2.423-3.049-3.654-4.415-3.654c-0.504,0-1.456,0.183-2.109,1.416c-0.852,1.591-11.336,7.784-21.154,9.183
			c-1.223-3.768-3.094-5.927-4.391-6.998l-0.286-0.251c-0.617-0.492-1.045-0.714-1.092-0.739l0,0
			c-2.92-1.852-5.863-2.792-8.756-2.792c-2.852,0-4.812,0.931-5.521,1.331c-5.569,3.137-8.297,8.302-7.296,13.825
			c0.912,5.022,4.769,8.968,9.698,10.001c0.156,0.553,0.405,1.467,0.713,2.657c-2.722-2.593-4.865-3.856-6.53-3.856
			c-1.535,0-2.299,1.021-2.587,1.794c-4.112-1.631-7.924-1.369-11.104,0.73l-0.03-0.073c-2.182-5.751-4.426-8.543-6.865-8.543
			c-1.727,0-3.215,1.368-4.558,4.184c-1.667,3.5-4.314,5.172-7.588,4.981c-2.581-5.832-5.526-7.337-7.802-7.51
			c0.437-1.78,0.928-3.504,1.379-5.029c1.14-3.886,1.894-6.456,1.144-7.98c-2.653-5.399-17.129-7.304-18.774-7.505
			c-1.213-0.146-2.431-0.221-3.623-0.221c-14.27,0-23.411,10.22-24.766,19.837c-1.069,7.601,2.544,17.087,15.896,20.924
			c3.116,0.894,7.036,0.36,9.008-0.286c-0.245,0.715-0.621,1.628-1.014,2.505l-6.92-1.709c-1.761-0.485-3.554-0.731-5.326-0.731
			c-5.926,0-11.109,2.727-13.863,7.29c-3.358,5.573-2.86,9.909-1.074,14.717c2.124,5.706,7.593,9.78,13.903,10.372l0.286,0.027
			c7.717,0.977,13.997-3.947,14.164-4.076c1.754-1.177,3.334-2.678,4.821-4.586c3.785,3.829,11.708,11.064,19.018,12.758
			c0.91,0.215,1.806,0.316,2.662,0.316c2.991,0,5.593-1.285,7.529-3.718c2.998-3.781,4.056-10.003,2.694-15.864
			c-0.523-2.251-1.247-3.853-2.149-4.833c0.527,0.053,1.063,0.103,1.633,0.103c3.127,0,6.035-0.865,7.589-1.423
			c2.324,2.088,5.253,3.225,8.31,3.225c2.981,0,5.767-1.076,8.06-3.112l0.103-0.095c1.007,0.543,2.299,0.819,3.84,0.819
			c2.056,0,4.291-0.487,6.099-1.007c0.172,8.163-1.687,12.648-5.519,13.346c-1.645,0.299-2.143,1.366-2.062,2.267
			c0.149,1.67,2.199,3.135,4.382,3.135h0.182c5.125-0.185,8.919-1.738,11.596-4.762c3.721-4.195,5.128-11.116,4.303-21.191
			c0.146,0.004,0.302,0.014,0.466,0.025c0.297,0.018,0.62,0.038,0.961,0.038c0.978,0,2.414-0.156,3.734-1.326c0,0,0,0.004,0,0.009
			c1.261,6.607,1.18,11.374-0.223,13.417c-0.411,0.596-0.931,0.947-1.593,1.064c-1.139,0.208-1.584,1.027-1.52,1.748
			c0.106,1.169,1.436,2.158,2.897,2.158h0.112c2.983-0.107,5.204-1.023,6.781-2.809c2.101-2.374,2.93-6.199,2.537-11.681h0.138
			c0.684,0,1.96,0,2.989-0.958c0.863-0.809,1.891-2.697,2.215-3.81c-0.976,4.173-0.896,8.351,0.265,11.907
			c1.34,4.095,3.933,6.891,7.301,7.88c0.852,0.245,1.733,0.371,2.625,0.371c5.99,0,12.043-5.663,14.628-13.576
			c0.209,0.018,0.416,0.038,0.618,0.053c0.833,0.081,1.531,0.209,2.61-0.064c-0.688,2.572-0.134,5.601,1.596,8.372
			c2.61,4.185,7.086,6.685,11.971,6.685l0,0c1.55,0,3.139-0.253,4.718-0.752c9.102-2.874,10.903-9.075,11.172-12.524
			C137.511,23.822,134.233,17.636,129.435,15.266z M62.833,13.441c-0.014,0-0.022,0-0.032,0c-0.264,0.046-0.808,0.126-1.374,0.126
			c-0.662,0-0.959-0.116-0.995-0.116h-0.005c-0.896-1.856-0.326-6.21,0.024-7.642c0.25-0.027,0.588-0.046,1.052-0.046
			c1.652,0,4.06,0.228,6.845,0.493c2.702,0.254,5.75,0.54,8.712,0.67c-1.275,0.732-3.561,0.869-6.707,0.37
			c-1.202-0.266-2.182-0.321-2.784-0.321c-2.651,0-3.873,1.033-4.432,1.903c-0.739,1.15-0.82,2.675-0.266,4.572
			C62.852,13.448,62.844,13.441,62.833,13.441z M42.444,20.421c0.126-2.844,1.366-6.584,2.073-8.501
			c0.692,3.026,1.445,6.75,1.972,10.579c-2.815,1.397-3.285,0.772-3.521,0.525C42.573,22.607,42.388,21.686,42.444,20.421z
			 M16.771,24.824c-0.363,0.435-1.548,1.25-2.754,1.25c-1.008,0-1.71-0.596-2.144-1.827c-0.579-1.64-0.375-3.461,0.568-5.126
			c0.939-1.648,2.481-2.865,4.024-3.175l0.482-0.096l0.224-0.439c0.165-0.321,0.333-0.643,0.51-0.964
			C15.912,19.833,16.307,23.566,16.771,24.824z M26.817,17.252c0.986-2.416,2.546-3.642,4.638-3.642
			c0.615,0,1.104,0.113,1.322,0.176c0.899,0.767,1.022,3.093,0.273,5.52c-0.95,3.078-2.788,5.152-4.513,4.9
			c-0.245-0.036-0.933-0.507-1.495-1.491C26.506,21.782,25.768,19.83,26.817,17.252z M-16.244-6.103l-3.727,12.791
			C-29.174,16.888-44.103-7.814-16.244-6.103z M118.802,33.554c0.77-0.242,1.431-0.657,1.959-1.236
			c0.779-0.863,1.213-2.052,1.213-3.354c0-2.688-1.785-5.448-4.88-6.443c1.111-1,1.823-2.166,2.258-3.065
			c2.361,2.088,7.293,6.741,6.878,10.417c-0.157,1.422-1.134,2.596-2.966,3.582C120.987,34.675,119.588,34.541,118.802,33.554z
			 M93.812,27.358c-1.198,2.666-2.615,3.886-3.457,3.886c-0.005,0-0.01,0-0.013,0c-0.709-0.179-1.414-1.964-1.215-4.955
			C90.087,26.665,91.559,27.061,93.812,27.358z M95.499,19.193c-1.713-0.234-3.16-0.542-4.094-0.762
			c1.003-1.772,2.079-2.693,2.723-2.693l0.137,0.015C94.846,15.903,95.413,17.138,95.499,19.193z M5.348,33.215
			c-6.761,3.336-12.663,2.255-17.391-3.128c0.344-1.217,0.929-3.121,1.65-5.464c0.899-2.93,2.007-6.546,3.118-10.349
			c0.045,0.021,0.094,0.045,0.137,0.064c0.366,0.16,0.707,0.281,0.995,0.373c0.086,0.907,0.542,2.316,2.018,4.34
			c0.145,0.203,0.296,0.412,0.461,0.617c0.952,1.221,1.957,1.839,2.988,1.839c1.134,0,1.955-0.723,2.504-1.472
			c-0.023,1.354,0.172,2.86,0.679,4.538c0.966,3.188,2.828,5.411,5.467,6.605C6.704,31.651,5.73,32.73,5.348,33.215z M43.983,48.336
			L43.983,48.336v0.017V48.336z M64.79,39.521L64.79,39.521v0.012V39.521z M79.635,21.017l0.064-0.559l-0.31-0.383
			c-0.413-0.519-1.163-0.592-1.913-0.592c-1.037,0-2.359,0.167-2.965,0.256c-0.217-0.712-0.229-2.454-0.135-3.436
			c0.655,0.03,1.551,0.211,2.505,0.403c1.217,0.246,2.596,0.523,3.906,0.578l0.063,0.001c-0.369,0.897-0.683,1.757-0.934,2.606
			C79.814,20.27,79.724,20.642,79.635,21.017z"/>
		<path d="M140.954,35.771c-1.623-0.123-3.054,1.068-3.177,2.688c-0.127,1.627,1.105,3.063,2.73,3.19
			c1.621,0.119,3.019-1.109,3.144-2.736C143.773,37.294,142.581,35.9,140.954,35.771z"/>
	</g>
	<g>
		<g>
			<g>
				<g>
					<path fill="#FFFFFF" stroke="#000000" stroke-width="0.2338" d="M128.323,8.485"/>
				</g>
				<path fill="#FFFFFF" stroke="#000000" stroke-width="0.2338" d="M63.416-4.316L63.416-4.316L63.416-4.316z"/>
				<path fill="#FFFFFF" stroke="#000000" stroke-width="0.2338" d="M87.909,8.813c-0.407-0.861-0.966-1.681-1.589-2.368
					c-1.561-1.735-3.486-2.637-4.211-1.276c-0.241,0.463-0.621,0.951-1.265,1.355c-1.217,0.768-3.402,1.222-7.541,0.568
					C73.1,7.061,63.467,4.617,67.75,14c0,0,0.069,0.257,0.191,0.691c0.299,1.086,0.896,3.366,1.404,6.069
					c1.199,6.302,1.935,14.849-2.638,15.681c-1.482,0.265-0.327,1.93,1.271,1.875c5.67-0.207,9.183-3.612,8.287-13.99
					c-0.094-1.061,2.096,0.123,3.498-1.184c0.739-0.687,1.778-2.6,1.979-3.505c0.149-0.689-3.769-0.142-4.348-0.039
					c-1.385,0.239-0.97-5.406-0.745-5.461c1.414-0.371,4.566,0.803,7.291,0.912C84.98,12.625,86.346,10.512,87.909,8.813z"/>
				<path fill="#FFFFFF" stroke="#000000" stroke-width="0.2338" d="M132.1,14.969c-3.373-1.663-7.057-4.9-8.359-7.532
					c-1.792-3.614-1.334-3.07-1.334-3.07s2.258,3.639,2.301,3.535c1.431-3.535,1.324-6.75-0.682-8.591
					c-2.963-2.712-9.003-2.05-10.011,3.613c-0.555,3.433,1.644,7.068,1.737,8.62c0.119,1.99-0.771,4.09-3.96,5.917
					c-1.216,0.702-2.591,1.154-4.025,1.448c-0.153-0.064-2.297,0.282-3.322,0.4c-0.184,0.007-0.358,0.012-0.541,0.018
					c0.074-0.187,3.838-0.882,3.833-1.057c-0.162-6.177-2.947-11.244-7.508-12.573c-3.789-1.108-7.937,0.636-11.221,4.201
					c-1.566,1.701-2.927,3.813-3.966,6.236c-0.387,0.907-0.737,1.848-1.028,2.835c-2.681,9.16,0.24,18.084,6.516,19.92
					c6.276,1.832,13.536-4.107,16.219-13.273c1.955-0.013,3.497,0.703,5.208-0.727c0.381-2.069,3.425-3.851,6.337-3.445
					c2.888-1.666,3.753-4.927,3.753-4.927c2.078,1.867,14.224,11.58,4.812,16.621c-4.588,2.46-5.714-0.099-6.419-1.147
					c-0.059-0.089-3.262-0.372-3.305-0.44c-0.085-0.158,2.786,0.004,2.786,0.004c6.581,0.352,5.165-10.373-3.143-9.565
					c-0.244,0.021-2.968-0.081-4.62,3.735c-3.215,6.565,5.012,17.901,16.539,14.262C144.164,35.104,140.093,18.917,132.1,14.969z
					 M93.207,31.024c-1.703-0.431-2.404-3.661-1.806-7.607c0.039,0.056,1.035,1.267,6.976,1.87
					C97.028,28.989,94.894,31.449,93.207,31.024z M93.809,18.097c-0.142-0.037-0.767-0.21-0.777-0.213
					c1.337-2.899,3.136-4.704,4.603-4.334c1.396,0.358,2.122,2.603,1.998,5.584C97.069,18.858,94.911,18.375,93.809,18.097z"/>
			</g>
			<g>
				<g>
					<path fill="#FFFFFF" stroke="#000000" stroke-width="0.2338" d="M10.185,10.734C9.88,10.934,10.339,11.549,10.185,10.734
						L10.185,10.734z"/>
					<path fill="#FFFFFF" stroke="#000000" stroke-width="0.2338" d="M-8.032,6.692c0.015-0.283,0.057-0.58,0.118-0.88
						c0.457-2.222,1.864-4.886,4.07-5.906c0.026-0.009,1.698-0.781,2.349-0.795c1.411-6.044,3.634-11.209,2.769-12.978
						c-2.384-4.857-16.741-6.787-17.978-6.937c-26.517-3.208-39.747,30.597-12.084,38.547c4.779,1.375,9.229-0.545,9.441-0.683
						c1.853-1.206-1.159,5.074-1.159,5.074l-7.765-1.914c-7.357-2.029-14.66,0.49-18.04,6.096
						c-3.093,5.129-2.779,9.023-0.992,13.831c1.979,5.322,7.062,9.156,13.074,9.718c0.096,0.013,0.191,0.018,0.287,0.025
						c7.376,0.923,13.467-3.914,13.467-3.914c1.801-1.205,3.319-2.733,4.627-4.415c-6.471-7.624-10.663-10.021-12.842-9.943
						c-2.796,0.094-3.578,1.78-3.012,3.049c0.657,1.473,0.847,2.019,0.817,1.989c-0.745-0.631-1.682-1.408-1.842-1.999
						c-0.556-2.01,1.656-4.442,4-4.038c5.2,0.9,13.534,10.046,13.549,10.063c3.005,3.14,11.625,11.532,19.342,13.32
						c9.529,2.223,13.85-8.607,11.658-18.038c-2.194-9.429-6.692-3.156-6.692-3.156c-9.198,4.651-15.406,0.855-19.191-3.684
						c0.671-2.498,2.946-9.537,5.17-17.215c-0.008-0.004-0.015-0.004-0.023-0.006C-6.429,11.115-8.182,9.583-8.032,6.692z
						 M-16.856,5.476c-9.205,10.202-24.135-14.503,3.729-12.792L-16.856,5.476z"/>
					<path fill="#FFFFFF" stroke="#000000" stroke-width="0.2338" d="M85.719-18.748C84.433-16.335,68.15-7.18,56.806-8.973
						c-0.359-0.057-5.048-1.666-8.509-3.889c0,0,5.443,2.622,8.837,3.34l0,0c1.785,0.483,5.723,0.333,5.723,0.333
						c-1.175-3.998-3.127-6.151-4.344-7.168c-0.021-0.019-0.037-0.048-0.056-0.063c-0.038-0.026-0.068-0.046-0.109-0.073
						c-0.556-0.44-0.918-0.626-0.918-0.626v0.004c-7.392-4.741-12.698-1.834-13.313-1.488c-11.623,6.543-7.315,20.49,2.708,22.042
						c0,0,2.657,8.939,3.892,18.411c-5.051,2.786-6.328,0.61-6.178-2.692c0.17-3.788,2.206-9.035,2.557-9.922
						c0-0.05-0.008-0.098-0.013-0.142c-0.02-0.223-0.067-0.387-0.143-0.463c-7.643-7.745-8.439-3.085-8.439-3.085l-0.16,0.815
						c-4.607-2.189-8.524-1.844-11.641,0.407c-1.775,1.281-3.569,3.064-4.52,5.6c-2.574,6.908-1.451,10.797-1.25,11.06
						c0.658,1.031-5.123,4.995-6.905-0.054c-1.52-4.311,1.763-8.922,5.354-9.642c1.227-2.413,3.934-7.033,6.146-7.784
						c-1.71-4.507-5.578-12.604-9.546-4.282C10.849,12.426-0.525,4.31-0.525,4.31C5.299,7.13,6.539,6.632,6.539,6.632
						C4.232,1.405,1.578-0.372-0.778-0.317c-0.654,0.015-1.283,0.164-1.877,0.426C-2.68,0.12-2.703,0.14-2.727,0.149
						c-2.208,1.018-3.896,3.508-4.351,5.728C-7.14,6.174-7.182,6.47-7.198,6.756c-0.149,2.892,1.602,4.42,3.122,5.207
						c0.009,0.002,0.015,0.009,0.023,0.013c0.149,0.078,0.298,0.149,0.442,0.212c0.917,0.404,1.654,0.532,1.654,0.532
						s-0.581,1.287,1.772,4.521c0.136,0.189,0.279,0.387,0.439,0.588c2.865,3.669,4.524-0.798,4.524-0.798l0.96-5.122
						c2.113-0.44,4.144-0.977,4.448-1.175c-1.818,1.343-5.774,5.109-3.585,12.331c3.069,10.127,14.652,6.469,17.549,5.329
						c0.002,0.018,0.004,0.03-0.002,0.04c4.19,4.114,10.779,4.631,15.427,0.498c-1.219-1.434-0.541-3.958-0.541-3.958
						c0.221,2.396,1.182,3.326,1.68,3.655c2.754,1.61,7.77,0.334,10.564-0.589c0.35,7.839-0.943,14.751-6.314,15.722
						c-2.666,0.489-0.593,3.479,2.283,3.375c10.183-0.354,16.5-6.487,14.891-25.144c-0.166-1.901,3.092,0.479,5.615-1.876
						c0.205-0.193-1.224-6.958-1.656-6.882c-0.669,0.119-2.994,0.431-3.474-0.551c-1.295-2.675-0.094-8.923,0.198-8.998
						C65.151,3.079,73.16,4.415,80.554,4.71c0.64-0.407,1.035-0.693,1.277-1.154c0.725-1.359,2.402-0.884,3.962,0.85
						c3.87-0.329,7.236-0.957,8.339-3.387C97.365-6.106,88.37-23.733,85.719-18.748z M31.506,24.005
						c-1.504-0.22-4.374-3.803-2.519-8.353c2.38-5.836,7.377-4.004,7.377-4.004C39.662,13.898,36.279,24.695,31.506,24.005z"/>
				</g>
			</g>
		</g>
		<g>
			<g>
				<g>
					<path fill="#FFFFFF" d="M143.62,40.435c-1.626-0.124-2.854-1.559-2.728-3.185c0.125-1.626,1.551-2.812,3.178-2.688
						c1.631,0.126,2.821,1.517,2.691,3.145C146.637,39.327,145.243,40.56,143.62,40.435z"/>
					<path fill="none" stroke="#000000" stroke-width="0.2338" d="M143.62,40.435c-1.626-0.124-2.854-1.559-2.728-3.185
						c0.125-1.626,1.551-2.812,3.178-2.688c1.631,0.126,2.821,1.517,2.691,3.145C146.637,39.327,145.243,40.56,143.62,40.435z"/>
				</g>
			</g>
		</g>
	</g>
</g>
</svg>
