<?xml version="1.0" encoding="utf-8"?>
<!-- Generator: Adobe Illustrator 16.0.0, SVG Export Plug-In . SVG Version: 6.00 Build 0)  -->
<!DOCTYPE svg PUBLIC "-//W3C//DTD SVG 1.1//EN" "http://www.w3.org/Graphics/SVG/1.1/DTD/svg11.dtd">
<svg version="1.1" id="Layer_1" xmlns="http://www.w3.org/2000/svg" xmlns:xlink="http://www.w3.org/1999/xlink" x="0px" y="0px"
	 width="400px" height="400px" viewBox="0 0 400 400" enable-background="new 0 0 400 400" xml:space="preserve">
<path fill="#FFFFFF" d="M200,4.833C92.212,4.833,4.833,92.212,4.833,200S92.212,395.167,200,395.167S395.167,307.788,395.167,200
	S307.788,4.833,200,4.833z M280.193,274.325c-0.377,0-5.849,1.698-18.491,3.208c-12.643,1.509-32.455,3.019-61.702,3.019
	c-58.683,0-79.438-6.038-80.193-6.227c-3.019-0.943-4.906-3.963-4.151-7.17c3.774-17.737,13.585-27.172,26.983-35.662
	c3.585-2.265,8.302-4.152,13.396-6.228c9.058-3.585,19.436-7.736,21.7-14.718c1.509-4.528-0.378-10.755-5.472-18.68
	c-15.85-25.284-18.68-47.173-8.491-64.721c7.925-13.586,21.511-21.699,36.229-21.699c14.906,0,28.304,8.113,36.229,21.699
	c10.188,17.548,7.358,39.437-8.303,64.721c-5.095,7.925-6.981,14.151-5.661,18.68c2.265,6.981,12.643,11.133,21.888,14.718
	c4.906,2.075,9.436,3.963,13.209,6.228c13.397,8.49,23.209,17.925,26.982,35.662C285.099,270.362,283.213,273.382,280.193,274.325z"
	/>
</svg>
