<?xml version="1.0" encoding="utf-8"?>
<!-- Generator: Adobe Illustrator 16.0.0, SVG Export Plug-In . SVG Version: 6.00 Build 0)  -->
<!DOCTYPE svg PUBLIC "-//W3C//DTD SVG 1.1//EN" "http://www.w3.org/Graphics/SVG/1.1/DTD/svg11.dtd">
<svg version="1.1" id="Layer_1" xmlns="http://www.w3.org/2000/svg" xmlns:xlink="http://www.w3.org/1999/xlink" x="0px" y="0px"
	 width="400px" height="400px" viewBox="0 0 400 400" enable-background="new 0 0 400 400" xml:space="preserve">
<path fill="#FFFFFF" d="M200,4.833C92.212,4.833,4.833,92.212,4.833,200S92.212,395.167,200,395.167S395.167,307.788,395.167,200
	S307.788,4.833,200,4.833z M150.512,170.204c17.252-25.613,44.26-48.787,45.479-49.659c1.226-0.871,2.614-1.396,4.01-1.396
	c1.396,0,2.785,0.525,4.011,1.396c1.219,0.872,28.05,24.046,45.478,49.659c1.219,2.089,1.39,4.462,0.347,6.552
	c-1.218,2.091-3.307,3.244-5.753,3.244h-22.65c-2.437,15-6.624,30.211-8.537,33.52c-2.09,3.486-6.447,5.874-12.895,5.874
	s-10.805-2.448-12.895-5.935c-2.267-3.832-6.27-18.459-8.538-33.459h-22.65c-2.443,0-4.534-1.153-5.753-3.244
	C149.123,174.666,149.293,172.293,150.512,170.204z M277.368,270.751c-1.743,6.1-7.317,10.249-13.597,10.249h-127.72
	c-6.271,0-11.677-4.149-13.42-10.071c-0.17-0.871-6.27-22.929-6.27-67.929h27.185c0,24,1.913,40,3.309,50h106.289
	c1.396-10,3.31-27,3.31-50h27.184C283.638,247,277.538,269.88,277.368,270.751z"/>
</svg>
