<?xml version="1.0" encoding="utf-8"?>
<!-- Generator: Adobe Illustrator 16.0.0, SVG Export Plug-In . SVG Version: 6.00 Build 0)  -->
<!DOCTYPE svg PUBLIC "-//W3C//DTD SVG 1.1//EN" "http://www.w3.org/Graphics/SVG/1.1/DTD/svg11.dtd">
<svg version="1.1" id="Layer_1" xmlns="http://www.w3.org/2000/svg" xmlns:xlink="http://www.w3.org/1999/xlink" x="0px" y="0px"
	 width="89.849px" height="82.667px" viewBox="0 0 89.849 82.667" enable-background="new 0 0 89.849 82.667" xml:space="preserve">
<path id="Facebook_3_" display="none" fill="#FFFFFF" d="M33.766,17.145c0,2.121,0,11.599,0,11.599H25.27v14.178h8.496v38.912
	h17.455V42.921H62.93c0,0,1.096-6.799,1.627-14.231c-1.527,0-13.271,0-13.271,0s0-8.253,0-9.694c0-1.449,1.902-3.399,3.783-3.399
	c1.877,0,5.842,0,9.51,0c0-1.934,0-8.603,0-14.764c-4.896,0-10.473,0-12.93,0C33.335,0.833,33.766,15.026,33.766,17.145z"/>
<path display="none" fill="#FFFFFF" d="M89.849,13.464c-3.308,1.467-6.858,2.459-10.589,2.904c3.807-2.282,6.729-5.894,8.104-10.198
	c-3.56,2.112-7.508,3.646-11.705,4.473c-3.363-3.584-8.154-5.82-13.454-5.82c-10.182,0-18.434,8.253-18.434,18.434
	c0,1.444,0.165,2.851,0.478,4.2c-15.317-0.77-28.903-8.109-37.992-19.26c-1.589,2.724-2.499,5.887-2.499,9.268
	c0,6.394,3.252,12.035,8.2,15.344c-3.024-0.096-5.866-0.926-8.35-2.307c0,0.076,0,0.155,0,0.232c0,8.931,6.354,16.38,14.785,18.08
	c-1.545,0.422-3.173,0.643-4.854,0.643c-1.188,0-2.345-0.114-3.469-0.328c2.345,7.324,9.152,12.651,17.219,12.794
	c-6.307,4.945-14.256,7.896-22.892,7.896c-1.488,0-2.956-0.094-4.397-0.258c8.157,5.233,17.848,8.283,28.258,8.283
	c33.904,0,52.445-28.088,52.445-52.449c0-0.8-0.015-1.596-0.053-2.387C84.25,20.409,87.378,17.164,89.849,13.464z"/>
<path display="none" fill="#FFFFFF" d="M23.385,76.668H8.38V28.657h15.005V76.668z M15.502,22.654h-0.108
	c-5.426,0-8.945-3.671-8.945-8.324c0-4.735,3.622-8.332,9.156-8.332s8.942,3.586,9.049,8.326
	C24.654,18.973,21.14,22.654,15.502,22.654z M83.4,76.668h-17V51.825c0-6.508-2.666-10.94-8.521-10.94
	c-4.477,0-6.957,2.995-8.121,5.882c-0.44,1.031-0.367,2.484-0.367,3.922v25.98H32.547c0,0,0.208-44.011,0-48.011h16.844v7.534
	c1-3.296,6.383-7.993,14.973-7.993c10.657,0,19.036,6.911,19.036,21.777V76.668z"/>
<g>
	<path fill="#FFFFFF" d="M28.54,37.306c0,9.079,7.367,16.442,16.452,16.442c9.09,0,16.453-7.363,16.453-16.442
		c0-2.977-0.792-5.76-2.173-8.168h-3.444c1.701,2.276,2.711,5.1,2.711,8.168c0,7.508-6.066,13.594-13.547,13.594
		c-7.481,0-13.549-6.086-13.549-13.594c0-3.068,1.012-5.892,2.719-8.168h-3.452C29.331,31.546,28.54,34.33,28.54,37.306z"/>
	<path fill="#FFFFFF" d="M63.954,37.306c0,10.465-8.488,18.946-18.962,18.946c-10.473,0-18.964-8.481-18.964-18.946
		c0-2.923,0.665-5.692,1.849-8.168H5.324V69.97c0,6.094,4.94,11.036,11.038,11.036h57.131c6.097,0,11.033-4.942,11.033-11.036
		V29.138H62.11C63.294,31.614,63.954,34.383,63.954,37.306z"/>
	<path fill="#FFFFFF" d="M44.992,23.707c2.771,0,5.352,0.841,7.505,2.276h4.42c-2.999-3.155-7.233-5.118-11.925-5.118
		c-4.695,0-8.925,1.963-11.926,5.118h4.423C39.638,24.547,42.217,23.707,44.992,23.707z"/>
	<path fill="#FFFFFF" d="M73.493,1.66H16.362c-6.098,0-11.038,4.947-11.038,11.042v13.281h24.46
		c3.456-4.632,8.981-7.627,15.208-7.627s11.753,2.995,15.208,7.627h24.326V12.702C84.526,6.607,79.589,1.66,73.493,1.66z
		 M11.878,23.073H8.872c0,0,0-5.345,0-10.438c0-5.092,3.007-6.42,3.007-6.42V23.073z M16.394,23.073h-2.713V6.214h2.713V23.073z
		 M21.108,23.073h-2.907V6.214h2.907V23.073z M25.524,23.073h-2.911V6.214h2.911V23.073z M79.91,17.269
		c0,2.77-2.247,5.02-5.018,5.02h-7.22c-2.775,0-5.017-2.25-5.017-5.02v-5.32c0-2.77,2.241-5.014,5.017-5.014h7.22
		c2.771,0,5.018,2.244,5.018,5.014V17.269z"/>
</g>
</svg>
