<?xml version="1.0" encoding="utf-8"?>
<!-- Generator: Adobe Illustrator 16.0.0, SVG Export Plug-In . SVG Version: 6.00 Build 0)  -->
<!DOCTYPE svg PUBLIC "-//W3C//DTD SVG 1.1//EN" "http://www.w3.org/Graphics/SVG/1.1/DTD/svg11.dtd">
<svg version="1.1" id="Layer_1" xmlns="http://www.w3.org/2000/svg" xmlns:xlink="http://www.w3.org/1999/xlink" x="0px" y="0px"
	 width="100px" height="100px" viewBox="0 0 100 100" enable-background="new 0 0 100 100" xml:space="preserve">
<g>
	<path fill="#FFFFFF" d="M75.221,18.345c7.787,0,14.094,6.229,14.094,13.704v24.294c0,2.023-1.713,4.361-3.736,4.361H38.235
		c-2.103,0-3.737-2.338-3.737-4.361V32.049c0-3.426-2.569-6.307-6.229-6.307c-3.659,0-6.229,2.881-6.229,6.307v36.13h57.309v7.475
		H18.301c-2.103,0-3.737-1.713-3.737-3.738V32.049c0-7.475,6.307-13.704,14.094-13.704H75.221 M44.464,38.279h34.883v-4.983H44.464
		V38.279 M44.464,48.246h34.883v-4.983H44.464V48.246 M75.221,12.115H28.658c-11.207,0-20.324,8.942-20.324,19.934v39.867
		c0,5.496,4.472,9.969,9.968,9.969h61.046h6.23v-6.23V68.18v-1.244c5.873,0,9.967-5.582,9.967-10.592V32.049
		C95.545,21.058,86.428,12.115,75.221,12.115L75.221,12.115z M28.269,61.949v-5.451c0.027,2.068,0.605,3.912,1.54,5.451H28.269
		L28.269,61.949z"/>
</g>
</svg>
