<?xml version="1.0" encoding="utf-8"?>
<!-- Generator: Adobe Illustrator 16.0.0, SVG Export Plug-In . SVG Version: 6.00 Build 0)  -->
<!DOCTYPE svg PUBLIC "-//W3C//DTD SVG 1.1//EN" "http://www.w3.org/Graphics/SVG/1.1/DTD/svg11.dtd">
<svg version="1.1" id="Layer_1" xmlns="http://www.w3.org/2000/svg" xmlns:xlink="http://www.w3.org/1999/xlink" x="0px" y="0px"
	 width="100px" height="100px" viewBox="0 0 100 100" enable-background="new 0 0 100 100" xml:space="preserve">
<g>
	<path fill="#FFFFFF" d="M28.793,20.635c1.94,0,3.668,1.223,4.792,2.548c0.101-0.204,0.101-0.712,0.101-0.917
		c0-4.485-3.673-8.158-8.155-8.158H20.63V7.887c0-2.45,1.838-4.589,4.286-4.898c10.402-1.324,21.005-1.935,31.612-1.935
		c10.604,0,21.213,0.611,31.613,1.935c2.446,0.309,4.279,2.445,4.279,4.898v84.229c0,2.449-1.833,4.592-4.279,4.896
		c-10.4,1.325-21.11,1.934-31.613,1.934s-21.21-0.61-31.612-1.934c-2.448-0.305-4.286-2.443-4.286-4.896v-6.223h-6.524
		c-3.568,0-6.527-2.952-6.527-6.521c0-3.566,2.958-6.525,6.527-6.525h14.688c1.94,0,3.668,1.222,4.792,2.547
		c0.101-0.198,0.101-0.711,0.101-0.915c0-4.487-3.673-8.154-8.155-8.154H20.63v-6.523h-6.524c-3.568,0-6.527-2.96-6.527-6.527
		c0-3.57,2.958-6.528,6.527-6.528h14.688c1.94,0,3.668,1.225,4.792,2.549c0.101-0.204,0.101-0.712,0.101-0.916
		c0-4.486-3.673-8.158-8.155-8.158H20.63v-6.526h-6.524c-3.568,0-6.527-2.957-6.527-6.526c0-3.569,2.958-6.535,6.527-6.535H28.793z
		 M76.108,27.159H43.476V46.74h32.632V27.159z"/>
</g>
</svg>
