<?xml version="1.0" encoding="utf-8"?>
<!-- Generator: Adobe Illustrator 16.0.0, SVG Export Plug-In . SVG Version: 6.00 Build 0)  -->
<!DOCTYPE svg PUBLIC "-//W3C//DTD SVG 1.1//EN" "http://www.w3.org/Graphics/SVG/1.1/DTD/svg11.dtd">
<svg version="1.1" id="Layer_1" xmlns="http://www.w3.org/2000/svg" xmlns:xlink="http://www.w3.org/1999/xlink" x="0px" y="0px"
	 width="100px" height="100px" viewBox="0 0 100 100" enable-background="new 0 0 100 100" xml:space="preserve">
<g>
	<path fill="#FFFFFF" d="M12.857,56.095l29.424,29.419l-3.904,3.804c-3.604,3.604-7.907,5.505-12.411,5.505
		c-5.104,0-10.309-2.501-15.111-7.304c-4.406-4.408-6.808-9.008-7.207-13.813c-0.501-5.005,1.401-9.708,5.403-13.71L12.857,56.095z
		 M96.126,8.349C92.425,18.86,88.121,31.07,84.418,42.68c-0.303,0.7-0.702,1.301-1.2,1.902L48.289,79.41l-6.805-6.807l34.128-34.028
		c1.4-4.401,2.904-8.809,4.405-13.213l-7.007-7.006c-4.407,1.503-8.808,3.003-13.216,4.407L25.768,56.892l-6.805-6.804l34.83-34.932
		c0.602-0.501,1.201-0.902,1.902-1.201c11.308-3.704,23.219-7.81,34.33-11.71c1.7-0.603,3.701-0.201,5.002,1.099
		C96.332,4.642,96.729,6.649,96.126,8.349z M69.405,35.773L37.077,68.199l-6.805-6.804L62.698,28.97
		c1.901-1.902,4.806-1.902,6.707,0C71.308,30.872,71.308,33.872,69.405,35.773z M54.793,90.018c0-4.4,3.604-8.005,8.008-8.005
		c4.408,0,8.013,3.604,8.013,8.005c0,4.403-3.604,8.012-8.013,8.012C58.396,98.029,54.793,94.421,54.793,90.018z M77.211,78.81
		c0-5.304,4.305-9.608,9.605-9.608c5.307,0,9.614,4.305,9.614,9.608c0,5.303-4.308,9.608-9.614,9.608
		C81.516,88.418,77.211,84.112,77.211,78.81z"/>
</g>
</svg>
