<?xml version="1.0" encoding="utf-8"?>
<!-- Generator: Adobe Illustrator 16.0.0, SVG Export Plug-In . SVG Version: 6.00 Build 0)  -->
<!DOCTYPE svg PUBLIC "-//W3C//DTD SVG 1.1//EN" "http://www.w3.org/Graphics/SVG/1.1/DTD/svg11.dtd">
<svg version="1.1" id="Layer_1" xmlns="http://www.w3.org/2000/svg" xmlns:xlink="http://www.w3.org/1999/xlink" x="0px" y="0px"
	 width="100px" height="100px" viewBox="0 0 100 100" enable-background="new 0 0 100 100" xml:space="preserve">
<g>
	<path fill="#FFFFFF" d="M83.123,9.634c1.107,0,2.201,0.365,3.066,1.069c1.324,0.934,2.025,2.569,1.947,4.126
		c-0.078,1.168-1.168,28.888-7.865,60.19c-0.389,1.479-1.322,2.803-2.725,3.426c-0.701,0.39-1.479,0.545-2.18,0.545
		c-0.779,0-1.559-0.233-2.258-0.545l-16.275-8.254l-7.241,11.524c-0.856,1.635-2.569,2.647-4.282,2.647
		c-0.468,0-0.857-0.078-1.324-0.155c-2.18-0.546-3.192-2.647-3.192-4.906V63.808l24.917-28.577l-33.56,21.802l-13.549-5.995
		c-1.479-0.778-2.491-2.259-2.725-3.894c-0.156-1.713,0.545-3.348,1.791-4.438c27.953-22.814,62.527-32.47,64.005-32.859
		C82.148,9.705,82.637,9.634,83.123,9.634 M83.123,3.404c-1.066,0-2.125,0.151-3.146,0.448
		c-2.248,0.614-37.413,10.493-66.248,34.027l-0.083,0.068l-0.08,0.07c-2.771,2.424-4.226,6.047-3.893,9.693l0.015,0.158l0.021,0.157
		c0.52,3.636,2.758,6.823,5.989,8.524l0.188,0.1l0.195,0.086L29.63,62.73l3.085,1.365l1.849-1.201v0.913v15.495
		c0,5.448,3.104,9.746,7.909,10.949l0.247,0.062l0.251,0.041l0.159,0.027c0.528,0.089,1.252,0.212,2.181,0.212
		c3.951,0,7.71-2.238,9.66-5.728l4.115-6.548l11.205,5.684l0.141,0.071l0.145,0.064c1.615,0.718,3.227,1.083,4.791,1.083
		c1.744,0,3.453-0.413,4.959-1.197c2.926-1.393,5.094-4.082,5.971-7.421l0.037-0.139l0.029-0.141
		c5.791-27.069,7.504-51.48,7.971-60.719l0.02-0.373l0.002-0.034l0.004-0.061c0.182-3.679-1.5-7.26-4.404-9.399
		C88.025,4.232,85.607,3.404,83.123,3.404L83.123,3.404z"/>
</g>
</svg>
