<?xml version="1.0" encoding="utf-8"?>
<!-- Generator: Adobe Illustrator 16.0.0, SVG Export Plug-In . SVG Version: 6.00 Build 0)  -->
<!DOCTYPE svg PUBLIC "-//W3C//DTD SVG 1.1//EN" "http://www.w3.org/Graphics/SVG/1.1/DTD/svg11.dtd">
<svg version="1.1" id="Layer_1" xmlns="http://www.w3.org/2000/svg" xmlns:xlink="http://www.w3.org/1999/xlink" x="0px" y="0px"
	 width="100px" height="100px" viewBox="0 0 100 100" enable-background="new 0 0 100 100" xml:space="preserve">
<g>
	<path fill="#FFFFFF" d="M80.4,12.237c0.954,0,1.908,0.37,2.647,1.11c1.479,1.479,1.479,3.815,0,5.295l-4.983,4.983
		c-0.7,0.701-1.713,1.09-2.646,1.09c-0.935,0-1.947-0.389-2.647-1.09c-1.479-1.479-1.479-3.815,0-5.295l4.983-4.983
		C78.493,12.607,79.447,12.237,80.4,12.237 M20.6,12.237c0.954,0,1.908,0.37,2.648,1.11l4.982,4.983c1.48,1.479,1.48,3.815,0,5.295
		c-0.7,0.701-1.713,1.09-2.646,1.09c-0.936,0-1.947-0.389-2.648-1.09l-4.982-4.983c-1.48-1.479-1.48-3.815,0-5.295
		C18.692,12.607,19.646,12.237,20.6,12.237 M50.5,15.994c12.614,0,22.426,10.278,22.426,22.425c0,5.606-1.869,9.5-5.685,14.327
		c-3.893,4.828-5.684,7.709-6.307,11.603c0,0-0.078,0.545-0.156,1.479H40.145c-0.078-0.935-0.078-1.479-0.078-1.479
		c-0.701-3.894-2.492-6.774-6.307-11.603c-3.816-4.827-5.685-8.72-5.685-14.327C28.075,26.272,37.887,15.994,50.5,15.994
		 M75.418,52.104c0.953,0,1.907,0.37,2.646,1.109l4.983,4.983c1.479,1.479,1.479,3.815,0,5.295c-0.7,0.701-1.713,1.09-2.647,1.09
		c-0.934,0-1.946-0.389-2.646-1.09l-4.983-4.983c-1.479-1.479-1.479-3.815,0-5.295C73.51,52.475,74.464,52.104,75.418,52.104
		 M25.584,52.104c0.953,0,1.907,0.37,2.646,1.109c1.48,1.479,1.48,3.815,0,5.295l-4.982,4.983c-0.701,0.701-1.713,1.09-2.648,1.09
		c-0.934,0-1.946-0.389-2.646-1.09c-1.48-1.479-1.48-3.815,0-5.295l4.982-4.983C23.676,52.475,24.63,52.104,25.584,52.104
		 M60.233,70.812c-0.312,2.726-0.778,5.685-1.323,7.553c-1.479,4.828-3.349,7.397-8.41,7.397c-5.061,0-7.008-2.569-8.409-7.397
		c-0.622-1.868-1.09-4.827-1.401-7.553H60.233 M80.4,6.007c-2.656,0-5.161,1.043-7.053,2.936l-4.982,4.982
		c-0.402,0.402-0.764,0.831-1.083,1.281c-4.72-3.422-10.52-5.441-16.782-5.441c-6.261,0-12.06,2.019-16.779,5.439
		c-0.323-0.451-0.686-0.879-1.086-1.28l-4.981-4.981C25.76,7.049,23.255,6.007,20.6,6.007c-2.656,0-5.161,1.043-7.053,2.936
		c-1.892,1.89-2.935,4.395-2.935,7.051s1.043,5.162,2.937,7.054l4.981,4.981c1.22,1.22,2.751,2.097,4.404,2.554
		c-0.71,2.491-1.09,5.12-1.09,7.836c0,2.922,0.433,5.49,1.153,7.794c-1.67,0.448-3.204,1.332-4.466,2.593l-4.984,4.985
		c-1.893,1.891-2.936,4.396-2.936,7.053s1.043,5.162,2.938,7.055c1.847,1.85,4.418,2.913,7.05,2.913
		c2.631,0,5.201-1.062,7.054-2.915l4.982-4.983c0.115-0.115,0.227-0.232,0.335-0.352c0.351,0.706,0.596,1.358,0.771,2.019h-0.035
		l0.304,2.663l0.403,4.814h0.148c0.418,3.474,0.947,6.213,1.577,8.15c1.494,5.092,4.623,11.783,14.36,11.783
		c10.75,0,13.378-8.575,14.367-11.803l0.012-0.04l0.012-0.041c0.723-2.478,1.213-5.917,1.469-8.05h0.15l0.402-4.814l0.284-2.494
		c0.162-0.734,0.411-1.447,0.797-2.229c0.12,0.134,0.244,0.265,0.372,0.393l4.983,4.983c1.849,1.852,4.42,2.915,7.052,2.915
		c2.633,0,5.204-1.063,7.056-2.918c1.89-1.89,2.932-4.394,2.932-7.05s-1.042-5.16-2.935-7.053l-4.983-4.983
		c-1.262-1.262-2.796-2.146-4.468-2.595c0.722-2.304,1.154-4.872,1.154-7.794c0-2.716-0.38-5.345-1.09-7.836
		c1.655-0.457,3.186-1.334,4.405-2.555l4.981-4.982c1.893-1.892,2.935-4.397,2.935-7.053s-1.042-5.161-2.935-7.053
		C85.562,7.05,83.058,6.007,80.4,6.007L80.4,6.007z"/>
</g>
</svg>
