<?xml version="1.0" encoding="utf-8"?>
<!-- Generator: Adobe Illustrator 16.0.0, SVG Export Plug-In . SVG Version: 6.00 Build 0)  -->
<!DOCTYPE svg PUBLIC "-//W3C//DTD SVG 1.1//EN" "http://www.w3.org/Graphics/SVG/1.1/DTD/svg11.dtd">
<svg version="1.1" id="Layer_1" xmlns="http://www.w3.org/2000/svg" xmlns:xlink="http://www.w3.org/1999/xlink" x="0px" y="0px"
	 width="100px" height="100px" viewBox="0 0 100 100" enable-background="new 0 0 100 100" xml:space="preserve">
<g>
	<path fill="#FFFFFF" d="M79.901,13.238c0.953,0,1.908,0.37,2.646,1.11c1.479,1.479,1.479,3.815,0,5.295l-4.982,4.983
		c-0.7,0.701-1.713,1.09-2.646,1.09c-0.936,0-1.947-0.389-2.646-1.09c-1.479-1.479-1.479-3.815,0-5.295l4.982-4.983
		C77.994,13.608,78.948,13.238,79.901,13.238 M20.102,13.238c0.954,0,1.907,0.37,2.647,1.11l4.982,4.983
		c1.479,1.479,1.479,3.815,0,5.295c-0.7,0.701-1.713,1.09-2.646,1.09c-0.936,0-1.946-0.389-2.647-1.09l-4.982-4.983
		c-1.479-1.479-1.479-3.815,0-5.295C18.193,13.608,19.147,13.238,20.102,13.238 M50.001,16.995
		c12.613,0,22.426,10.278,22.426,22.425c0,5.606-1.869,9.5-5.685,14.327c-3.894,4.828-5.685,7.709-6.308,11.604
		c0,0-0.078,0.545-0.156,1.479H39.646c-0.078-0.936-0.078-1.479-0.078-1.479c-0.701-3.895-2.492-6.774-6.308-11.604
		c-3.815-4.827-5.685-8.72-5.685-14.327C27.576,27.273,37.389,16.995,50.001,16.995 M74.919,53.104c0.953,0,1.907,0.371,2.646,1.109
		l4.982,4.982c1.479,1.479,1.479,3.815,0,5.296c-0.699,0.7-1.713,1.09-2.646,1.09c-0.935,0-1.946-0.39-2.646-1.09l-4.982-4.983
		c-1.479-1.479-1.479-3.814,0-5.295C73.011,53.476,73.965,53.104,74.919,53.104 M25.085,53.104c0.953,0,1.907,0.371,2.646,1.109
		c1.479,1.479,1.479,3.814,0,5.295l-4.982,4.983c-0.701,0.7-1.713,1.09-2.647,1.09s-1.946-0.39-2.646-1.09
		c-1.479-1.479-1.479-3.815,0-5.296l4.982-4.982C23.177,53.476,24.131,53.104,25.085,53.104 M59.733,71.813
		c-0.312,2.726-0.777,5.685-1.322,7.553c-1.479,4.828-3.35,7.396-8.41,7.396s-7.008-2.568-8.409-7.396
		c-0.622-1.868-1.09-4.827-1.4-7.553H59.733 M79.901,7.008c-2.656,0-5.162,1.043-7.053,2.936l-4.982,4.982
		c-0.402,0.402-0.764,0.831-1.083,1.281c-4.72-3.422-10.521-5.441-16.782-5.441c-6.261,0-12.06,2.019-16.778,5.439
		c-0.323-0.451-0.687-0.879-1.087-1.28l-4.98-4.981c-1.895-1.894-4.399-2.936-7.054-2.936c-2.656,0-5.161,1.043-7.054,2.936
		c-1.892,1.89-2.935,4.395-2.935,7.051c0,2.656,1.043,5.162,2.937,7.054l4.981,4.981c1.22,1.22,2.751,2.097,4.404,2.554
		c-0.71,2.491-1.091,5.12-1.091,7.836c0,2.922,0.434,5.49,1.153,7.794c-1.67,0.448-3.204,1.332-4.466,2.593l-4.984,4.985
		c-1.893,1.891-2.936,4.396-2.936,7.053c0,2.657,1.043,5.162,2.938,7.055c1.848,1.851,4.418,2.914,7.051,2.914
		c2.631,0,5.2-1.063,7.054-2.916l4.981-4.982c0.115-0.115,0.228-0.232,0.336-0.352c0.351,0.705,0.596,1.357,0.771,2.019h-0.035
		l0.304,2.663l0.403,4.814h0.148c0.418,3.474,0.946,6.213,1.577,8.149c1.493,5.092,4.623,11.783,14.359,11.783
		c10.75,0,13.378-8.575,14.367-11.804l0.012-0.039l0.012-0.041c0.723-2.479,1.213-5.918,1.469-8.051h0.15l0.402-4.813l0.283-2.494
		c0.162-0.733,0.412-1.447,0.798-2.229c0.12,0.135,0.243,0.266,0.372,0.394l4.982,4.983c1.85,1.852,4.42,2.914,7.053,2.914
		s5.203-1.063,7.056-2.918c1.89-1.89,2.933-4.394,2.933-7.05c0-2.655-1.043-5.159-2.936-7.053l-4.983-4.983
		c-1.262-1.262-2.796-2.146-4.468-2.595c0.723-2.304,1.154-4.872,1.154-7.794c0-2.716-0.381-5.345-1.09-7.836
		c1.654-0.457,3.186-1.334,4.404-2.555l4.981-4.982c1.893-1.892,2.935-4.397,2.935-7.053c0-2.656-1.042-5.161-2.935-7.053
		C85.063,8.051,82.56,7.008,79.901,7.008L79.901,7.008z"/>
</g>
</svg>
