<?xml version="1.0" encoding="utf-8"?>
<!-- Generator: Adobe Illustrator 16.0.0, SVG Export Plug-In . SVG Version: 6.00 Build 0)  -->
<!DOCTYPE svg PUBLIC "-//W3C//DTD SVG 1.1//EN" "http://www.w3.org/Graphics/SVG/1.1/DTD/svg11.dtd">
<svg version="1.1" id="Layer_1" xmlns="http://www.w3.org/2000/svg" xmlns:xlink="http://www.w3.org/1999/xlink" x="0px" y="0px"
	 width="100px" height="100px" viewBox="0 0 100 100" enable-background="new 0 0 100 100" xml:space="preserve">
<g>
	<path fill="#FFFFFF" d="M95.979,79.122c0,9.289-7.567,16.856-16.858,16.856s-16.858-7.567-16.858-16.856
		c0-1.724,0.287-3.353,0.769-4.982L48.466,61.304L36.205,72.127c0.958,2.106,1.534,4.502,1.534,6.995
		c0,9.289-7.567,16.856-16.858,16.856c-9.292,0-16.86-7.567-16.86-16.856c0-9.292,7.568-16.86,16.86-16.86
		c1.052,0,2.107,0.096,3.062,0.288l16.861-14.945V35.92c-5.46-2.874-9.195-8.526-9.195-15.042c0-9.289,7.568-16.856,16.857-16.856
		c9.292,0,16.859,7.567,16.859,16.856c0,6.516-3.733,12.262-9.194,15.042v11.684l17.53,15.615c1.722-0.67,3.545-0.958,5.459-0.958
		C88.411,62.262,95.979,69.83,95.979,79.122z"/>
</g>
</svg>
