<?xml version="1.0" encoding="utf-8"?>
<!-- Generator: Adobe Illustrator 16.0.0, SVG Export Plug-In . SVG Version: 6.00 Build 0)  -->
<!DOCTYPE svg PUBLIC "-//W3C//DTD SVG 1.1//EN" "http://www.w3.org/Graphics/SVG/1.1/DTD/svg11.dtd">
<svg version="1.1" id="Layer_1" xmlns="http://www.w3.org/2000/svg" xmlns:xlink="http://www.w3.org/1999/xlink" x="0px" y="0px"
	 width="100px" height="100px" viewBox="0 0 100 100" enable-background="new 0 0 100 100" xml:space="preserve">
<g>
	<path fill="#FFFFFF" d="M33.772,12.628c0.95,0,1.889,0.354,2.616,1.083l41.19,41.425c0.469,0.389,0.779,0.934,0.936,1.479
		c2.881,8.877,5.605,17.598,8.564,26.239c0.545,1.402,0.391,2.414-0.623,3.429c-0.699,0.698-1.4,1.09-2.336,1.09
		c-0.467,0-0.855-0.078-1.246-0.233c-8.643-3.037-17.598-5.996-26.475-8.877c-0.545-0.232-1.013-0.546-1.479-0.935l-41.19-41.427
		c-1.246-1.168-1.479-3.114-0.545-4.594c2.336-3.737,4.983-7.085,8.021-9.967c3.114-3.114,6.696-5.762,10.589-8.176
		C32.41,12.809,33.093,12.628,33.772,12.628 M63.953,66.972c-0.936,0-1.869-0.234-2.648-1.014L23.93,28.505
		c-1.324,1.401-2.492,2.958-3.504,4.438l38.465,38.623c3.35,1.09,7.241,2.258,10.668,3.426l5.528-5.529
		c-1.168-3.426-2.336-6.852-3.426-10.277L33.196,20.251c-1.324,1.012-2.647,2.336-3.971,3.426l37.218,37.221
		c1.401,1.479,1.324,3.504-0.154,4.981C65.588,66.581,64.887,66.972,63.953,66.972 M33.772,6.397L33.772,6.397
		c-1.78,0-3.543,0.477-5.098,1.375L28.591,7.82L28.51,7.871c-4.659,2.889-8.472,5.836-11.653,9.007
		c-3.278,3.121-6.291,6.864-8.956,11.128c-2.49,3.946-1.874,9.125,1.468,12.347L50.502,81.72l0.205,0.205l0.221,0.186
		c0.971,0.81,1.957,1.425,3.018,1.877l0.263,0.111l0.271,0.088c7.33,2.379,16.93,5.527,26.239,8.797
		c1.095,0.416,2.209,0.619,3.402,0.619c2.539,0,4.809-0.981,6.741-2.916c2.728-2.727,3.461-6.254,2.078-9.946
		c-2.071-6.056-3.992-12.037-6.024-18.369c-0.812-2.521-1.623-5.054-2.449-7.599c-0.489-1.633-1.392-3.067-2.616-4.179L40.806,9.317
		C38.919,7.431,36.424,6.397,33.772,6.397L33.772,6.397z"/>
</g>
</svg>
