<?xml version="1.0" encoding="utf-8"?>
<!-- Generator: Adobe Illustrator 16.0.0, SVG Export Plug-In . SVG Version: 6.00 Build 0)  -->
<!DOCTYPE svg PUBLIC "-//W3C//DTD SVG 1.1//EN" "http://www.w3.org/Graphics/SVG/1.1/DTD/svg11.dtd">
<svg version="1.1" id="Layer_1" xmlns="http://www.w3.org/2000/svg" xmlns:xlink="http://www.w3.org/1999/xlink" x="0px" y="0px"
	 width="100px" height="100px" viewBox="0 0 100 100" enable-background="new 0 0 100 100" xml:space="preserve">
<g>
	<path fill="#FFFFFF" d="M35.727,10.336c0.95,0,1.889,0.355,2.616,1.083l41.19,41.425c0.469,0.389,0.779,0.934,0.936,1.479
		c2.881,8.877,5.605,17.598,8.564,26.24c0.545,1.402,0.391,2.414-0.623,3.428c-0.699,0.699-1.4,1.09-2.336,1.09
		c-0.467,0-0.855-0.078-1.246-0.234c-8.643-3.037-17.598-5.996-26.475-8.877c-0.545-0.232-1.012-0.545-1.479-0.934L15.684,33.61
		c-1.246-1.168-1.479-3.115-0.545-4.594c2.336-3.737,4.983-7.085,8.021-9.967c3.114-3.114,6.696-5.762,10.589-8.176
		C34.365,10.517,35.048,10.336,35.727,10.336 M65.908,64.68c-0.936,0-1.869-0.234-2.648-1.014L25.885,26.213
		c-1.324,1.401-2.492,2.958-3.504,4.438l38.464,38.622c3.35,1.09,7.242,2.258,10.668,3.426l5.529-5.529
		c-1.168-3.426-2.336-6.852-3.426-10.277L35.151,17.959c-1.324,1.012-2.647,2.336-3.971,3.426l37.218,37.22
		c1.402,1.479,1.324,3.504-0.154,4.982C67.543,64.289,66.842,64.68,65.908,64.68 M35.727,4.106L35.727,4.106
		c-1.78,0-3.543,0.476-5.098,1.375l-0.083,0.048l-0.081,0.05c-4.659,2.889-8.472,5.836-11.653,9.007
		c-3.278,3.121-6.291,6.864-8.956,11.128c-2.49,3.946-1.874,9.125,1.468,12.347l41.133,41.367l0.205,0.205l0.221,0.186
		c0.971,0.809,1.957,1.424,3.018,1.877l0.262,0.111l0.27,0.088c7.33,2.379,16.93,5.527,26.24,8.797
		c1.094,0.416,2.209,0.619,3.402,0.619c2.539,0,4.809-0.982,6.742-2.916c2.727-2.727,3.461-6.254,2.078-9.947
		c-2.072-6.055-3.992-12.037-6.025-18.369c-0.811-2.521-1.623-5.053-2.449-7.598c-0.49-1.633-1.391-3.068-2.617-4.179L42.761,7.026
		C40.874,5.139,38.379,4.106,35.727,4.106L35.727,4.106z"/>
</g>
</svg>
