<?xml version="1.0" encoding="utf-8"?>
<!-- Generator: Adobe Illustrator 16.0.0, SVG Export Plug-In . SVG Version: 6.00 Build 0)  -->
<!DOCTYPE svg PUBLIC "-//W3C//DTD SVG 1.1//EN" "http://www.w3.org/Graphics/SVG/1.1/DTD/svg11.dtd">
<svg version="1.1" id="Layer_1" xmlns="http://www.w3.org/2000/svg" xmlns:xlink="http://www.w3.org/1999/xlink" x="0px" y="0px"
	 width="550px" height="550px" viewBox="0 0 550 550" enable-background="new 0 0 550 550" xml:space="preserve">
<g>
	<g>
		<path fill="#ED145B" d="M125.535,220.962c-3.582-0.951-6.709-1.45-9.521-1.45c-8.887,0-13.964,5.304-13.964,12.967
			c0,7.888,5.259,13.146,13.465,13.146c2.765,0,6.438-0.544,10.653-1.677l0.589,2.812c-3.944,1.224-7.933,1.859-11.379,1.859
			c-10.155,0-16.729-6.438-16.729-16.095c0-9.656,6.574-16.094,17.001-16.094c3.582,0,7.164,0.543,10.473,1.541L125.535,220.962z"/>
		<path fill="#ED145B" d="M152.826,227.446v20.493h-3.083v-1.859c-2.629,1.723-4.941,2.539-7.843,2.539
			c-6.257,0-10.429-4.488-10.429-11.243c0.046-6.62,4.036-11.062,10.609-11.062C146.025,226.313,148.609,226.63,152.826,227.446z
			 M134.556,237.465c0,5.032,2.991,8.478,7.707,8.478c2.494,0,4.67-0.681,7.481-2.539v-13.827c-2.629-0.407-4.76-0.589-7.255-0.589
			C137.276,228.986,134.556,232.479,134.556,237.465z"/>
		<path fill="#ED145B" d="M159.49,243.949c2.991,1.314,6.255,2.085,8.795,2.085c3.173,0,5.485-1.27,5.485-3.626
			c0-2.675-3.083-3.174-7.208-4.035c-4.534-0.951-6.892-2.357-6.892-5.803c0-3.944,3.128-6.211,8.297-6.211
			c2.766,0,5.894,0.681,8.069,1.451l-0.816,2.448c-2.538-0.816-5.349-1.359-7.48-1.359c-3.219,0-5.032,1.224-5.032,3.536
			c0,2.175,1.903,2.675,5.577,3.536c4.987,1.088,8.387,2.04,8.387,6.166c0,4.306-3.536,6.483-8.569,6.483
			c-2.902,0-6.394-0.816-9.34-2.085L159.49,243.949z"/>
		<path fill="#ED145B" d="M202.149,236.241c0,1.042,0,1.406-0.136,2.402h-17.454c0.499,4.307,3.491,7.163,8.115,7.163
			c2.674,0,4.851-0.453,7.707-1.179l0.499,2.539c-2.765,0.817-5.123,1.451-8.296,1.451c-7.164,0-11.334-4.669-11.334-11.197
			c0-6.71,4.533-11.107,10.881-11.107C198.024,226.313,202.105,230.121,202.149,236.241z M184.469,236.197h14.87
			c-0.091-4.58-2.947-7.345-7.164-7.345C187.734,228.851,184.831,231.753,184.469,236.197z"/>
		<path fill="#ED145B" d="M241.999,221.189c-3.491-1.043-7.434-1.724-10.382-1.724c-4.442,0-7.39,2.041-7.39,5.667
			c0,3.128,2.357,4.215,7.843,5.349c6.845,1.45,11.742,2.992,11.742,9.022c0,5.894-4.76,9.112-11.471,9.112
			c-3.99,0-8.795-0.952-12.829-2.585l0.86-2.991c4.081,1.678,8.524,2.585,12.105,2.585c4.76,0,8.069-2.086,8.069-5.849
			c0-4.714-5.304-5.486-10.292-6.528c-6.846-1.405-9.43-3.4-9.43-7.979c0-5.396,4.353-8.705,10.879-8.705
			c3.9,0,8.253,0.817,11.154,1.859L241.999,221.189z"/>
		<path fill="#ED145B" d="M263.715,248.029c-1.679,0.408-2.857,0.589-4.67,0.589c-4.806,0-7.119-2.493-7.119-7.979v-10.835h-4.806
			v-2.811h4.806v-8.795h3.083v8.795h7.48v2.811h-7.48v10.564c0,3.763,1.27,5.439,4.534,5.439c1.135,0,2.403-0.135,3.763-0.361
			L263.715,248.029z"/>
		<path fill="#ED145B" d="M288.829,247.485c-3.082,0.725-7.706,1.133-11.469,1.133c-5.26,0-8.524-2.72-8.524-8.569v-13.057h3.083
			v12.467c0,4.217,2.131,6.484,6.03,6.484c2.314,0,4.942-0.182,7.799-0.636v-18.316h3.082V247.485z"/>
		<path fill="#ED145B" d="M316.349,247.53c-5.577,1.042-7.662,0.997-10.928,0.997c-6.165,0-10.427-4.261-10.427-11.198
			c0-6.574,3.943-11.017,10.836-11.017c2.492,0,4.895,0.227,7.434,0.952v-11.516h3.083v31.782H316.349z M298.031,237.329
			c0,5.168,2.858,8.615,7.935,8.615c1.948,0,3.627,0,7.253-0.636v-15.369c-2.674-0.771-4.941-0.953-7.118-0.953
			C300.752,228.986,298.031,232.387,298.031,237.329z"/>
		<path fill="#ED145B" d="M323.738,219.421c0-1.314,0.996-2.267,2.266-2.267c1.269,0,2.267,0.952,2.267,2.267
			c0,1.27-0.998,2.221-2.267,2.221C324.734,221.642,323.738,220.691,323.738,219.421z M327.546,247.938h-3.084v-20.946h3.084
			V247.938z"/>
		<path fill="#ED145B" d="M356.834,237.375c0,6.755-4.763,11.289-11.472,11.289c-6.71,0-11.47-4.534-11.47-11.289
			c0-6.71,4.76-11.198,11.47-11.198S356.834,230.665,356.834,237.375z M353.659,237.375c0-5.033-3.399-8.343-8.297-8.343
			c-4.851,0-8.296,3.31-8.296,8.343c0,5.077,3.444,8.478,8.296,8.478C350.26,245.853,353.659,242.452,353.659,237.375z"/>
		<path fill="#ED145B" d="M362.092,243.949c2.991,1.314,6.256,2.085,8.795,2.085c3.174,0,5.486-1.27,5.486-3.626
			c0-2.675-3.083-3.174-7.208-4.035c-4.534-0.951-6.891-2.357-6.891-5.803c0-3.944,3.128-6.211,8.296-6.211
			c2.765,0,5.894,0.681,8.07,1.451l-0.816,2.448c-2.538-0.816-5.35-1.359-7.479-1.359c-3.22,0-5.032,1.224-5.032,3.536
			c0,2.175,1.902,2.675,5.574,3.536c4.987,1.088,8.388,2.04,8.388,6.166c0,4.306-3.536,6.483-8.568,6.483
			c-2.903,0-6.395-0.816-9.34-2.085L362.092,243.949z"/>
	</g>
	<g>
		<path fill="#FFFFFF" d="M120.772,322.554c2.357,0,4.275-0.512,5.757-1.54c1.48-1.026,2.222-2.477,2.222-4.352
			c0-0.786-0.136-1.526-0.408-2.223c-0.271-0.693-0.786-1.375-1.54-2.04c-0.757-0.666-1.845-1.329-3.264-1.995
			c-1.422-0.665-3.251-1.39-5.487-2.178c-2.78-1.086-5.259-2.205-7.435-3.354c-2.176-1.147-4.006-2.449-5.486-3.899
			c-1.482-1.45-2.615-3.141-3.4-5.076c-0.787-1.935-1.179-4.23-1.179-6.892c0-2.659,0.467-5.107,1.405-7.344
			s2.297-4.155,4.081-5.759c1.782-1.601,3.913-2.84,6.391-3.718c2.479-0.875,5.26-1.313,8.342-1.313
			c3.446,0,6.905,0.559,10.381,1.677c3.476,1.119,6.573,3.037,9.294,5.757l-6.982,9.61c-2.116-1.57-4.248-2.855-6.392-3.854
			c-2.147-0.998-4.459-1.496-6.938-1.496c-2.116,0-3.794,0.498-5.032,1.496c-1.24,0.998-1.859,2.283-1.859,3.854
			c0,0.849,0.166,1.618,0.498,2.312c0.333,0.696,0.937,1.391,1.813,2.086c0.875,0.696,2.07,1.422,3.582,2.177
			c1.511,0.757,3.475,1.587,5.893,2.493c2.659,1.028,5.001,2.132,7.027,3.31c2.024,1.179,3.731,2.508,5.124,3.988
			c1.389,1.482,2.448,3.146,3.173,4.989s1.088,3.974,1.088,6.391c0,2.902-0.529,5.518-1.586,7.845
			c-1.058,2.328-2.508,4.275-4.352,5.848c-1.845,1.572-4.036,2.781-6.573,3.627c-2.539,0.848-5.26,1.271-8.161,1.271
			c-4.05,0-8.024-0.71-11.924-2.131c-3.897-1.42-7.57-3.732-11.016-6.937l7.435-9.522c2.116,1.875,4.412,3.491,6.891,4.851
			C114.635,321.876,117.507,322.554,120.772,322.554z"/>
		<path fill="#FFFFFF" d="M160.213,328.719l-2.178,5.442h-12.513l22.396-63.289h12.513l22.395,63.289h-13.69l-1.632-5.442H160.213z
			 M164.111,317.204h19.585l-9.792-28.289L164.111,317.204z"/>
		<path fill="#FFFFFF" d="M263.485,334.069h-12.513h-30.557h-12.512v-13.146v-50.686h13.601l14.235,26.204l14.144-26.204h13.601
			v50.686L263.485,334.069L263.485,334.069z M220.416,293.632v27.291h30.557v-27.745l-10.337,17.499h-10.336L220.416,293.632z"/>
		<path fill="#FFFFFF" d="M314.986,293.902c0,3.748-0.622,7.043-1.859,9.883c-1.239,2.843-2.934,5.259-5.076,7.254
			c-2.148,1.995-4.702,3.537-7.664,4.623c-2.962,1.088-6.165,1.693-9.609,1.814h-7.072v16.502h-13.147v-63.65h20.853
			c3.567,0,6.801,0.589,9.703,1.768c2.901,1.179,5.379,2.811,7.434,4.897c2.055,2.083,3.641,4.564,4.761,7.432
			C314.425,287.3,314.986,290.458,314.986,293.902z M301.839,294.495c0-3.642-0.938-6.569-2.812-8.785
			c-1.874-2.215-4.624-3.322-8.251-3.322h-7.072v23.029h7.072c1.813,0,3.402-0.287,4.762-0.863c1.359-0.577,2.507-1.35,3.445-2.321
			c0.935-0.972,1.646-2.123,2.131-3.459C301.597,297.439,301.839,296.012,301.839,294.495z"/>
		<path fill="#FFFFFF" d="M332.575,322.011h25.479v11.877h-38.444v-63.287h12.966V322.011z"/>
		<path fill="#FFFFFF" d="M402.844,333.888h-40.622v-63.378H402.3v12.06h-27.11v20.582h27.654v11.879h-27.654v6.98h27.654V333.888
			L402.844,333.888z"/>
		<path fill="#FFFFFF" d="M431.493,322.554c2.358,0,4.276-0.512,5.757-1.54c1.481-1.026,2.224-2.477,2.224-4.352
			c0-0.786-0.137-1.526-0.407-2.223c-0.273-0.693-0.788-1.375-1.541-2.04c-0.757-0.666-1.845-1.329-3.265-1.995
			c-1.422-0.665-3.25-1.39-5.486-2.178c-2.781-1.086-5.259-2.205-7.436-3.354c-2.176-1.147-4.005-2.449-5.484-3.899
			c-1.482-1.45-2.615-3.141-3.401-5.076c-0.785-1.935-1.178-4.23-1.178-6.892c0-2.659,0.467-5.107,1.406-7.344
			c0.936-2.236,2.295-4.155,4.079-5.759c1.781-1.601,3.912-2.84,6.393-3.718c2.478-0.875,5.26-1.313,8.343-1.313
			c3.443,0,6.904,0.559,10.381,1.677c3.475,1.119,6.574,3.037,9.295,5.757l-6.982,9.61c-2.115-1.57-4.246-2.855-6.392-3.854
			c-2.147-0.998-4.459-1.496-6.938-1.496c-2.116,0-3.794,0.498-5.032,1.496c-1.24,0.998-1.858,2.283-1.858,3.854
			c0,0.849,0.165,1.618,0.499,2.312c0.331,0.696,0.936,1.391,1.813,2.086c0.876,0.696,2.071,1.422,3.582,2.177
			c1.511,0.757,3.476,1.587,5.893,2.493c2.659,1.028,5.002,2.132,7.027,3.31c2.025,1.179,3.732,2.508,5.122,3.988
			c1.39,1.482,2.449,3.146,3.175,4.989c0.724,1.843,1.087,3.974,1.087,6.391c0,2.902-0.53,5.518-1.586,7.845
			c-1.059,2.328-2.511,4.275-4.354,5.848s-4.034,2.781-6.571,3.627c-2.539,0.848-5.262,1.271-8.16,1.271
			c-4.051,0-8.024-0.71-11.924-2.131c-3.898-1.42-7.572-3.732-11.017-6.937l7.435-9.522c2.115,1.875,4.412,3.491,6.892,4.851
			C425.357,321.876,428.23,322.554,431.493,322.554z"/>
	</g>
	<polygon fill="#ED145B" points="395.431,226.087 414.354,237.013 395.431,247.938 	"/>
</g>
</svg>
