<?xml version="1.0" encoding="utf-8"?>
<!-- Generator: Adobe Illustrator 16.0.0, SVG Export Plug-In . SVG Version: 6.00 Build 0)  -->
<!DOCTYPE svg PUBLIC "-//W3C//DTD SVG 1.1//EN" "http://www.w3.org/Graphics/SVG/1.1/DTD/svg11.dtd">
<svg version="1.1" id="Layer_1" xmlns="http://www.w3.org/2000/svg" xmlns:xlink="http://www.w3.org/1999/xlink" x="0px" y="0px"
	 width="550px" height="550px" viewBox="0 0 550 550" enable-background="new 0 0 550 550" xml:space="preserve">
<g>
	<g>
		<path d="M282.496,214.486c-3.328-3.744-9.148-6.321-16.134-6.321c-10.479,0-15.053,4.243-15.053,10.979
			c0,6.985,5.072,8.815,16.466,11.31c12.558,2.661,20.376,5.987,20.376,16.549c0,10.896-8.898,15.969-21.208,15.969
			c-9.231,0-17.216-2.912-23.702-8.566l2.828-4.74c4.325,4.491,11.975,8.149,20.957,8.149c9.398,0,15.054-3.409,15.054-10.228
			c0-7.236-6.069-9.565-17.88-12.227c-12.309-2.83-18.795-5.822-18.795-15.386c0-10.978,8.648-16.967,21.04-16.967
			c7.735,0,13.888,2.496,18.795,6.821L282.496,214.486z"/>
		<path d="M286.157,240.683c0-12.14,9.148-22.288,21.707-22.288c12.641,0,21.374,10.313,21.457,22.206
			c0,0.831-0.083,1.914-0.167,2.246h-37.009c0.664,9.313,7.651,16.134,15.969,16.134c5.737,0,11.31-3.161,13.307-7.817l4.905,1.332
			c-2.66,6.32-10.063,10.811-18.379,10.811C295.306,263.305,286.157,252.993,286.157,240.683z M323.914,238.521
			c-0.748-9.232-7.567-15.718-16.051-15.718c-8.482,0-15.301,6.571-15.884,15.718H323.914z"/>
		<path d="M326.659,240.683c0-12.14,9.149-22.288,21.708-22.288c12.641,0,21.373,10.313,21.456,22.206
			c0,0.831-0.083,1.914-0.168,2.246h-37.008c0.664,9.313,7.65,16.134,15.969,16.134c5.737,0,11.312-3.161,13.308-7.817l4.904,1.332
			c-2.661,6.32-10.063,10.811-18.38,10.811C335.809,263.305,326.659,252.993,326.659,240.683z M364.417,238.521
			c-0.748-9.232-7.566-15.718-16.049-15.718c-8.483,0-15.303,6.571-15.887,15.718H364.417z"/>
		<path d="M225.197,328.604v-51.842L205.01,315.37h-8.272l-20.185-38.608v51.842H161.33v-78.314h16.325l23.164,44.563l23.384-44.563
			h16.213v78.314H225.197z"/>
		<path d="M240.64,299.816c0-16.105,11.582-30.002,30.334-30.002c18.751,0,30.221,13.897,30.221,30.002
			c0,15.884-11.361,29.891-30.221,29.891C252.112,329.707,240.64,315.7,240.64,299.816z M270.975,317.133
			c8.492,0,15.111-7.278,15.111-17.428c0-10.035-6.619-17.316-15.111-17.316c-8.493,0-15.111,7.39-15.111,17.428
			C255.863,309.964,262.48,317.133,270.975,317.133z"/>
		<path d="M334.289,283.603c-8.936,0.109-16.547,3.529-19.634,10.036v34.967h-14.781v-57.799h13.566v12.354
			c3.972-7.832,10.811-13.237,17.869-13.237c1.545,0,2.317,0.111,2.979,0.221V283.603z"/>
		<path d="M328.002,300.037c0-16.435,11.693-30.223,30.555-30.223s30.113,14.008,30.113,29.671c0,1.875-0.111,3.749-0.331,4.962
			h-44.674c0.771,9.046,7.612,14.452,15.332,14.452c5.846,0,11.804-3.091,13.678-7.832l12.686,3.528
			c-4.193,8.825-14.119,15.111-26.915,15.111C339.805,329.707,328.002,316.03,328.002,300.037z M373.447,294.853
			c-0.772-8.605-7.06-14.34-15.11-14.34c-7.943,0-14.23,5.734-14.894,14.34H373.447z"/>
	</g>
	<rect x="334.289" y="336.879" width="47.766" height="10.11"/>
</g>
</svg>
