<?xml version="1.0" encoding="utf-8"?>
<!-- Generator: Adobe Illustrator 16.0.0, SVG Export Plug-In . SVG Version: 6.00 Build 0)  -->
<!DOCTYPE svg PUBLIC "-//W3C//DTD SVG 1.1//EN" "http://www.w3.org/Graphics/SVG/1.1/DTD/svg11.dtd">
<svg version="1.1" id="Layer_1" xmlns="http://www.w3.org/2000/svg" xmlns:xlink="http://www.w3.org/1999/xlink" x="0px" y="0px"
	 width="550px" height="550px" viewBox="0 0 550 550" enable-background="new 0 0 550 550" xml:space="preserve">
<path fill="#282E3A" d="M401.523,229.901v-8.332h-9.568v-11.467h-10.23v11.467h-5.693v8.332h5.444v18.314
	c0,4.615,1.254,7.893,3.135,10.231c-1.04,1.158-2.172,2.418-3.376,3.76v-7.391h-3.301c-1.154,0-1.814-0.66-1.814-1.814v-16.417
	c0-11.137-5.361-16.004-14.684-16.004c-8.498,0-13.035,5.197-14.851,8.745h-0.165c0,0,0.165-0.908,0.165-1.815v-1.237
	c0-2.971-1.816-4.703-5.527-4.703h-9.651v6.974c-3.073-4.847-8.282-7.963-15.423-7.963c-8.923,0-15.893,4.549-19.22,11.784v-2.298
	c0-7.259-9.816-9.486-15.261-9.486c-10.872,0-18.417,5.755-21.483,13.67c-2.061-7.99-8.208-13.67-17.865-13.67
	c-12.622,0-21.367,9.075-21.367,22.026c0,4.328,1.148,8.4,3.257,11.844c-1.316-0.098-2.363-0.477-3.088-1.861l-5.692-11.302
	c-1.072-2.145-2.888-2.97-2.888-2.97v-0.165c2.475-0.495,9.735-4.868,9.735-15.427c0-11.054-7.507-17.654-18.231-17.654h-26.234
	v9.157h5.362v49.416h10.808v-21.861h5.445c3.052,0,4.289,0.413,5.527,2.722l7.507,14.767c1.898,3.713,3.794,4.373,8.168,4.373h5.691
	v-6.342c2.553,2.91,5.936,5.145,10.048,6.342h-6.572c-4.125,0-6.353,0.99-7.178,4.785l-8.085,34.897
	c-0.742,3.299-0.99,6.187-0.99,6.187h-0.166c0,0-0.248-2.805-1.155-6.187l-10.063-39.517h-9.158l-10.643,39.517
	c-0.907,3.382-1.237,6.187-1.237,6.187h-0.165c0,0-0.247-2.888-0.99-6.187l-8.002-34.897c-0.907-3.795-3.135-4.785-7.26-4.785
	h-7.012v9.157h1.567c1.402,0,2.31,0.412,2.64,1.816l12.127,47.6h12.54l9.322-33.162c1.072-3.797,1.568-7.261,1.568-7.261h0.164
	c0,0,0.496,3.547,1.485,7.261l8.91,33.162h12.458l12.208-47.6c0.33-1.404,1.156-1.816,2.641-1.816h1.568v-9.031
	c2.061,0.549,4.28,0.864,6.668,0.864c10.477,0,16.912-6.352,16.912-6.352l-4.372-7.261c0,0-5.033,4.703-11.797,4.703
	c-6.354,0-11.797-3.877-12.624-11.302h27.058c0.841,11.351,9.522,20.211,22.685,20.211c11.468,0,17.737-7.589,17.737-7.589
	l-4.371-7.26c0,0-5.282,5.693-12.458,5.693c-6.766,0-13.117-4.373-13.117-12.953c0-7.59,5.197-13.117,12.457-13.117
	c2.558,0,6.021,0.99,6.021,3.3v2.31h8.226c-0.728,2.331-1.135,4.868-1.135,7.589c0,11.962,8.663,22.027,22.605,22.027
	c10.478,0,16.909-6.352,16.909-6.352l-4.371-7.261c0,0-5.031,4.703-11.797,4.703c-6.351,0-11.797-3.877-12.621-11.302h29.038
	c0,0,0.249-2.64,0.249-3.877c0-3.691-0.742-7.118-2.148-10.064h2.226c1.155,0,1.815,0.578,1.815,1.814v31.349h10.395v-19.304
	c0-1.98,0.248-3.877,0.825-5.61c1.483-5.032,5.69-8.58,11.3-8.58c5.282,0,6.603,3.465,6.603,8.58v19.304
	c0,3.96,1.648,5.61,5.609,5.61h8.691c-11.073,12.322-27.98,31.1-44.766,49.745c-1.953-0.004-2.776-0.335-3.433-1.565l-4.784-9.076
	c-1.484-2.722-2.969-3.299-2.969-3.299v-0.165c0,0,1.318-0.66,3.135-3.299l10.641-15.841h-11.632l-8.579,13.282
	c-0.909,1.321-2.641,1.566-3.961,1.566h-3.136v-26.563c0-3.877-1.731-4.785-5.609-4.785h-9.982v8.91h3.302
	c1.154,0,1.813,0.578,1.813,1.814v5.266c-0.34-0.035-0.749-0.068-1.15-0.068c-6.436,0-11.468,4.785-13.363,10.808h-0.166
	c0,0,0.166-1.073,0.166-2.641v-2.476c0-3.547-1.898-5.114-5.611-5.114h-9.57v8.465c-4.124-5.855-11.15-9.455-19.217-9.455
	c-12.786,0-23.017,9.158-23.017,22.027c0,12.952,10.231,22.027,23.017,22.027c12.87,0,23.1-9.075,23.1-22.027
	c0-4.605-1.328-8.721-3.6-12.126h3.018c1.154,0,1.815,0.576,1.815,1.813v31.35h10.394v-16.664c0-2.475,0.33-4.784,0.908-6.846
	c1.896-6.271,7.013-8.829,11.467-8.829c0.73,0,1.358,0.041,1.811,0.081v32.258h10.477v-18.396h2.313
	c1.319,0,3.053,0.083,3.875,1.567l7.014,13.2c1.123,2.077,2.146,2.997,3.795,3.378c-23.377,25.967-44.677,49.636-47.232,52.559
	c-0.32,0.367,1.245,0.141,1.497-0.146c5.752-6.576,106.337-118.114,112.088-124.691c0.308-0.352-1.115-0.157-1.45,0.113
	c-0.251-0.829-0.403-1.783-0.403-2.904v-16.995H401.523z M202.396,232.542h-8.58v-18.315h8.745c5.279,0,8.498,3.301,8.498,9.075
	C211.058,229.159,207.839,232.542,202.396,232.542z M231.842,237.162c1.156-5.28,4.951-8.498,10.313-8.498
	c4.29,0,7.754,3.465,7.92,8.498H231.842z M305.67,237.162c1.155-5.28,4.949-8.498,10.313-8.498c4.289,0,7.754,3.465,7.919,8.498
	H305.67z M251.071,314.297c-6.765,0-12.458-5.28-12.458-13.117c0-7.755,5.693-13.118,12.458-13.118
	c6.847,0,12.54,5.363,12.54,13.118C263.611,309.017,257.918,314.297,251.071,314.297z"/>
<polygon fill="#D7DF23" points="148.476,220.262 176.086,236.203 148.476,252.143 "/>
</svg>
