<?xml version="1.0" encoding="utf-8"?>
<!-- Generator: Adobe Illustrator 16.0.0, SVG Export Plug-In . SVG Version: 6.00 Build 0)  -->
<!DOCTYPE svg PUBLIC "-//W3C//DTD SVG 1.1//EN" "http://www.w3.org/Graphics/SVG/1.1/DTD/svg11.dtd">
<svg version="1.1" id="Layer_1" xmlns="http://www.w3.org/2000/svg" xmlns:xlink="http://www.w3.org/1999/xlink" x="0px" y="0px"
	 width="550px" height="550px" viewBox="0 0 550 550" enable-background="new 0 0 550 550" xml:space="preserve">
<g>
	<path fill="#282E3A" d="M251.754,242.917c-6.402,0-23.375,1.003-23.375,13.346c0,7.869,6.404,12.266,13.424,12.266
		c8.871,0,11.88-6.943,11.88-6.943h0.155c0,0-0.077,0.693-0.077,1.697c0,2.314,1.388,4.32,5.015,4.32h8.794v-0.647v-7.608h-1.22
		h-1.866c-1.08,0-1.696-0.616-1.696-1.697v-14.657c0-8.795-3.858-15.66-16.973-15.66c-4.089,0-14.426,0.771-14.426,8.1v4.165h9.103
		v-2.082c0-2.16,3.472-2.623,5.245-2.623c5.015,0,7.251,2.083,7.251,7.714v0.309H251.754z M253.143,249.628v0.926
		c0,4.782-3.703,10.337-8.949,10.337c-4.011,0-5.941-2.468-5.941-5.091c0-5.477,8.101-6.172,13.192-6.172H253.143z"/>
	<path fill="#282E3A" d="M263.113,293.031c0-12.035-9.566-20.6-21.601-20.6c-6.659,0-12.571,2.662-16.507,7.096v-6.555
		c0,0-0.925-0.153-1.773-0.153c-6.018,0-10.725,4.474-12.498,10.105h-0.154c0,0,0.154-1.003,0.154-2.468v-2.316
		c0-3.316-1.774-4.781-5.246-4.781h-4.533c-1-9.311-7.826-15.431-17.295-15.431h-7.809v-12.466h17.326
		c-0.077,0.806-0.127,1.625-0.127,2.469c0,11.185,8.102,20.598,21.139,20.598c9.797,0,15.814-5.941,15.814-5.941l-4.089-6.788
		c0,0-4.706,4.397-11.032,4.397c-5.939,0-11.032-3.626-11.803-10.569h27.154c0,0,0.233-2.469,0.233-3.626
		c0-10.415-6.172-18.668-17.436-18.668c-10.491,0-18.102,6.71-19.669,16.705v-7.14H175.85v-15.506h10.569
		c1.08,0,1.697,0.617,1.697,1.697v3.317h9.103v-8.332c0-3.626-1.542-5.246-5.247-5.246h-31.243v8.563h5.015v36.535h-7.157v8.564
		h5.015v46.21h10.105v-18.9h9.952c8.182,0,14.388-4.719,16.573-12.026c0.693,0.184,1.089,0.698,1.089,1.611v29.315h9.72v-15.583
		c0-2.313,0.309-4.475,0.85-6.403c1.773-5.863,6.557-8.255,10.723-8.255c0.086,0,0.165,0.003,0.247,0.003
		c-1.817,3.028-2.872,6.603-2.872,10.567c0,12.111,9.566,20.598,21.523,20.598C253.547,313.629,263.113,305.143,263.113,293.031z
		 M213.031,234.894c4.012,0,7.251,3.239,7.405,7.946h-17.048C204.467,237.901,208.017,234.894,213.031,234.894z M181.808,285.161
		h-8.101v-17.558v-1.111h2.143h6.111c5.555,0,8.794,3.625,8.794,9.257C190.756,281.458,187.517,285.161,181.808,285.161z
		 M241.512,305.297c-6.326,0-11.648-4.938-11.648-12.266c0-7.252,5.322-12.268,11.648-12.268c6.403,0,11.727,5.016,11.727,12.268
		C253.238,300.358,247.915,305.297,241.512,305.297z"/>
	<path fill="#282E3A" d="M270.514,273.358h-9.334v8.332h3.085c1.08,0,1.697,0.539,1.697,1.696v29.702
		c0,6.403-5.091,7.251-7.869,7.251c-1.003,0-1.698-0.153-1.698-0.153v8.253c0,0,1.157,0.233,2.932,0.233
		c5.4,0,16.432-1.621,16.432-14.813v-35.257C275.76,274.979,274.218,273.358,270.514,273.358z"/>
	<path fill="#282E3A" d="M424.073,241.393c-0.688,0.773-1.377,1.547-2.065,2.32v-25.638c0-3.626-1.622-5.246-5.247-5.246h-9.336
		v8.332h3.086c1.081,0,1.698,0.54,1.698,1.697v6.943c0,1.312,0.076,2.314,0.076,2.314h-0.153c0,0-2.778-4.782-11.34-4.782
		c-7.864,0-14.05,4.624-16.612,12.265c-2.057-7.195-7.738-12.265-16.556-12.265c-6.226,0-11.424,2.375-14.964,6.383v-5.843
		c0,0-0.927-0.155-1.773-0.155c-6.019,0-10.726,4.475-12.5,10.107h-0.154c0,0,0.154-1.003,0.154-2.469v-2.315
		c0-3.318-1.772-4.783-5.245-4.783h-8.104h-0.845h-8.954v18.052c0,7.02-3.934,13.27-11.032,13.27c-4.859,0-6.094-3.24-6.094-8.024
		v-18.128c0-3.549-1.543-5.169-5.17-5.169h-6.322h-3.012h-5.938v-10.723h-9.564v10.723h-5.323v7.792h5.091v17.126
		c0,1.792,0.206,3.362,0.566,4.751c1.084,4.177,3.606,6.653,6.471,8.101c3.201,1.619,6.821,1.96,9.317,1.96
		c1.775,0,3.01-0.232,3.01-0.232v-8.563c0,0-0.694,0.154-1.774,0.154c-2.7,0-7.793-0.925-7.793-7.405V236.05h5.938v0.54h3.086
		c1.08,0,1.697,0.54,1.697,1.698v15.274c0,10.723,5.169,14.966,13.577,14.966c6.789,0,11.726-4.089,13.579-8.178h0.152
		c0,0-0.075,0.849-0.075,1.775v1.08c0,2.778,1.773,4.397,5.168,4.397h8.182h0.845h8.875V252.02c0-2.314,0.31-4.475,0.85-6.404
		c1.754-5.8,6.455-8.199,10.59-8.249c-1.6,3.02-2.494,6.591-2.494,10.564c0,5.702,2.116,10.934,5.907,14.703h-4.045v10.724h-5.323
		v2.287c-3.134-2.364-8.021-3.214-11.261-3.214c-10.166,0-17.221,5.381-20.089,12.78c-1.93-7.47-7.676-12.78-16.707-12.78
		c-11.803,0-19.979,8.486-19.979,20.6c0,11.186,8.101,20.598,21.138,20.598c9.797,0,15.813-5.941,15.813-5.941l-4.088-6.787
		c0,0-4.704,4.396-11.031,4.396c-5.94,0-11.032-3.627-11.804-10.569h25.3c0.785,10.615,8.907,18.901,21.215,18.901
		c10.724,0,16.587-7.098,16.587-7.098l-4.089-6.789c0,0-4.938,5.323-11.649,5.323c-6.326,0-12.268-4.091-12.268-12.112
		c0-7.099,4.862-12.267,11.651-12.267c2.392,0,5.632,0.926,5.632,3.087v2.158h8.64v-4.627c0-0.056-0.013-0.102-0.014-0.155h2.093
		v17.127c0,9.836,6.045,13.23,11.392,14.325c-14.339,16.104-28.681,32.208-43.021,48.312c-8.092,9.086-16.183,18.174-24.274,27.259
		c-0.204,0.229,0.742,1.17,0.897,0.993c35.479-39.839,70.956-79.678,106.433-119.52c8.094-9.085,16.184-18.172,24.275-27.258
		C425.175,242.158,424.229,241.217,424.073,241.393z M328.976,259.348h-2.243c-1.078,0-1.694-0.616-1.694-1.697V236.59h2.239
		c1.081,0,1.698,0.54,1.698,1.698V259.348z M286.48,287.938c1.081-4.937,4.629-7.945,9.643-7.945c4.013,0,7.252,3.241,7.406,7.945
		H286.48z M402.72,235.742c6.559,0,9.721,6.017,9.721,12.111c0,8.718-4.783,12.42-9.874,12.42c-5.786,0-9.721-4.86-9.721-12.343
		C392.846,240.139,397.319,235.742,402.72,235.742z M367.624,234.894c4.01,0,7.251,3.239,7.404,7.946h-17.049
		C359.06,237.901,362.607,234.894,367.624,234.894z M366.86,304.448c-2.7,0-7.792-0.926-7.792-7.406v-15.893h8.948v-7.791h-8.948
		v-6.881c2.805,1.308,6.063,2.051,9.711,2.051c9.799,0,15.815-5.941,15.815-5.941l-4.089-6.788c0,0-4.706,4.397-11.032,4.397
		c-5.939,0-11.031-3.626-11.803-10.569h25.284c0.602,11.081,7.104,18.639,16.976,18.877c-10.652,11.961-21.305,23.923-31.958,35.886
		C367.682,304.422,367.305,304.448,366.86,304.448z"/>
</g>
<polygon fill="#D7DF23" points="150.819,229.333 125,244.24 150.819,259.146 "/>
</svg>
