<?xml version="1.0" standalone="no"?>
<!DOCTYPE svg PUBLIC "-//W3C//DTD SVG 1.1//EN" "http://www.w3.org/Graphics/SVG/1.1/DTD/svg11.dtd" >
<svg xmlns="http://www.w3.org/2000/svg">
<metadata></metadata>
<defs>
<font id="canarolight_demo" horiz-adv-x="1781" >
<font-face units-per-em="2048" ascent="1638" descent="-410" />
<missing-glyph horiz-adv-x="530" />
<glyph unicode="&#xfb01;" horiz-adv-x="1226" d="M12 819v127h234v164q0 211 112 321.5t314 110.5q100 0 178 -23.5t176 -78.5l-65 -101q-133 76 -281 76q-295 0 -295 -307v-162h688v-946h-139v819h-549v-819h-139v819h-234z" />
<glyph unicode="&#xfb02;" horiz-adv-x="1275" d="M12 819v127h234v176q0 202 108 311t314 109q138 0 282 -67l131 -9v-1466h-141v1352q-68 34 -126 48.5t-142 14.5q-140 0 -212.5 -76.5t-72.5 -220.5v-172h375v-127h-375v-819h-141v819h-234z" />
<glyph horiz-adv-x="2048" />
<glyph horiz-adv-x="2048" />
<glyph unicode="&#xd;" horiz-adv-x="2048" />
<glyph unicode=" "  horiz-adv-x="530" />
<glyph unicode="&#x09;" horiz-adv-x="530" />
<glyph unicode="&#xa0;" horiz-adv-x="530" />
<glyph unicode="!" horiz-adv-x="487" d="M141 74q0 42 30 71t73 29t72.5 -28.5t29.5 -71.5t-29.5 -72t-72.5 -29t-73 29t-30 72zM166 1393h153l-6 -1033h-141z" />
<glyph unicode="&#x22;" horiz-adv-x="722" d="M158 1081l4 480h155l-34 -480h-125zM446 1081l5 480h155l-35 -480h-125z" />
<glyph unicode="#" horiz-adv-x="1507" d="M84 408v122h258l100 320h-245v123h284l131 422h144l-131 -422h419l132 422h143l-131 -422h233v-123h-272l-100 -320h260v-122h-297l-129 -408h-144l127 408h-417l-130 -408h-143l127 408h-219zM487 530h420l99 320h-418z" />
<glyph unicode="$" horiz-adv-x="1396" d="M141 86l39 135q283 -117 547 -117q165 0 265 70t100 195q0 58 -27.5 103t-57 71t-101.5 51t-107.5 33.5t-129.5 27.5l-42 9q-235 48 -330.5 127t-95.5 233q0 170 119 274.5t319 116.5v256h129v-256q235 -12 428 -82l-39 -125q-262 78 -469 78q-153 0 -243.5 -67.5 t-90.5 -188.5q0 -101 79.5 -151.5t275.5 -90.5q75 -16 127.5 -29t112 -32.5t99.5 -40.5t79 -51t61.5 -66t36.5 -83.5t14 -104.5q0 -185 -128.5 -292t-342.5 -118v-239h-129v239q-261 19 -498 115z" />
<glyph unicode="%" d="M205 -2v1395h1388v-1395h-1388zM287 80h1224v1231h-1224v-1231zM444 608q27 -6 82 -6q53 0 84 30.5t31 78.5q0 50 -31 80t-84 30q-17 0 -43 -3t-39 -3v-207zM504 657v109h22q49 0 49 -55q0 -24 -11.5 -39t-31.5 -15h-28zM668 608h163v49h-104v27h88v55h-88v27h104v49 h-163v-207zM854 608h59l11 88l43 -88h39l43 88l6 -88h59l-4 207h-55l-72 -125l-65 125h-54zM1137 711q0 -47 32.5 -78t81.5 -31q52 0 83.5 30.5t31.5 78.5q0 50 -31.5 80t-83.5 30q-50 0 -82 -30.5t-32 -79.5zM1202 711q0 25 13.5 40t35.5 15q21 0 35 -15.5t14 -39.5 q0 -23 -14.5 -38.5t-34.5 -15.5q-22 0 -35.5 15.5t-13.5 38.5z" />
<glyph unicode="&#x26;" horiz-adv-x="1308" d="M86 389q0 120 71.5 205t204.5 123q-107 37 -163 115.5t-56 187.5q0 174 127 279.5t342 105.5q142 0 275 -37l-29 -121q-123 33 -252 33q-150 0 -237.5 -70t-87.5 -186q0 -119 79.5 -184.5t239.5 -65.5h643v-121h-151v-256q0 -193 -136 -309.5t-366 -116.5 q-231 0 -367.5 114t-136.5 304zM223 393q0 -135 99 -216t268 -81t267.5 82.5t98.5 218.5v256h-356q-179 0 -278 -71t-99 -189z" />
<glyph unicode="'" horiz-adv-x="434" d="M158 1081l4 480h155l-34 -480h-125z" />
<glyph unicode="(" horiz-adv-x="665" d="M115 541q0 570 356 1007l104 -65q-158 -217 -241.5 -439.5t-83.5 -502.5q0 -281 83.5 -503.5t241.5 -438.5l-104 -68q-356 437 -356 1010z" />
<glyph unicode=")" horiz-adv-x="663" d="M88 -401q158 216 242 438.5t84 503.5q0 145 -23.5 276.5t-69 247.5t-101.5 214.5t-132 203.5l105 65q356 -437 356 -1007q0 -573 -356 -1010z" />
<glyph unicode="*" horiz-adv-x="808" d="M100 958l224 134l-224 133l43 75l219 -131v232h87v-232l221 131l41 -75l-224 -133l224 -134l-41 -71l-221 131v-238h-87v236l-219 -129z" />
<glyph unicode="+" d="M205 -2v1395h1388v-1395h-1388zM287 80h1224v1231h-1224v-1231zM444 608q27 -6 82 -6q53 0 84 30.5t31 78.5q0 50 -31 80t-84 30q-17 0 -43 -3t-39 -3v-207zM504 657v109h22q49 0 49 -55q0 -24 -11.5 -39t-31.5 -15h-28zM668 608h163v49h-104v27h88v55h-88v27h104v49 h-163v-207zM854 608h59l11 88l43 -88h39l43 88l6 -88h59l-4 207h-55l-72 -125l-65 125h-54zM1137 711q0 -47 32.5 -78t81.5 -31q52 0 83.5 30.5t31.5 78.5q0 50 -31.5 80t-83.5 30q-50 0 -82 -30.5t-32 -79.5zM1202 711q0 25 13.5 40t35.5 15q21 0 35 -15.5t14 -39.5 q0 -23 -14.5 -38.5t-34.5 -15.5q-22 0 -35.5 15.5t-13.5 38.5z" />
<glyph unicode="," horiz-adv-x="561" d="M133 -299l109 289q-70 24 -70 92q0 45 32.5 75.5t78.5 30.5t78 -30.5t32 -75.5q0 -8 -0.5 -14.5t-1.5 -13t-4.5 -16.5t-6.5 -19.5t-11 -27t-14.5 -33.5t-20 -44.5t-25.5 -55t-32 -71t-39 -86.5h-105z" />
<glyph unicode="-" horiz-adv-x="1091" d="M240 485h612v142h-612v-142z" />
<glyph unicode="." horiz-adv-x="561" d="M170 82q0 45 32.5 75.5t78.5 30.5t78 -30.5t32 -75.5q0 -46 -32 -77.5t-78 -31.5t-78.5 31.5t-32.5 77.5z" />
<glyph unicode="/" horiz-adv-x="987" d="M35 -557l758 2130h127l-758 -2130h-127z" />
<glyph unicode="0" horiz-adv-x="1542" d="M135 696q0 327 175 527t462 200t462 -200t175 -527t-175 -527t-462 -200t-462 200t-175 527zM285 696q0 -266 134 -429t353 -163q218 0 351.5 163t133.5 429t-133.5 429t-351.5 163q-219 0 -353 -163t-134 -429z" />
<glyph unicode="1" horiz-adv-x="839" d="M41 1237l510 156h45v-1393h-143v1233l-379 -113z" />
<glyph unicode="2" horiz-adv-x="1187" d="M115 1305q98 55 220 86.5t238 31.5q223 0 349.5 -117t126.5 -300q0 -62 -20 -124t-50 -113t-81 -111t-96.5 -105t-113.5 -107l-352 -315h741v-131h-956v94l493 463q40 37 51 47.5t45.5 44.5t46 47t38 43.5t36.5 47.5t27 45.5t23.5 50.5t12 49.5t5.5 54.5q0 141 -95 222 t-253 81q-182 0 -397 -108z" />
<glyph unicode="3" horiz-adv-x="1208" d="M88 86l51 113q228 -105 441 -105q155 0 263.5 85.5t108.5 213.5t-99.5 195t-281.5 67h-194v70l473 537h-700v131h899v-90l-465 -525h43q222 -8 346.5 -107.5t124.5 -273.5q0 -190 -144.5 -309t-378.5 -119q-256 0 -487 117z" />
<glyph unicode="4" horiz-adv-x="1376" d="M94 266v99l842 1028h143v-1002h191v-125h-191v-266h-143v266h-842zM283 391h653v809z" />
<glyph unicode="5" horiz-adv-x="1253" d="M115 86l47 123q238 -107 459 -107q156 0 256 83.5t100 226.5q0 126 -99 201t-274 83l-411 21l63 676h817v-136h-692l-43 -415l285 -15q237 -12 369 -119.5t132 -293.5q0 -202 -139 -323.5t-358 -121.5q-278 0 -512 117z" />
<glyph unicode="6" horiz-adv-x="1271" d="M111 465q0 155 114 315l434 613h175l-326 -455q65 10 127 10q233 0 379.5 -132t146.5 -351q0 -221 -147 -358.5t-379 -137.5q-230 0 -377 137.5t-147 358.5zM252 465q0 -166 108 -268.5t277 -102.5q167 0 275 102.5t108 268.5q0 163 -108 263.5t-275 100.5 q-173 0 -279 -100.5t-106 -263.5z" />
<glyph unicode="7" horiz-adv-x="1128" d="M70 1257v136h991v-88l-615 -1305h-159l602 1257h-819z" />
<glyph unicode="8" horiz-adv-x="1298" d="M106 379q0 129 82.5 220t235.5 132q-118 40 -181 123.5t-63 202.5q0 165 129.5 265.5t339.5 100.5q211 0 340 -100.5t129 -265.5q0 -119 -63 -202.5t-181 -123.5q154 -41 236 -132t82 -220q0 -182 -149.5 -296t-393.5 -114t-393.5 114t-149.5 296zM258 387 q0 -127 109 -210t282 -83q175 0 283 82.5t108 210.5q0 125 -107 201t-284 76q-175 0 -283 -76.5t-108 -200.5zM328 1051q0 -120 87.5 -192.5t233.5 -72.5q145 0 233.5 72.5t88.5 192.5q0 113 -89 183.5t-233 70.5q-145 0 -233 -70.5t-88 -183.5z" />
<glyph unicode="9" horiz-adv-x="1247" d="M94 928q0 221 147 358t377 137q232 0 379.5 -137t147.5 -358q0 -149 -103 -301l-438 -627h-168l320 455q-79 -11 -138 -11q-231 0 -377.5 132.5t-146.5 351.5zM236 928q0 -163 107.5 -264t274.5 -101q173 0 279.5 101t106.5 264q0 165 -109 267.5t-277 102.5 q-167 0 -274.5 -102t-107.5 -268z" />
<glyph unicode=":" horiz-adv-x="561" d="M170 82q0 45 32.5 75.5t78.5 30.5t78 -30.5t32 -75.5q0 -46 -32 -77.5t-78 -31.5t-78.5 31.5t-32.5 77.5zM170 864q0 45 32.5 76t78.5 31t78 -31t32 -76q0 -46 -32 -77t-78 -31t-78.5 31.5t-32.5 76.5z" />
<glyph unicode=";" horiz-adv-x="569" d="M133 -299l109 289q-70 24 -70 92q0 45 32.5 75.5t78.5 30.5t78 -30.5t32 -75.5q0 -8 -0.5 -14.5t-1.5 -13t-4.5 -16.5t-6.5 -19.5t-11 -27t-14.5 -33.5t-20 -44.5t-25.5 -55t-32 -71t-39 -86.5h-105zM178 864q0 45 32.5 76t78.5 31t78 -31t32 -76q0 -46 -32 -77t-78 -31 t-78.5 31.5t-32.5 76.5z" />
<glyph unicode="&#x3c;" d="M205 -2v1395h1388v-1395h-1388zM287 80h1224v1231h-1224v-1231zM444 608q27 -6 82 -6q53 0 84 30.5t31 78.5q0 50 -31 80t-84 30q-17 0 -43 -3t-39 -3v-207zM504 657v109h22q49 0 49 -55q0 -24 -11.5 -39t-31.5 -15h-28zM668 608h163v49h-104v27h88v55h-88v27h104v49 h-163v-207zM854 608h59l11 88l43 -88h39l43 88l6 -88h59l-4 207h-55l-72 -125l-65 125h-54zM1137 711q0 -47 32.5 -78t81.5 -31q52 0 83.5 30.5t31.5 78.5q0 50 -31.5 80t-83.5 30q-50 0 -82 -30.5t-32 -79.5zM1202 711q0 25 13.5 40t35.5 15q21 0 35 -15.5t14 -39.5 q0 -23 -14.5 -38.5t-34.5 -15.5q-22 0 -35.5 15.5t-13.5 38.5z" />
<glyph unicode="=" d="M205 -2v1395h1388v-1395h-1388zM287 80h1224v1231h-1224v-1231zM444 608q27 -6 82 -6q53 0 84 30.5t31 78.5q0 50 -31 80t-84 30q-17 0 -43 -3t-39 -3v-207zM504 657v109h22q49 0 49 -55q0 -24 -11.5 -39t-31.5 -15h-28zM668 608h163v49h-104v27h88v55h-88v27h104v49 h-163v-207zM854 608h59l11 88l43 -88h39l43 88l6 -88h59l-4 207h-55l-72 -125l-65 125h-54zM1137 711q0 -47 32.5 -78t81.5 -31q52 0 83.5 30.5t31.5 78.5q0 50 -31.5 80t-83.5 30q-50 0 -82 -30.5t-32 -79.5zM1202 711q0 25 13.5 40t35.5 15q21 0 35 -15.5t14 -39.5 q0 -23 -14.5 -38.5t-34.5 -15.5q-22 0 -35.5 15.5t-13.5 38.5z" />
<glyph unicode="&#x3e;" d="M205 -2v1395h1388v-1395h-1388zM287 80h1224v1231h-1224v-1231zM444 608q27 -6 82 -6q53 0 84 30.5t31 78.5q0 50 -31 80t-84 30q-17 0 -43 -3t-39 -3v-207zM504 657v109h22q49 0 49 -55q0 -24 -11.5 -39t-31.5 -15h-28zM668 608h163v49h-104v27h88v55h-88v27h104v49 h-163v-207zM854 608h59l11 88l43 -88h39l43 88l6 -88h59l-4 207h-55l-72 -125l-65 125h-54zM1137 711q0 -47 32.5 -78t81.5 -31q52 0 83.5 30.5t31.5 78.5q0 50 -31.5 80t-83.5 30q-50 0 -82 -30.5t-32 -79.5zM1202 711q0 25 13.5 40t35.5 15q21 0 35 -15.5t14 -39.5 q0 -23 -14.5 -38.5t-34.5 -15.5q-22 0 -35.5 15.5t-13.5 38.5z" />
<glyph unicode="?" horiz-adv-x="1011" d="M106 1378q169 45 351 45q220 0 354.5 -116t134.5 -306q0 -193 -127 -314.5t-330 -121.5h-49l9 -205h-132l-24 324h172q155 0 249.5 88.5t94.5 233.5q0 132 -96 212t-254 80q-157 0 -328 -36zM285 74q0 43 29.5 71.5t72.5 28.5t72.5 -28.5t29.5 -71.5t-29.5 -72t-72.5 -29 t-72.5 29t-29.5 72z" />
<glyph unicode="@" d="M205 -2v1395h1388v-1395h-1388zM287 80h1224v1231h-1224v-1231zM444 608q27 -6 82 -6q53 0 84 30.5t31 78.5q0 50 -31 80t-84 30q-17 0 -43 -3t-39 -3v-207zM504 657v109h22q49 0 49 -55q0 -24 -11.5 -39t-31.5 -15h-28zM668 608h163v49h-104v27h88v55h-88v27h104v49 h-163v-207zM854 608h59l11 88l43 -88h39l43 88l6 -88h59l-4 207h-55l-72 -125l-65 125h-54zM1137 711q0 -47 32.5 -78t81.5 -31q52 0 83.5 30.5t31.5 78.5q0 50 -31.5 80t-83.5 30q-50 0 -82 -30.5t-32 -79.5zM1202 711q0 25 13.5 40t35.5 15q21 0 35 -15.5t14 -39.5 q0 -23 -14.5 -38.5t-34.5 -15.5q-22 0 -35.5 15.5t-13.5 38.5z" />
<glyph unicode="A" horiz-adv-x="1556" d="M76 0l633 1403h139l633 -1403h-162l-152 340h-778l-149 -340h-164zM446 471h662l-330 746z" />
<glyph unicode="B" horiz-adv-x="1388" d="M205 0v1393q278 12 526 12q218 0 340.5 -93t122.5 -268q0 -123 -69.5 -207.5t-200.5 -119.5q164 -29 254 -117t90 -219q0 -192 -139.5 -294.5t-385.5 -102.5q-117 0 -538 16zM350 123q338 -10 381 -10q185 0 288 70.5t103 207.5q0 120 -100 186t-270 66h-402v-520z M350 768h361q161 0 252.5 68.5t91.5 189.5q0 126 -87.5 188t-250.5 62q-133 0 -367 -8v-500z" />
<glyph unicode="C" horiz-adv-x="1538" d="M135 696q0 329 208.5 528t559.5 199q243 0 473 -69l-26 -135q-245 65 -430 65q-296 0 -463.5 -161t-167.5 -425q0 -268 165.5 -431t442.5 -163q198 0 481 76l27 -127q-272 -84 -514 -84q-343 0 -549.5 199.5t-206.5 527.5z" />
<glyph unicode="D" horiz-adv-x="1538" d="M205 0v1393q323 16 469 16q215 0 380.5 -84.5t258 -244.5t92.5 -373q0 -164 -53.5 -299.5t-148 -228t-226 -143t-285.5 -50.5q-205 0 -487 14zM350 127q167 -6 342 -6q122 0 225 40.5t177 115t115.5 185t41.5 245.5q0 262 -158 414.5t-419 152.5q-116 0 -324 -8v-1139z " />
<glyph unicode="E" horiz-adv-x="1312" d="M205 0v1393h969v-133h-824v-496h737v-135h-737v-496h824v-133h-969z" />
<glyph unicode="F" horiz-adv-x="1232" d="M205 0v1393h944v-133h-799v-545h715v-135h-715v-580h-145z" />
<glyph unicode="G" horiz-adv-x="1658" d="M135 698q0 215 92.5 379.5t261.5 255t390 90.5q264 0 499 -69l-30 -133q-255 63 -461 63q-271 0 -435.5 -161t-164.5 -425t163.5 -426.5t428.5 -162.5q245 0 493 90v426h-557v135h696v-649q-325 -142 -632 -142q-335 0 -539.5 200.5t-204.5 528.5z" />
<glyph unicode="H" horiz-adv-x="1544" d="M205 0v1393h145v-637h844v637h145v-1393h-145v623h-844v-623h-145z" />
<glyph unicode="I" horiz-adv-x="555" d="M205 0v1393h145v-1393h-145z" />
<glyph unicode="J" horiz-adv-x="1171" d="M53 57l31 129q244 -77 426 -77q154 0 242 104.5t88 294.5v885h147v-883q0 -255 -127.5 -398t-349.5 -143q-206 0 -457 88z" />
<glyph unicode="K" horiz-adv-x="1404" d="M205 0v1393h145v-676h148l612 676h182l-620 -684l674 -709h-185l-563 578h-248v-578h-145z" />
<glyph unicode="L" horiz-adv-x="1200" d="M205 0v1393h145v-1262h776v-131h-921z" />
<glyph unicode="M" horiz-adv-x="1929" d="M184 0l82 1393h140l559 -1219l559 1219h139l82 -1393h-143l-66 1075l-506 -1075h-131l-508 1075l-63 -1075h-144z" />
<glyph unicode="N" horiz-adv-x="1599" d="M205 0v1393h141l903 -1160v1160h146v-1393h-148l-897 1155v-1155h-145z" />
<glyph unicode="O" horiz-adv-x="1734" d="M135 696q0 215 92.5 381t259 256t381.5 90q326 0 528.5 -200.5t202.5 -526.5t-202.5 -526.5t-528.5 -200.5q-215 0 -381.5 90t-259 256t-92.5 381zM287 696q0 -265 161 -428.5t418 -163.5q259 0 420.5 163.5t161.5 428.5t-161.5 427.5t-420.5 162.5q-257 0 -418 -162.5 t-161 -427.5z" />
<glyph unicode="P" horiz-adv-x="1310" d="M205 0v1393q250 16 471 16q248 0 397.5 -124.5t149.5 -344.5q0 -210 -151 -338.5t-396 -128.5h-326v-473h-145zM350 604h340q173 0 281 92t108 242q0 160 -106.5 248t-282.5 88q-173 0 -340 -8v-662z" />
<glyph unicode="Q" horiz-adv-x="1734" d="M135 696q0 215 92.5 381t259 256t381.5 90q326 0 528.5 -200.5t202.5 -526.5q0 -239 -112 -414.5t-309 -254.5l315 -365h-184l-279 322q-76 -15 -162 -15q-215 0 -381.5 90t-259 256t-92.5 381zM287 696q0 -265 161 -428.5t418 -163.5q259 0 420.5 163.5t161.5 428.5 t-161.5 427.5t-420.5 162.5q-257 0 -418 -162.5t-161 -427.5z" />
<glyph unicode="R" horiz-adv-x="1347" d="M205 0v1393q320 14 459 14q247 0 392.5 -115t145.5 -329q0 -156 -84.5 -265t-234.5 -157l401 -541h-176l-371 506q-70 -4 -108 -4h-279v-502h-145zM350 631h326q172 0 277.5 89t105.5 243q0 155 -105 233t-286 78q-142 0 -318 -6v-637z" />
<glyph unicode="S" horiz-adv-x="1396" d="M141 86l39 135q283 -117 547 -117q165 0 265 70t100 195q0 58 -27.5 103t-57 71t-101.5 51t-107.5 33.5t-129.5 27.5l-42 9q-235 48 -330.5 127t-95.5 233q0 182 134 287.5t357 105.5q128 0 265 -23.5t239 -60.5l-39 -125q-262 78 -469 78q-153 0 -243.5 -67.5 t-90.5 -188.5q0 -101 79.5 -151.5t275.5 -90.5q75 -16 127.5 -29t112 -32.5t99.5 -40.5t79 -51t61.5 -66t36.5 -83.5t14 -104.5q0 -195 -142.5 -303.5t-375.5 -108.5q-136 0 -290 31t-290 86z" />
<glyph unicode="T" horiz-adv-x="1370" d="M61 1260v133h1248v-133h-551v-1260h-146v1260h-551z" />
<glyph unicode="U" horiz-adv-x="1562" d="M184 559v834h146v-834q0 -208 123 -331.5t327 -123.5q205 0 329 123.5t124 331.5v834h145v-834q0 -269 -164 -429.5t-434 -160.5q-268 0 -432 160.5t-164 429.5z" />
<glyph unicode="V" horiz-adv-x="1558" d="M80 1393h168l530 -1200l535 1200h164l-627 -1393h-141z" />
<glyph unicode="W" horiz-adv-x="2164" d="M76 1393h153l396 -1170l393 1170h127l395 -1168l393 1168h156l-477 -1393h-137l-392 1151l-393 -1151h-137z" />
<glyph unicode="X" horiz-adv-x="1435" d="M59 0l557 692l-538 701h180l459 -584l457 584h180l-539 -701l559 -692h-174l-483 580l-484 -580h-174z" />
<glyph unicode="Y" horiz-adv-x="1421" d="M53 1393h166l492 -746l493 746h164l-584 -895v-498h-145v498z" />
<glyph unicode="Z" horiz-adv-x="1357" d="M133 0v94l881 1166h-856v133h1054v-95l-870 -1165h877v-133h-1086z" />
<glyph unicode="[" horiz-adv-x="669" d="M152 -457v1991h421v-135h-282v-1721h282v-135h-421z" />
<glyph unicode="\" d="M205 -2v1395h1388v-1395h-1388zM287 80h1224v1231h-1224v-1231zM444 608q27 -6 82 -6q53 0 84 30.5t31 78.5q0 50 -31 80t-84 30q-17 0 -43 -3t-39 -3v-207zM504 657v109h22q49 0 49 -55q0 -24 -11.5 -39t-31.5 -15h-28zM668 608h163v49h-104v27h88v55h-88v27h104v49 h-163v-207zM854 608h59l11 88l43 -88h39l43 88l6 -88h59l-4 207h-55l-72 -125l-65 125h-54zM1137 711q0 -47 32.5 -78t81.5 -31q52 0 83.5 30.5t31.5 78.5q0 50 -31.5 80t-83.5 30q-50 0 -82 -30.5t-32 -79.5zM1202 711q0 25 13.5 40t35.5 15q21 0 35 -15.5t14 -39.5 q0 -23 -14.5 -38.5t-34.5 -15.5q-22 0 -35.5 15.5t-13.5 38.5z" />
<glyph unicode="]" horiz-adv-x="669" d="M96 -322h283v1721h-283v135h422v-1991h-422v135z" />
<glyph unicode="^" d="M205 -2v1395h1388v-1395h-1388zM287 80h1224v1231h-1224v-1231zM444 608q27 -6 82 -6q53 0 84 30.5t31 78.5q0 50 -31 80t-84 30q-17 0 -43 -3t-39 -3v-207zM504 657v109h22q49 0 49 -55q0 -24 -11.5 -39t-31.5 -15h-28zM668 608h163v49h-104v27h88v55h-88v27h104v49 h-163v-207zM854 608h59l11 88l43 -88h39l43 88l6 -88h59l-4 207h-55l-72 -125l-65 125h-54zM1137 711q0 -47 32.5 -78t81.5 -31q52 0 83.5 30.5t31.5 78.5q0 50 -31.5 80t-83.5 30q-50 0 -82 -30.5t-32 -79.5zM1202 711q0 25 13.5 40t35.5 15q21 0 35 -15.5t14 -39.5 q0 -23 -14.5 -38.5t-34.5 -15.5q-22 0 -35.5 15.5t-13.5 38.5z" />
<glyph unicode="_" horiz-adv-x="1333" d="M84 -264h1163v-123h-1163v123z" />
<glyph unicode="`" d="M205 -2v1395h1388v-1395h-1388zM287 80h1224v1231h-1224v-1231zM444 608q27 -6 82 -6q53 0 84 30.5t31 78.5q0 50 -31 80t-84 30q-17 0 -43 -3t-39 -3v-207zM504 657v109h22q49 0 49 -55q0 -24 -11.5 -39t-31.5 -15h-28zM668 608h163v49h-104v27h88v55h-88v27h104v49 h-163v-207zM854 608h59l11 88l43 -88h39l43 88l6 -88h59l-4 207h-55l-72 -125l-65 125h-54zM1137 711q0 -47 32.5 -78t81.5 -31q52 0 83.5 30.5t31.5 78.5q0 50 -31.5 80t-83.5 30q-50 0 -82 -30.5t-32 -79.5zM1202 711q0 25 13.5 40t35.5 15q21 0 35 -15.5t14 -39.5 q0 -23 -14.5 -38.5t-34.5 -15.5q-22 0 -35.5 15.5t-13.5 38.5z" />
<glyph unicode="a" horiz-adv-x="1249" d="M111 477q2 227 130 363.5t349 136.5q130 0 234.5 -11t250.5 -40v-926h-139v84q-91 -60 -174.5 -87.5t-179.5 -27.5q-212 0 -341.5 139.5t-129.5 368.5zM250 473q0 -172 94.5 -277.5t253.5 -105.5q86 0 165 26.5t173 88.5v624q-178 27 -328 27q-172 0 -265 -104.5 t-93 -278.5z" />
<glyph unicode="b" horiz-adv-x="1255" d="M180 18v1436h139v-520q150 43 336 43q230 0 360 -136t130 -362q0 -232 -130 -369t-341 -137q-99 0 -143 1t-138 11.5t-213 32.5zM322 119q164 -29 327 -29q169 0 264 105.5t95 283.5q0 172 -94 274.5t-271 102.5q-172 0 -321 -43v-694z" />
<glyph unicode="c" horiz-adv-x="1085" d="M111 477q0 229 146 366.5t384 137.5q176 0 324 -51l-21 -113q-166 43 -295 43q-180 0 -288.5 -105.5t-108.5 -279.5q0 -172 106.5 -277.5t274.5 -105.5q128 0 328 53l22 -116q-190 -60 -354 -60q-230 0 -374 139.5t-144 368.5z" />
<glyph unicode="d" horiz-adv-x="1255" d="M111 479q0 226 129.5 362t359.5 136q186 0 336 -43v520h139v-1436q-119 -22 -213 -32.5t-137.5 -11.5t-142.5 -1q-211 0 -341 137t-130 369zM248 479q0 -178 94.5 -283.5t263.5 -105.5q164 0 328 29v694q-149 43 -322 43q-177 0 -270.5 -102.5t-93.5 -274.5z" />
<glyph unicode="e" horiz-adv-x="1167" d="M111 475q0 226 137 364t354 138q201 0 326.5 -122t126.5 -327q0 -63 -6 -108h-789q17 -148 114.5 -236t252.5 -88q137 0 348 54l22 -115q-114 -34 -195.5 -50t-178.5 -16q-239 0 -375.5 140t-136.5 366zM256 530h672q-3 154 -91.5 243t-232.5 89q-150 0 -243 -90 t-105 -242z" />
<glyph unicode="f" horiz-adv-x="790" d="M12 819v127h258v240q0 164 93 260t245 96q74 0 164 -22l-22 -119q-82 14 -138 14q-92 0 -147 -61.5t-55 -169.5v-238h364v-127h-364v-819h-140v819h-258z" />
<glyph unicode="g" horiz-adv-x="1239" d="M111 477q0 226 129 363t350 137q152 0 256 -12.5t229 -38.5v-906q0 -240 -136 -384t-376 -144q-175 0 -354 72l27 114q186 -59 323 -59q173 0 273.5 105.5t103.5 293.5q-75 -14 -139.5 -20t-99.5 -7t-115 -1q-211 0 -341 136t-130 351zM250 473q0 -158 95.5 -260 t252.5 -102h32h33.5t30.5 0.5t34 1t32.5 2t38.5 3.5t39.5 5t47 7t50.5 9v690q-178 27 -328 27q-172 0 -265 -104.5t-93 -278.5z" />
<glyph unicode="h" horiz-adv-x="1249" d="M182 0v1454h140v-522q171 45 378 45q180 0 282.5 -103t102.5 -284v-590h-139v557q0 136 -72 213.5t-200 77.5q-194 0 -352 -43v-805h-140z" />
<glyph unicode="i" horiz-adv-x="512" d="M154 1288q0 44 29.5 73.5t72.5 29.5t72.5 -29.5t29.5 -73.5q0 -43 -29.5 -71.5t-72.5 -28.5t-72.5 28.5t-29.5 71.5zM186 0v946h140v-946h-140z" />
<glyph unicode="j" horiz-adv-x="485" d="M-63 -360h12q120 0 167 60q50 63 50 210v1036h139v-1022q0 -107 -16.5 -179.5t-57 -125t-110 -77t-174.5 -25.5zM129 1288q0 44 30 73.5t72 29.5q43 0 74 -29.5t31 -73.5q0 -42 -31 -71t-74 -29q-42 0 -72 29t-30 71z" />
<glyph unicode="k" horiz-adv-x="1161" d="M180 0v1454h139v-911h134l399 403h176l-420 -422l486 -524h-172l-398 414h-205v-414h-139z" />
<glyph unicode="l" horiz-adv-x="528" d="M195 0v1454h139v-1454h-139z" />
<glyph unicode="m" horiz-adv-x="1863" d="M180 0v926q210 45 453 51q180 0 272 -80q191 80 428 80q178 0 272.5 -96.5t94.5 -290.5v-590h-141v557q0 291 -252 291q-177 0 -328 -57q31 -73 31 -189v-602h-140v567q0 153 -62 217t-202 64q-148 -7 -287 -27v-821h-139z" />
<glyph unicode="n" horiz-adv-x="1247" d="M180 0v926q229 51 518 51q180 0 282.5 -103t102.5 -284v-590h-139v557q0 136 -72 213.5t-200 77.5q-190 0 -353 -29v-819h-139z" />
<glyph unicode="o" horiz-adv-x="1257" d="M111 477q0 226 144.5 366t373.5 140t373.5 -140t144.5 -366q0 -228 -145 -369t-373 -141t-373 141t-145 369zM254 477q0 -171 105 -277t270 -106q166 0 270.5 106t104.5 277q0 169 -104 273t-271 104q-165 0 -270 -104t-105 -273z" />
<glyph unicode="p" horiz-adv-x="1261" d="M180 -463v1389q242 51 486 51q220 0 348 -136.5t131 -363.5q0 -215 -130 -351t-341 -136q-80 0 -115 1t-100 7t-140 20v-481h-139zM322 139q27 -5 50.5 -9t47 -7t39.5 -5t38.5 -3.5t32.5 -2t33.5 -1t30 -0.5h33.5h32q157 0 253 102t96 260q0 174 -93 278.5t-266 104.5 q-149 0 -327 -27v-690z" />
<glyph unicode="q" horiz-adv-x="1261" d="M117 477q3 227 131 363.5t348 136.5q243 0 485 -51v-1389h-139v481q-75 -14 -139.5 -20t-99.5 -7t-115 -1q-211 0 -341 136t-130 351zM254 473q0 -158 95.5 -260t252.5 -102h32h33.5t30.5 0.5t34 1t32.5 2t38.5 3.5t39.5 5t47 7t50.5 9v690q-179 27 -328 27 q-172 0 -265 -104.5t-93 -278.5z" />
<glyph unicode="r" horiz-adv-x="792" d="M180 0v920q272 49 527 49v-138q-214 0 -388 -20v-811h-139z" />
<glyph unicode="s" horiz-adv-x="1060" d="M125 63l33 117q215 -94 397 -94q110 0 179 43.5t69 120.5q0 33 -15 58.5t-39 42.5t-65 31t-79.5 23t-97.5 21q-6 1 -10 2t-9.5 2t-10.5 2q-162 34 -236.5 92t-74.5 170q0 133 99.5 207t275.5 74q179 0 364 -66l-37 -110q-190 61 -338 61q-109 0 -168 -41t-59 -119 q0 -29 11.5 -51t28 -36t53.5 -27.5t67.5 -22t91.5 -22.5q56 -12 92.5 -21t80.5 -23t71.5 -28t55.5 -34.5t43.5 -44.5t25.5 -56.5t10 -71.5q0 -142 -105.5 -217.5t-281.5 -75.5q-203 0 -422 94z" />
<glyph unicode="t" horiz-adv-x="888" d="M53 819v127h217v397h140v-397h338v-127h-338v-477q0 -129 47.5 -187.5t156.5 -58.5q66 0 170 17l19 -117q-114 -27 -211 -27q-164 0 -243 88t-79 273v489h-217z" />
<glyph unicode="u" horiz-adv-x="1251" d="M170 356v590h139v-563q0 -142 70.5 -217.5t202.5 -75.5q165 0 352 29v827h139v-926q-215 -51 -518 -51q-183 0 -284 96.5t-101 290.5z" />
<glyph unicode="v" horiz-adv-x="1193" d="M80 946h153l363 -782l362 782h154l-440 -946h-152z" />
<glyph unicode="w" horiz-adv-x="1685" d="M92 946h144l276 -751l274 751h115l270 -753l279 753h143l-346 -946h-137l-268 741l-267 -741h-137z" />
<glyph unicode="x" horiz-adv-x="1114" d="M74 0l391 473l-385 473h170l305 -373l307 373h170l-385 -473l391 -473h-166l-315 377l-317 -377h-166z" />
<glyph unicode="y" horiz-adv-x="1261" d="M84 946h160l403 -747l383 747h158l-719 -1407h-158l260 510z" />
<glyph unicode="z" horiz-adv-x="1015" d="M106 0v74l601 749h-580v123h772v-84l-592 -739h611v-123h-812z" />
<glyph unicode="{" horiz-adv-x="741" d="M92 469v125q115 0 161 47t46 174v367q0 187 82.5 274.5t263.5 87.5v-127q-113 0 -160 -51t-47 -178v-377q0 -122 -32.5 -186.5t-116.5 -92.5q84 -28 116.5 -93t32.5 -187v-375q0 -128 46.5 -178.5t160.5 -50.5v-127q-181 0 -263.5 86.5t-82.5 273.5v369q0 125 -46 172 t-161 47z" />
<glyph unicode="|" d="M205 -2v1395h1388v-1395h-1388zM287 80h1224v1231h-1224v-1231zM444 608q27 -6 82 -6q53 0 84 30.5t31 78.5q0 50 -31 80t-84 30q-17 0 -43 -3t-39 -3v-207zM504 657v109h22q49 0 49 -55q0 -24 -11.5 -39t-31.5 -15h-28zM668 608h163v49h-104v27h88v55h-88v27h104v49 h-163v-207zM854 608h59l11 88l43 -88h39l43 88l6 -88h59l-4 207h-55l-72 -125l-65 125h-54zM1137 711q0 -47 32.5 -78t81.5 -31q52 0 83.5 30.5t31.5 78.5q0 50 -31.5 80t-83.5 30q-50 0 -82 -30.5t-32 -79.5zM1202 711q0 25 13.5 40t35.5 15q21 0 35 -15.5t14 -39.5 q0 -23 -14.5 -38.5t-34.5 -15.5q-22 0 -35.5 15.5t-13.5 38.5z" />
<glyph unicode="}" horiz-adv-x="741" d="M96 -352q114 0 160.5 50.5t46.5 178.5v375q0 122 33 186.5t117 93.5q-84 29 -117 93t-33 186v377q0 127 -47 178t-160 51v127q181 0 263.5 -87.5t82.5 -274.5v-367q0 -127 46 -174t161 -47v-125q-115 0 -161 -47t-46 -172v-369q0 -187 -82.5 -273.5t-263.5 -86.5v127z " />
<glyph unicode="~" d="M205 -2v1395h1388v-1395h-1388zM287 80h1224v1231h-1224v-1231zM444 608q27 -6 82 -6q53 0 84 30.5t31 78.5q0 50 -31 80t-84 30q-17 0 -43 -3t-39 -3v-207zM504 657v109h22q49 0 49 -55q0 -24 -11.5 -39t-31.5 -15h-28zM668 608h163v49h-104v27h88v55h-88v27h104v49 h-163v-207zM854 608h59l11 88l43 -88h39l43 88l6 -88h59l-4 207h-55l-72 -125l-65 125h-54zM1137 711q0 -47 32.5 -78t81.5 -31q52 0 83.5 30.5t31.5 78.5q0 50 -31.5 80t-83.5 30q-50 0 -82 -30.5t-32 -79.5zM1202 711q0 25 13.5 40t35.5 15q21 0 35 -15.5t14 -39.5 q0 -23 -14.5 -38.5t-34.5 -15.5q-22 0 -35.5 15.5t-13.5 38.5z" />
<glyph unicode="&#xa1;" d="M205 -2v1395h1388v-1395h-1388zM287 80h1224v1231h-1224v-1231zM444 608q27 -6 82 -6q53 0 84 30.5t31 78.5q0 50 -31 80t-84 30q-17 0 -43 -3t-39 -3v-207zM504 657v109h22q49 0 49 -55q0 -24 -11.5 -39t-31.5 -15h-28zM668 608h163v49h-104v27h88v55h-88v27h104v49 h-163v-207zM854 608h59l11 88l43 -88h39l43 88l6 -88h59l-4 207h-55l-72 -125l-65 125h-54zM1137 711q0 -47 32.5 -78t81.5 -31q52 0 83.5 30.5t31.5 78.5q0 50 -31.5 80t-83.5 30q-50 0 -82 -30.5t-32 -79.5zM1202 711q0 25 13.5 40t35.5 15q21 0 35 -15.5t14 -39.5 q0 -23 -14.5 -38.5t-34.5 -15.5q-22 0 -35.5 15.5t-13.5 38.5z" />
<glyph unicode="&#xa2;" d="M205 -2v1395h1388v-1395h-1388zM287 80h1224v1231h-1224v-1231zM444 608q27 -6 82 -6q53 0 84 30.5t31 78.5q0 50 -31 80t-84 30q-17 0 -43 -3t-39 -3v-207zM504 657v109h22q49 0 49 -55q0 -24 -11.5 -39t-31.5 -15h-28zM668 608h163v49h-104v27h88v55h-88v27h104v49 h-163v-207zM854 608h59l11 88l43 -88h39l43 88l6 -88h59l-4 207h-55l-72 -125l-65 125h-54zM1137 711q0 -47 32.5 -78t81.5 -31q52 0 83.5 30.5t31.5 78.5q0 50 -31.5 80t-83.5 30q-50 0 -82 -30.5t-32 -79.5zM1202 711q0 25 13.5 40t35.5 15q21 0 35 -15.5t14 -39.5 q0 -23 -14.5 -38.5t-34.5 -15.5q-22 0 -35.5 15.5t-13.5 38.5z" />
<glyph unicode="&#xa3;" horiz-adv-x="1263" d="M90 0v123h154v457h-154v122h154v299q0 191 134 306.5t355 115.5q178 0 350 -45l-24 -116q-174 36 -330 36q-157 0 -250.5 -81t-93.5 -216v-299h487v-122h-487v-457h791v-123h-1086z" />
<glyph unicode="&#xa5;" d="M205 -2v1395h1388v-1395h-1388zM287 80h1224v1231h-1224v-1231zM444 608q27 -6 82 -6q53 0 84 30.5t31 78.5q0 50 -31 80t-84 30q-17 0 -43 -3t-39 -3v-207zM504 657v109h22q49 0 49 -55q0 -24 -11.5 -39t-31.5 -15h-28zM668 608h163v49h-104v27h88v55h-88v27h104v49 h-163v-207zM854 608h59l11 88l43 -88h39l43 88l6 -88h59l-4 207h-55l-72 -125l-65 125h-54zM1137 711q0 -47 32.5 -78t81.5 -31q52 0 83.5 30.5t31.5 78.5q0 50 -31.5 80t-83.5 30q-50 0 -82 -30.5t-32 -79.5zM1202 711q0 25 13.5 40t35.5 15q21 0 35 -15.5t14 -39.5 q0 -23 -14.5 -38.5t-34.5 -15.5q-22 0 -35.5 15.5t-13.5 38.5z" />
<glyph unicode="&#xa6;" d="M205 -2v1395h1388v-1395h-1388zM287 80h1224v1231h-1224v-1231zM444 608q27 -6 82 -6q53 0 84 30.5t31 78.5q0 50 -31 80t-84 30q-17 0 -43 -3t-39 -3v-207zM504 657v109h22q49 0 49 -55q0 -24 -11.5 -39t-31.5 -15h-28zM668 608h163v49h-104v27h88v55h-88v27h104v49 h-163v-207zM854 608h59l11 88l43 -88h39l43 88l6 -88h59l-4 207h-55l-72 -125l-65 125h-54zM1137 711q0 -47 32.5 -78t81.5 -31q52 0 83.5 30.5t31.5 78.5q0 50 -31.5 80t-83.5 30q-50 0 -82 -30.5t-32 -79.5zM1202 711q0 25 13.5 40t35.5 15q21 0 35 -15.5t14 -39.5 q0 -23 -14.5 -38.5t-34.5 -15.5q-22 0 -35.5 15.5t-13.5 38.5z" />
<glyph unicode="&#xa7;" d="M205 -2v1395h1388v-1395h-1388zM287 80h1224v1231h-1224v-1231zM444 608q27 -6 82 -6q53 0 84 30.5t31 78.5q0 50 -31 80t-84 30q-17 0 -43 -3t-39 -3v-207zM504 657v109h22q49 0 49 -55q0 -24 -11.5 -39t-31.5 -15h-28zM668 608h163v49h-104v27h88v55h-88v27h104v49 h-163v-207zM854 608h59l11 88l43 -88h39l43 88l6 -88h59l-4 207h-55l-72 -125l-65 125h-54zM1137 711q0 -47 32.5 -78t81.5 -31q52 0 83.5 30.5t31.5 78.5q0 50 -31.5 80t-83.5 30q-50 0 -82 -30.5t-32 -79.5zM1202 711q0 25 13.5 40t35.5 15q21 0 35 -15.5t14 -39.5 q0 -23 -14.5 -38.5t-34.5 -15.5q-22 0 -35.5 15.5t-13.5 38.5z" />
<glyph unicode="&#xa8;" d="M205 -2v1395h1388v-1395h-1388zM287 80h1224v1231h-1224v-1231zM444 608q27 -6 82 -6q53 0 84 30.5t31 78.5q0 50 -31 80t-84 30q-17 0 -43 -3t-39 -3v-207zM504 657v109h22q49 0 49 -55q0 -24 -11.5 -39t-31.5 -15h-28zM668 608h163v49h-104v27h88v55h-88v27h104v49 h-163v-207zM854 608h59l11 88l43 -88h39l43 88l6 -88h59l-4 207h-55l-72 -125l-65 125h-54zM1137 711q0 -47 32.5 -78t81.5 -31q52 0 83.5 30.5t31.5 78.5q0 50 -31.5 80t-83.5 30q-50 0 -82 -30.5t-32 -79.5zM1202 711q0 25 13.5 40t35.5 15q21 0 35 -15.5t14 -39.5 q0 -23 -14.5 -38.5t-34.5 -15.5q-22 0 -35.5 15.5t-13.5 38.5z" />
<glyph unicode="&#xa9;" d="M205 -2v1395h1388v-1395h-1388zM287 80h1224v1231h-1224v-1231zM444 608q27 -6 82 -6q53 0 84 30.5t31 78.5q0 50 -31 80t-84 30q-17 0 -43 -3t-39 -3v-207zM504 657v109h22q49 0 49 -55q0 -24 -11.5 -39t-31.5 -15h-28zM668 608h163v49h-104v27h88v55h-88v27h104v49 h-163v-207zM854 608h59l11 88l43 -88h39l43 88l6 -88h59l-4 207h-55l-72 -125l-65 125h-54zM1137 711q0 -47 32.5 -78t81.5 -31q52 0 83.5 30.5t31.5 78.5q0 50 -31.5 80t-83.5 30q-50 0 -82 -30.5t-32 -79.5zM1202 711q0 25 13.5 40t35.5 15q21 0 35 -15.5t14 -39.5 q0 -23 -14.5 -38.5t-34.5 -15.5q-22 0 -35.5 15.5t-13.5 38.5z" />
<glyph unicode="&#xaa;" horiz-adv-x="946" d="M125 930q0 192 317 207l250 10v20q-1 82 -46 119t-142 37q-107 0 -289 -25l-12 97q167 28 299 28q152 0 224.5 -61.5t72.5 -192.5v-421q-225 -37 -379 -37q-146 0 -220.5 55.5t-74.5 163.5zM233 928q0 -125 207 -125q96 0 254 22v236l-264 -12q-197 -9 -197 -121z" />
<glyph unicode="&#xab;" d="M205 -2v1395h1388v-1395h-1388zM287 80h1224v1231h-1224v-1231zM444 608q27 -6 82 -6q53 0 84 30.5t31 78.5q0 50 -31 80t-84 30q-17 0 -43 -3t-39 -3v-207zM504 657v109h22q49 0 49 -55q0 -24 -11.5 -39t-31.5 -15h-28zM668 608h163v49h-104v27h88v55h-88v27h104v49 h-163v-207zM854 608h59l11 88l43 -88h39l43 88l6 -88h59l-4 207h-55l-72 -125l-65 125h-54zM1137 711q0 -47 32.5 -78t81.5 -31q52 0 83.5 30.5t31.5 78.5q0 50 -31.5 80t-83.5 30q-50 0 -82 -30.5t-32 -79.5zM1202 711q0 25 13.5 40t35.5 15q21 0 35 -15.5t14 -39.5 q0 -23 -14.5 -38.5t-34.5 -15.5q-22 0 -35.5 15.5t-13.5 38.5z" />
<glyph unicode="&#xad;" horiz-adv-x="1091" d="M240 485h612v142h-612v-142z" />
<glyph unicode="&#xae;" d="M205 -2v1395h1388v-1395h-1388zM287 80h1224v1231h-1224v-1231zM444 608q27 -6 82 -6q53 0 84 30.5t31 78.5q0 50 -31 80t-84 30q-17 0 -43 -3t-39 -3v-207zM504 657v109h22q49 0 49 -55q0 -24 -11.5 -39t-31.5 -15h-28zM668 608h163v49h-104v27h88v55h-88v27h104v49 h-163v-207zM854 608h59l11 88l43 -88h39l43 88l6 -88h59l-4 207h-55l-72 -125l-65 125h-54zM1137 711q0 -47 32.5 -78t81.5 -31q52 0 83.5 30.5t31.5 78.5q0 50 -31.5 80t-83.5 30q-50 0 -82 -30.5t-32 -79.5zM1202 711q0 25 13.5 40t35.5 15q21 0 35 -15.5t14 -39.5 q0 -23 -14.5 -38.5t-34.5 -15.5q-22 0 -35.5 15.5t-13.5 38.5z" />
<glyph unicode="&#xaf;" d="M205 -2v1395h1388v-1395h-1388zM287 80h1224v1231h-1224v-1231zM444 608q27 -6 82 -6q53 0 84 30.5t31 78.5q0 50 -31 80t-84 30q-17 0 -43 -3t-39 -3v-207zM504 657v109h22q49 0 49 -55q0 -24 -11.5 -39t-31.5 -15h-28zM668 608h163v49h-104v27h88v55h-88v27h104v49 h-163v-207zM854 608h59l11 88l43 -88h39l43 88l6 -88h59l-4 207h-55l-72 -125l-65 125h-54zM1137 711q0 -47 32.5 -78t81.5 -31q52 0 83.5 30.5t31.5 78.5q0 50 -31.5 80t-83.5 30q-50 0 -82 -30.5t-32 -79.5zM1202 711q0 25 13.5 40t35.5 15q21 0 35 -15.5t14 -39.5 q0 -23 -14.5 -38.5t-34.5 -15.5q-22 0 -35.5 15.5t-13.5 38.5z" />
<glyph unicode="&#xb0;" d="M205 -2v1395h1388v-1395h-1388zM287 80h1224v1231h-1224v-1231zM444 608q27 -6 82 -6q53 0 84 30.5t31 78.5q0 50 -31 80t-84 30q-17 0 -43 -3t-39 -3v-207zM504 657v109h22q49 0 49 -55q0 -24 -11.5 -39t-31.5 -15h-28zM668 608h163v49h-104v27h88v55h-88v27h104v49 h-163v-207zM854 608h59l11 88l43 -88h39l43 88l6 -88h59l-4 207h-55l-72 -125l-65 125h-54zM1137 711q0 -47 32.5 -78t81.5 -31q52 0 83.5 30.5t31.5 78.5q0 50 -31.5 80t-83.5 30q-50 0 -82 -30.5t-32 -79.5zM1202 711q0 25 13.5 40t35.5 15q21 0 35 -15.5t14 -39.5 q0 -23 -14.5 -38.5t-34.5 -15.5q-22 0 -35.5 15.5t-13.5 38.5z" />
<glyph unicode="&#xb1;" d="M205 -2v1395h1388v-1395h-1388zM287 80h1224v1231h-1224v-1231zM444 608q27 -6 82 -6q53 0 84 30.5t31 78.5q0 50 -31 80t-84 30q-17 0 -43 -3t-39 -3v-207zM504 657v109h22q49 0 49 -55q0 -24 -11.5 -39t-31.5 -15h-28zM668 608h163v49h-104v27h88v55h-88v27h104v49 h-163v-207zM854 608h59l11 88l43 -88h39l43 88l6 -88h59l-4 207h-55l-72 -125l-65 125h-54zM1137 711q0 -47 32.5 -78t81.5 -31q52 0 83.5 30.5t31.5 78.5q0 50 -31.5 80t-83.5 30q-50 0 -82 -30.5t-32 -79.5zM1202 711q0 25 13.5 40t35.5 15q21 0 35 -15.5t14 -39.5 q0 -23 -14.5 -38.5t-34.5 -15.5q-22 0 -35.5 15.5t-13.5 38.5z" />
<glyph unicode="&#xb2;" d="M205 -2v1395h1388v-1395h-1388zM287 80h1224v1231h-1224v-1231zM444 608q27 -6 82 -6q53 0 84 30.5t31 78.5q0 50 -31 80t-84 30q-17 0 -43 -3t-39 -3v-207zM504 657v109h22q49 0 49 -55q0 -24 -11.5 -39t-31.5 -15h-28zM668 608h163v49h-104v27h88v55h-88v27h104v49 h-163v-207zM854 608h59l11 88l43 -88h39l43 88l6 -88h59l-4 207h-55l-72 -125l-65 125h-54zM1137 711q0 -47 32.5 -78t81.5 -31q52 0 83.5 30.5t31.5 78.5q0 50 -31.5 80t-83.5 30q-50 0 -82 -30.5t-32 -79.5zM1202 711q0 25 13.5 40t35.5 15q21 0 35 -15.5t14 -39.5 q0 -23 -14.5 -38.5t-34.5 -15.5q-22 0 -35.5 15.5t-13.5 38.5z" />
<glyph unicode="&#xb3;" d="M205 -2v1395h1388v-1395h-1388zM287 80h1224v1231h-1224v-1231zM444 608q27 -6 82 -6q53 0 84 30.5t31 78.5q0 50 -31 80t-84 30q-17 0 -43 -3t-39 -3v-207zM504 657v109h22q49 0 49 -55q0 -24 -11.5 -39t-31.5 -15h-28zM668 608h163v49h-104v27h88v55h-88v27h104v49 h-163v-207zM854 608h59l11 88l43 -88h39l43 88l6 -88h59l-4 207h-55l-72 -125l-65 125h-54zM1137 711q0 -47 32.5 -78t81.5 -31q52 0 83.5 30.5t31.5 78.5q0 50 -31.5 80t-83.5 30q-50 0 -82 -30.5t-32 -79.5zM1202 711q0 25 13.5 40t35.5 15q21 0 35 -15.5t14 -39.5 q0 -23 -14.5 -38.5t-34.5 -15.5q-22 0 -35.5 15.5t-13.5 38.5z" />
<glyph unicode="&#xb4;" d="M205 -2v1395h1388v-1395h-1388zM287 80h1224v1231h-1224v-1231zM444 608q27 -6 82 -6q53 0 84 30.5t31 78.5q0 50 -31 80t-84 30q-17 0 -43 -3t-39 -3v-207zM504 657v109h22q49 0 49 -55q0 -24 -11.5 -39t-31.5 -15h-28zM668 608h163v49h-104v27h88v55h-88v27h104v49 h-163v-207zM854 608h59l11 88l43 -88h39l43 88l6 -88h59l-4 207h-55l-72 -125l-65 125h-54zM1137 711q0 -47 32.5 -78t81.5 -31q52 0 83.5 30.5t31.5 78.5q0 50 -31.5 80t-83.5 30q-50 0 -82 -30.5t-32 -79.5zM1202 711q0 25 13.5 40t35.5 15q21 0 35 -15.5t14 -39.5 q0 -23 -14.5 -38.5t-34.5 -15.5q-22 0 -35.5 15.5t-13.5 38.5z" />
<glyph unicode="&#xb6;" d="M205 -2v1395h1388v-1395h-1388zM287 80h1224v1231h-1224v-1231zM444 608q27 -6 82 -6q53 0 84 30.5t31 78.5q0 50 -31 80t-84 30q-17 0 -43 -3t-39 -3v-207zM504 657v109h22q49 0 49 -55q0 -24 -11.5 -39t-31.5 -15h-28zM668 608h163v49h-104v27h88v55h-88v27h104v49 h-163v-207zM854 608h59l11 88l43 -88h39l43 88l6 -88h59l-4 207h-55l-72 -125l-65 125h-54zM1137 711q0 -47 32.5 -78t81.5 -31q52 0 83.5 30.5t31.5 78.5q0 50 -31.5 80t-83.5 30q-50 0 -82 -30.5t-32 -79.5zM1202 711q0 25 13.5 40t35.5 15q21 0 35 -15.5t14 -39.5 q0 -23 -14.5 -38.5t-34.5 -15.5q-22 0 -35.5 15.5t-13.5 38.5z" />
<glyph unicode="&#xb7;" d="M205 -2v1395h1388v-1395h-1388zM287 80h1224v1231h-1224v-1231zM444 608q27 -6 82 -6q53 0 84 30.5t31 78.5q0 50 -31 80t-84 30q-17 0 -43 -3t-39 -3v-207zM504 657v109h22q49 0 49 -55q0 -24 -11.5 -39t-31.5 -15h-28zM668 608h163v49h-104v27h88v55h-88v27h104v49 h-163v-207zM854 608h59l11 88l43 -88h39l43 88l6 -88h59l-4 207h-55l-72 -125l-65 125h-54zM1137 711q0 -47 32.5 -78t81.5 -31q52 0 83.5 30.5t31.5 78.5q0 50 -31.5 80t-83.5 30q-50 0 -82 -30.5t-32 -79.5zM1202 711q0 25 13.5 40t35.5 15q21 0 35 -15.5t14 -39.5 q0 -23 -14.5 -38.5t-34.5 -15.5q-22 0 -35.5 15.5t-13.5 38.5z" />
<glyph unicode="&#xb8;" d="M205 -2v1395h1388v-1395h-1388zM287 80h1224v1231h-1224v-1231zM444 608q27 -6 82 -6q53 0 84 30.5t31 78.5q0 50 -31 80t-84 30q-17 0 -43 -3t-39 -3v-207zM504 657v109h22q49 0 49 -55q0 -24 -11.5 -39t-31.5 -15h-28zM668 608h163v49h-104v27h88v55h-88v27h104v49 h-163v-207zM854 608h59l11 88l43 -88h39l43 88l6 -88h59l-4 207h-55l-72 -125l-65 125h-54zM1137 711q0 -47 32.5 -78t81.5 -31q52 0 83.5 30.5t31.5 78.5q0 50 -31.5 80t-83.5 30q-50 0 -82 -30.5t-32 -79.5zM1202 711q0 25 13.5 40t35.5 15q21 0 35 -15.5t14 -39.5 q0 -23 -14.5 -38.5t-34.5 -15.5q-22 0 -35.5 15.5t-13.5 38.5z" />
<glyph unicode="&#xb9;" d="M205 -2v1395h1388v-1395h-1388zM287 80h1224v1231h-1224v-1231zM444 608q27 -6 82 -6q53 0 84 30.5t31 78.5q0 50 -31 80t-84 30q-17 0 -43 -3t-39 -3v-207zM504 657v109h22q49 0 49 -55q0 -24 -11.5 -39t-31.5 -15h-28zM668 608h163v49h-104v27h88v55h-88v27h104v49 h-163v-207zM854 608h59l11 88l43 -88h39l43 88l6 -88h59l-4 207h-55l-72 -125l-65 125h-54zM1137 711q0 -47 32.5 -78t81.5 -31q52 0 83.5 30.5t31.5 78.5q0 50 -31.5 80t-83.5 30q-50 0 -82 -30.5t-32 -79.5zM1202 711q0 25 13.5 40t35.5 15q21 0 35 -15.5t14 -39.5 q0 -23 -14.5 -38.5t-34.5 -15.5q-22 0 -35.5 15.5t-13.5 38.5z" />
<glyph unicode="&#xba;" horiz-adv-x="927" d="M94 1069q0 157 105 255.5t266 98.5t265 -98.5t104 -255.5q0 -160 -104 -261t-265 -101t-266 101t-105 261zM209 1069q0 -115 72.5 -186.5t181.5 -71.5q111 0 183.5 71.5t72.5 186.5q0 112 -73 182t-183 70q-109 0 -181.5 -70t-72.5 -182z" />
<glyph unicode="&#xbb;" d="M205 -2v1395h1388v-1395h-1388zM287 80h1224v1231h-1224v-1231zM444 608q27 -6 82 -6q53 0 84 30.5t31 78.5q0 50 -31 80t-84 30q-17 0 -43 -3t-39 -3v-207zM504 657v109h22q49 0 49 -55q0 -24 -11.5 -39t-31.5 -15h-28zM668 608h163v49h-104v27h88v55h-88v27h104v49 h-163v-207zM854 608h59l11 88l43 -88h39l43 88l6 -88h59l-4 207h-55l-72 -125l-65 125h-54zM1137 711q0 -47 32.5 -78t81.5 -31q52 0 83.5 30.5t31.5 78.5q0 50 -31.5 80t-83.5 30q-50 0 -82 -30.5t-32 -79.5zM1202 711q0 25 13.5 40t35.5 15q21 0 35 -15.5t14 -39.5 q0 -23 -14.5 -38.5t-34.5 -15.5q-22 0 -35.5 15.5t-13.5 38.5z" />
<glyph unicode="&#xbc;" d="M205 -2v1395h1388v-1395h-1388zM287 80h1224v1231h-1224v-1231zM444 608q27 -6 82 -6q53 0 84 30.5t31 78.5q0 50 -31 80t-84 30q-17 0 -43 -3t-39 -3v-207zM504 657v109h22q49 0 49 -55q0 -24 -11.5 -39t-31.5 -15h-28zM668 608h163v49h-104v27h88v55h-88v27h104v49 h-163v-207zM854 608h59l11 88l43 -88h39l43 88l6 -88h59l-4 207h-55l-72 -125l-65 125h-54zM1137 711q0 -47 32.5 -78t81.5 -31q52 0 83.5 30.5t31.5 78.5q0 50 -31.5 80t-83.5 30q-50 0 -82 -30.5t-32 -79.5zM1202 711q0 25 13.5 40t35.5 15q21 0 35 -15.5t14 -39.5 q0 -23 -14.5 -38.5t-34.5 -15.5q-22 0 -35.5 15.5t-13.5 38.5z" />
<glyph unicode="&#xbd;" d="M205 -2v1395h1388v-1395h-1388zM287 80h1224v1231h-1224v-1231zM444 608q27 -6 82 -6q53 0 84 30.5t31 78.5q0 50 -31 80t-84 30q-17 0 -43 -3t-39 -3v-207zM504 657v109h22q49 0 49 -55q0 -24 -11.5 -39t-31.5 -15h-28zM668 608h163v49h-104v27h88v55h-88v27h104v49 h-163v-207zM854 608h59l11 88l43 -88h39l43 88l6 -88h59l-4 207h-55l-72 -125l-65 125h-54zM1137 711q0 -47 32.5 -78t81.5 -31q52 0 83.5 30.5t31.5 78.5q0 50 -31.5 80t-83.5 30q-50 0 -82 -30.5t-32 -79.5zM1202 711q0 25 13.5 40t35.5 15q21 0 35 -15.5t14 -39.5 q0 -23 -14.5 -38.5t-34.5 -15.5q-22 0 -35.5 15.5t-13.5 38.5z" />
<glyph unicode="&#xbe;" d="M205 -2v1395h1388v-1395h-1388zM287 80h1224v1231h-1224v-1231zM444 608q27 -6 82 -6q53 0 84 30.5t31 78.5q0 50 -31 80t-84 30q-17 0 -43 -3t-39 -3v-207zM504 657v109h22q49 0 49 -55q0 -24 -11.5 -39t-31.5 -15h-28zM668 608h163v49h-104v27h88v55h-88v27h104v49 h-163v-207zM854 608h59l11 88l43 -88h39l43 88l6 -88h59l-4 207h-55l-72 -125l-65 125h-54zM1137 711q0 -47 32.5 -78t81.5 -31q52 0 83.5 30.5t31.5 78.5q0 50 -31.5 80t-83.5 30q-50 0 -82 -30.5t-32 -79.5zM1202 711q0 25 13.5 40t35.5 15q21 0 35 -15.5t14 -39.5 q0 -23 -14.5 -38.5t-34.5 -15.5q-22 0 -35.5 15.5t-13.5 38.5z" />
<glyph unicode="&#xbf;" d="M205 -2v1395h1388v-1395h-1388zM287 80h1224v1231h-1224v-1231zM444 608q27 -6 82 -6q53 0 84 30.5t31 78.5q0 50 -31 80t-84 30q-17 0 -43 -3t-39 -3v-207zM504 657v109h22q49 0 49 -55q0 -24 -11.5 -39t-31.5 -15h-28zM668 608h163v49h-104v27h88v55h-88v27h104v49 h-163v-207zM854 608h59l11 88l43 -88h39l43 88l6 -88h59l-4 207h-55l-72 -125l-65 125h-54zM1137 711q0 -47 32.5 -78t81.5 -31q52 0 83.5 30.5t31.5 78.5q0 50 -31.5 80t-83.5 30q-50 0 -82 -30.5t-32 -79.5zM1202 711q0 25 13.5 40t35.5 15q21 0 35 -15.5t14 -39.5 q0 -23 -14.5 -38.5t-34.5 -15.5q-22 0 -35.5 15.5t-13.5 38.5z" />
<glyph unicode="&#xc0;" d="M205 -2v1395h1388v-1395h-1388zM287 80h1224v1231h-1224v-1231zM444 608q27 -6 82 -6q53 0 84 30.5t31 78.5q0 50 -31 80t-84 30q-17 0 -43 -3t-39 -3v-207zM504 657v109h22q49 0 49 -55q0 -24 -11.5 -39t-31.5 -15h-28zM668 608h163v49h-104v27h88v55h-88v27h104v49 h-163v-207zM854 608h59l11 88l43 -88h39l43 88l6 -88h59l-4 207h-55l-72 -125l-65 125h-54zM1137 711q0 -47 32.5 -78t81.5 -31q52 0 83.5 30.5t31.5 78.5q0 50 -31.5 80t-83.5 30q-50 0 -82 -30.5t-32 -79.5zM1202 711q0 25 13.5 40t35.5 15q21 0 35 -15.5t14 -39.5 q0 -23 -14.5 -38.5t-34.5 -15.5q-22 0 -35.5 15.5t-13.5 38.5z" />
<glyph unicode="&#xc1;" d="M205 -2v1395h1388v-1395h-1388zM287 80h1224v1231h-1224v-1231zM444 608q27 -6 82 -6q53 0 84 30.5t31 78.5q0 50 -31 80t-84 30q-17 0 -43 -3t-39 -3v-207zM504 657v109h22q49 0 49 -55q0 -24 -11.5 -39t-31.5 -15h-28zM668 608h163v49h-104v27h88v55h-88v27h104v49 h-163v-207zM854 608h59l11 88l43 -88h39l43 88l6 -88h59l-4 207h-55l-72 -125l-65 125h-54zM1137 711q0 -47 32.5 -78t81.5 -31q52 0 83.5 30.5t31.5 78.5q0 50 -31.5 80t-83.5 30q-50 0 -82 -30.5t-32 -79.5zM1202 711q0 25 13.5 40t35.5 15q21 0 35 -15.5t14 -39.5 q0 -23 -14.5 -38.5t-34.5 -15.5q-22 0 -35.5 15.5t-13.5 38.5z" />
<glyph unicode="&#xc2;" d="M205 -2v1395h1388v-1395h-1388zM287 80h1224v1231h-1224v-1231zM444 608q27 -6 82 -6q53 0 84 30.5t31 78.5q0 50 -31 80t-84 30q-17 0 -43 -3t-39 -3v-207zM504 657v109h22q49 0 49 -55q0 -24 -11.5 -39t-31.5 -15h-28zM668 608h163v49h-104v27h88v55h-88v27h104v49 h-163v-207zM854 608h59l11 88l43 -88h39l43 88l6 -88h59l-4 207h-55l-72 -125l-65 125h-54zM1137 711q0 -47 32.5 -78t81.5 -31q52 0 83.5 30.5t31.5 78.5q0 50 -31.5 80t-83.5 30q-50 0 -82 -30.5t-32 -79.5zM1202 711q0 25 13.5 40t35.5 15q21 0 35 -15.5t14 -39.5 q0 -23 -14.5 -38.5t-34.5 -15.5q-22 0 -35.5 15.5t-13.5 38.5z" />
<glyph unicode="&#xc3;" d="M205 -2v1395h1388v-1395h-1388zM287 80h1224v1231h-1224v-1231zM444 608q27 -6 82 -6q53 0 84 30.5t31 78.5q0 50 -31 80t-84 30q-17 0 -43 -3t-39 -3v-207zM504 657v109h22q49 0 49 -55q0 -24 -11.5 -39t-31.5 -15h-28zM668 608h163v49h-104v27h88v55h-88v27h104v49 h-163v-207zM854 608h59l11 88l43 -88h39l43 88l6 -88h59l-4 207h-55l-72 -125l-65 125h-54zM1137 711q0 -47 32.5 -78t81.5 -31q52 0 83.5 30.5t31.5 78.5q0 50 -31.5 80t-83.5 30q-50 0 -82 -30.5t-32 -79.5zM1202 711q0 25 13.5 40t35.5 15q21 0 35 -15.5t14 -39.5 q0 -23 -14.5 -38.5t-34.5 -15.5q-22 0 -35.5 15.5t-13.5 38.5z" />
<glyph unicode="&#xc4;" d="M205 -2v1395h1388v-1395h-1388zM287 80h1224v1231h-1224v-1231zM444 608q27 -6 82 -6q53 0 84 30.5t31 78.5q0 50 -31 80t-84 30q-17 0 -43 -3t-39 -3v-207zM504 657v109h22q49 0 49 -55q0 -24 -11.5 -39t-31.5 -15h-28zM668 608h163v49h-104v27h88v55h-88v27h104v49 h-163v-207zM854 608h59l11 88l43 -88h39l43 88l6 -88h59l-4 207h-55l-72 -125l-65 125h-54zM1137 711q0 -47 32.5 -78t81.5 -31q52 0 83.5 30.5t31.5 78.5q0 50 -31.5 80t-83.5 30q-50 0 -82 -30.5t-32 -79.5zM1202 711q0 25 13.5 40t35.5 15q21 0 35 -15.5t14 -39.5 q0 -23 -14.5 -38.5t-34.5 -15.5q-22 0 -35.5 15.5t-13.5 38.5z" />
<glyph unicode="&#xc5;" d="M205 -2v1395h1388v-1395h-1388zM287 80h1224v1231h-1224v-1231zM444 608q27 -6 82 -6q53 0 84 30.5t31 78.5q0 50 -31 80t-84 30q-17 0 -43 -3t-39 -3v-207zM504 657v109h22q49 0 49 -55q0 -24 -11.5 -39t-31.5 -15h-28zM668 608h163v49h-104v27h88v55h-88v27h104v49 h-163v-207zM854 608h59l11 88l43 -88h39l43 88l6 -88h59l-4 207h-55l-72 -125l-65 125h-54zM1137 711q0 -47 32.5 -78t81.5 -31q52 0 83.5 30.5t31.5 78.5q0 50 -31.5 80t-83.5 30q-50 0 -82 -30.5t-32 -79.5zM1202 711q0 25 13.5 40t35.5 15q21 0 35 -15.5t14 -39.5 q0 -23 -14.5 -38.5t-34.5 -15.5q-22 0 -35.5 15.5t-13.5 38.5z" />
<glyph unicode="&#xc6;" d="M205 -2v1395h1388v-1395h-1388zM287 80h1224v1231h-1224v-1231zM444 608q27 -6 82 -6q53 0 84 30.5t31 78.5q0 50 -31 80t-84 30q-17 0 -43 -3t-39 -3v-207zM504 657v109h22q49 0 49 -55q0 -24 -11.5 -39t-31.5 -15h-28zM668 608h163v49h-104v27h88v55h-88v27h104v49 h-163v-207zM854 608h59l11 88l43 -88h39l43 88l6 -88h59l-4 207h-55l-72 -125l-65 125h-54zM1137 711q0 -47 32.5 -78t81.5 -31q52 0 83.5 30.5t31.5 78.5q0 50 -31.5 80t-83.5 30q-50 0 -82 -30.5t-32 -79.5zM1202 711q0 25 13.5 40t35.5 15q21 0 35 -15.5t14 -39.5 q0 -23 -14.5 -38.5t-34.5 -15.5q-22 0 -35.5 15.5t-13.5 38.5z" />
<glyph unicode="&#xc7;" d="M205 -2v1395h1388v-1395h-1388zM287 80h1224v1231h-1224v-1231zM444 608q27 -6 82 -6q53 0 84 30.5t31 78.5q0 50 -31 80t-84 30q-17 0 -43 -3t-39 -3v-207zM504 657v109h22q49 0 49 -55q0 -24 -11.5 -39t-31.5 -15h-28zM668 608h163v49h-104v27h88v55h-88v27h104v49 h-163v-207zM854 608h59l11 88l43 -88h39l43 88l6 -88h59l-4 207h-55l-72 -125l-65 125h-54zM1137 711q0 -47 32.5 -78t81.5 -31q52 0 83.5 30.5t31.5 78.5q0 50 -31.5 80t-83.5 30q-50 0 -82 -30.5t-32 -79.5zM1202 711q0 25 13.5 40t35.5 15q21 0 35 -15.5t14 -39.5 q0 -23 -14.5 -38.5t-34.5 -15.5q-22 0 -35.5 15.5t-13.5 38.5z" />
<glyph unicode="&#xc8;" d="M205 -2v1395h1388v-1395h-1388zM287 80h1224v1231h-1224v-1231zM444 608q27 -6 82 -6q53 0 84 30.5t31 78.5q0 50 -31 80t-84 30q-17 0 -43 -3t-39 -3v-207zM504 657v109h22q49 0 49 -55q0 -24 -11.5 -39t-31.5 -15h-28zM668 608h163v49h-104v27h88v55h-88v27h104v49 h-163v-207zM854 608h59l11 88l43 -88h39l43 88l6 -88h59l-4 207h-55l-72 -125l-65 125h-54zM1137 711q0 -47 32.5 -78t81.5 -31q52 0 83.5 30.5t31.5 78.5q0 50 -31.5 80t-83.5 30q-50 0 -82 -30.5t-32 -79.5zM1202 711q0 25 13.5 40t35.5 15q21 0 35 -15.5t14 -39.5 q0 -23 -14.5 -38.5t-34.5 -15.5q-22 0 -35.5 15.5t-13.5 38.5z" />
<glyph unicode="&#xc9;" d="M205 -2v1395h1388v-1395h-1388zM287 80h1224v1231h-1224v-1231zM444 608q27 -6 82 -6q53 0 84 30.5t31 78.5q0 50 -31 80t-84 30q-17 0 -43 -3t-39 -3v-207zM504 657v109h22q49 0 49 -55q0 -24 -11.5 -39t-31.5 -15h-28zM668 608h163v49h-104v27h88v55h-88v27h104v49 h-163v-207zM854 608h59l11 88l43 -88h39l43 88l6 -88h59l-4 207h-55l-72 -125l-65 125h-54zM1137 711q0 -47 32.5 -78t81.5 -31q52 0 83.5 30.5t31.5 78.5q0 50 -31.5 80t-83.5 30q-50 0 -82 -30.5t-32 -79.5zM1202 711q0 25 13.5 40t35.5 15q21 0 35 -15.5t14 -39.5 q0 -23 -14.5 -38.5t-34.5 -15.5q-22 0 -35.5 15.5t-13.5 38.5z" />
<glyph unicode="&#xca;" d="M205 -2v1395h1388v-1395h-1388zM287 80h1224v1231h-1224v-1231zM444 608q27 -6 82 -6q53 0 84 30.5t31 78.5q0 50 -31 80t-84 30q-17 0 -43 -3t-39 -3v-207zM504 657v109h22q49 0 49 -55q0 -24 -11.5 -39t-31.5 -15h-28zM668 608h163v49h-104v27h88v55h-88v27h104v49 h-163v-207zM854 608h59l11 88l43 -88h39l43 88l6 -88h59l-4 207h-55l-72 -125l-65 125h-54zM1137 711q0 -47 32.5 -78t81.5 -31q52 0 83.5 30.5t31.5 78.5q0 50 -31.5 80t-83.5 30q-50 0 -82 -30.5t-32 -79.5zM1202 711q0 25 13.5 40t35.5 15q21 0 35 -15.5t14 -39.5 q0 -23 -14.5 -38.5t-34.5 -15.5q-22 0 -35.5 15.5t-13.5 38.5z" />
<glyph unicode="&#xcb;" d="M205 -2v1395h1388v-1395h-1388zM287 80h1224v1231h-1224v-1231zM444 608q27 -6 82 -6q53 0 84 30.5t31 78.5q0 50 -31 80t-84 30q-17 0 -43 -3t-39 -3v-207zM504 657v109h22q49 0 49 -55q0 -24 -11.5 -39t-31.5 -15h-28zM668 608h163v49h-104v27h88v55h-88v27h104v49 h-163v-207zM854 608h59l11 88l43 -88h39l43 88l6 -88h59l-4 207h-55l-72 -125l-65 125h-54zM1137 711q0 -47 32.5 -78t81.5 -31q52 0 83.5 30.5t31.5 78.5q0 50 -31.5 80t-83.5 30q-50 0 -82 -30.5t-32 -79.5zM1202 711q0 25 13.5 40t35.5 15q21 0 35 -15.5t14 -39.5 q0 -23 -14.5 -38.5t-34.5 -15.5q-22 0 -35.5 15.5t-13.5 38.5z" />
<glyph unicode="&#xcc;" d="M205 -2v1395h1388v-1395h-1388zM287 80h1224v1231h-1224v-1231zM444 608q27 -6 82 -6q53 0 84 30.5t31 78.5q0 50 -31 80t-84 30q-17 0 -43 -3t-39 -3v-207zM504 657v109h22q49 0 49 -55q0 -24 -11.5 -39t-31.5 -15h-28zM668 608h163v49h-104v27h88v55h-88v27h104v49 h-163v-207zM854 608h59l11 88l43 -88h39l43 88l6 -88h59l-4 207h-55l-72 -125l-65 125h-54zM1137 711q0 -47 32.5 -78t81.5 -31q52 0 83.5 30.5t31.5 78.5q0 50 -31.5 80t-83.5 30q-50 0 -82 -30.5t-32 -79.5zM1202 711q0 25 13.5 40t35.5 15q21 0 35 -15.5t14 -39.5 q0 -23 -14.5 -38.5t-34.5 -15.5q-22 0 -35.5 15.5t-13.5 38.5z" />
<glyph unicode="&#xcd;" d="M205 -2v1395h1388v-1395h-1388zM287 80h1224v1231h-1224v-1231zM444 608q27 -6 82 -6q53 0 84 30.5t31 78.5q0 50 -31 80t-84 30q-17 0 -43 -3t-39 -3v-207zM504 657v109h22q49 0 49 -55q0 -24 -11.5 -39t-31.5 -15h-28zM668 608h163v49h-104v27h88v55h-88v27h104v49 h-163v-207zM854 608h59l11 88l43 -88h39l43 88l6 -88h59l-4 207h-55l-72 -125l-65 125h-54zM1137 711q0 -47 32.5 -78t81.5 -31q52 0 83.5 30.5t31.5 78.5q0 50 -31.5 80t-83.5 30q-50 0 -82 -30.5t-32 -79.5zM1202 711q0 25 13.5 40t35.5 15q21 0 35 -15.5t14 -39.5 q0 -23 -14.5 -38.5t-34.5 -15.5q-22 0 -35.5 15.5t-13.5 38.5z" />
<glyph unicode="&#xce;" d="M205 -2v1395h1388v-1395h-1388zM287 80h1224v1231h-1224v-1231zM444 608q27 -6 82 -6q53 0 84 30.5t31 78.5q0 50 -31 80t-84 30q-17 0 -43 -3t-39 -3v-207zM504 657v109h22q49 0 49 -55q0 -24 -11.5 -39t-31.5 -15h-28zM668 608h163v49h-104v27h88v55h-88v27h104v49 h-163v-207zM854 608h59l11 88l43 -88h39l43 88l6 -88h59l-4 207h-55l-72 -125l-65 125h-54zM1137 711q0 -47 32.5 -78t81.5 -31q52 0 83.5 30.5t31.5 78.5q0 50 -31.5 80t-83.5 30q-50 0 -82 -30.5t-32 -79.5zM1202 711q0 25 13.5 40t35.5 15q21 0 35 -15.5t14 -39.5 q0 -23 -14.5 -38.5t-34.5 -15.5q-22 0 -35.5 15.5t-13.5 38.5z" />
<glyph unicode="&#xcf;" d="M205 -2v1395h1388v-1395h-1388zM287 80h1224v1231h-1224v-1231zM444 608q27 -6 82 -6q53 0 84 30.5t31 78.5q0 50 -31 80t-84 30q-17 0 -43 -3t-39 -3v-207zM504 657v109h22q49 0 49 -55q0 -24 -11.5 -39t-31.5 -15h-28zM668 608h163v49h-104v27h88v55h-88v27h104v49 h-163v-207zM854 608h59l11 88l43 -88h39l43 88l6 -88h59l-4 207h-55l-72 -125l-65 125h-54zM1137 711q0 -47 32.5 -78t81.5 -31q52 0 83.5 30.5t31.5 78.5q0 50 -31.5 80t-83.5 30q-50 0 -82 -30.5t-32 -79.5zM1202 711q0 25 13.5 40t35.5 15q21 0 35 -15.5t14 -39.5 q0 -23 -14.5 -38.5t-34.5 -15.5q-22 0 -35.5 15.5t-13.5 38.5z" />
<glyph unicode="&#xd0;" d="M205 -2v1395h1388v-1395h-1388zM287 80h1224v1231h-1224v-1231zM444 608q27 -6 82 -6q53 0 84 30.5t31 78.5q0 50 -31 80t-84 30q-17 0 -43 -3t-39 -3v-207zM504 657v109h22q49 0 49 -55q0 -24 -11.5 -39t-31.5 -15h-28zM668 608h163v49h-104v27h88v55h-88v27h104v49 h-163v-207zM854 608h59l11 88l43 -88h39l43 88l6 -88h59l-4 207h-55l-72 -125l-65 125h-54zM1137 711q0 -47 32.5 -78t81.5 -31q52 0 83.5 30.5t31.5 78.5q0 50 -31.5 80t-83.5 30q-50 0 -82 -30.5t-32 -79.5zM1202 711q0 25 13.5 40t35.5 15q21 0 35 -15.5t14 -39.5 q0 -23 -14.5 -38.5t-34.5 -15.5q-22 0 -35.5 15.5t-13.5 38.5z" />
<glyph unicode="&#xd1;" d="M205 -2v1395h1388v-1395h-1388zM287 80h1224v1231h-1224v-1231zM444 608q27 -6 82 -6q53 0 84 30.5t31 78.5q0 50 -31 80t-84 30q-17 0 -43 -3t-39 -3v-207zM504 657v109h22q49 0 49 -55q0 -24 -11.5 -39t-31.5 -15h-28zM668 608h163v49h-104v27h88v55h-88v27h104v49 h-163v-207zM854 608h59l11 88l43 -88h39l43 88l6 -88h59l-4 207h-55l-72 -125l-65 125h-54zM1137 711q0 -47 32.5 -78t81.5 -31q52 0 83.5 30.5t31.5 78.5q0 50 -31.5 80t-83.5 30q-50 0 -82 -30.5t-32 -79.5zM1202 711q0 25 13.5 40t35.5 15q21 0 35 -15.5t14 -39.5 q0 -23 -14.5 -38.5t-34.5 -15.5q-22 0 -35.5 15.5t-13.5 38.5z" />
<glyph unicode="&#xd2;" d="M205 -2v1395h1388v-1395h-1388zM287 80h1224v1231h-1224v-1231zM444 608q27 -6 82 -6q53 0 84 30.5t31 78.5q0 50 -31 80t-84 30q-17 0 -43 -3t-39 -3v-207zM504 657v109h22q49 0 49 -55q0 -24 -11.5 -39t-31.5 -15h-28zM668 608h163v49h-104v27h88v55h-88v27h104v49 h-163v-207zM854 608h59l11 88l43 -88h39l43 88l6 -88h59l-4 207h-55l-72 -125l-65 125h-54zM1137 711q0 -47 32.5 -78t81.5 -31q52 0 83.5 30.5t31.5 78.5q0 50 -31.5 80t-83.5 30q-50 0 -82 -30.5t-32 -79.5zM1202 711q0 25 13.5 40t35.5 15q21 0 35 -15.5t14 -39.5 q0 -23 -14.5 -38.5t-34.5 -15.5q-22 0 -35.5 15.5t-13.5 38.5z" />
<glyph unicode="&#xd3;" d="M205 -2v1395h1388v-1395h-1388zM287 80h1224v1231h-1224v-1231zM444 608q27 -6 82 -6q53 0 84 30.5t31 78.5q0 50 -31 80t-84 30q-17 0 -43 -3t-39 -3v-207zM504 657v109h22q49 0 49 -55q0 -24 -11.5 -39t-31.5 -15h-28zM668 608h163v49h-104v27h88v55h-88v27h104v49 h-163v-207zM854 608h59l11 88l43 -88h39l43 88l6 -88h59l-4 207h-55l-72 -125l-65 125h-54zM1137 711q0 -47 32.5 -78t81.5 -31q52 0 83.5 30.5t31.5 78.5q0 50 -31.5 80t-83.5 30q-50 0 -82 -30.5t-32 -79.5zM1202 711q0 25 13.5 40t35.5 15q21 0 35 -15.5t14 -39.5 q0 -23 -14.5 -38.5t-34.5 -15.5q-22 0 -35.5 15.5t-13.5 38.5z" />
<glyph unicode="&#xd4;" d="M205 -2v1395h1388v-1395h-1388zM287 80h1224v1231h-1224v-1231zM444 608q27 -6 82 -6q53 0 84 30.5t31 78.5q0 50 -31 80t-84 30q-17 0 -43 -3t-39 -3v-207zM504 657v109h22q49 0 49 -55q0 -24 -11.5 -39t-31.5 -15h-28zM668 608h163v49h-104v27h88v55h-88v27h104v49 h-163v-207zM854 608h59l11 88l43 -88h39l43 88l6 -88h59l-4 207h-55l-72 -125l-65 125h-54zM1137 711q0 -47 32.5 -78t81.5 -31q52 0 83.5 30.5t31.5 78.5q0 50 -31.5 80t-83.5 30q-50 0 -82 -30.5t-32 -79.5zM1202 711q0 25 13.5 40t35.5 15q21 0 35 -15.5t14 -39.5 q0 -23 -14.5 -38.5t-34.5 -15.5q-22 0 -35.5 15.5t-13.5 38.5z" />
<glyph unicode="&#xd5;" d="M205 -2v1395h1388v-1395h-1388zM287 80h1224v1231h-1224v-1231zM444 608q27 -6 82 -6q53 0 84 30.5t31 78.5q0 50 -31 80t-84 30q-17 0 -43 -3t-39 -3v-207zM504 657v109h22q49 0 49 -55q0 -24 -11.5 -39t-31.5 -15h-28zM668 608h163v49h-104v27h88v55h-88v27h104v49 h-163v-207zM854 608h59l11 88l43 -88h39l43 88l6 -88h59l-4 207h-55l-72 -125l-65 125h-54zM1137 711q0 -47 32.5 -78t81.5 -31q52 0 83.5 30.5t31.5 78.5q0 50 -31.5 80t-83.5 30q-50 0 -82 -30.5t-32 -79.5zM1202 711q0 25 13.5 40t35.5 15q21 0 35 -15.5t14 -39.5 q0 -23 -14.5 -38.5t-34.5 -15.5q-22 0 -35.5 15.5t-13.5 38.5z" />
<glyph unicode="&#xd6;" d="M205 -2v1395h1388v-1395h-1388zM287 80h1224v1231h-1224v-1231zM444 608q27 -6 82 -6q53 0 84 30.5t31 78.5q0 50 -31 80t-84 30q-17 0 -43 -3t-39 -3v-207zM504 657v109h22q49 0 49 -55q0 -24 -11.5 -39t-31.5 -15h-28zM668 608h163v49h-104v27h88v55h-88v27h104v49 h-163v-207zM854 608h59l11 88l43 -88h39l43 88l6 -88h59l-4 207h-55l-72 -125l-65 125h-54zM1137 711q0 -47 32.5 -78t81.5 -31q52 0 83.5 30.5t31.5 78.5q0 50 -31.5 80t-83.5 30q-50 0 -82 -30.5t-32 -79.5zM1202 711q0 25 13.5 40t35.5 15q21 0 35 -15.5t14 -39.5 q0 -23 -14.5 -38.5t-34.5 -15.5q-22 0 -35.5 15.5t-13.5 38.5z" />
<glyph unicode="&#xd7;" d="M205 -2v1395h1388v-1395h-1388zM287 80h1224v1231h-1224v-1231zM444 608q27 -6 82 -6q53 0 84 30.5t31 78.5q0 50 -31 80t-84 30q-17 0 -43 -3t-39 -3v-207zM504 657v109h22q49 0 49 -55q0 -24 -11.5 -39t-31.5 -15h-28zM668 608h163v49h-104v27h88v55h-88v27h104v49 h-163v-207zM854 608h59l11 88l43 -88h39l43 88l6 -88h59l-4 207h-55l-72 -125l-65 125h-54zM1137 711q0 -47 32.5 -78t81.5 -31q52 0 83.5 30.5t31.5 78.5q0 50 -31.5 80t-83.5 30q-50 0 -82 -30.5t-32 -79.5zM1202 711q0 25 13.5 40t35.5 15q21 0 35 -15.5t14 -39.5 q0 -23 -14.5 -38.5t-34.5 -15.5q-22 0 -35.5 15.5t-13.5 38.5z" />
<glyph unicode="&#xd8;" d="M205 -2v1395h1388v-1395h-1388zM287 80h1224v1231h-1224v-1231zM444 608q27 -6 82 -6q53 0 84 30.5t31 78.5q0 50 -31 80t-84 30q-17 0 -43 -3t-39 -3v-207zM504 657v109h22q49 0 49 -55q0 -24 -11.5 -39t-31.5 -15h-28zM668 608h163v49h-104v27h88v55h-88v27h104v49 h-163v-207zM854 608h59l11 88l43 -88h39l43 88l6 -88h59l-4 207h-55l-72 -125l-65 125h-54zM1137 711q0 -47 32.5 -78t81.5 -31q52 0 83.5 30.5t31.5 78.5q0 50 -31.5 80t-83.5 30q-50 0 -82 -30.5t-32 -79.5zM1202 711q0 25 13.5 40t35.5 15q21 0 35 -15.5t14 -39.5 q0 -23 -14.5 -38.5t-34.5 -15.5q-22 0 -35.5 15.5t-13.5 38.5z" />
<glyph unicode="&#xd9;" d="M205 -2v1395h1388v-1395h-1388zM287 80h1224v1231h-1224v-1231zM444 608q27 -6 82 -6q53 0 84 30.5t31 78.5q0 50 -31 80t-84 30q-17 0 -43 -3t-39 -3v-207zM504 657v109h22q49 0 49 -55q0 -24 -11.5 -39t-31.5 -15h-28zM668 608h163v49h-104v27h88v55h-88v27h104v49 h-163v-207zM854 608h59l11 88l43 -88h39l43 88l6 -88h59l-4 207h-55l-72 -125l-65 125h-54zM1137 711q0 -47 32.5 -78t81.5 -31q52 0 83.5 30.5t31.5 78.5q0 50 -31.5 80t-83.5 30q-50 0 -82 -30.5t-32 -79.5zM1202 711q0 25 13.5 40t35.5 15q21 0 35 -15.5t14 -39.5 q0 -23 -14.5 -38.5t-34.5 -15.5q-22 0 -35.5 15.5t-13.5 38.5z" />
<glyph unicode="&#xda;" d="M205 -2v1395h1388v-1395h-1388zM287 80h1224v1231h-1224v-1231zM444 608q27 -6 82 -6q53 0 84 30.5t31 78.5q0 50 -31 80t-84 30q-17 0 -43 -3t-39 -3v-207zM504 657v109h22q49 0 49 -55q0 -24 -11.5 -39t-31.5 -15h-28zM668 608h163v49h-104v27h88v55h-88v27h104v49 h-163v-207zM854 608h59l11 88l43 -88h39l43 88l6 -88h59l-4 207h-55l-72 -125l-65 125h-54zM1137 711q0 -47 32.5 -78t81.5 -31q52 0 83.5 30.5t31.5 78.5q0 50 -31.5 80t-83.5 30q-50 0 -82 -30.5t-32 -79.5zM1202 711q0 25 13.5 40t35.5 15q21 0 35 -15.5t14 -39.5 q0 -23 -14.5 -38.5t-34.5 -15.5q-22 0 -35.5 15.5t-13.5 38.5z" />
<glyph unicode="&#xdb;" d="M205 -2v1395h1388v-1395h-1388zM287 80h1224v1231h-1224v-1231zM444 608q27 -6 82 -6q53 0 84 30.5t31 78.5q0 50 -31 80t-84 30q-17 0 -43 -3t-39 -3v-207zM504 657v109h22q49 0 49 -55q0 -24 -11.5 -39t-31.5 -15h-28zM668 608h163v49h-104v27h88v55h-88v27h104v49 h-163v-207zM854 608h59l11 88l43 -88h39l43 88l6 -88h59l-4 207h-55l-72 -125l-65 125h-54zM1137 711q0 -47 32.5 -78t81.5 -31q52 0 83.5 30.5t31.5 78.5q0 50 -31.5 80t-83.5 30q-50 0 -82 -30.5t-32 -79.5zM1202 711q0 25 13.5 40t35.5 15q21 0 35 -15.5t14 -39.5 q0 -23 -14.5 -38.5t-34.5 -15.5q-22 0 -35.5 15.5t-13.5 38.5z" />
<glyph unicode="&#xdc;" d="M205 -2v1395h1388v-1395h-1388zM287 80h1224v1231h-1224v-1231zM444 608q27 -6 82 -6q53 0 84 30.5t31 78.5q0 50 -31 80t-84 30q-17 0 -43 -3t-39 -3v-207zM504 657v109h22q49 0 49 -55q0 -24 -11.5 -39t-31.5 -15h-28zM668 608h163v49h-104v27h88v55h-88v27h104v49 h-163v-207zM854 608h59l11 88l43 -88h39l43 88l6 -88h59l-4 207h-55l-72 -125l-65 125h-54zM1137 711q0 -47 32.5 -78t81.5 -31q52 0 83.5 30.5t31.5 78.5q0 50 -31.5 80t-83.5 30q-50 0 -82 -30.5t-32 -79.5zM1202 711q0 25 13.5 40t35.5 15q21 0 35 -15.5t14 -39.5 q0 -23 -14.5 -38.5t-34.5 -15.5q-22 0 -35.5 15.5t-13.5 38.5z" />
<glyph unicode="&#xdd;" d="M205 -2v1395h1388v-1395h-1388zM287 80h1224v1231h-1224v-1231zM444 608q27 -6 82 -6q53 0 84 30.5t31 78.5q0 50 -31 80t-84 30q-17 0 -43 -3t-39 -3v-207zM504 657v109h22q49 0 49 -55q0 -24 -11.5 -39t-31.5 -15h-28zM668 608h163v49h-104v27h88v55h-88v27h104v49 h-163v-207zM854 608h59l11 88l43 -88h39l43 88l6 -88h59l-4 207h-55l-72 -125l-65 125h-54zM1137 711q0 -47 32.5 -78t81.5 -31q52 0 83.5 30.5t31.5 78.5q0 50 -31.5 80t-83.5 30q-50 0 -82 -30.5t-32 -79.5zM1202 711q0 25 13.5 40t35.5 15q21 0 35 -15.5t14 -39.5 q0 -23 -14.5 -38.5t-34.5 -15.5q-22 0 -35.5 15.5t-13.5 38.5z" />
<glyph unicode="&#xde;" d="M205 -2v1395h1388v-1395h-1388zM287 80h1224v1231h-1224v-1231zM444 608q27 -6 82 -6q53 0 84 30.5t31 78.5q0 50 -31 80t-84 30q-17 0 -43 -3t-39 -3v-207zM504 657v109h22q49 0 49 -55q0 -24 -11.5 -39t-31.5 -15h-28zM668 608h163v49h-104v27h88v55h-88v27h104v49 h-163v-207zM854 608h59l11 88l43 -88h39l43 88l6 -88h59l-4 207h-55l-72 -125l-65 125h-54zM1137 711q0 -47 32.5 -78t81.5 -31q52 0 83.5 30.5t31.5 78.5q0 50 -31.5 80t-83.5 30q-50 0 -82 -30.5t-32 -79.5zM1202 711q0 25 13.5 40t35.5 15q21 0 35 -15.5t14 -39.5 q0 -23 -14.5 -38.5t-34.5 -15.5q-22 0 -35.5 15.5t-13.5 38.5z" />
<glyph unicode="&#xdf;" d="M205 -2v1395h1388v-1395h-1388zM287 80h1224v1231h-1224v-1231zM444 608q27 -6 82 -6q53 0 84 30.5t31 78.5q0 50 -31 80t-84 30q-17 0 -43 -3t-39 -3v-207zM504 657v109h22q49 0 49 -55q0 -24 -11.5 -39t-31.5 -15h-28zM668 608h163v49h-104v27h88v55h-88v27h104v49 h-163v-207zM854 608h59l11 88l43 -88h39l43 88l6 -88h59l-4 207h-55l-72 -125l-65 125h-54zM1137 711q0 -47 32.5 -78t81.5 -31q52 0 83.5 30.5t31.5 78.5q0 50 -31.5 80t-83.5 30q-50 0 -82 -30.5t-32 -79.5zM1202 711q0 25 13.5 40t35.5 15q21 0 35 -15.5t14 -39.5 q0 -23 -14.5 -38.5t-34.5 -15.5q-22 0 -35.5 15.5t-13.5 38.5z" />
<glyph unicode="&#xe0;" d="M205 -2v1395h1388v-1395h-1388zM287 80h1224v1231h-1224v-1231zM444 608q27 -6 82 -6q53 0 84 30.5t31 78.5q0 50 -31 80t-84 30q-17 0 -43 -3t-39 -3v-207zM504 657v109h22q49 0 49 -55q0 -24 -11.5 -39t-31.5 -15h-28zM668 608h163v49h-104v27h88v55h-88v27h104v49 h-163v-207zM854 608h59l11 88l43 -88h39l43 88l6 -88h59l-4 207h-55l-72 -125l-65 125h-54zM1137 711q0 -47 32.5 -78t81.5 -31q52 0 83.5 30.5t31.5 78.5q0 50 -31.5 80t-83.5 30q-50 0 -82 -30.5t-32 -79.5zM1202 711q0 25 13.5 40t35.5 15q21 0 35 -15.5t14 -39.5 q0 -23 -14.5 -38.5t-34.5 -15.5q-22 0 -35.5 15.5t-13.5 38.5z" />
<glyph unicode="&#xe1;" d="M205 -2v1395h1388v-1395h-1388zM287 80h1224v1231h-1224v-1231zM444 608q27 -6 82 -6q53 0 84 30.5t31 78.5q0 50 -31 80t-84 30q-17 0 -43 -3t-39 -3v-207zM504 657v109h22q49 0 49 -55q0 -24 -11.5 -39t-31.5 -15h-28zM668 608h163v49h-104v27h88v55h-88v27h104v49 h-163v-207zM854 608h59l11 88l43 -88h39l43 88l6 -88h59l-4 207h-55l-72 -125l-65 125h-54zM1137 711q0 -47 32.5 -78t81.5 -31q52 0 83.5 30.5t31.5 78.5q0 50 -31.5 80t-83.5 30q-50 0 -82 -30.5t-32 -79.5zM1202 711q0 25 13.5 40t35.5 15q21 0 35 -15.5t14 -39.5 q0 -23 -14.5 -38.5t-34.5 -15.5q-22 0 -35.5 15.5t-13.5 38.5z" />
<glyph unicode="&#xe2;" d="M205 -2v1395h1388v-1395h-1388zM287 80h1224v1231h-1224v-1231zM444 608q27 -6 82 -6q53 0 84 30.5t31 78.5q0 50 -31 80t-84 30q-17 0 -43 -3t-39 -3v-207zM504 657v109h22q49 0 49 -55q0 -24 -11.5 -39t-31.5 -15h-28zM668 608h163v49h-104v27h88v55h-88v27h104v49 h-163v-207zM854 608h59l11 88l43 -88h39l43 88l6 -88h59l-4 207h-55l-72 -125l-65 125h-54zM1137 711q0 -47 32.5 -78t81.5 -31q52 0 83.5 30.5t31.5 78.5q0 50 -31.5 80t-83.5 30q-50 0 -82 -30.5t-32 -79.5zM1202 711q0 25 13.5 40t35.5 15q21 0 35 -15.5t14 -39.5 q0 -23 -14.5 -38.5t-34.5 -15.5q-22 0 -35.5 15.5t-13.5 38.5z" />
<glyph unicode="&#xe3;" d="M205 -2v1395h1388v-1395h-1388zM287 80h1224v1231h-1224v-1231zM444 608q27 -6 82 -6q53 0 84 30.5t31 78.5q0 50 -31 80t-84 30q-17 0 -43 -3t-39 -3v-207zM504 657v109h22q49 0 49 -55q0 -24 -11.5 -39t-31.5 -15h-28zM668 608h163v49h-104v27h88v55h-88v27h104v49 h-163v-207zM854 608h59l11 88l43 -88h39l43 88l6 -88h59l-4 207h-55l-72 -125l-65 125h-54zM1137 711q0 -47 32.5 -78t81.5 -31q52 0 83.5 30.5t31.5 78.5q0 50 -31.5 80t-83.5 30q-50 0 -82 -30.5t-32 -79.5zM1202 711q0 25 13.5 40t35.5 15q21 0 35 -15.5t14 -39.5 q0 -23 -14.5 -38.5t-34.5 -15.5q-22 0 -35.5 15.5t-13.5 38.5z" />
<glyph unicode="&#xe4;" d="M205 -2v1395h1388v-1395h-1388zM287 80h1224v1231h-1224v-1231zM444 608q27 -6 82 -6q53 0 84 30.5t31 78.5q0 50 -31 80t-84 30q-17 0 -43 -3t-39 -3v-207zM504 657v109h22q49 0 49 -55q0 -24 -11.5 -39t-31.5 -15h-28zM668 608h163v49h-104v27h88v55h-88v27h104v49 h-163v-207zM854 608h59l11 88l43 -88h39l43 88l6 -88h59l-4 207h-55l-72 -125l-65 125h-54zM1137 711q0 -47 32.5 -78t81.5 -31q52 0 83.5 30.5t31.5 78.5q0 50 -31.5 80t-83.5 30q-50 0 -82 -30.5t-32 -79.5zM1202 711q0 25 13.5 40t35.5 15q21 0 35 -15.5t14 -39.5 q0 -23 -14.5 -38.5t-34.5 -15.5q-22 0 -35.5 15.5t-13.5 38.5z" />
<glyph unicode="&#xe5;" d="M205 -2v1395h1388v-1395h-1388zM287 80h1224v1231h-1224v-1231zM444 608q27 -6 82 -6q53 0 84 30.5t31 78.5q0 50 -31 80t-84 30q-17 0 -43 -3t-39 -3v-207zM504 657v109h22q49 0 49 -55q0 -24 -11.5 -39t-31.5 -15h-28zM668 608h163v49h-104v27h88v55h-88v27h104v49 h-163v-207zM854 608h59l11 88l43 -88h39l43 88l6 -88h59l-4 207h-55l-72 -125l-65 125h-54zM1137 711q0 -47 32.5 -78t81.5 -31q52 0 83.5 30.5t31.5 78.5q0 50 -31.5 80t-83.5 30q-50 0 -82 -30.5t-32 -79.5zM1202 711q0 25 13.5 40t35.5 15q21 0 35 -15.5t14 -39.5 q0 -23 -14.5 -38.5t-34.5 -15.5q-22 0 -35.5 15.5t-13.5 38.5z" />
<glyph unicode="&#xe6;" d="M205 -2v1395h1388v-1395h-1388zM287 80h1224v1231h-1224v-1231zM444 608q27 -6 82 -6q53 0 84 30.5t31 78.5q0 50 -31 80t-84 30q-17 0 -43 -3t-39 -3v-207zM504 657v109h22q49 0 49 -55q0 -24 -11.5 -39t-31.5 -15h-28zM668 608h163v49h-104v27h88v55h-88v27h104v49 h-163v-207zM854 608h59l11 88l43 -88h39l43 88l6 -88h59l-4 207h-55l-72 -125l-65 125h-54zM1137 711q0 -47 32.5 -78t81.5 -31q52 0 83.5 30.5t31.5 78.5q0 50 -31.5 80t-83.5 30q-50 0 -82 -30.5t-32 -79.5zM1202 711q0 25 13.5 40t35.5 15q21 0 35 -15.5t14 -39.5 q0 -23 -14.5 -38.5t-34.5 -15.5q-22 0 -35.5 15.5t-13.5 38.5z" />
<glyph unicode="&#xe7;" d="M205 -2v1395h1388v-1395h-1388zM287 80h1224v1231h-1224v-1231zM444 608q27 -6 82 -6q53 0 84 30.5t31 78.5q0 50 -31 80t-84 30q-17 0 -43 -3t-39 -3v-207zM504 657v109h22q49 0 49 -55q0 -24 -11.5 -39t-31.5 -15h-28zM668 608h163v49h-104v27h88v55h-88v27h104v49 h-163v-207zM854 608h59l11 88l43 -88h39l43 88l6 -88h59l-4 207h-55l-72 -125l-65 125h-54zM1137 711q0 -47 32.5 -78t81.5 -31q52 0 83.5 30.5t31.5 78.5q0 50 -31.5 80t-83.5 30q-50 0 -82 -30.5t-32 -79.5zM1202 711q0 25 13.5 40t35.5 15q21 0 35 -15.5t14 -39.5 q0 -23 -14.5 -38.5t-34.5 -15.5q-22 0 -35.5 15.5t-13.5 38.5z" />
<glyph unicode="&#xe8;" d="M205 -2v1395h1388v-1395h-1388zM287 80h1224v1231h-1224v-1231zM444 608q27 -6 82 -6q53 0 84 30.5t31 78.5q0 50 -31 80t-84 30q-17 0 -43 -3t-39 -3v-207zM504 657v109h22q49 0 49 -55q0 -24 -11.5 -39t-31.5 -15h-28zM668 608h163v49h-104v27h88v55h-88v27h104v49 h-163v-207zM854 608h59l11 88l43 -88h39l43 88l6 -88h59l-4 207h-55l-72 -125l-65 125h-54zM1137 711q0 -47 32.5 -78t81.5 -31q52 0 83.5 30.5t31.5 78.5q0 50 -31.5 80t-83.5 30q-50 0 -82 -30.5t-32 -79.5zM1202 711q0 25 13.5 40t35.5 15q21 0 35 -15.5t14 -39.5 q0 -23 -14.5 -38.5t-34.5 -15.5q-22 0 -35.5 15.5t-13.5 38.5z" />
<glyph unicode="&#xe9;" d="M205 -2v1395h1388v-1395h-1388zM287 80h1224v1231h-1224v-1231zM444 608q27 -6 82 -6q53 0 84 30.5t31 78.5q0 50 -31 80t-84 30q-17 0 -43 -3t-39 -3v-207zM504 657v109h22q49 0 49 -55q0 -24 -11.5 -39t-31.5 -15h-28zM668 608h163v49h-104v27h88v55h-88v27h104v49 h-163v-207zM854 608h59l11 88l43 -88h39l43 88l6 -88h59l-4 207h-55l-72 -125l-65 125h-54zM1137 711q0 -47 32.5 -78t81.5 -31q52 0 83.5 30.5t31.5 78.5q0 50 -31.5 80t-83.5 30q-50 0 -82 -30.5t-32 -79.5zM1202 711q0 25 13.5 40t35.5 15q21 0 35 -15.5t14 -39.5 q0 -23 -14.5 -38.5t-34.5 -15.5q-22 0 -35.5 15.5t-13.5 38.5z" />
<glyph unicode="&#xea;" d="M205 -2v1395h1388v-1395h-1388zM287 80h1224v1231h-1224v-1231zM444 608q27 -6 82 -6q53 0 84 30.5t31 78.5q0 50 -31 80t-84 30q-17 0 -43 -3t-39 -3v-207zM504 657v109h22q49 0 49 -55q0 -24 -11.5 -39t-31.5 -15h-28zM668 608h163v49h-104v27h88v55h-88v27h104v49 h-163v-207zM854 608h59l11 88l43 -88h39l43 88l6 -88h59l-4 207h-55l-72 -125l-65 125h-54zM1137 711q0 -47 32.5 -78t81.5 -31q52 0 83.5 30.5t31.5 78.5q0 50 -31.5 80t-83.5 30q-50 0 -82 -30.5t-32 -79.5zM1202 711q0 25 13.5 40t35.5 15q21 0 35 -15.5t14 -39.5 q0 -23 -14.5 -38.5t-34.5 -15.5q-22 0 -35.5 15.5t-13.5 38.5z" />
<glyph unicode="&#xeb;" d="M205 -2v1395h1388v-1395h-1388zM287 80h1224v1231h-1224v-1231zM444 608q27 -6 82 -6q53 0 84 30.5t31 78.5q0 50 -31 80t-84 30q-17 0 -43 -3t-39 -3v-207zM504 657v109h22q49 0 49 -55q0 -24 -11.5 -39t-31.5 -15h-28zM668 608h163v49h-104v27h88v55h-88v27h104v49 h-163v-207zM854 608h59l11 88l43 -88h39l43 88l6 -88h59l-4 207h-55l-72 -125l-65 125h-54zM1137 711q0 -47 32.5 -78t81.5 -31q52 0 83.5 30.5t31.5 78.5q0 50 -31.5 80t-83.5 30q-50 0 -82 -30.5t-32 -79.5zM1202 711q0 25 13.5 40t35.5 15q21 0 35 -15.5t14 -39.5 q0 -23 -14.5 -38.5t-34.5 -15.5q-22 0 -35.5 15.5t-13.5 38.5z" />
<glyph unicode="&#xec;" d="M205 -2v1395h1388v-1395h-1388zM287 80h1224v1231h-1224v-1231zM444 608q27 -6 82 -6q53 0 84 30.5t31 78.5q0 50 -31 80t-84 30q-17 0 -43 -3t-39 -3v-207zM504 657v109h22q49 0 49 -55q0 -24 -11.5 -39t-31.5 -15h-28zM668 608h163v49h-104v27h88v55h-88v27h104v49 h-163v-207zM854 608h59l11 88l43 -88h39l43 88l6 -88h59l-4 207h-55l-72 -125l-65 125h-54zM1137 711q0 -47 32.5 -78t81.5 -31q52 0 83.5 30.5t31.5 78.5q0 50 -31.5 80t-83.5 30q-50 0 -82 -30.5t-32 -79.5zM1202 711q0 25 13.5 40t35.5 15q21 0 35 -15.5t14 -39.5 q0 -23 -14.5 -38.5t-34.5 -15.5q-22 0 -35.5 15.5t-13.5 38.5z" />
<glyph unicode="&#xed;" d="M205 -2v1395h1388v-1395h-1388zM287 80h1224v1231h-1224v-1231zM444 608q27 -6 82 -6q53 0 84 30.5t31 78.5q0 50 -31 80t-84 30q-17 0 -43 -3t-39 -3v-207zM504 657v109h22q49 0 49 -55q0 -24 -11.5 -39t-31.5 -15h-28zM668 608h163v49h-104v27h88v55h-88v27h104v49 h-163v-207zM854 608h59l11 88l43 -88h39l43 88l6 -88h59l-4 207h-55l-72 -125l-65 125h-54zM1137 711q0 -47 32.5 -78t81.5 -31q52 0 83.5 30.5t31.5 78.5q0 50 -31.5 80t-83.5 30q-50 0 -82 -30.5t-32 -79.5zM1202 711q0 25 13.5 40t35.5 15q21 0 35 -15.5t14 -39.5 q0 -23 -14.5 -38.5t-34.5 -15.5q-22 0 -35.5 15.5t-13.5 38.5z" />
<glyph unicode="&#xee;" d="M205 -2v1395h1388v-1395h-1388zM287 80h1224v1231h-1224v-1231zM444 608q27 -6 82 -6q53 0 84 30.5t31 78.5q0 50 -31 80t-84 30q-17 0 -43 -3t-39 -3v-207zM504 657v109h22q49 0 49 -55q0 -24 -11.5 -39t-31.5 -15h-28zM668 608h163v49h-104v27h88v55h-88v27h104v49 h-163v-207zM854 608h59l11 88l43 -88h39l43 88l6 -88h59l-4 207h-55l-72 -125l-65 125h-54zM1137 711q0 -47 32.5 -78t81.5 -31q52 0 83.5 30.5t31.5 78.5q0 50 -31.5 80t-83.5 30q-50 0 -82 -30.5t-32 -79.5zM1202 711q0 25 13.5 40t35.5 15q21 0 35 -15.5t14 -39.5 q0 -23 -14.5 -38.5t-34.5 -15.5q-22 0 -35.5 15.5t-13.5 38.5z" />
<glyph unicode="&#xef;" d="M205 -2v1395h1388v-1395h-1388zM287 80h1224v1231h-1224v-1231zM444 608q27 -6 82 -6q53 0 84 30.5t31 78.5q0 50 -31 80t-84 30q-17 0 -43 -3t-39 -3v-207zM504 657v109h22q49 0 49 -55q0 -24 -11.5 -39t-31.5 -15h-28zM668 608h163v49h-104v27h88v55h-88v27h104v49 h-163v-207zM854 608h59l11 88l43 -88h39l43 88l6 -88h59l-4 207h-55l-72 -125l-65 125h-54zM1137 711q0 -47 32.5 -78t81.5 -31q52 0 83.5 30.5t31.5 78.5q0 50 -31.5 80t-83.5 30q-50 0 -82 -30.5t-32 -79.5zM1202 711q0 25 13.5 40t35.5 15q21 0 35 -15.5t14 -39.5 q0 -23 -14.5 -38.5t-34.5 -15.5q-22 0 -35.5 15.5t-13.5 38.5z" />
<glyph unicode="&#xf0;" d="M205 -2v1395h1388v-1395h-1388zM287 80h1224v1231h-1224v-1231zM444 608q27 -6 82 -6q53 0 84 30.5t31 78.5q0 50 -31 80t-84 30q-17 0 -43 -3t-39 -3v-207zM504 657v109h22q49 0 49 -55q0 -24 -11.5 -39t-31.5 -15h-28zM668 608h163v49h-104v27h88v55h-88v27h104v49 h-163v-207zM854 608h59l11 88l43 -88h39l43 88l6 -88h59l-4 207h-55l-72 -125l-65 125h-54zM1137 711q0 -47 32.5 -78t81.5 -31q52 0 83.5 30.5t31.5 78.5q0 50 -31.5 80t-83.5 30q-50 0 -82 -30.5t-32 -79.5zM1202 711q0 25 13.5 40t35.5 15q21 0 35 -15.5t14 -39.5 q0 -23 -14.5 -38.5t-34.5 -15.5q-22 0 -35.5 15.5t-13.5 38.5z" />
<glyph unicode="&#xf1;" d="M205 -2v1395h1388v-1395h-1388zM287 80h1224v1231h-1224v-1231zM444 608q27 -6 82 -6q53 0 84 30.5t31 78.5q0 50 -31 80t-84 30q-17 0 -43 -3t-39 -3v-207zM504 657v109h22q49 0 49 -55q0 -24 -11.5 -39t-31.5 -15h-28zM668 608h163v49h-104v27h88v55h-88v27h104v49 h-163v-207zM854 608h59l11 88l43 -88h39l43 88l6 -88h59l-4 207h-55l-72 -125l-65 125h-54zM1137 711q0 -47 32.5 -78t81.5 -31q52 0 83.5 30.5t31.5 78.5q0 50 -31.5 80t-83.5 30q-50 0 -82 -30.5t-32 -79.5zM1202 711q0 25 13.5 40t35.5 15q21 0 35 -15.5t14 -39.5 q0 -23 -14.5 -38.5t-34.5 -15.5q-22 0 -35.5 15.5t-13.5 38.5z" />
<glyph unicode="&#xf2;" d="M205 -2v1395h1388v-1395h-1388zM287 80h1224v1231h-1224v-1231zM444 608q27 -6 82 -6q53 0 84 30.5t31 78.5q0 50 -31 80t-84 30q-17 0 -43 -3t-39 -3v-207zM504 657v109h22q49 0 49 -55q0 -24 -11.5 -39t-31.5 -15h-28zM668 608h163v49h-104v27h88v55h-88v27h104v49 h-163v-207zM854 608h59l11 88l43 -88h39l43 88l6 -88h59l-4 207h-55l-72 -125l-65 125h-54zM1137 711q0 -47 32.5 -78t81.5 -31q52 0 83.5 30.5t31.5 78.5q0 50 -31.5 80t-83.5 30q-50 0 -82 -30.5t-32 -79.5zM1202 711q0 25 13.5 40t35.5 15q21 0 35 -15.5t14 -39.5 q0 -23 -14.5 -38.5t-34.5 -15.5q-22 0 -35.5 15.5t-13.5 38.5z" />
<glyph unicode="&#xf3;" d="M205 -2v1395h1388v-1395h-1388zM287 80h1224v1231h-1224v-1231zM444 608q27 -6 82 -6q53 0 84 30.5t31 78.5q0 50 -31 80t-84 30q-17 0 -43 -3t-39 -3v-207zM504 657v109h22q49 0 49 -55q0 -24 -11.5 -39t-31.5 -15h-28zM668 608h163v49h-104v27h88v55h-88v27h104v49 h-163v-207zM854 608h59l11 88l43 -88h39l43 88l6 -88h59l-4 207h-55l-72 -125l-65 125h-54zM1137 711q0 -47 32.5 -78t81.5 -31q52 0 83.5 30.5t31.5 78.5q0 50 -31.5 80t-83.5 30q-50 0 -82 -30.5t-32 -79.5zM1202 711q0 25 13.5 40t35.5 15q21 0 35 -15.5t14 -39.5 q0 -23 -14.5 -38.5t-34.5 -15.5q-22 0 -35.5 15.5t-13.5 38.5z" />
<glyph unicode="&#xf4;" d="M205 -2v1395h1388v-1395h-1388zM287 80h1224v1231h-1224v-1231zM444 608q27 -6 82 -6q53 0 84 30.5t31 78.5q0 50 -31 80t-84 30q-17 0 -43 -3t-39 -3v-207zM504 657v109h22q49 0 49 -55q0 -24 -11.5 -39t-31.5 -15h-28zM668 608h163v49h-104v27h88v55h-88v27h104v49 h-163v-207zM854 608h59l11 88l43 -88h39l43 88l6 -88h59l-4 207h-55l-72 -125l-65 125h-54zM1137 711q0 -47 32.5 -78t81.5 -31q52 0 83.5 30.5t31.5 78.5q0 50 -31.5 80t-83.5 30q-50 0 -82 -30.5t-32 -79.5zM1202 711q0 25 13.5 40t35.5 15q21 0 35 -15.5t14 -39.5 q0 -23 -14.5 -38.5t-34.5 -15.5q-22 0 -35.5 15.5t-13.5 38.5z" />
<glyph unicode="&#xf5;" d="M205 -2v1395h1388v-1395h-1388zM287 80h1224v1231h-1224v-1231zM444 608q27 -6 82 -6q53 0 84 30.5t31 78.5q0 50 -31 80t-84 30q-17 0 -43 -3t-39 -3v-207zM504 657v109h22q49 0 49 -55q0 -24 -11.5 -39t-31.5 -15h-28zM668 608h163v49h-104v27h88v55h-88v27h104v49 h-163v-207zM854 608h59l11 88l43 -88h39l43 88l6 -88h59l-4 207h-55l-72 -125l-65 125h-54zM1137 711q0 -47 32.5 -78t81.5 -31q52 0 83.5 30.5t31.5 78.5q0 50 -31.5 80t-83.5 30q-50 0 -82 -30.5t-32 -79.5zM1202 711q0 25 13.5 40t35.5 15q21 0 35 -15.5t14 -39.5 q0 -23 -14.5 -38.5t-34.5 -15.5q-22 0 -35.5 15.5t-13.5 38.5z" />
<glyph unicode="&#xf6;" d="M205 -2v1395h1388v-1395h-1388zM287 80h1224v1231h-1224v-1231zM444 608q27 -6 82 -6q53 0 84 30.5t31 78.5q0 50 -31 80t-84 30q-17 0 -43 -3t-39 -3v-207zM504 657v109h22q49 0 49 -55q0 -24 -11.5 -39t-31.5 -15h-28zM668 608h163v49h-104v27h88v55h-88v27h104v49 h-163v-207zM854 608h59l11 88l43 -88h39l43 88l6 -88h59l-4 207h-55l-72 -125l-65 125h-54zM1137 711q0 -47 32.5 -78t81.5 -31q52 0 83.5 30.5t31.5 78.5q0 50 -31.5 80t-83.5 30q-50 0 -82 -30.5t-32 -79.5zM1202 711q0 25 13.5 40t35.5 15q21 0 35 -15.5t14 -39.5 q0 -23 -14.5 -38.5t-34.5 -15.5q-22 0 -35.5 15.5t-13.5 38.5z" />
<glyph unicode="&#xf7;" d="M205 -2v1395h1388v-1395h-1388zM287 80h1224v1231h-1224v-1231zM444 608q27 -6 82 -6q53 0 84 30.5t31 78.5q0 50 -31 80t-84 30q-17 0 -43 -3t-39 -3v-207zM504 657v109h22q49 0 49 -55q0 -24 -11.5 -39t-31.5 -15h-28zM668 608h163v49h-104v27h88v55h-88v27h104v49 h-163v-207zM854 608h59l11 88l43 -88h39l43 88l6 -88h59l-4 207h-55l-72 -125l-65 125h-54zM1137 711q0 -47 32.5 -78t81.5 -31q52 0 83.5 30.5t31.5 78.5q0 50 -31.5 80t-83.5 30q-50 0 -82 -30.5t-32 -79.5zM1202 711q0 25 13.5 40t35.5 15q21 0 35 -15.5t14 -39.5 q0 -23 -14.5 -38.5t-34.5 -15.5q-22 0 -35.5 15.5t-13.5 38.5z" />
<glyph unicode="&#xf8;" d="M205 -2v1395h1388v-1395h-1388zM287 80h1224v1231h-1224v-1231zM444 608q27 -6 82 -6q53 0 84 30.5t31 78.5q0 50 -31 80t-84 30q-17 0 -43 -3t-39 -3v-207zM504 657v109h22q49 0 49 -55q0 -24 -11.5 -39t-31.5 -15h-28zM668 608h163v49h-104v27h88v55h-88v27h104v49 h-163v-207zM854 608h59l11 88l43 -88h39l43 88l6 -88h59l-4 207h-55l-72 -125l-65 125h-54zM1137 711q0 -47 32.5 -78t81.5 -31q52 0 83.5 30.5t31.5 78.5q0 50 -31.5 80t-83.5 30q-50 0 -82 -30.5t-32 -79.5zM1202 711q0 25 13.5 40t35.5 15q21 0 35 -15.5t14 -39.5 q0 -23 -14.5 -38.5t-34.5 -15.5q-22 0 -35.5 15.5t-13.5 38.5z" />
<glyph unicode="&#xf9;" d="M205 -2v1395h1388v-1395h-1388zM287 80h1224v1231h-1224v-1231zM444 608q27 -6 82 -6q53 0 84 30.5t31 78.5q0 50 -31 80t-84 30q-17 0 -43 -3t-39 -3v-207zM504 657v109h22q49 0 49 -55q0 -24 -11.5 -39t-31.5 -15h-28zM668 608h163v49h-104v27h88v55h-88v27h104v49 h-163v-207zM854 608h59l11 88l43 -88h39l43 88l6 -88h59l-4 207h-55l-72 -125l-65 125h-54zM1137 711q0 -47 32.5 -78t81.5 -31q52 0 83.5 30.5t31.5 78.5q0 50 -31.5 80t-83.5 30q-50 0 -82 -30.5t-32 -79.5zM1202 711q0 25 13.5 40t35.5 15q21 0 35 -15.5t14 -39.5 q0 -23 -14.5 -38.5t-34.5 -15.5q-22 0 -35.5 15.5t-13.5 38.5z" />
<glyph unicode="&#xfa;" d="M205 -2v1395h1388v-1395h-1388zM287 80h1224v1231h-1224v-1231zM444 608q27 -6 82 -6q53 0 84 30.5t31 78.5q0 50 -31 80t-84 30q-17 0 -43 -3t-39 -3v-207zM504 657v109h22q49 0 49 -55q0 -24 -11.5 -39t-31.5 -15h-28zM668 608h163v49h-104v27h88v55h-88v27h104v49 h-163v-207zM854 608h59l11 88l43 -88h39l43 88l6 -88h59l-4 207h-55l-72 -125l-65 125h-54zM1137 711q0 -47 32.5 -78t81.5 -31q52 0 83.5 30.5t31.5 78.5q0 50 -31.5 80t-83.5 30q-50 0 -82 -30.5t-32 -79.5zM1202 711q0 25 13.5 40t35.5 15q21 0 35 -15.5t14 -39.5 q0 -23 -14.5 -38.5t-34.5 -15.5q-22 0 -35.5 15.5t-13.5 38.5z" />
<glyph unicode="&#xfb;" d="M205 -2v1395h1388v-1395h-1388zM287 80h1224v1231h-1224v-1231zM444 608q27 -6 82 -6q53 0 84 30.5t31 78.5q0 50 -31 80t-84 30q-17 0 -43 -3t-39 -3v-207zM504 657v109h22q49 0 49 -55q0 -24 -11.5 -39t-31.5 -15h-28zM668 608h163v49h-104v27h88v55h-88v27h104v49 h-163v-207zM854 608h59l11 88l43 -88h39l43 88l6 -88h59l-4 207h-55l-72 -125l-65 125h-54zM1137 711q0 -47 32.5 -78t81.5 -31q52 0 83.5 30.5t31.5 78.5q0 50 -31.5 80t-83.5 30q-50 0 -82 -30.5t-32 -79.5zM1202 711q0 25 13.5 40t35.5 15q21 0 35 -15.5t14 -39.5 q0 -23 -14.5 -38.5t-34.5 -15.5q-22 0 -35.5 15.5t-13.5 38.5z" />
<glyph unicode="&#xfc;" d="M205 -2v1395h1388v-1395h-1388zM287 80h1224v1231h-1224v-1231zM444 608q27 -6 82 -6q53 0 84 30.5t31 78.5q0 50 -31 80t-84 30q-17 0 -43 -3t-39 -3v-207zM504 657v109h22q49 0 49 -55q0 -24 -11.5 -39t-31.5 -15h-28zM668 608h163v49h-104v27h88v55h-88v27h104v49 h-163v-207zM854 608h59l11 88l43 -88h39l43 88l6 -88h59l-4 207h-55l-72 -125l-65 125h-54zM1137 711q0 -47 32.5 -78t81.5 -31q52 0 83.5 30.5t31.5 78.5q0 50 -31.5 80t-83.5 30q-50 0 -82 -30.5t-32 -79.5zM1202 711q0 25 13.5 40t35.5 15q21 0 35 -15.5t14 -39.5 q0 -23 -14.5 -38.5t-34.5 -15.5q-22 0 -35.5 15.5t-13.5 38.5z" />
<glyph unicode="&#xfd;" d="M205 -2v1395h1388v-1395h-1388zM287 80h1224v1231h-1224v-1231zM444 608q27 -6 82 -6q53 0 84 30.5t31 78.5q0 50 -31 80t-84 30q-17 0 -43 -3t-39 -3v-207zM504 657v109h22q49 0 49 -55q0 -24 -11.5 -39t-31.5 -15h-28zM668 608h163v49h-104v27h88v55h-88v27h104v49 h-163v-207zM854 608h59l11 88l43 -88h39l43 88l6 -88h59l-4 207h-55l-72 -125l-65 125h-54zM1137 711q0 -47 32.5 -78t81.5 -31q52 0 83.5 30.5t31.5 78.5q0 50 -31.5 80t-83.5 30q-50 0 -82 -30.5t-32 -79.5zM1202 711q0 25 13.5 40t35.5 15q21 0 35 -15.5t14 -39.5 q0 -23 -14.5 -38.5t-34.5 -15.5q-22 0 -35.5 15.5t-13.5 38.5z" />
<glyph unicode="&#xfe;" d="M205 -2v1395h1388v-1395h-1388zM287 80h1224v1231h-1224v-1231zM444 608q27 -6 82 -6q53 0 84 30.5t31 78.5q0 50 -31 80t-84 30q-17 0 -43 -3t-39 -3v-207zM504 657v109h22q49 0 49 -55q0 -24 -11.5 -39t-31.5 -15h-28zM668 608h163v49h-104v27h88v55h-88v27h104v49 h-163v-207zM854 608h59l11 88l43 -88h39l43 88l6 -88h59l-4 207h-55l-72 -125l-65 125h-54zM1137 711q0 -47 32.5 -78t81.5 -31q52 0 83.5 30.5t31.5 78.5q0 50 -31.5 80t-83.5 30q-50 0 -82 -30.5t-32 -79.5zM1202 711q0 25 13.5 40t35.5 15q21 0 35 -15.5t14 -39.5 q0 -23 -14.5 -38.5t-34.5 -15.5q-22 0 -35.5 15.5t-13.5 38.5z" />
<glyph unicode="&#xff;" d="M205 -2v1395h1388v-1395h-1388zM287 80h1224v1231h-1224v-1231zM444 608q27 -6 82 -6q53 0 84 30.5t31 78.5q0 50 -31 80t-84 30q-17 0 -43 -3t-39 -3v-207zM504 657v109h22q49 0 49 -55q0 -24 -11.5 -39t-31.5 -15h-28zM668 608h163v49h-104v27h88v55h-88v27h104v49 h-163v-207zM854 608h59l11 88l43 -88h39l43 88l6 -88h59l-4 207h-55l-72 -125l-65 125h-54zM1137 711q0 -47 32.5 -78t81.5 -31q52 0 83.5 30.5t31.5 78.5q0 50 -31.5 80t-83.5 30q-50 0 -82 -30.5t-32 -79.5zM1202 711q0 25 13.5 40t35.5 15q21 0 35 -15.5t14 -39.5 q0 -23 -14.5 -38.5t-34.5 -15.5q-22 0 -35.5 15.5t-13.5 38.5z" />
<glyph unicode="&#x152;" d="M205 -2v1395h1388v-1395h-1388zM287 80h1224v1231h-1224v-1231zM444 608q27 -6 82 -6q53 0 84 30.5t31 78.5q0 50 -31 80t-84 30q-17 0 -43 -3t-39 -3v-207zM504 657v109h22q49 0 49 -55q0 -24 -11.5 -39t-31.5 -15h-28zM668 608h163v49h-104v27h88v55h-88v27h104v49 h-163v-207zM854 608h59l11 88l43 -88h39l43 88l6 -88h59l-4 207h-55l-72 -125l-65 125h-54zM1137 711q0 -47 32.5 -78t81.5 -31q52 0 83.5 30.5t31.5 78.5q0 50 -31.5 80t-83.5 30q-50 0 -82 -30.5t-32 -79.5zM1202 711q0 25 13.5 40t35.5 15q21 0 35 -15.5t14 -39.5 q0 -23 -14.5 -38.5t-34.5 -15.5q-22 0 -35.5 15.5t-13.5 38.5z" />
<glyph unicode="&#x153;" d="M205 -2v1395h1388v-1395h-1388zM287 80h1224v1231h-1224v-1231zM444 608q27 -6 82 -6q53 0 84 30.5t31 78.5q0 50 -31 80t-84 30q-17 0 -43 -3t-39 -3v-207zM504 657v109h22q49 0 49 -55q0 -24 -11.5 -39t-31.5 -15h-28zM668 608h163v49h-104v27h88v55h-88v27h104v49 h-163v-207zM854 608h59l11 88l43 -88h39l43 88l6 -88h59l-4 207h-55l-72 -125l-65 125h-54zM1137 711q0 -47 32.5 -78t81.5 -31q52 0 83.5 30.5t31.5 78.5q0 50 -31.5 80t-83.5 30q-50 0 -82 -30.5t-32 -79.5zM1202 711q0 25 13.5 40t35.5 15q21 0 35 -15.5t14 -39.5 q0 -23 -14.5 -38.5t-34.5 -15.5q-22 0 -35.5 15.5t-13.5 38.5z" />
<glyph unicode="&#x178;" d="M205 -2v1395h1388v-1395h-1388zM287 80h1224v1231h-1224v-1231zM444 608q27 -6 82 -6q53 0 84 30.5t31 78.5q0 50 -31 80t-84 30q-17 0 -43 -3t-39 -3v-207zM504 657v109h22q49 0 49 -55q0 -24 -11.5 -39t-31.5 -15h-28zM668 608h163v49h-104v27h88v55h-88v27h104v49 h-163v-207zM854 608h59l11 88l43 -88h39l43 88l6 -88h59l-4 207h-55l-72 -125l-65 125h-54zM1137 711q0 -47 32.5 -78t81.5 -31q52 0 83.5 30.5t31.5 78.5q0 50 -31.5 80t-83.5 30q-50 0 -82 -30.5t-32 -79.5zM1202 711q0 25 13.5 40t35.5 15q21 0 35 -15.5t14 -39.5 q0 -23 -14.5 -38.5t-34.5 -15.5q-22 0 -35.5 15.5t-13.5 38.5z" />
<glyph unicode="&#x2c6;" d="M205 -2v1395h1388v-1395h-1388zM287 80h1224v1231h-1224v-1231zM444 608q27 -6 82 -6q53 0 84 30.5t31 78.5q0 50 -31 80t-84 30q-17 0 -43 -3t-39 -3v-207zM504 657v109h22q49 0 49 -55q0 -24 -11.5 -39t-31.5 -15h-28zM668 608h163v49h-104v27h88v55h-88v27h104v49 h-163v-207zM854 608h59l11 88l43 -88h39l43 88l6 -88h59l-4 207h-55l-72 -125l-65 125h-54zM1137 711q0 -47 32.5 -78t81.5 -31q52 0 83.5 30.5t31.5 78.5q0 50 -31.5 80t-83.5 30q-50 0 -82 -30.5t-32 -79.5zM1202 711q0 25 13.5 40t35.5 15q21 0 35 -15.5t14 -39.5 q0 -23 -14.5 -38.5t-34.5 -15.5q-22 0 -35.5 15.5t-13.5 38.5z" />
<glyph unicode="&#x2dc;" d="M205 -2v1395h1388v-1395h-1388zM287 80h1224v1231h-1224v-1231zM444 608q27 -6 82 -6q53 0 84 30.5t31 78.5q0 50 -31 80t-84 30q-17 0 -43 -3t-39 -3v-207zM504 657v109h22q49 0 49 -55q0 -24 -11.5 -39t-31.5 -15h-28zM668 608h163v49h-104v27h88v55h-88v27h104v49 h-163v-207zM854 608h59l11 88l43 -88h39l43 88l6 -88h59l-4 207h-55l-72 -125l-65 125h-54zM1137 711q0 -47 32.5 -78t81.5 -31q52 0 83.5 30.5t31.5 78.5q0 50 -31.5 80t-83.5 30q-50 0 -82 -30.5t-32 -79.5zM1202 711q0 25 13.5 40t35.5 15q21 0 35 -15.5t14 -39.5 q0 -23 -14.5 -38.5t-34.5 -15.5q-22 0 -35.5 15.5t-13.5 38.5z" />
<glyph unicode="&#x2000;" horiz-adv-x="835" />
<glyph unicode="&#x2001;" horiz-adv-x="1671" />
<glyph unicode="&#x2002;" horiz-adv-x="835" />
<glyph unicode="&#x2003;" horiz-adv-x="1671" />
<glyph unicode="&#x2004;" horiz-adv-x="557" />
<glyph unicode="&#x2005;" horiz-adv-x="417" />
<glyph unicode="&#x2006;" horiz-adv-x="278" />
<glyph unicode="&#x2007;" horiz-adv-x="278" />
<glyph unicode="&#x2008;" horiz-adv-x="208" />
<glyph unicode="&#x2009;" horiz-adv-x="334" />
<glyph unicode="&#x200a;" horiz-adv-x="92" />
<glyph unicode="&#x2010;" horiz-adv-x="1091" d="M240 485h612v142h-612v-142z" />
<glyph unicode="&#x2011;" horiz-adv-x="1091" d="M240 485h612v142h-612v-142z" />
<glyph unicode="&#x2012;" horiz-adv-x="1091" d="M240 485h612v142h-612v-142z" />
<glyph unicode="&#x2013;" d="M205 -2v1395h1388v-1395h-1388zM287 80h1224v1231h-1224v-1231zM444 608q27 -6 82 -6q53 0 84 30.5t31 78.5q0 50 -31 80t-84 30q-17 0 -43 -3t-39 -3v-207zM504 657v109h22q49 0 49 -55q0 -24 -11.5 -39t-31.5 -15h-28zM668 608h163v49h-104v27h88v55h-88v27h104v49 h-163v-207zM854 608h59l11 88l43 -88h39l43 88l6 -88h59l-4 207h-55l-72 -125l-65 125h-54zM1137 711q0 -47 32.5 -78t81.5 -31q52 0 83.5 30.5t31.5 78.5q0 50 -31.5 80t-83.5 30q-50 0 -82 -30.5t-32 -79.5zM1202 711q0 25 13.5 40t35.5 15q21 0 35 -15.5t14 -39.5 q0 -23 -14.5 -38.5t-34.5 -15.5q-22 0 -35.5 15.5t-13.5 38.5z" />
<glyph unicode="&#x2014;" d="M205 -2v1395h1388v-1395h-1388zM287 80h1224v1231h-1224v-1231zM444 608q27 -6 82 -6q53 0 84 30.5t31 78.5q0 50 -31 80t-84 30q-17 0 -43 -3t-39 -3v-207zM504 657v109h22q49 0 49 -55q0 -24 -11.5 -39t-31.5 -15h-28zM668 608h163v49h-104v27h88v55h-88v27h104v49 h-163v-207zM854 608h59l11 88l43 -88h39l43 88l6 -88h59l-4 207h-55l-72 -125l-65 125h-54zM1137 711q0 -47 32.5 -78t81.5 -31q52 0 83.5 30.5t31.5 78.5q0 50 -31.5 80t-83.5 30q-50 0 -82 -30.5t-32 -79.5zM1202 711q0 25 13.5 40t35.5 15q21 0 35 -15.5t14 -39.5 q0 -23 -14.5 -38.5t-34.5 -15.5q-22 0 -35.5 15.5t-13.5 38.5z" />
<glyph unicode="&#x2018;" d="M205 -2v1395h1388v-1395h-1388zM287 80h1224v1231h-1224v-1231zM444 608q27 -6 82 -6q53 0 84 30.5t31 78.5q0 50 -31 80t-84 30q-17 0 -43 -3t-39 -3v-207zM504 657v109h22q49 0 49 -55q0 -24 -11.5 -39t-31.5 -15h-28zM668 608h163v49h-104v27h88v55h-88v27h104v49 h-163v-207zM854 608h59l11 88l43 -88h39l43 88l6 -88h59l-4 207h-55l-72 -125l-65 125h-54zM1137 711q0 -47 32.5 -78t81.5 -31q52 0 83.5 30.5t31.5 78.5q0 50 -31.5 80t-83.5 30q-50 0 -82 -30.5t-32 -79.5zM1202 711q0 25 13.5 40t35.5 15q21 0 35 -15.5t14 -39.5 q0 -23 -14.5 -38.5t-34.5 -15.5q-22 0 -35.5 15.5t-13.5 38.5z" />
<glyph unicode="&#x2019;" d="M205 -2v1395h1388v-1395h-1388zM287 80h1224v1231h-1224v-1231zM444 608q27 -6 82 -6q53 0 84 30.5t31 78.5q0 50 -31 80t-84 30q-17 0 -43 -3t-39 -3v-207zM504 657v109h22q49 0 49 -55q0 -24 -11.5 -39t-31.5 -15h-28zM668 608h163v49h-104v27h88v55h-88v27h104v49 h-163v-207zM854 608h59l11 88l43 -88h39l43 88l6 -88h59l-4 207h-55l-72 -125l-65 125h-54zM1137 711q0 -47 32.5 -78t81.5 -31q52 0 83.5 30.5t31.5 78.5q0 50 -31.5 80t-83.5 30q-50 0 -82 -30.5t-32 -79.5zM1202 711q0 25 13.5 40t35.5 15q21 0 35 -15.5t14 -39.5 q0 -23 -14.5 -38.5t-34.5 -15.5q-22 0 -35.5 15.5t-13.5 38.5z" />
<glyph unicode="&#x201a;" d="M205 -2v1395h1388v-1395h-1388zM287 80h1224v1231h-1224v-1231zM444 608q27 -6 82 -6q53 0 84 30.5t31 78.5q0 50 -31 80t-84 30q-17 0 -43 -3t-39 -3v-207zM504 657v109h22q49 0 49 -55q0 -24 -11.5 -39t-31.5 -15h-28zM668 608h163v49h-104v27h88v55h-88v27h104v49 h-163v-207zM854 608h59l11 88l43 -88h39l43 88l6 -88h59l-4 207h-55l-72 -125l-65 125h-54zM1137 711q0 -47 32.5 -78t81.5 -31q52 0 83.5 30.5t31.5 78.5q0 50 -31.5 80t-83.5 30q-50 0 -82 -30.5t-32 -79.5zM1202 711q0 25 13.5 40t35.5 15q21 0 35 -15.5t14 -39.5 q0 -23 -14.5 -38.5t-34.5 -15.5q-22 0 -35.5 15.5t-13.5 38.5z" />
<glyph unicode="&#x201c;" horiz-adv-x="909" d="M143 1182q0 9 0.5 15.5t3 17t5 18.5t9.5 25.5t14 32.5t20.5 45.5t26 58t34.5 76t43 94.5h104l-110 -291q72 -25 72 -92q0 -44 -32.5 -75.5t-78.5 -31.5t-78.5 31.5t-32.5 75.5zM492 1182q0 8 0.5 15t1.5 14t4.5 17t6.5 19.5t11 27t14.5 33t20 45t25.5 55.5t32 71t39 86 h105l-111 -291q72 -25 72 -92q0 -44 -32.5 -75.5t-78.5 -31.5t-78 31.5t-32 75.5z" />
<glyph unicode="&#x201d;" horiz-adv-x="909" d="M143 1090l109 290q-70 24 -70 90q0 46 32.5 77.5t78.5 31.5t78 -31.5t32 -77.5q0 -8 -0.5 -14.5t-1.5 -13t-4.5 -16.5t-7 -19.5t-10.5 -26.5t-14.5 -33t-20.5 -44.5t-25 -55.5t-32 -71t-39 -86h-105zM492 1090l108 290q-70 24 -70 90q0 46 32.5 77.5t78.5 31.5 t78.5 -31.5t32.5 -77.5q0 -9 -0.5 -15.5t-3 -16t-5 -18t-9.5 -25.5t-14 -32t-20.5 -44.5t-26 -58t-34.5 -76t-43 -94.5h-104z" />
<glyph unicode="&#x201e;" horiz-adv-x="913" d="M133 -299l109 289q-70 24 -70 92q0 45 32.5 75.5t78.5 30.5t78 -30.5t32 -75.5q0 -8 -0.5 -14.5t-1.5 -13t-4.5 -16.5t-6.5 -19.5t-11 -27t-14.5 -33.5t-20 -44.5t-25.5 -55t-32 -71t-39 -86.5h-105zM485 -299l109 289q-70 24 -70 92q0 45 32.5 75.5t78.5 30.5t78 -30.5 t32 -75.5q0 -8 -0.5 -14.5t-1.5 -13t-4.5 -16.5t-6.5 -19.5t-11 -27t-14.5 -33.5t-20 -44.5t-25.5 -55t-32 -71t-39 -86.5h-105z" />
<glyph unicode="&#x2022;" d="M205 -2v1395h1388v-1395h-1388zM287 80h1224v1231h-1224v-1231zM444 608q27 -6 82 -6q53 0 84 30.5t31 78.5q0 50 -31 80t-84 30q-17 0 -43 -3t-39 -3v-207zM504 657v109h22q49 0 49 -55q0 -24 -11.5 -39t-31.5 -15h-28zM668 608h163v49h-104v27h88v55h-88v27h104v49 h-163v-207zM854 608h59l11 88l43 -88h39l43 88l6 -88h59l-4 207h-55l-72 -125l-65 125h-54zM1137 711q0 -47 32.5 -78t81.5 -31q52 0 83.5 30.5t31.5 78.5q0 50 -31.5 80t-83.5 30q-50 0 -82 -30.5t-32 -79.5zM1202 711q0 25 13.5 40t35.5 15q21 0 35 -15.5t14 -39.5 q0 -23 -14.5 -38.5t-34.5 -15.5q-22 0 -35.5 15.5t-13.5 38.5z" />
<glyph unicode="&#x2026;" d="M205 -2v1395h1388v-1395h-1388zM287 80h1224v1231h-1224v-1231zM444 608q27 -6 82 -6q53 0 84 30.5t31 78.5q0 50 -31 80t-84 30q-17 0 -43 -3t-39 -3v-207zM504 657v109h22q49 0 49 -55q0 -24 -11.5 -39t-31.5 -15h-28zM668 608h163v49h-104v27h88v55h-88v27h104v49 h-163v-207zM854 608h59l11 88l43 -88h39l43 88l6 -88h59l-4 207h-55l-72 -125l-65 125h-54zM1137 711q0 -47 32.5 -78t81.5 -31q52 0 83.5 30.5t31.5 78.5q0 50 -31.5 80t-83.5 30q-50 0 -82 -30.5t-32 -79.5zM1202 711q0 25 13.5 40t35.5 15q21 0 35 -15.5t14 -39.5 q0 -23 -14.5 -38.5t-34.5 -15.5q-22 0 -35.5 15.5t-13.5 38.5z" />
<glyph unicode="&#x202f;" horiz-adv-x="334" />
<glyph unicode="&#x2039;" d="M205 -2v1395h1388v-1395h-1388zM287 80h1224v1231h-1224v-1231zM444 608q27 -6 82 -6q53 0 84 30.5t31 78.5q0 50 -31 80t-84 30q-17 0 -43 -3t-39 -3v-207zM504 657v109h22q49 0 49 -55q0 -24 -11.5 -39t-31.5 -15h-28zM668 608h163v49h-104v27h88v55h-88v27h104v49 h-163v-207zM854 608h59l11 88l43 -88h39l43 88l6 -88h59l-4 207h-55l-72 -125l-65 125h-54zM1137 711q0 -47 32.5 -78t81.5 -31q52 0 83.5 30.5t31.5 78.5q0 50 -31.5 80t-83.5 30q-50 0 -82 -30.5t-32 -79.5zM1202 711q0 25 13.5 40t35.5 15q21 0 35 -15.5t14 -39.5 q0 -23 -14.5 -38.5t-34.5 -15.5q-22 0 -35.5 15.5t-13.5 38.5z" />
<glyph unicode="&#x203a;" d="M205 -2v1395h1388v-1395h-1388zM287 80h1224v1231h-1224v-1231zM444 608q27 -6 82 -6q53 0 84 30.5t31 78.5q0 50 -31 80t-84 30q-17 0 -43 -3t-39 -3v-207zM504 657v109h22q49 0 49 -55q0 -24 -11.5 -39t-31.5 -15h-28zM668 608h163v49h-104v27h88v55h-88v27h104v49 h-163v-207zM854 608h59l11 88l43 -88h39l43 88l6 -88h59l-4 207h-55l-72 -125l-65 125h-54zM1137 711q0 -47 32.5 -78t81.5 -31q52 0 83.5 30.5t31.5 78.5q0 50 -31.5 80t-83.5 30q-50 0 -82 -30.5t-32 -79.5zM1202 711q0 25 13.5 40t35.5 15q21 0 35 -15.5t14 -39.5 q0 -23 -14.5 -38.5t-34.5 -15.5q-22 0 -35.5 15.5t-13.5 38.5z" />
<glyph unicode="&#x205f;" horiz-adv-x="417" />
<glyph unicode="&#x20ac;" horiz-adv-x="1609" d="M135 471v104h160q-10 65 -10 115q0 30 4 88h-154v105h170q53 250 239 395t464 145q235 0 462 -80l-26 -126q-237 63 -418 63q-216 0 -361.5 -106t-193.5 -291h649l-26 -105h-648q-4 -58 -4 -86q0 -46 11 -117h589l-26 -104h-533q55 -169 191 -265.5t330 -96.5 q203 0 466 73l29 -125q-272 -88 -502 -88q-261 0 -441 134.5t-241 367.5h-180z" />
<glyph unicode="&#x2122;" d="M205 -2v1395h1388v-1395h-1388zM287 80h1224v1231h-1224v-1231zM444 608q27 -6 82 -6q53 0 84 30.5t31 78.5q0 50 -31 80t-84 30q-17 0 -43 -3t-39 -3v-207zM504 657v109h22q49 0 49 -55q0 -24 -11.5 -39t-31.5 -15h-28zM668 608h163v49h-104v27h88v55h-88v27h104v49 h-163v-207zM854 608h59l11 88l43 -88h39l43 88l6 -88h59l-4 207h-55l-72 -125l-65 125h-54zM1137 711q0 -47 32.5 -78t81.5 -31q52 0 83.5 30.5t31.5 78.5q0 50 -31.5 80t-83.5 30q-50 0 -82 -30.5t-32 -79.5zM1202 711q0 25 13.5 40t35.5 15q21 0 35 -15.5t14 -39.5 q0 -23 -14.5 -38.5t-34.5 -15.5q-22 0 -35.5 15.5t-13.5 38.5z" />
<glyph unicode="&#x25fc;" horiz-adv-x="942" d="M0 0v942h942v-942h-942z" />
<glyph unicode="&#xfb03;" horiz-adv-x="1947" d="M12 819v127h234v164q0 211 112 321.5t314 110.5q110 0 196.5 -30.5t192.5 -98.5q111 129 332 129q100 0 178 -23.5t176 -78.5l-66 -101q-133 76 -280 76q-295 0 -295 -307v-162h688v-946h-141v819h-547v-819h-139v819h-582v-819h-139v819h-234zM385 946h582v164 q0 118 32 197q-81 57 -155 82.5t-164 25.5q-295 0 -295 -307v-162z" />
<glyph unicode="&#xfb04;" horiz-adv-x="1972" d="M12 819v127h234v164q0 211 112 321.5t314 110.5q110 0 196 -29.5t189 -97.5q109 127 329 127q135 0 279 -65l113 -7v-1470h-140v1362q-60 29 -115 41t-132 12q-140 0 -212.5 -76.5t-72.5 -220.5v-172h377v-127h-377v-819h-139v819h-582v-819h-139v819h-234zM385 946h582 v176q0 101 28 187q-77 56 -151 81t-164 25q-295 0 -295 -307v-162z" />
</font>
</defs>
</svg>
