<?xml version="1.0" encoding="utf-8"?>
<!-- Generator: Adobe Illustrator 16.0.0, SVG Export Plug-In . SVG Version: 6.00 Build 0)  -->
<!DOCTYPE svg PUBLIC "-//W3C//DTD SVG 1.1//EN" "http://www.w3.org/Graphics/SVG/1.1/DTD/svg11.dtd">
<svg version="1.1" id="Layer_1" xmlns="http://www.w3.org/2000/svg" xmlns:xlink="http://www.w3.org/1999/xlink" x="0px" y="0px"
	 width="550px" height="550px" viewBox="0 0 550 550" enable-background="new 0 0 550 550" xml:space="preserve">
<g>
	<g>
		<path fill="#FFFFFF" d="M237.575,261.1h-91.328v-80.682c15.688,0,30.255-1.488,43.703-4.482
			c13.447-2.985,25.493-7.844,36.139-14.567c10.646-6.724,19.138-15.496,25.494-26.334c6.347-10.83,9.893-23.9,10.646-39.221h91.888
			v389.964H237.575V261.1z"/>
		<path fill="#F9555A" d="M354.115,95.813v389.964H237.575V261.1h-91.328v-80.682c15.688,0,30.255-1.488,43.703-4.482
			c13.447-2.985,25.493-7.844,36.139-14.567c10.646-6.724,19.138-15.496,25.494-26.334c6.347-10.83,9.893-23.9,10.646-39.221
			H354.115 M373.115,76.813h-19h-91.888h-18.089l-0.888,18.067c-0.598,12.162-3.31,22.439-8.061,30.546
			c-4.837,8.25-11.134,14.752-19.247,19.877c-8.747,5.523-18.877,9.589-30.11,12.083c-12.017,2.675-25.331,4.031-39.585,4.031h-19
			v19V261.1v19h19h72.328v205.678v19h19h116.541h19v-19V95.813V76.813L373.115,76.813z"/>
	</g>
</g>
</svg>
