<?xml version="1.0" encoding="utf-8"?>
<!-- Generator: Adobe Illustrator 16.0.0, SVG Export Plug-In . SVG Version: 6.00 Build 0)  -->
<!DOCTYPE svg PUBLIC "-//W3C//DTD SVG 1.1//EN" "http://www.w3.org/Graphics/SVG/1.1/DTD/svg11.dtd">
<svg version="1.1" id="Layer_1" xmlns="http://www.w3.org/2000/svg" xmlns:xlink="http://www.w3.org/1999/xlink" x="0px" y="0px"
	 width="550px" height="550px" viewBox="0 0 550 550" enable-background="new 0 0 550 550" xml:space="preserve">
<g>
	<g>
		<path fill="#FFFFFF" d="M108.707,259.979c0-1.488,0-3.729,0-6.724c-0.376-2.241-0.56-4.482-0.56-6.724
			c0-48.929,14.935-87.029,44.823-114.299c29.879-27.262,70.221-40.901,121.023-40.901c48.929,0,87.686,10.365,116.26,31.096
			c28.575,20.73,42.862,51.267,42.862,91.608c0,19.426-3.554,36.795-10.646,52.107c-7.1,15.32-16.625,28.768-28.574,40.341
			c-11.959,11.583-24.846,21.668-38.66,30.256c-13.824,8.598-31.193,18.49-52.107,29.695
			c-19.427,10.839-33.058,18.683-40.901,23.533v0.56H438.72v95.25H100.863v-5.043c-0.376-1.864-0.561-3.361-0.561-4.482
			c0-31.744,9.525-60.695,28.575-86.845c12.694-17.553,28.294-33.145,46.784-46.784c18.49-13.631,42.67-29.416,72.558-47.345
			l19.05-11.206l6.724-3.922c14.191-8.589,25.397-16.713,33.618-24.373c8.212-7.651,12.326-17.089,12.326-28.295
			c0-16.432-4.299-28.479-12.887-36.139c-8.597-7.652-19.986-11.486-34.178-11.486c-20.923,0-35.955,6.82-45.104,20.451
			c-9.157,13.64-13.727,33.53-13.727,59.671H108.707z"/>
		<path fill="#C4D92E" d="M273.994,91.332c48.929,0,87.686,10.365,116.26,31.096c28.575,20.73,42.862,51.267,42.862,91.608
			c0,19.426-3.554,36.795-10.646,52.107c-7.1,15.32-16.625,28.768-28.574,40.341c-11.959,11.583-24.846,21.668-38.66,30.256
			c-13.824,8.598-31.193,18.49-52.107,29.695c-19.427,10.839-33.058,18.683-40.901,23.533v0.56H438.72v95.25H100.863v-5.043
			c-0.376-1.864-0.561-3.361-0.561-4.482c0-31.744,9.525-60.695,28.575-86.845c12.694-17.553,28.294-33.145,46.784-46.784
			c18.49-13.631,42.67-29.416,72.558-47.345l19.05-11.206l6.724-3.922c14.191-8.589,25.397-16.713,33.618-24.373
			c8.212-7.651,12.326-17.089,12.326-28.295c0-16.432-4.299-28.479-12.887-36.139c-8.597-7.652-19.986-11.486-34.178-11.486
			c-20.923,0-35.955,6.82-45.104,20.451c-9.157,13.64-13.727,33.53-13.727,59.671H108.707c0-1.488,0-3.729,0-6.724
			c-0.376-2.241-0.56-4.482-0.56-6.724c0-48.929,14.935-87.029,44.823-114.299C182.85,104.971,223.191,91.332,273.994,91.332
			 M273.994,72.332c-55.446,0-100.473,15.432-133.83,45.866c-33.853,30.888-51.017,74.065-51.017,128.335
			c0,2.719,0.188,5.454,0.56,8.152v5.295v19h19h105.335h19v-19c0-22.188,3.533-38.701,10.501-49.081
			c3.47-5.171,10.284-12.042,29.329-12.042c9.449,0,16.496,2.185,21.545,6.679c4.321,3.854,6.52,11.242,6.52,21.946
			c0,5.909-1.937,10.348-6.278,14.394c-7.204,6.713-17.423,14.095-30.373,21.94l-6.589,3.843l-0.03,0.018l-0.03,0.018l-19.05,11.206
			l-0.07,0.042l-0.07,0.042c-30.205,18.118-55.122,34.384-74.059,48.345c-19.993,14.748-37.108,31.873-50.878,50.904
			c-21.371,29.342-32.207,62.319-32.207,98.018c0,1.881,0.184,3.925,0.561,6.202v3.323v19h19H438.72h19v-19v-95.25v-19h-19H333.425
			c12.13-6.778,22.79-13.021,31.846-18.654c14.894-9.259,28.974-20.275,41.845-32.742c13.577-13.149,24.543-28.626,32.595-46
			c8.232-17.775,12.406-37.993,12.406-60.096c0-46.583-17.06-82.578-50.705-106.987C369.659,84.012,326.79,72.332,273.994,72.332
			L273.994,72.332z"/>
	</g>
</g>
</svg>
