<?xml version="1.0" encoding="utf-8"?>
<!-- Generator: Adobe Illustrator 16.0.0, SVG Export Plug-In . SVG Version: 6.00 Build 0)  -->
<!DOCTYPE svg PUBLIC "-//W3C//DTD SVG 1.1//EN" "http://www.w3.org/Graphics/SVG/1.1/DTD/svg11.dtd">
<svg version="1.1" id="Layer_1" xmlns="http://www.w3.org/2000/svg" xmlns:xlink="http://www.w3.org/1999/xlink" x="0px" y="0px"
	 width="550px" height="550px" viewBox="0 0 550 550" enable-background="new 0 0 550 550" xml:space="preserve">
<g>
	<g>
		<path fill="#FFFFFF" d="M111.509,225.802c0.368-22.412,4.762-42.11,13.167-59.111c8.404-16.993,20.258-31.28,35.579-42.863
			c14.567-10.829,31.656-18.954,51.267-24.373c19.61-5.41,40.429-8.124,62.473-8.124c26.517,0,49.585,3.458,69.196,10.365
			c19.61,6.916,35.386,15.688,47.345,26.334c11.95,10.646,20.635,21.571,26.054,32.777c5.41,11.206,8.124,21.484,8.124,30.816
			c0,16.441-1.961,30.168-5.883,41.182c-3.922,11.022-8.597,19.33-14.007,24.933c-5.42,5.603-10.559,9.525-15.408,11.767
			c-4.859,2.24-9.525,3.922-14.008,5.042l-2.241,0.561v1.12c0,0.377,1.865,1.313,5.604,2.802c6.724,1.874,12.887,4.202,18.489,7.004
			s11.573,7.38,17.93,13.727c6.347,6.356,11.573,15.128,15.688,26.334c4.105,11.206,6.163,25.029,6.163,41.462
			c0,13.079-2.714,26.71-8.125,40.901c-5.419,14.2-14.479,27.454-27.174,39.78c-12.703,12.327-29.695,22.412-50.986,30.256
			c-21.291,7.845-47.064,11.767-77.321,11.767c-36.611,0-66.675-4.946-90.207-14.848c-23.532-9.893-41.278-22.22-53.228-36.979
			c-11.959-14.751-19.987-29.695-24.093-44.823c-4.115-15.128-6.163-29.415-6.163-42.862c0-2.241,0.184-4.851,0.56-7.845
			c0-2.608,0-4.289,0-5.042h106.456c0,21.291,5.043,36.795,15.128,46.504c9.709,11.582,25.213,17.369,46.504,17.369
			c16.809,0,29.695-3.449,38.66-10.365c8.965-6.907,13.447-18.017,13.447-33.338c0-15.688-4.763-26.333-14.288-31.937
			c-9.524-5.603-22.132-8.404-37.819-8.404c-8.965,0-18.306,0.753-28.015,2.241l-4.482,0.561v-76.2c2.241,0,5.043,0.193,8.404,0.561
			c8.965,1.121,16.993,1.681,24.093,1.681c6.724,0,13.167-0.464,19.33-1.4c6.163-0.928,11.486-2.521,15.969-4.763
			c11.949-5.971,17.929-15.688,17.929-29.135c0-11.206-5.139-19.698-15.408-25.493c-10.277-5.787-22.132-8.685-35.578-8.685
			c-15.688,0-28.575,4.115-38.66,12.327c-10.085,8.22-15.128,20.363-15.128,36.419H111.509z"/>
		<path fill="#4ED0D1" d="M273.433,499.76c-37.714,0-69.304-5.246-93.892-15.591c-24.883-10.461-44.037-23.838-56.926-39.759
			c-12.731-15.704-21.439-31.96-25.878-48.312c-4.309-15.843-6.495-31.103-6.495-45.351c0-2.484,0.188-5.316,0.56-8.425V328.36
			h125.456v9.5c0,18.513,4.11,31.855,12.217,39.66l0.365,0.352l0.326,0.39c7.772,9.271,20.969,13.972,39.224,13.972
			c14.589,0,25.644-2.822,32.857-8.387c6.562-5.057,9.75-13.5,9.75-25.816c0-18.098-7.229-22.351-9.605-23.748
			c-8-4.706-19.104-7.093-33.002-7.093c-8.407,0-17.348,0.717-26.575,2.132l-0.261,0.036l-15.161,1.896v-96.462h9.5
			c2.556,0,5.643,0.202,9.437,0.617l0.146,0.017c8.532,1.067,16.242,1.607,22.915,1.607c6.235,0,12.258-0.435,17.903-1.292
			c5.144-0.775,9.562-2.075,13.147-3.868c8.768-4.381,12.677-10.746,12.677-20.638c0-7.781-3.262-13.092-10.577-17.22
			c-8.786-4.947-19.188-7.458-30.909-7.458c-13.554,0-24.238,3.334-32.662,10.193c-7.822,6.375-11.626,15.879-11.626,29.052v9.5
			H101.852l0.159-9.656c0.389-23.708,5.149-44.96,14.149-63.165c9.03-18.257,21.938-33.812,38.366-46.231
			c15.507-11.528,33.811-20.244,54.465-25.951c20.367-5.619,42.235-8.467,65.003-8.467c27.465,0,51.808,3.669,72.352,10.905
			c20.692,7.298,37.684,16.785,50.505,28.199c12.833,11.432,22.351,23.455,28.29,35.737c6.021,12.47,9.071,24.228,9.071,34.952
			c0,17.453-2.164,32.381-6.434,44.369c-4.416,12.411-9.689,21.684-16.122,28.345c-4.76,4.921-9.329,8.697-13.857,11.442
			c1.263,0.567,2.499,1.153,3.708,1.757c6.563,3.282,13.233,8.353,20.393,15.501c7.306,7.316,13.322,17.333,17.895,29.782
			c4.477,12.219,6.745,27.269,6.745,44.736c0,14.162-2.943,29.062-8.748,44.286c-5.887,15.426-15.789,29.963-29.433,43.211
			c-13.605,13.203-31.881,24.088-54.32,32.354C331.793,495.604,304.673,499.76,273.433,499.76z M109.389,347.36
			c-0.097,1.237-0.146,2.37-0.146,3.387c0,12.564,1.961,26.146,5.83,40.369c3.742,13.788,11.247,27.693,22.305,41.334
			c10.901,13.464,27.563,24.97,49.53,34.204c22.246,9.36,51.356,14.105,86.525,14.105c28.992,0,53.901-3.762,74.037-11.181
			c19.935-7.344,35.968-16.818,47.654-28.159c11.641-11.303,20.023-23.533,24.914-36.35c4.977-13.053,7.501-25.675,7.501-37.515
			c0-15.231-1.879-28.081-5.583-38.194c-3.614-9.84-8.154-17.544-13.491-22.89c-5.605-5.597-10.81-9.618-15.456-11.941
			c-5.005-2.503-10.654-4.64-16.791-6.35l-0.49-0.137l-0.473-0.188c-5.433-2.163-11.59-4.614-11.59-11.628v-8.537l9.437-2.36
			c3.878-0.969,8.027-2.467,12.335-4.453c3.755-1.735,7.983-5.015,12.558-9.744c4.442-4.601,8.443-11.841,11.885-21.513
			c3.539-9.938,5.333-22.722,5.333-37.997c0-7.84-2.415-16.818-7.179-26.686c-4.846-10.019-12.859-20.052-23.818-29.813
			c-10.968-9.764-25.834-17.997-44.185-24.469c-18.508-6.519-40.727-9.824-66.037-9.824c-21.061,0-41.229,2.618-59.946,7.782
			c-18.378,5.079-34.571,12.763-48.125,22.839c-13.99,10.577-25.022,23.865-32.73,39.45c-6.526,13.201-10.464,28.438-11.745,45.399
			h86.463c1.794-14.454,7.847-25.958,18.06-34.283c11.787-9.598,26.812-14.463,44.662-14.463c15.025,0,28.564,3.333,40.239,9.907
			c13.248,7.477,20.247,19.153,20.247,33.771c0,17.042-8.017,30.055-23.183,37.633c-5.368,2.684-11.694,4.588-18.8,5.659
			c-6.574,0.999-13.558,1.506-20.745,1.506c-6.846,0-14.572-0.497-22.997-1.479v55.097c7.912-0.97,15.623-1.46,22.997-1.46
			c17.331,0,31.676,3.269,42.636,9.716c12.589,7.405,18.972,20.905,18.972,40.125c0,18.348-5.77,32.096-17.149,40.863
			c-10.612,8.187-25.571,12.34-44.458,12.34c-23.913,0-41.895-6.856-53.459-20.381c-10.1-9.936-15.912-24.536-17.331-43.492H109.389
			z"/>
	</g>
</g>
</svg>
