<?xml version="1.0" encoding="utf-8"?>
<!-- Generator: Adobe Illustrator 16.0.0, SVG Export Plug-In . SVG Version: 6.00 Build 0)  -->
<!DOCTYPE svg PUBLIC "-//W3C//DTD SVG 1.1//EN" "http://www.w3.org/Graphics/SVG/1.1/DTD/svg11.dtd">
<svg version="1.1" id="Layer_1" xmlns="http://www.w3.org/2000/svg" xmlns:xlink="http://www.w3.org/1999/xlink" x="0px" y="0px"
	 width="800px" height="500px" viewBox="0 0 800 500" enable-background="new 0 0 800 500" xml:space="preserve">
<g>
	<path fill="#FFFFFF" d="M726.589,34.348V18.279h20.523v16.068H726.589z"/>
	<path fill="#FFFFFF" d="M759.781,34.348V18.279h20.523v16.068H759.781z"/>
	<path fill="#FFFFFF" d="M147.006,209.97c0,7.949-1.491,14.903-4.471,20.867c-2.981,5.96-7.203,10.93-12.669,14.903
		c-5.464,3.974-12.048,6.957-19.748,8.941c-7.699,1.989-16.271,2.981-25.709,2.981H19.078v-104.08h28.319l-28.319-40.492V83.282
		h64.088c9.771,0,18.34,1.366,25.71,4.101c7.368,2.733,13.618,6.333,18.756,10.803c3.806,4.476,6.787,9.067,8.94,13.79
		c2.15,4.718,3.229,10.06,3.229,16.021v1.738c0,4.806-0.706,9.15-2.11,13.041c-1.408,3.894-3.229,7.371-5.466,10.433
		c-2.234,3.065-4.763,5.711-7.575,7.948c-2.817,2.238-5.713,4.101-8.694,5.59c4.802,1.824,9.148,3.936,13.04,6.332
		c3.89,2.407,7.162,5.22,9.813,8.449c2.646,3.23,4.677,7.04,6.086,11.427c1.404,4.391,2.11,9.563,2.11,15.521V209.97z
		 M53.357,224.626h32.79c7.452,0,13.537-1.532,18.258-4.597c4.719-3.062,7.08-7.986,7.08-14.777v-1.493
		c0-5.795-2.235-10.472-6.708-14.033c-4.471-3.559-11.264-5.342-20.368-5.342H53.357V224.626z M54.6,114.831l28.566,39.993
		c13.744-1.325,20.619-7.784,20.619-19.375v-1.244c0-6.124-2.031-10.888-6.088-14.281c-4.06-3.394-9.811-5.093-17.263-5.093H54.6z"
		/>
	<path fill="#FFFFFF" d="M291.077,145.135c0,6.791-0.822,13.336-2.468,19.627c-1.646,6.294-3.91,12.044-6.79,17.263
		c-2.879,5.215-6.333,9.854-10.363,13.912c-4.027,4.058-8.429,7.161-13.198,9.315l37.29,52.66h-41.73l-31.692-44.961h-22.461v44.961
		h-36.019V83.778h65.699c9.915,0,18.348,1.409,25.287,4.227s13.057,6.871,18.346,12.17c2.147,2.321,4.337,5.135,6.568,8.446
		c2.231,3.313,4.176,6.916,5.83,10.807c1.652,3.89,3.016,8.031,4.09,12.418C290.537,136.235,291.077,140.665,291.077,145.135z
		 M255.058,146.876c0-9.104-2.746-16.397-8.235-21.859c-5.488-5.468-12.728-8.2-21.708-8.2h-25.45v64.586h26.949
		c4.488,0,8.483-1.03,11.977-3.104c3.494-2.069,6.484-4.761,8.981-8.074c2.495-3.311,4.366-6.994,5.616-11.053
		C254.434,155.114,255.058,151.015,255.058,146.876z"/>
	<path fill="#FFFFFF" d="M346.965,243.256l-5.961,14.904h-34.279l61.354-173.386h34.279l61.357,173.386h-37.511l-4.47-14.904
		H346.965z M357.646,211.706h53.655l-26.827-77.501L357.646,211.706z"/>
	<path fill="#FFFFFF" d="M630.889,83.778v37.015v137.119h-32.54l-83.217-110.291v110.291h-37.514V120.793V83.778h34.284
		l49.187,63.843l32.785,43.222v-59.619v-10.431V83.778H630.889z"/>
	<path fill="#FFFFFF" d="M780.922,171.217c0,12.091-2.199,23.353-6.583,33.786c-4.39,10.431-10.436,19.542-18.134,27.323
		c-7.702,7.784-16.766,13.994-27.203,18.63c-10.429,4.638-21.691,7.118-33.777,7.452H650.26V84.279h43.472
		c12.087,0,23.429,2.274,34.034,6.829c10.593,4.559,19.828,10.767,27.692,18.63c7.864,7.868,14.077,17.103,18.63,27.697
		C778.643,148.036,780.922,159.295,780.922,171.217z M686.279,225.37h8.945c7.115-0.328,13.865-1.943,20.241-4.845
		c6.374-2.894,11.964-6.746,16.767-11.549c4.802-4.803,8.612-10.433,11.429-16.894c2.815-6.459,4.224-13.414,4.224-20.866
		c0-7.451-1.408-14.487-4.224-21.11c-2.816-6.624-6.668-12.335-11.552-17.142c-4.886-4.802-10.643-8.609-17.264-11.427
		c-6.627-2.813-13.661-4.223-21.114-4.223h-7.452V225.37z"/>
	<path fill="#FFFFFF" d="M409.561,307.093h35.528v174.136h-35.528V307.093z"/>
	<path fill="#FFFFFF" d="M618.22,307.343v37.015v137.118h-32.542l-83.213-110.292v110.292h-37.512V344.357v-37.015h34.283
		l49.183,63.841l32.787,43.223v-59.619v-10.43v-37.015H618.22z"/>
	<path fill="#FFFFFF" d="M721.055,343.857c-6.791,0-13.246,1.329-19.374,3.974c-6.128,2.653-11.512,6.299-16.146,10.932
		c-4.638,4.637-8.283,10.023-10.929,16.147c-2.655,6.126-3.976,12.668-3.976,19.624c0,6.79,1.32,13.249,3.976,19.376
		c2.646,6.128,6.291,11.511,10.929,16.145c4.635,4.64,10.019,8.284,16.146,10.93c6.128,2.649,12.583,3.976,19.374,3.976
		c3.978,0,7.827-0.376,11.551-1.121c3.727-0.743,7.079-1.942,10.063-3.599v-29.064h-32.044v-32.292h67.563v82.968v-1.742
		c-7.787,6.958-16.729,12.298-26.83,16.024c-10.1,3.726-20.202,5.587-30.303,5.587c-11.76,0-22.937-2.235-33.534-6.706
		c-10.599-4.471-19.871-10.637-27.823-18.503c-7.949-7.865-14.24-17.1-18.873-27.698c-4.644-10.597-6.955-22.022-6.955-34.279
		c0-11.925,2.312-23.182,6.955-33.784c4.633-10.599,10.924-19.913,18.873-27.945c7.952-8.031,17.225-14.364,27.823-19.003
		c10.598-4.636,21.774-6.956,33.534-6.956c10.101,0,19.995,1.862,29.686,5.59c9.688,3.725,18.836,9.066,27.447,16.021
		l-24.837,27.574c-4.475-3.811-9.402-6.788-14.782-8.945C733.186,344.937,727.346,343.857,721.055,343.857z"/>
</g>
</svg>
