<?xml version="1.0" encoding="utf-8"?>
<!-- Generator: Adobe Illustrator 16.0.0, SVG Export Plug-In . SVG Version: 6.00 Build 0)  -->
<!DOCTYPE svg PUBLIC "-//W3C//DTD SVG 1.1//EN" "http://www.w3.org/Graphics/SVG/1.1/DTD/svg11.dtd">
<svg version="1.1" id="Layer_1" xmlns="http://www.w3.org/2000/svg" xmlns:xlink="http://www.w3.org/1999/xlink" x="0px" y="0px"
	 width="300px" height="300px" viewBox="0 0 300 300" enable-background="new 0 0 300 300" xml:space="preserve">
<g>
	<g id="Base_2_">
		<g>
			<path fill="#EBEBEB" d="M156.189,240.25c-10.255,0-18.569,8.313-18.569,18.569c0,18.573,18.569,37.202,18.569,37.138
				c0,0.064,18.569-18.5,18.569-37.138C174.759,248.563,166.445,240.25,156.189,240.25z M212.994,148.503
				c10.682-84.705-56.805-131.081-56.805-131.081S88.704,63.798,99.385,148.503l-21.598,21.597v80.466l41.25-41.25
				c4.107,8.021,8.895,16.268,14.457,24.744h45.391c5.563-8.477,10.353-16.724,14.457-24.744l41.251,41.25v-80.466L212.994,148.503z
				 M212.685,157.731l-0.019-0.093l0.409,0.377L212.685,157.731z"/>
		</g>
	</g>
	<g id="Orange_2_">
		<g>
			<path fill="#34495E" d="M143.811,227.87c-10.256,0-18.569,8.314-18.569,18.57c0,18.572,18.569,37.202,18.569,37.138
				c0,0.064,18.568-18.5,18.568-37.138C162.379,236.185,154.066,227.87,143.811,227.87z M143.811,271.198
				c0,0.04-10.316-11.688-10.316-23.382c0-6.458,4.618-11.692,10.316-11.692c5.698,0,10.315,5.234,10.315,11.692
				C154.126,259.55,143.811,271.238,143.811,271.198z M143.811,89.635c5.698,0,10.315-4.618,10.315-10.316
				c0-5.698-4.618-10.316-10.315-10.316c-5.698,0-10.316,4.618-10.316,10.316C133.494,85.017,138.112,89.635,143.811,89.635z
				 M143.811,75.192c2.278,0,4.126,1.848,4.126,4.126s-1.848,4.126-4.126,4.126c-2.279,0-4.126-1.848-4.126-4.126
				S141.532,75.192,143.811,75.192z M143.811,122.646c6.836,0,12.379-5.543,12.379-12.379s-5.542-12.379-12.379-12.379
				c-6.837,0-12.379,5.543-12.379,12.379S136.974,122.646,143.811,122.646z M143.811,104.077c3.419,0,6.189,2.771,6.189,6.19
				s-2.771,6.19-6.189,6.19c-3.419,0-6.19-2.771-6.19-6.19S140.391,104.077,143.811,104.077z"/>
		</g>
	</g>
	<g id="Semi_1_">
		<g>
			<path fill="#DADEEB" d="M88.104,141.215L71.598,227.87l37.138-37.138l-16.506-51.58L88.104,141.215z M199.517,141.215
				l-4.126-2.063l-16.506,51.58l37.138,37.138L199.517,141.215z"/>
		</g>
	</g>
	<g id="Base_3_">
		<g>
			<path fill="#34495E" d="M200.615,136.124C211.297,51.419,143.811,5.043,143.811,5.043S76.325,51.419,87.005,136.124
				l-21.597,21.598v80.466l41.25-41.251c4.106,8.021,8.894,16.269,14.457,24.744h22.695h22.695
				c5.562-8.476,10.353-16.724,14.457-24.744l41.249,41.251v-80.466L200.615,136.124z M143.811,15.359
				c22.695,15.474,51.58,50.291,51.58,105.225c0,15.093-2.498,29.046-6.112,41.361c-6.775-2.939-22.041-8.164-45.468-8.35
				c-23.427,0.186-38.694,5.41-45.468,8.35c-3.615-12.314-6.113-26.268-6.113-41.361C92.229,65.65,121.115,30.833,143.811,15.359z
				 M71.598,223.744v-63.96l16.671-15.39c2.599,14.29,7.416,29.597,15.111,45.895L71.598,223.744z M162.379,215.491h-18.568h-18.569
				c0,0-15.096-18.305-24.872-47.142c23.562-9.818,43.44-8.565,43.44-8.565s19.878-1.253,43.44,8.565
				C177.475,197.187,162.379,215.491,162.379,215.491z M216.022,223.744l-31.782-33.455c7.695-16.298,12.513-31.604,15.112-45.895
				l16.67,15.39V223.744z"/>
		</g>
	</g>
</g>
</svg>
