<?xml version="1.0" encoding="utf-8"?>
<!-- Generator: Adobe Illustrator 16.0.0, SVG Export Plug-In . SVG Version: 6.00 Build 0)  -->
<!DOCTYPE svg PUBLIC "-//W3C//DTD SVG 1.1//EN" "http://www.w3.org/Graphics/SVG/1.1/DTD/svg11.dtd">
<svg version="1.1" id="Layer_1" xmlns="http://www.w3.org/2000/svg" xmlns:xlink="http://www.w3.org/1999/xlink" x="0px" y="0px"
	 width="550px" height="550px" viewBox="0 0 550 550" enable-background="new 0 0 550 550" xml:space="preserve">
<path fill-rule="evenodd" clip-rule="evenodd" fill="#7DA7D9" d="M226.721,315.869c-7.734-7.731-18.501-10.281-24.407-5.398
	l-59.615,49.279c-11.635,9.618-12.129,27.984,0,40.108c12.13,12.126,30.501,11.634,40.124,0l49.298-59.592
	C237.005,334.363,234.455,323.599,226.721,315.869z"/>
<g display="none">
	<path display="inline" fill="#7DA7D9" d="M233.724,327.161l-30.542-17.31c-0.296,0.195-0.592,0.392-0.868,0.619l-36.062,29.81
		l38.667,32.868l27.202-32.882C234.856,336.961,235.257,332.13,233.724,327.161z"/>
</g>
<path fill-rule="evenodd" clip-rule="evenodd" fill="#FA565A" d="M30.148,500.362l12.01,12.007c13.264,13.258,34.77,13.258,48.034,0
	l3.002-3.001l78.055-78.028l3-3.001c13.265-13.261,13.265-34.758,0-48.017l-12.006-12.003c-13.265-13.261-34.77-13.261-48.035,0
	l-3.002,2.999l-78.056,78.028l-3.002,3.001C16.885,465.607,16.885,487.104,30.148,500.362z"/>
<path opacity="0.1" fill="#FFFFFF" d="M202.314,310.471l-58.538,48.39c-10.436-1.722-21.517,1.412-29.566,9.459l-3.002,2.999
	l-78.056,78.028l-3.002,3.001c-13.264,13.26-13.264,34.757,0,48.015l6.002,6.002l106.527-106.53l25.542-25.539l58.462-58.463
	C218.951,308.131,208.209,305.598,202.314,310.471z"/>
<circle opacity="0.6" fill="#E6E7E8" cx="322.033" cy="214.432" r="191.377"/>
<circle fill="#FFFFFF" cx="321.28" cy="202.377" r="191.377"/>
<circle fill="#E14D51" cx="321.28" cy="202.377" r="147.677"/>
<circle fill="#FA565A" cx="322.033" cy="207.651" r="142.403"/>
<ellipse opacity="0.1" fill="#FFFFFF" cx="326.554" cy="282.243" rx="95.689" ry="67.812"/>
</svg>
