<?xml version="1.0" encoding="utf-8"?>
<!-- Generator: Adobe Illustrator 16.0.0, SVG Export Plug-In . SVG Version: 6.00 Build 0)  -->
<!DOCTYPE svg PUBLIC "-//W3C//DTD SVG 1.1//EN" "http://www.w3.org/Graphics/SVG/1.1/DTD/svg11.dtd">
<svg version="1.1" id="Layer_1" xmlns="http://www.w3.org/2000/svg" xmlns:xlink="http://www.w3.org/1999/xlink" x="0px" y="0px"
	 width="550px" height="550px" viewBox="0 0 550 550" enable-background="new 0 0 550 550" xml:space="preserve">
<rect display="none" fill="#E6E7E8" width="550" height="550"/>
<circle opacity="0.6" fill="#D1D3D4" cx="275.976" cy="280.226" r="250.775"/>
<circle fill="#FFFFFF" cx="271.976" cy="271.226" r="250.775"/>
<circle fill="#C4D92E" cx="271.976" cy="271.226" r="202.775"/>
<path fill="#FFFFFF" d="M251.65,179.752l-12.978-0.761l0.37-6.347c-0.06-12.9-6.412-26.281-15.845-33.343l-0.377-0.283l-0.333-0.333
	c-15.893-15.955-37.472-9.797-60.319-3.279c-20.241,5.775-41.171,11.748-59.64,2.511l5.814-11.627
	c13.949,6.974,31.585,1.942,50.259-3.385c24.152-6.891,51.51-14.695,72.765,6.277c12.575,9.63,20.676,26.702,20.676,43.645
	l-0.031,0.719L251.65,179.752z"/>
<path opacity="0.1" fill="#231F20" d="M77.201,275.226c0-109.781,88.995-198.776,198.774-198.776
	c109.113,0,197.675,87.917,198.75,196.776c0.007-0.667,0.025-1.332,0.025-2c0-111.99-90.785-202.776-202.776-202.776
	c-111.989,0-202.774,90.786-202.774,202.776C69.201,383.215,159.986,474,271.975,474c0.669,0,1.333-0.019,2-0.025
	C165.118,472.899,77.201,384.337,77.201,275.226z"/>
<path fill-rule="evenodd" clip-rule="evenodd" fill="#FFFFFF" d="M258.68,165.49h18.847c30.614,0,55.433,24.81,55.433,55.413
	v119.691c0,30.604-24.818,55.413-55.433,55.413H258.68c-30.615,0-55.433-24.809-55.433-55.413V220.903
	C203.247,190.299,228.064,165.49,258.68,165.49z"/>
<circle fill-rule="evenodd" clip-rule="evenodd" fill="#C4D92E" cx="268.103" cy="217.343" r="14.25"/>
</svg>
