<?xml version="1.0" encoding="utf-8"?>
<!-- Generator: Adobe Illustrator 16.0.0, SVG Export Plug-In . SVG Version: 6.00 Build 0)  -->
<!DOCTYPE svg PUBLIC "-//W3C//DTD SVG 1.1 Tiny//EN" "http://www.w3.org/Graphics/SVG/1.1/DTD/svg11-tiny.dtd">
<svg version="1.1" baseProfile="tiny" id="Layer_1" xmlns="http://www.w3.org/2000/svg" xmlns:xlink="http://www.w3.org/1999/xlink"
	 x="0px" y="0px" width="450px" height="257.111px" viewBox="0 0 450 257.111" xml:space="preserve">
<g>
	<path fill="#D6D6D6" d="M194.391,157.42l-4.148,1.112v5.602h-3.623v0.422c0,0,0,0-0.001,0c-1.245-0.521-2.742-0.952-4.529-0.952
		c-5.025,0-8.066,3.09-8.066,6.858c0,0.125,0.025,0.243,0.033,0.366c-0.98-3.617-3.554-7.224-9.144-7.224
		c-6.813,0-10.968,5.556-10.968,12.605c0,7.048,4.298,11.777,11.499,11.777c3.712,0,6.276-0.771,7.771-1.444l-0.725-3.041
		c-1.596,0.674-3.425,1.206-6.47,1.206c-4.249,0-7.921-2.367-8.021-8.114h16.423c0.051-0.434,0.144-1.109,0.144-1.979
		c0-0.67-0.057-1.4-0.168-2.153c0.752,1.905,2.653,3.49,5.809,4.613c3.141,1.161,4.349,2.271,4.349,4.298
		c0,1.936-1.452,3.479-4.543,3.479c-2.126,0-4.343-0.87-5.599-1.69l-1.064,3.235c1.646,0.97,4.005,1.589,6.569,1.589
		c5.555,0,8.741-2.895,8.741-6.998c0-3.479-2.077-5.507-6.132-7.052c-3.046-1.157-4.442-2.026-4.442-3.959
		c0-1.739,1.396-3.188,3.91-3.188c2.172,0,3.86,0.771,4.78,1.354l0.266-0.772h-0.421v-0.001h0.42l0.793-2.315
		c0,0.001,0,0.001,0.001,0.001l-0.793,2.315h3.202v12.748c0,2.754,0.437,4.831,1.645,6.085c1.009,1.164,2.604,1.783,4.588,1.783
		c1.64,0,2.945-0.237,3.766-0.575l-0.012-0.117c-0.593-0.547-0.965-1.345-0.965-2.299c0-0.23,0.072-0.426,0.111-0.639
		c-0.487,0.086-1.052,0.157-1.795,0.157c-2.365,0-3.19-1.644-3.19-4.539v-12.604h6.089v-3.237h-6.089V157.42z M158.054,173.551
		c0.333-2.943,2.216-6.904,6.513-6.904c4.786,0,5.944,4.201,5.894,6.904H158.054z"/>
	<path fill="#D6D6D6" d="M250.813,153c-2.025,0-3.922,0.321-5.672,0.964c-1.757,0.646-3.316,1.651-4.688,3.021
		c-0.919,0.923-1.662,2.103-2.314,3.399c0-0.001,0-0.001,0-0.001c-0.154-0.457-0.267-0.936-0.477-1.352
		c-0.732-1.415-1.732-2.564-3.02-3.451c-1.291-0.883-2.742-1.534-4.371-1.955c-1.623-0.415-3.356-0.626-5.185-0.626
		c-4.576,0-8.105,1.133-10.598,3.401c-2.498,2.271-3.771,5.813-3.839,10.644h9.028c0-1.93,0.389-3.498,1.154-4.706
		c0.774-1.208,2.026-1.811,3.766-1.811c1.095,0,2.048,0.314,2.875,0.939c0.819,0.631,1.229,1.457,1.229,2.486
		c0,1.543-0.587,2.896-1.763,4.056c-1.174,1.157-3.021,2.558-5.521,4.198c-1.646,1.062-3.035,2.011-4.176,2.849
		c-1.141,0.836-2.2,1.77-3.164,2.799c-1.351,1.416-2.365,2.873-3.04,4.369c-0.677,1.493-1.014,3.256-1.014,5.285h28.621v-5.814
		c-0.433-0.748-0.808-1.543-1.115-2.39h0.001c0.311,0.848,0.687,1.643,1.118,2.392v0.001c0.244,0.424,0.442,0.883,0.722,1.276
		c1.163,1.641,2.687,2.929,4.587,3.86c1.895,0.936,4.182,1.397,6.855,1.397c2.67,0,4.951-0.479,6.847-1.423
		c1.899-0.947,3.425-2.251,4.563-3.908c1.142-1.657,1.979-3.564,2.51-5.719c0.529-2.158,0.798-4.509,0.798-7.051
		c0-5.532-1.323-9.772-3.96-12.719C258.934,154.472,255.346,153,250.813,153z M238.07,167.624c-0.453,1.063-1.059,1.997-1.816,2.8
		c-0.055,0.063-0.132,0.108-0.191,0.173c0.027,2.379,0.271,4.606,0.771,6.656c0.176,0.729,0.439,1.382,0.694,2.05
		c0-0.001-0.001-0.002-0.001-0.003l-14.666,0.002c0.676-0.481,1.883-1.222,3.623-2.22c1.451-0.803,2.524-1.431,3.234-1.882
		l0.775-0.481c1.352-0.837,2.458-1.561,3.324-2.172c0.803-0.563,1.539-1.228,2.242-1.953c0-0.141-0.021-0.271-0.021-0.409
		c0-2.016,0.191-3.832,0.54-5.484c-0.348,1.651-0.539,3.468-0.539,5.484c0,0.141,0.022,0.271,0.022,0.411
		c0.061-0.063,0.138-0.107,0.19-0.173c0.761-0.803,1.363-1.734,1.815-2.8c0.445-1.061,0.678-2.269,0.678-3.62
		c0-1.074-0.164-2.042-0.412-2.952c0.249,0.911,0.413,1.878,0.413,2.953C238.747,165.357,238.516,166.565,238.07,167.624z
		 M254.402,178.025c-0.721,1.784-1.924,2.678-3.59,2.678c-1.808,0-3.047-0.844-3.725-2.534c-0.676-1.688-1.008-4.155-1.008-7.408
		c0-1.188,0.033-2.309,0.117-3.354c0.082-1.047,0.266-2.099,0.559-3.163c0.287-1.061,0.756-1.944,1.396-2.652
		c0.644-0.71,1.496-1.063,2.561-1.063c1.092,0,1.973,0.299,2.626,0.894c0.664,0.599,1.146,1.377,1.45,2.343s0.499,1.998,0.576,3.089
		c0.084,1.093,0.121,2.362,0.121,3.813C255.486,173.786,255.127,176.24,254.402,178.025z"/>
	<path fill="#D6D6D6" d="M280.669,141.831c-2.78,1.88-6.465,2.872-11.045,2.976v10.965h12.585v31.742h16.063v-55.219h-12.194
		C285.243,136.772,283.449,139.953,280.669,141.831z"/>
	<path fill="#D6D6D6" d="M346.845,158.24c4.224-2.058,6.332-5.636,6.332-10.732c0-4.633-1.884-8.325-5.639-11.078
		c-3.756-2.759-8.854-4.135-15.288-4.135c-2.938,0-5.689,0.349-8.265,1.041c-2.571,0.695-4.865,1.778-6.869,3.243
		c-2.011,1.468-3.623,3.335-4.831,5.603c-1.206,2.266-1.896,4.916-2.049,7.952h14.521c0.2-1.903,0.938-3.346,2.199-4.323
		c1.258-0.979,2.87-1.468,4.824-1.468c1.808,0,3.313,0.398,4.521,1.196c1.207,0.797,1.816,2.021,1.816,3.667
		c0,2.007-0.797,3.451-2.395,4.325c-1.601,0.876-3.506,1.313-5.717,1.313c-0.21,0-0.465-0.026-0.772-0.077c-0.313,0-0.544,0-0.693,0
		v9.498c1.489,0,2.775,0.053,3.86,0.152c1.079,0.105,2.095,0.352,3.047,0.733c0.953,0.387,1.717,0.992,2.28,1.813
		c0.564,0.826,0.85,1.934,0.85,3.322c0,1.698-0.632,3.179-1.889,4.438c-1.266,1.264-3.025,1.895-5.297,1.895
		c-2.521,0-4.452-0.722-5.787-2.162c-1.291-1.391-1.937-3.345-1.937-5.869h-15.132c0,6.591,2.016,11.582,6.061,14.981
		c3.067,2.58,6.879,4.168,11.422,4.787l26.155-26.153C350.839,160.491,349.104,159.139,346.845,158.24z"/>
</g>
<rect x="338.001" y="70.267" transform="matrix(0.7075 0.7067 -0.7067 0.7075 222.8004 -188.048)" fill="#B5B5B5" width="1.166" height="209.757"/>
<path fill="#929497" d="M371.921,7.091v19.328v38.664c0,6.532-1.296,11.413-3.888,14.632c-2.604,3.225-6.05,4.832-10.371,4.832
	c-4.546,0-8.163-1.607-10.833-4.832c-2.681-3.219-4.018-8.1-4.018-14.632V28.054v-1.637V7.091h-11.341H325.8h-5.271V25.74h5.271
	v0.679v37.982c0,6.444,0.759,12.023,2.276,16.745c1.513,4.72,3.648,8.644,6.408,11.771c2.76,3.132,6.05,5.472,9.883,7.014
	c3.834,1.543,8.063,2.313,12.693,2.313c4.8,0,9.151-0.771,13.063-2.313c3.912-1.542,7.27-3.882,10.062-7.014
	c2.798-3.13,4.951-7.054,6.471-11.771c1.518-4.721,2.282-10.301,2.282-16.745V26.419V7.091H371.921z"/>
<path fill="#58595B" d="M277.768,7.091h-5.514h-11.492v19.328v38.664c0,6.532-1.3,11.413-3.9,14.632
	c-2.588,3.225-6.043,4.832-10.355,4.832c-4.554,0-8.164-1.607-10.846-4.832c-2.678-3.219-4.012-8.1-4.012-14.632V28.055v-1.637
	V7.091h-17.01v19.328v6.375c-2.038-4.556-4.609-8.614-7.729-12.157c-3.789-4.312-8.242-7.716-13.355-10.214
	c-5.112-2.493-10.583-3.742-16.411-3.742c-5.829,0-11.3,1.249-16.414,3.742c-5.112,2.498-9.565,5.902-13.354,10.214
	c-3.799,4.31-6.79,9.367-8.984,15.177c-2.198,5.806-3.296,12.024-3.296,18.648c0,1.436,0.062,2.849,0.165,4.247
	c-1.043-1.125-2.214-2.138-3.529-3.022c-1.894-1.271-4.01-2.452-6.342-3.539c1.435-0.817,2.836-1.814,4.193-2.995
	c1.357-1.179,2.575-2.608,3.655-4.287c1.075-1.679,1.955-3.608,2.637-5.785c0.677-2.18,1.02-4.584,1.02-7.215V31.05
	c0-3.268-0.504-6.171-1.501-8.713c-1.003-2.54-2.415-5.082-4.249-7.624c-2.481-2.447-5.517-4.399-9.106-5.854
	c-3.594-1.45-7.748-2.179-12.463-2.179H96.159H78.91l17.248,38.933H78.91v39.696L54.594,7.227h-16.53L8.475,102.245h16.528
	l20.967-67.93l20.123,67.93h18.091l-0.127-0.409h26.421c4.481,0,8.58-0.565,12.302-1.703c3.723-1.133,6.902-2.79,9.538-4.969
	c2.648-2.177,4.688-4.897,6.127-8.168c1.175-2.666,1.862-5.669,2.079-8.999c1.884,3.804,4.16,7.241,6.852,10.293
	c3.789,4.313,8.242,7.716,13.354,10.208c5.114,2.498,10.586,3.745,16.414,3.745s11.299-1.247,16.411-3.745
	c5.113-2.492,9.566-5.895,13.355-10.208c3.503-3.979,6.317-8.605,8.456-13.861c0.374,2.401,0.885,4.646,1.55,6.716
	c1.517,4.718,3.655,8.642,6.409,11.771c2.754,3.132,6.049,5.472,9.882,7.014c3.832,1.542,8.063,2.313,12.701,2.313
	c4.784,0,9.139-0.77,13.056-2.313c3.91-1.542,7.26-3.882,10.063-7.014c2.793-3.128,4.953-7.052,6.472-11.771
	c1.511-4.722,2.271-10.301,2.271-16.745V26.419V25.74h15.209v76.233h17.134V25.74h7.582V7.091H277.768z M96.159,23.697h14.978
	c2.87,0.457,5.252,1.75,7.124,3.879c1.877,2.136,2.813,4.609,2.813,7.421c0,1.454-0.276,2.839-0.836,4.151
	c-0.56,1.316-1.302,2.451-2.216,3.401c-0.92,0.953-1.978,1.701-3.174,2.246c-1.196,0.547-2.437,0.817-3.712,0.817H96.159V23.697z
	 M123.234,73.178c0,3.786-1.118,6.493-3.356,8.116c-2.237,1.626-5.151,2.437-8.741,2.437H95.323v-21.78h15.094
	c4.31,0,7.522,0.949,9.644,2.841c2.11,1.896,3.174,4.464,3.174,7.711L123.234,73.178z M200.624,65.49
	c-1.359,3.452-3.198,6.49-5.513,9.121c-2.315,2.634-5.03,4.719-8.141,6.262c-3.121,1.544-6.394,2.315-9.827,2.315
	c-3.597,0-6.947-0.771-10.06-2.315c-3.118-1.543-5.794-3.628-8.032-6.262c-2.237-2.631-3.993-5.669-5.273-9.121
	c-1.273-3.447-1.917-7.123-1.917-11.025c0-4.085,0.644-7.938,1.917-11.569c1.28-3.628,3.036-6.782,5.273-9.461
	c2.238-2.677,4.914-4.785,8.032-6.331c3.114-1.542,6.463-2.313,10.06-2.313c3.432,0,6.706,0.771,9.827,2.313
	c3.112,1.546,5.827,3.654,8.141,6.331c2.316,2.679,4.155,5.833,5.513,9.461c1.356,3.631,2.032,7.484,2.032,11.569
	C202.656,58.367,201.98,62.043,200.624,65.49z"/>
<path fill="#808080" d="M440.208,64.878c-0.965-2.767-2.36-5.263-4.199-7.484c-1.834-2.226-4.088-4.223-6.77-5.99
	c-2.67-1.771-5.769-3.426-9.283-4.97c-3.189-1.362-5.789-2.608-7.782-3.744c-1.999-1.133-3.572-2.223-4.734-3.267
	c-1.152-1.045-1.955-2.089-2.395-3.133c-0.443-1.041-0.658-2.199-0.658-3.47c0-2.36,0.817-4.291,2.453-5.786
	c1.642-1.499,3.854-2.247,6.652-2.247c2.132,0,4.138,0.438,6.088,1.073l13.561-13.563c-1.629-1.013-3.313-1.9-5.097-2.553
	c-4.592-1.679-9.162-2.518-13.716-2.518c-4.07,0-7.743,0.656-11.022,1.975c-3.271,1.315-6.088,3.176-8.439,5.58
	c-2.36,2.407-4.155,5.288-5.396,8.645c-1.234,3.359-1.851,7.034-1.851,11.025c0,3.996,0.516,7.444,1.55,10.347
	c1.042,2.905,2.537,5.445,4.498,7.625c1.951,2.179,4.372,4.129,7.247,5.854c2.874,1.726,6.146,3.404,9.825,5.038
	c2.946,1.18,5.368,2.269,7.244,3.267c1.873,0.999,3.313,1.996,4.311,2.995c0.997,1,1.679,2.021,2.037,3.063
	c0.361,1.045,0.545,2.153,0.545,3.335c0,2.813-0.986,4.988-2.937,6.532c-1.961,1.545-4.498,2.314-7.611,2.314
	c-4.309,0-8.109-1.022-11.377-3.063c-3.279-2.044-6.314-4.471-9.106-7.282l-11.94,12.172c4.554,4.812,11.521,10.403,16.674,12.535
	c4.436,1.839,8.95,2.833,13.536,3.088l29.413-29.418C441.403,69.913,441.011,67.207,440.208,64.878z"/>
<circle fill="#EBEAEA" cx="202.196" cy="185.093" r="3.138"/>
</svg>
