<?xml version="1.0" encoding="utf-8"?>
<!-- Generator: Adobe Illustrator 16.0.0, SVG Export Plug-In . SVG Version: 6.00 Build 0)  -->
<!DOCTYPE svg PUBLIC "-//W3C//DTD SVG 1.1 Tiny//EN" "http://www.w3.org/Graphics/SVG/1.1/DTD/svg11-tiny.dtd">
<svg version="1.1" baseProfile="tiny" id="Layer_1" xmlns="http://www.w3.org/2000/svg" xmlns:xlink="http://www.w3.org/1999/xlink"
	 x="0px" y="0px" width="300px" height="300px" viewBox="0 0 300 300" xml:space="preserve">
<g>
	<path d="M190.55,14.856c0,0-59.179,0-80.14,0c-40.66,0-74.565,29.449-74.565,62.294c0,33.545,22.271,60.311,60.523,60.311
		c2.659,0,5.245-0.171,7.767-0.33c-2.486,4.721-4.247,10.011-4.247,15.568c0,9.318,5.146,14.637,11.517,20.783
		c-4.81,0-9.461,0.131-14.535,0.131c-46.567,0-78.888,14.711-78.888,60.256c0,30.17,39.023,51.275,85.591,51.275
		c53.076,0,86.202-28.016,85.715-60.141c-0.363-24.158-5.241-36.322-31.116-55.658c-7.438-5.545-23.599-16.914-23.599-24.55
		c0-8.954,2.556-13.352,16.1-23.891c13.853-10.772,23.665-24.989,23.665-42.63c0-19.239-7.884-36.653-22.738-45.113h21.043
		L190.55,14.856z M159.036,220.332c0.898,2.346,0.975,4.934,0.975,7.5c0,21.305-14.821,37.551-57.357,37.551
		c-30.248,0-52.099-17.346-52.099-38.621c0-20.865,24.499-31.961,54.14-31.961C115.714,194.801,148.771,194.801,159.036,220.332z
		 M111.864,124.061c-20.508-0.631-39.998-18.512-43.528-45.216c-3.558-26.67,14.412-45.271,34.907-44.674
		c20.495,0.625,33.844,20.687,37.37,47.357C144.144,108.239,132.359,124.651,111.864,124.061z"/>
	<polygon points="243.458,14.883 230.654,14.883 230.654,53.526 192.148,53.526 192.148,66.213 230.654,66.213 230.654,104.924 
		243.458,104.924 243.458,66.213 282.019,66.213 282.019,53.526 243.458,53.526 	"/>
</g>
</svg>
