<?xml version="1.0" encoding="utf-8"?>
<!-- Generator: Adobe Illustrator 16.0.0, SVG Export Plug-In . SVG Version: 6.00 Build 0)  -->
<!DOCTYPE svg PUBLIC "-//W3C//DTD SVG 1.1 Tiny//EN" "http://www.w3.org/Graphics/SVG/1.1/DTD/svg11-tiny.dtd">
<svg version="1.1" baseProfile="tiny" id="Layer_1" xmlns="http://www.w3.org/2000/svg" xmlns:xlink="http://www.w3.org/1999/xlink"
	 x="0px" y="0px" width="465px" height="229.056px" viewBox="-0.25 0 465 229.056" xml:space="preserve">
<g>
	<path fill="#FFFFFF" d="M104.155,157.459H85.657v17.854h6.917c2.251,0,3.539,1.127,3.539,3.539v8.526
		c0,0-10.778,11.901-28.953,11.901c-20.427,0-37.478-15.28-37.478-40.212c0-23.161,16.889-38.764,36.673-38.764
		c17.372,0,29.274,10.133,29.274,10.133l11.903-15.119c0,0-13.672-14.476-41.66-14.476c-33.135,0-58.065,25.575-58.065,58.387
		c0,36.835,25.574,59.677,55.492,59.677c21.394,0,33.617-12.227,33.617-12.227h0.322c0,0-0.16,2.412-0.16,4.827v5.466h18.015
		v-48.736C115.093,160.676,111.876,157.459,104.155,157.459z"/>
	<path fill="#FFFFFF" d="M413.102,156.173c0-4.826,4.988-7.4,12.225-7.4c4.503,0,10.295,1.933,10.295,5.792v4.021h18.016v-8.524
		c0-13.351-17.695-17.051-28.791-17.051c-15.205,0-28.608,6.019-31.336,18.952c-7.986-11.72-21.856-18.952-37.821-18.952
		c-12.413,0-23.586,4.428-31.682,11.969v-10.039h-17.69v-1.447c0-12.224,9.974-13.833,15.763-13.833
		c2.412,0,4.181,0.322,4.181,0.322V102.61c0,0-2.733-0.483-6.754-0.483c-11.582,0-33.617,3.54-33.617,30.4v2.412H252.43v-1.447
		c0-12.224,9.974-13.833,15.763-13.833c2.414,0,4.185,0.322,4.185,0.322V102.61c0,0-2.735-0.483-6.918-0.483
		c-11.419,0-33.456,3.54-33.456,30.4v2.412H221.87v15.334c-4.144-10.358-13.818-17.264-32.806-17.264
		c-5.019,0-14.553,0.561-21.547,4.14v-3.013c0,0-1.93-0.321-3.699-0.321c-12.547,0-22.357,9.328-26.058,21.069h-0.322
		c0,0,0.322-2.091,0.322-5.147v-4.824c0-6.917-3.7-9.974-10.938-9.974h-18.658v17.374h6.434c2.251,0,3.538,1.124,3.538,3.536v61.122
		h20.267v-32.49c0-4.825,0.644-9.33,1.769-13.352c3.204-10.584,11.111-15.736,18.814-16.928v4.383h18.98v-4.344
		c0-4.504,7.238-5.469,10.938-5.469c10.456,0,15.12,4.345,15.12,16.086v0.643h-2.574c-13.35,0-48.737,2.091-48.737,27.827
		c0,16.407,13.351,25.577,27.988,25.577c18.498,0,24.772-14.479,24.772-14.479h0.32c0,0-0.159,1.449-0.159,3.538
		c0,4.826,2.893,9.007,10.454,9.007h15.916h2.422h18.005v-65.787h33.459v65.787h20.428v-65.787h12.239
		c-4.89,6.843-7.742,15.289-7.742,24.772c0,25.252,19.943,42.948,44.875,42.948c25.093,0,45.038-17.696,45.038-42.948
		c0-0.899-0.033-1.787-0.082-2.668c12.423,10.981,35.62,13.167,35.62,21.648c0,5.468-4.824,8.042-11.1,8.042
		c-13.993,0-24.449-12.063-24.449-12.063l-9.65,13.349c0,0,11.58,14.641,34.1,14.641c17.855,0,31.527-9.654,31.527-25.095
		C456.692,166.468,413.102,169.039,413.102,156.173z M204.346,181.425c0,9.972-7.722,21.555-18.659,21.555
		c-8.364,0-12.386-5.147-12.386-10.616c0-11.421,16.89-12.868,27.507-12.868h3.538V181.425z M227.988,199.761
		c-2.251,0-3.538-1.286-3.538-3.539v-30.561c0-5.233-0.659-10.138-2.231-14.478h9.783v48.577H227.988z M355.688,201.531
		c-13.189,0-24.285-10.294-24.285-25.574c0-15.121,11.096-25.575,24.285-25.575c13.351,0,24.45,10.454,24.45,25.575
		C380.139,191.237,369.039,201.531,355.688,201.531z"/>
	<path fill="#FFFFFF" d="M355.77,49.076c0-21.715-12.866-38.926-36.352-38.926c-7.326,0-13.958,1.599-19.694,4.466v-3.339
		c0,0-1.93-0.322-3.699-0.322c-12.546,0-22.355,9.33-26.056,21.071h-0.323c0,0,0.323-2.091,0.323-5.147v-4.825
		c0-6.916-3.7-9.972-10.938-9.972h-18.658v15.813c-4.04-10.617-13.696-17.744-32.967-17.744c-8.525,0-30.079,1.609-30.079,16.89
		v1.279c-5.315-10.147-15.131-17.042-29.272-17.042c-4.425,0-8.687,0.694-12.694,1.972c-8.469,2.699-15.723,8.137-20.604,15.918
		c-3.396,5.416-5.65,11.947-6.35,19.475l-8.111,24.882c-1.287,4.021-2.252,8.685-2.252,8.685h-0.321c0,0-1.287-4.825-2.574-8.685
		L75.363,13.529H64.426L44.642,73.525c-1.287,3.86-2.574,8.685-2.574,8.685h-0.322c0,0-1.126-4.825-2.413-8.685l-8.446-26.157
		L23.292,58.97l12.021,35.143h12.224L67.16,36.53c1.448-4.022,2.574-8.686,2.574-8.686h0.321c0,0,1.126,4.664,2.413,8.686
		l19.785,57.583h12.063l7.586-22.179c6.525,14.773,21.018,24.109,38.564,24.109c12.596,0,22.08-5.465,26.784-8.887
		c5.271,5.788,13.303,8.887,21.791,8.887c18.496,0,24.768-14.477,24.768-14.477h0.323c0,0-0.161,1.449-0.161,3.54
		c0,4.826,2.896,9.007,10.456,9.007h15.918h2.418h17.848V61.621c0-4.825,0.646-9.329,1.771-13.35
		c1.711-5.655,4.773-9.745,8.42-12.525c-1.979,5.208-3.042,11.042-3.042,17.351c0,23.323,16.89,42.947,44.071,42.947
		c20.428,0,32.975-12.385,32.975-12.385l-8.523-14.155c0,0-9.813,9.168-23.002,9.168c-12.388,0-23.001-7.56-24.612-22.036h56.618
		C355.285,56.636,355.77,51.489,355.77,49.076z M125.756,31.427c5.285-7.199,13.354-10.982,22.138-10.982
		c11.902,0,22.196,8.204,22.839,24.932h-49.748h-0.919C121.002,39.819,123.01,35.171,125.756,31.427z M171.052,70.469
		c0,3.012,0.458,5.776,1.284,8.289c-3.872,2.954-11.417,7.474-21.387,7.474c-16.728,0-31.043-11.741-31.365-32.169h58.411
		C173.779,58.021,171.052,63.333,171.052,70.469z M180.235,35.725h16.07v-4.343c0-4.504,7.239-5.469,10.938-5.469
		c10.454,0,15.12,4.343,15.12,16.085v0.644h-2.574c-8.604,0-26.349,0.879-37.889,8.386c0.052-0.862,0.093-1.75,0.093-2.435
		C181.993,44.101,181.382,39.77,180.235,35.725z M222.684,58.566c0,9.972-7.72,21.554-18.656,21.554
		c-8.366,0-12.388-5.147-12.388-10.616c0-11.42,16.89-12.868,27.505-12.868h3.539V58.566z M250.345,76.903h-4.016
		c-2.251,0-3.537-1.288-3.537-3.539V42.802c0-4.79-0.568-9.292-1.866-13.35h5.88c2.251,0,3.539,1.126,3.539,3.539V76.903z
		 M299.313,42.482c2.25-10.294,9.65-16.568,20.104-16.568c8.363,0,15.121,6.756,15.439,16.568H299.313z"/>
</g>
</svg>
