<?xml version="1.0" encoding="utf-8"?>
<!-- Generator: Adobe Illustrator 16.0.0, SVG Export Plug-In . SVG Version: 6.00 Build 0)  -->
<!DOCTYPE svg PUBLIC "-//W3C//DTD SVG 1.1//EN" "http://www.w3.org/Graphics/SVG/1.1/DTD/svg11.dtd">
<svg version="1.1" id="Layer_1" xmlns="http://www.w3.org/2000/svg" xmlns:xlink="http://www.w3.org/1999/xlink" x="0px" y="0px"
	 width="142.75px" height="56.75px" viewBox="0 0 142.75 56.75" enable-background="new 0 0 142.75 56.75" xml:space="preserve">
<g>
	<g>
		<path d="M129.146,26.42c-1.797-0.888-3.691-2.439-4.781-3.855l0.043-0.106c1.141-2.822,0.906-5.258-0.646-6.681
			c-0.861-0.79-2.07-1.243-3.311-1.243c-1.846,0-4.189,1.078-4.736,4.128c-0.277,1.743,0.348,3.49,0.801,4.768
			c0.191,0.539,0.373,1.051,0.391,1.307c0.082,1.339-0.693,2.455-2.369,3.414c-0.51,0.295-1.088,0.531-1.75,0.722
			c-0.238-4.474-2.426-7.929-5.643-8.867c-2.594-0.757-5.531,0.244-7.967,2.642l-0.059-0.125c-0.301-0.639-0.719-1.262-1.201-1.795
			c-0.074-0.08-0.17-0.181-0.277-0.287c2.393-0.236,4.867-0.725,5.756-2.686c1.582-3.478-0.592-9.608-2.557-12.657
			c-1.074-1.665-2.094-2.51-3.033-2.51c-0.346,0-1,0.126-1.447,0.973c-0.584,1.093-7.785,5.346-14.529,6.307
			c-0.84-2.588-2.125-4.071-3.016-4.806l-0.195-0.173c-0.424-0.337-0.719-0.49-0.75-0.507l0,0c-2.006-1.271-4.026-1.917-6.013-1.917
			c-1.959,0-3.305,0.64-3.792,0.914c-3.825,2.155-5.699,5.702-5.011,9.495c0.626,3.45,3.275,6.159,6.661,6.869
			c0.107,0.38,0.278,1.007,0.49,1.824c-1.869-1.78-3.341-2.647-4.485-2.647c-1.054,0-1.579,0.701-1.777,1.231
			c-2.824-1.119-5.442-0.939-7.626,0.502l-0.021-0.051c-1.499-3.949-3.04-5.867-4.715-5.867c-1.186,0-2.208,0.939-3.13,2.874
			c-1.145,2.403-2.963,3.552-5.212,3.421c-1.772-4.005-3.795-5.04-5.358-5.158c0.3-1.222,0.638-2.407,0.947-3.454
			c0.783-2.669,1.3-4.434,0.786-5.481c-1.823-3.71-11.765-5.018-12.895-5.156c-0.833-0.1-1.67-0.152-2.488-0.152
			c-9.801,0-16.079,7.019-17.009,13.625c-0.734,5.221,1.748,11.735,10.918,14.371c2.14,0.613,4.832,0.247,6.187-0.195
			c-0.168,0.489-0.426,1.116-0.696,1.719l-4.753-1.174c-1.209-0.332-2.441-0.502-3.658-0.502c-4.07,0-7.63,1.872-9.521,5.008
			c-2.306,3.828-1.964,6.806-0.737,10.106c1.458,3.919,5.215,6.718,9.548,7.124l0.197,0.02c5.3,0.67,9.613-2.711,9.728-2.801
			c1.205-0.809,2.29-1.839,3.312-3.148c2.6,2.63,8.042,7.599,13.062,8.762c0.625,0.146,1.24,0.218,1.828,0.218
			c2.054,0,3.841-0.883,5.171-2.554c2.059-2.598,2.786-6.87,1.85-10.896c-0.359-1.545-0.856-2.646-1.476-3.318
			c0.362,0.035,0.73,0.07,1.122,0.07c2.147,0,4.145-0.595,5.212-0.978c1.596,1.435,3.608,2.214,5.708,2.214
			c2.048,0,3.961-0.738,5.536-2.138l0.07-0.063c0.692,0.371,1.579,0.563,2.638,0.563c1.412,0,2.947-0.334,4.189-0.691
			c0.117,5.606-1.16,8.688-3.792,9.166c-1.13,0.205-1.472,0.938-1.416,1.557c0.103,1.146,1.51,2.152,3.01,2.152h0.125
			c3.522-0.126,6.126-1.193,7.965-3.27c2.555-2.883,3.521-7.635,2.955-14.555c0.1,0.002,0.207,0.008,0.318,0.018
			c0.205,0.012,0.426,0.025,0.66,0.025c0.672,0,1.658-0.106,2.564-0.91c0,0,0,0.003,0,0.006c0.865,4.537,0.811,7.812-0.152,9.215
			c-0.281,0.409-0.641,0.65-1.094,0.73c-0.783,0.144-1.088,0.705-1.045,1.201c0.074,0.803,0.986,1.481,1.99,1.481h0.078
			c2.049-0.073,3.574-0.703,4.656-1.929c1.441-1.631,2.012-4.258,1.742-8.022h0.096c0.469,0,1.346,0,2.053-0.658
			c0.594-0.555,1.299-1.853,1.52-2.616c-0.67,2.865-0.613,5.735,0.184,8.179c0.92,2.813,2.701,4.731,5.014,5.411
			c0.586,0.168,1.191,0.256,1.803,0.256c4.115,0,8.271-3.891,10.047-9.324c0.145,0.012,0.285,0.025,0.426,0.036
			c0.57,0.056,1.051,0.144,1.793-0.044c-0.475,1.767-0.092,3.846,1.096,5.75c1.793,2.874,4.867,4.591,8.221,4.591l0,0
			c1.064,0,2.156-0.174,3.24-0.517c6.252-1.975,7.488-6.233,7.674-8.603C134.693,32.297,132.441,28.048,129.146,26.42z
			 M83.404,25.167c-0.01,0-0.018,0-0.021,0c-0.182,0.031-0.555,0.086-0.943,0.086c-0.455,0-0.658-0.079-0.686-0.079h-0.002
			c-0.615-1.275-0.225-4.266,0.016-5.249c0.174-0.019,0.404-0.032,0.725-0.032c1.135,0,2.787,0.156,4.699,0.338
			c1.855,0.176,3.949,0.371,5.984,0.461c-0.877,0.504-2.445,0.597-4.605,0.254c-0.826-0.182-1.498-0.221-1.914-0.221
			c-1.82,0-2.658,0.709-3.043,1.308c-0.508,0.79-0.563,1.837-0.184,3.14C83.416,25.171,83.412,25.167,83.404,25.167z M69.401,29.961
			c0.087-1.954,0.938-4.523,1.424-5.839c0.475,2.078,0.993,4.636,1.354,7.267c-1.934,0.959-2.256,0.529-2.419,0.359
			C69.489,31.463,69.363,30.829,69.401,29.961z M51.769,32.984c-0.25,0.299-1.063,0.858-1.891,0.858
			c-0.692,0-1.174-0.409-1.472-1.255c-0.397-1.126-0.258-2.377,0.39-3.521c0.645-1.131,1.704-1.967,2.764-2.181l0.331-0.065
			l0.154-0.303c0.113-0.221,0.229-0.44,0.351-0.662C51.179,29.559,51.45,32.121,51.769,32.984z M58.668,27.785
			c0.677-1.659,1.749-2.501,3.186-2.501c0.422,0,0.758,0.077,0.908,0.121c0.617,0.526,0.702,2.124,0.188,3.79
			c-0.652,2.115-1.915,3.539-3.099,3.367c-0.168-0.025-0.641-0.35-1.026-1.024C58.455,30.896,57.948,29.555,58.668,27.785z
			 M29.094,11.744l-2.56,8.785C20.214,27.534,9.96,10.568,29.094,11.744z M121.842,38.98c0.529-0.166,0.982-0.451,1.348-0.85
			c0.533-0.594,0.832-1.41,0.832-2.305c0-1.846-1.227-3.741-3.352-4.426c0.764-0.687,1.252-1.487,1.551-2.104
			c1.621,1.435,5.01,4.63,4.725,7.154c-0.109,0.977-0.779,1.782-2.037,2.46C123.344,39.75,122.383,39.658,121.842,38.98z
			 M104.68,34.727c-0.822,1.83-1.797,2.668-2.375,2.668c-0.002,0-0.006,0-0.008,0c-0.486-0.123-0.971-1.349-0.834-3.402
			C102.121,34.249,103.133,34.521,104.68,34.727z M105.838,29.118c-1.176-0.161-2.17-0.373-2.811-0.524
			c0.688-1.218,1.428-1.85,1.869-1.85l0.094,0.01C105.391,26.857,105.781,27.706,105.838,29.118z M43.923,38.747
			c-4.643,2.292-8.697,1.55-11.944-2.147c0.236-0.836,0.638-2.144,1.133-3.752c0.617-2.013,1.378-4.496,2.142-7.108
			c0.031,0.015,0.064,0.03,0.094,0.044c0.251,0.109,0.485,0.191,0.684,0.256c0.059,0.623,0.372,1.591,1.385,2.98
			c0.1,0.14,0.204,0.282,0.317,0.424c0.654,0.839,1.344,1.264,2.052,1.264c0.779,0,1.343-0.497,1.72-1.012
			c-0.016,0.93,0.119,1.965,0.466,3.117c0.664,2.189,1.942,3.717,3.754,4.535C44.855,37.674,44.186,38.415,43.923,38.747z
			 M70.458,49.133L70.458,49.133v0.012V49.133z M84.748,43.078L84.748,43.078v0.008V43.078z M94.943,30.37l0.045-0.384l-0.213-0.264
			c-0.283-0.355-0.801-0.406-1.314-0.406c-0.713,0-1.619,0.115-2.035,0.177c-0.148-0.489-0.158-1.687-0.094-2.361
			c0.451,0.021,1.064,0.146,1.721,0.277c0.836,0.168,1.783,0.358,2.684,0.396l0.045,0.002c-0.254,0.615-0.471,1.207-0.643,1.791
			C95.066,29.857,95.004,30.111,94.943,30.37z"/>
		<path d="M137.057,40.504c-1.113-0.085-2.098,0.732-2.182,1.848c-0.088,1.116,0.76,2.103,1.875,2.189
			c1.113,0.082,2.074-0.762,2.158-1.879C138.994,41.549,138.174,40.593,137.057,40.504z"/>
	</g>
	<g>
		<g>
			<g>
				<g>
					<path fill="#FFFFFF" stroke="#000000" stroke-width="0.2338" d="M128.381,21.764"/>
				</g>
				<path fill="#FFFFFF" stroke="#000000" stroke-width="0.2338" d="M83.803,12.971L83.803,12.971L83.803,12.971z"/>
				<path fill="#FFFFFF" stroke="#000000" stroke-width="0.2338" d="M100.625,21.988c-0.279-0.592-0.662-1.154-1.09-1.627
					c-1.072-1.191-2.396-1.811-2.895-0.875c-0.166,0.318-0.426,0.652-0.867,0.931c-0.836,0.526-2.338,0.839-5.18,0.39
					c-0.141-0.021-6.756-1.701-3.814,4.744c0,0,0.049,0.176,0.133,0.475c0.205,0.746,0.615,2.313,0.965,4.17
					c0.822,4.328,1.328,10.197-1.813,10.77c-1.02,0.182-0.227,1.325,0.873,1.287c3.895-0.143,6.307-2.48,5.691-9.607
					c-0.064-0.729,1.439,0.084,2.402-0.813c0.508-0.472,1.221-1.785,1.357-2.407c0.104-0.474-2.588-0.097-2.984-0.025
					c-0.951,0.164-0.666-3.713-0.514-3.752c0.973-0.254,3.137,0.552,5.01,0.627C98.615,24.607,99.553,23.155,100.625,21.988z"/>
				<path fill="#FFFFFF" stroke="#000000" stroke-width="0.2338" d="M130.977,26.216c-2.316-1.142-4.848-3.364-5.74-5.173
					c-1.23-2.482-0.916-2.107-0.916-2.107s1.551,2.5,1.58,2.428c0.98-2.428,0.908-4.636-0.469-5.9
					c-2.035-1.862-6.184-1.408-6.877,2.481c-0.381,2.358,1.129,4.855,1.193,5.92c0.082,1.366-0.529,2.809-2.719,4.063
					c-0.836,0.482-1.779,0.793-2.766,0.995c-0.105-0.044-1.578,0.193-2.281,0.275c-0.125,0.005-0.246,0.008-0.371,0.012
					c0.051-0.128,2.635-0.606,2.633-0.726c-0.111-4.243-2.025-7.723-5.156-8.635c-2.604-0.762-5.451,0.437-7.707,2.885
					c-1.076,1.168-2.01,2.619-2.725,4.283c-0.266,0.623-0.506,1.269-0.705,1.946c-1.842,6.292,0.164,12.421,4.475,13.683
					c4.311,1.258,9.297-2.821,11.141-9.116c1.342-0.009,2.4,0.483,3.576-0.499c0.262-1.422,2.352-2.646,4.352-2.366
					c1.982-1.146,2.578-3.384,2.578-3.384c1.428,1.281,9.77,7.953,3.305,11.416c-3.15,1.688-3.924-0.067-4.408-0.788
					c-0.041-0.062-2.24-0.257-2.27-0.304c-0.061-0.107,1.914,0.004,1.914,0.004c4.518,0.24,3.547-7.125-2.16-6.57
					c-0.166,0.016-2.037-0.057-3.172,2.564c-2.209,4.511,3.441,12.295,11.357,9.797C139.262,40.045,136.465,28.928,130.977,26.216z
					 M104.264,37.243c-1.17-0.296-1.65-2.515-1.238-5.226c0.025,0.039,0.711,0.871,4.791,1.284
					C106.889,35.846,105.424,37.535,104.264,37.243z M104.678,28.364c-0.098-0.025-0.525-0.146-0.533-0.146
					c0.918-1.991,2.152-3.229,3.16-2.977c0.959,0.245,1.457,1.788,1.373,3.835C106.916,28.889,105.434,28.555,104.678,28.364z"/>
			</g>
			<g>
				<g>
					<path fill="#FFFFFF" stroke="#000000" stroke-width="0.2338" d="M47.246,23.309C47.036,23.445,47.351,23.868,47.246,23.309
						L47.246,23.309z"/>
					<path fill="#FFFFFF" stroke="#000000" stroke-width="0.2338" d="M34.734,20.532c0.01-0.195,0.04-0.399,0.081-0.604
						c0.313-1.526,1.28-3.354,2.795-4.057c0.018-0.006,1.166-0.536,1.613-0.546c0.969-4.151,2.496-7.698,1.901-8.913
						C39.487,3.075,29.626,1.75,28.777,1.646C10.566-0.557,1.479,22.661,20.478,28.121c3.282,0.943,6.338-0.374,6.484-0.469
						c1.272-0.828-0.796,3.483-0.796,3.483l-5.333-1.313c-5.053-1.395-10.069,0.337-12.39,4.187c-2.125,3.523-1.909,6.197-0.682,9.5
						c1.359,3.655,4.85,6.288,8.979,6.675c0.066,0.008,0.131,0.012,0.197,0.018c5.066,0.634,9.25-2.688,9.25-2.688
						c1.237-0.828,2.28-1.878,3.178-3.033c-4.444-5.235-7.323-6.881-8.82-6.828c-1.92,0.063-2.457,1.223-2.069,2.094
						c0.452,1.012,0.582,1.387,0.562,1.365c-0.512-0.434-1.155-0.967-1.265-1.371c-0.381-1.381,1.138-3.053,2.748-2.773
						c3.571,0.618,9.295,6.899,9.305,6.911c2.064,2.156,7.984,7.92,13.284,9.147c6.544,1.526,9.512-5.91,8.006-12.389
						c-1.507-6.476-4.596-2.168-4.596-2.168c-6.317,3.195-10.581,0.588-13.18-2.529c0.46-1.715,2.023-6.551,3.551-11.823
						c-0.006-0.003-0.01-0.003-0.016-0.005C35.835,23.568,34.631,22.518,34.734,20.532z M28.673,19.695
						c-6.322,7.007-16.576-9.96,2.561-8.785L28.673,19.695z"/>
					<path fill="#FFFFFF" stroke="#000000" stroke-width="0.2338" d="M99.121,3.059c-0.881,1.657-12.064,7.945-19.855,6.713
						c-0.248-0.039-3.467-1.144-5.844-2.671c0,0,3.738,1.801,6.068,2.294l0,0c1.227,0.332,3.93,0.229,3.93,0.229
						c-0.807-2.746-2.145-4.225-2.98-4.923c-0.016-0.013-0.027-0.033-0.039-0.043c-0.025-0.018-0.049-0.031-0.076-0.05
						c-0.381-0.303-0.629-0.43-0.629-0.43v0.003c-5.076-3.256-8.722-1.26-9.145-1.022c-7.982,4.495-5.024,14.073,1.859,15.139
						c0,0,1.824,6.14,2.672,12.646c-3.468,1.914-4.345,0.42-4.242-1.85c0.117-2.602,1.515-6.205,1.757-6.814
						c0-0.034-0.006-0.067-0.009-0.098c-0.014-0.152-0.047-0.266-0.1-0.317c-5.249-5.319-5.794-2.119-5.794-2.119l-0.11,0.56
						c-3.164-1.504-5.854-1.267-7.995,0.279c-1.22,0.88-2.452,2.104-3.104,3.846c-1.768,4.745-0.997,7.416-0.859,7.596
						c0.452,0.709-3.519,3.432-4.743-0.036c-1.044-2.962,1.211-6.128,3.677-6.622c0.843-1.657,2.702-4.831,4.221-5.346
						c-1.174-3.097-3.831-8.656-6.556-2.941c-3.523,7.39-11.335,1.816-11.335,1.816c4,1.937,4.852,1.595,4.852,1.595
						c-1.585-3.59-3.407-4.811-5.026-4.772c-0.449,0.01-0.881,0.112-1.289,0.292c-0.018,0.007-0.034,0.021-0.05,0.027
						c-1.516,0.699-2.676,2.41-2.988,3.935c-0.043,0.204-0.072,0.407-0.083,0.604c-0.103,1.986,1.1,3.035,2.144,3.576
						c0.006,0,0.01,0.006,0.016,0.009c0.103,0.053,0.205,0.103,0.304,0.146c0.63,0.278,1.136,0.365,1.136,0.365
						s-0.399,0.885,1.217,3.104c0.094,0.131,0.192,0.267,0.302,0.404c1.968,2.521,3.107-0.548,3.107-0.548l0.66-3.518
						c1.451-0.302,2.846-0.671,3.055-0.808c-1.249,0.922-3.966,3.51-2.463,8.469c2.108,6.955,10.063,4.442,12.053,3.66
						c0.001,0.013,0.003,0.021-0.001,0.027c2.878,2.826,7.403,3.182,10.595,0.344c-0.837-0.986-0.371-2.72-0.371-2.72
						c0.151,1.646,0.811,2.284,1.154,2.511c1.892,1.105,5.336,0.229,7.255-0.404c0.24,5.384-0.646,10.131-4.336,10.798
						c-1.831,0.336-0.407,2.389,1.566,2.317c6.994-0.244,11.334-4.455,10.229-17.27c-0.113-1.307,2.123,0.33,3.855-1.288
						c0.141-0.133-0.84-4.778-1.139-4.728c-0.459,0.082-2.055,0.297-2.385-0.377c-0.889-1.838-0.064-6.128,0.137-6.18
						c1.6-0.417,7.1,0.5,12.18,0.703c0.438-0.279,0.711-0.476,0.877-0.792c0.498-0.934,1.648-0.607,2.721,0.583
						c2.658-0.226,4.969-0.657,5.729-2.327C107.121,11.742,100.943-0.364,99.121,3.059z M61.889,32.423
						c-1.033-0.151-3.004-2.612-1.73-5.737c1.635-4.008,5.067-2.75,5.067-2.75C67.491,25.48,65.167,32.896,61.889,32.423z"/>
				</g>
			</g>
		</g>
		<g>
			<g>
				<g>
					<path fill="#FFFFFF" d="M138.889,43.706c-1.117-0.085-1.961-1.07-1.873-2.187c0.084-1.117,1.064-1.933,2.182-1.848
						c1.121,0.086,1.938,1.041,1.85,2.159C140.961,42.945,140.002,43.792,138.889,43.706z"/>
					<path fill="none" stroke="#000000" stroke-width="0.2338" d="M138.889,43.706c-1.117-0.085-1.961-1.07-1.873-2.187
						c0.084-1.117,1.064-1.933,2.182-1.848c1.121,0.086,1.938,1.041,1.85,2.159C140.961,42.945,140.002,43.792,138.889,43.706z"/>
				</g>
			</g>
		</g>
	</g>
</g>
</svg>
