<?xml version="1.0" encoding="utf-8"?>
<!-- Generator: Adobe Illustrator 16.0.0, SVG Export Plug-In . SVG Version: 6.00 Build 0)  -->
<!DOCTYPE svg PUBLIC "-//W3C//DTD SVG 1.1//EN" "http://www.w3.org/Graphics/SVG/1.1/DTD/svg11.dtd">
<svg version="1.1" id="Layer_1" xmlns="http://www.w3.org/2000/svg" xmlns:xlink="http://www.w3.org/1999/xlink" x="0px" y="0px"
	 width="762.058px" height="657.063px" viewBox="0 0 762.058 657.063" enable-background="new 0 0 762.058 657.063"
	 xml:space="preserve">
<g>
	<path fill="#FFFFFF" d="M79.909,44.175h15.464v89.416h-16.82L61.057,97.67l-17.5,35.921h-16.82V44.175h16.146v57.345l12.075-24.502
		H67.83l12.079,23.732V44.175z"/>
	<path fill="#FFFFFF" d="M147.078,133.075H96.502V43.404h49.897v17.062h-33.754v29.12h34.433v16.809h-34.433v9.875h34.433V133.075z"
		/>
	<path fill="#FFFFFF" d="M239.307,43.404c5.493,0,10.647,1.178,15.467,3.528c4.815,2.353,9.012,5.562,12.587,9.623
		c3.571,4.062,6.396,8.83,8.466,14.302c2.069,5.475,3.105,11.335,3.105,17.576c0,6.246-1.036,12.104-3.105,17.573
		c-2.07,5.476-4.895,10.246-8.466,14.305c-3.575,4.065-7.771,7.271-12.587,9.622c-4.819,2.354-9.974,3.526-15.467,3.526
		c-5.495,0-10.65-1.173-15.468-3.526c-4.816-2.352-9.011-5.557-12.587-9.622c-3.572-4.06-6.396-8.829-8.465-14.305
		c-2.072-5.47-3.103-11.328-3.103-17.573c0-6.24,1.03-12.101,3.103-17.576c2.068-5.472,4.893-10.24,8.465-14.302
		c3.576-4.061,7.771-7.27,12.587-9.623C228.656,44.583,233.812,43.404,239.307,43.404z M239.307,115.502
		c3.233,0,6.319-0.727,9.256-2.182c2.935-1.453,5.491-3.419,7.675-5.901c2.184-2.478,3.916-5.343,5.195-8.596
		c1.277-3.249,1.92-6.712,1.92-10.39c0-3.848-0.643-7.484-1.92-10.904c-1.279-3.419-3.012-6.393-5.195-8.914
		c-2.184-2.523-4.74-4.509-7.675-5.965c-2.937-1.457-6.022-2.184-9.256-2.184c-3.389,0-6.546,0.727-9.482,2.184
		c-2.936,1.456-5.459,3.441-7.562,5.965c-2.108,2.521-3.766,5.495-4.968,8.914c-1.204,3.42-1.806,7.056-1.806,10.904
		c0,3.678,0.602,7.142,1.806,10.39c1.202,3.253,2.859,6.118,4.968,8.596c2.104,2.482,4.627,4.448,7.562,5.901
		C232.761,114.775,235.918,115.502,239.307,115.502z"/>
	<path fill="#FFFFFF" d="M280.739,43.277h51.249V60.34h-34.882v28.735h30.819v17.062h-30.819v27.196h-16.367V43.277z"/>
	<path fill="#FFFFFF" d="M331.876,43.277h51.252V60.34h-34.885v28.735h30.821v17.062h-30.821v27.196h-16.367V43.277L331.876,43.277z
		"/>
	<path fill="#FFFFFF" d="M433.585,133.075h-50.57V43.404h49.896v17.062H399.16v29.12h34.426v16.809H399.16v9.875h34.426V133.075
		L433.585,133.075z"/>
	<path fill="#FFFFFF" d="M494.662,75.091c0,3.509-0.375,6.886-1.127,10.135c-0.744,3.253-1.775,6.222-3.084,8.916
		c-1.309,2.695-2.873,5.089-4.705,7.185c-1.834,2.096-3.834,3.7-6,4.81l16.945,27.196h-18.965l-14.404-23.219h-10.205v23.219
		h-16.369V43.404h29.857c4.502,0,8.34,0.728,11.494,2.181c3.154,1.456,5.93,3.55,8.336,6.288c0.975,1.198,1.967,2.652,2.986,4.361
		c1.012,1.713,1.891,3.573,2.646,5.579c0.752,2.01,1.369,4.152,1.859,6.416C494.414,70.497,494.662,72.781,494.662,75.091z
		 M478.289,75.989c0-4.703-1.248-8.467-3.74-11.288c-2.492-2.822-5.787-4.234-9.867-4.234h-11.564v33.355h12.248
		c2.039,0,3.855-0.536,5.439-1.604c1.592-1.069,2.951-2.457,4.084-4.168c1.137-1.711,1.984-3.613,2.555-5.711
		C478.007,80.245,478.289,78.13,478.289,75.989z"/>
	<path fill="#DA1C5C" d="M87.923,230.291l-5.872-8.211c-2.708,1.884-5.625,3.209-8.748,3.979c-3.124,0.769-6.378,1.151-9.765,1.151
		c-5.343,0-10.348-1.132-15.015-3.397s-8.731-5.366-12.191-9.3c-3.462-3.935-6.19-8.532-8.182-13.792
		c-1.997-5.259-2.994-10.924-2.994-16.998c0-5.984,0.997-11.61,2.994-16.867c1.992-5.261,4.72-9.856,8.182-13.791
		c3.46-3.933,7.524-7.035,12.191-9.301c4.667-2.266,9.672-3.401,15.015-3.401c5.269,0,10.218,1.136,14.845,3.401
		c4.628,2.266,8.674,5.368,12.136,9.301c3.46,3.935,6.209,8.53,8.242,13.791c2.031,5.257,3.046,10.883,3.046,16.867
		c0,5.305-0.659,10.181-1.974,14.626c-1.318,4.446-3.293,8.339-5.927,11.674l5.983,8.98L87.923,230.291z M63.538,210.922
		c1.581,0,3.065-0.063,4.46-0.193c1.392-0.127,2.767-0.619,4.12-1.474l-29.125-39.641c-1.055,2.224-1.862,4.489-2.426,6.8
		c-0.565,2.309-0.847,4.743-0.847,7.31c0,3.765,0.622,7.313,1.861,10.647c1.243,3.335,2.937,6.225,5.082,8.659
		c2.144,2.438,4.666,4.362,7.562,5.774C57.123,210.214,60.225,210.922,63.538,210.922z M83.971,197.325
		c1.053-1.97,1.863-4.065,2.429-6.288c0.565-2.223,0.846-4.662,0.846-7.313c0-3.505-0.621-6.884-1.864-10.133
		c-1.241-3.249-2.936-6.136-5.078-8.66c-2.146-2.521-4.668-4.53-7.563-6.029c-2.898-1.495-5.967-2.246-9.202-2.246
		c-1.355,0-2.709,0.176-4.062,0.513c-1.355,0.344-2.674,0.73-3.954,1.156L83.971,197.325z"/>
	<path fill="#DA1C5C" d="M162.994,140.75v18.218v35.791c0,6.072-0.718,11.331-2.146,15.776c-1.429,4.448-3.464,8.146-6.097,11.097
		c-2.635,2.951-5.795,5.156-9.481,6.608c-3.689,1.454-7.789,2.181-12.306,2.181c-4.365,0-8.354-0.727-11.965-2.181
		c-3.613-1.452-6.717-3.657-9.314-6.608c-2.597-2.95-4.609-6.648-6.038-11.097c-1.431-4.445-2.146-9.704-2.146-15.776v-35.791
		V140.75h16.029v18.218v1.535v34.896c0,6.158,1.26,10.757,3.782,13.79c2.52,3.036,5.926,4.553,10.216,4.553
		c4.064,0,7.318-1.517,9.767-4.553c2.443-3.033,3.668-7.632,3.668-13.79v-36.431V140.75H162.994z"/>
	<path fill="#DA1C5C" d="M181.506,222.723l-2.706,7.698h-15.58l27.881-89.542h15.581l27.885,89.542h-17.049l-2.029-7.698H181.506
		L181.506,222.723z M186.361,206.432h24.385l-12.191-40.024L186.361,206.432z"/>
	<path fill="#DA1C5C" d="M251.61,213.229h31.835v17.062h-48.204v-90.054h16.369V213.229L251.61,213.229z"/>
	<path fill="#DA1C5C" d="M282.879,140.237h16.144v89.926h-16.144V140.237z"/>
	<path fill="#DA1C5C" d="M319.678,230.163v-71.839h-19.529V140.75h55.77v17.574h-20.095v71.839H319.678z"/>
	<path fill="#DA1C5C" d="M403.781,140.493h18.402l-25.967,62.089v27.709h-16.369v-26.81l-25.851-62.988h18.399l15.693,43.488
		L403.781,140.493z"/>
	<path fill="#DA1C5C" d="M82.051,270.42c0,5.305-0.771,9.965-2.312,13.984c-1.543,4.02-3.652,7.44-6.322,10.261
		c-2.673,2.823-5.854,5.004-9.541,6.545c-3.689,1.537-7.675,2.394-11.964,2.565h-8.807v23.347H26.737v-90.055h25.966
		c4.438,0,8.465,0.834,12.079,2.502c3.612,1.667,6.697,3.977,9.257,6.925c2.557,2.95,4.533,6.459,5.926,10.522
		C81.355,261.078,82.051,265.546,82.051,270.42z M65.684,271.259c0-5.15-1.169-9.293-3.501-12.43
		c-2.333-3.134-5.758-4.702-10.271-4.702h-8.807v32.585h8.807c2.259,0,4.232-0.405,5.926-1.22c1.693-0.815,3.122-1.912,4.288-3.287
		c1.167-1.374,2.051-3.004,2.655-4.892C65.382,275.425,65.684,273.406,65.684,271.259z"/>
	<path fill="#DA1C5C" d="M140.075,269.01c0,3.508-0.373,6.886-1.119,10.134c-0.749,3.253-1.779,6.222-3.088,8.917
		c-1.309,2.693-2.879,5.088-4.708,7.185c-1.831,2.097-3.83,3.699-5.998,4.809l16.946,27.196h-18.967l-14.401-23.22H98.532v23.22
		H82.165v-89.925h29.858c4.506,0,8.336,0.725,11.488,2.178c3.156,1.455,5.936,3.551,8.34,6.286c0.977,1.198,1.97,2.652,2.984,4.361
		c1.015,1.712,1.899,3.573,2.648,5.582c0.752,2.011,1.37,4.149,1.86,6.416C139.832,264.414,140.075,266.699,140.075,269.01z
		 M123.707,269.908c0-4.701-1.25-8.469-3.742-11.288c-2.494-2.824-5.783-4.236-9.865-4.236H98.532v33.355h12.249
		c2.038,0,3.854-0.533,5.44-1.604c1.589-1.069,2.948-2.457,4.083-4.168c1.135-1.711,1.984-3.614,2.553-5.711
		C123.425,274.163,123.707,272.047,123.707,269.908z"/>
	<path fill="#DA1C5C" d="M180.49,237.325c5.493,0,10.649,1.175,15.464,3.523c4.82,2.355,9.015,5.562,12.591,9.622
		c3.572,4.064,6.394,8.831,8.464,14.307c2.071,5.473,3.107,11.332,3.107,17.572c0,6.246-1.036,12.104-3.107,17.578
		c-2.07,5.474-4.892,10.241-8.464,14.303c-3.576,4.061-7.771,7.269-12.591,9.621c-4.814,2.354-9.971,3.528-15.464,3.528
		c-5.492,0-10.649-1.175-15.467-3.528c-4.816-2.353-9.013-5.561-12.587-9.621c-3.576-4.062-6.396-8.829-8.467-14.303
		c-2.07-5.475-3.104-11.332-3.104-17.578c0-6.24,1.033-12.1,3.104-17.572c2.071-5.476,4.891-10.242,8.467-14.307
		c3.574-4.06,7.771-7.267,12.587-9.622C169.841,238.5,174.998,237.325,180.49,237.325z M180.49,309.419
		c3.235,0,6.321-0.727,9.258-2.183c2.935-1.449,5.491-3.418,7.678-5.9c2.18-2.479,3.913-5.343,5.19-8.596
		c1.281-3.247,1.921-6.71,1.921-10.391c0-3.849-0.64-7.48-1.921-10.904c-1.277-3.418-3.011-6.391-5.19-8.915
		c-2.187-2.521-4.743-4.511-7.678-5.965c-2.937-1.45-6.022-2.182-9.258-2.182c-3.385,0-6.548,0.731-9.483,2.182
		c-2.933,1.454-5.456,3.444-7.564,5.965c-2.107,2.524-3.764,5.497-4.966,8.915c-1.204,3.424-1.808,7.056-1.808,10.904
		c0,3.681,0.604,7.144,1.808,10.391c1.202,3.253,2.858,6.117,4.966,8.596c2.108,2.482,4.632,4.451,7.564,5.9
		C173.942,308.692,177.105,309.419,180.49,309.419z"/>
	<path fill="#DA1C5C" d="M281.304,282.48c0,6.244-0.999,12.057-2.993,17.447c-1.995,5.385-4.74,10.092-8.242,14.109
		c-3.496,4.02-7.619,7.228-12.359,9.621c-4.741,2.396-9.863,3.678-15.356,3.849h-20.431v-89.929h19.755
		c5.496,0,10.648,1.18,15.468,3.528c4.815,2.353,9.011,5.562,12.586,9.622c3.574,4.062,6.396,8.832,8.468,14.306
		C280.266,270.507,281.304,276.319,281.304,282.48z M238.291,310.445h4.062c3.237-0.168,6.306-1.006,9.203-2.5
		c2.895-1.497,5.435-3.485,7.617-5.965c2.185-2.48,3.916-5.39,5.194-8.724c1.279-3.336,1.922-6.931,1.922-10.776
		c0-3.85-0.643-7.482-1.922-10.905c-1.278-3.419-3.03-6.368-5.247-8.853c-2.222-2.48-4.839-4.445-7.846-5.899
		c-3.011-1.455-6.211-2.182-9.598-2.182h-3.386L238.291,310.445L238.291,310.445z"/>
	<path fill="#DA1C5C" d="M341.698,237.71v18.216v35.79c0,6.073-0.718,11.333-2.146,15.778c-1.431,4.45-3.464,8.145-6.096,11.096
		c-2.636,2.953-5.797,5.155-9.484,6.609c-3.685,1.456-7.787,2.181-12.305,2.181c-4.365,0-8.353-0.725-11.965-2.181
		c-3.614-1.454-6.717-3.656-9.313-6.609c-2.599-2.951-4.608-6.646-6.038-11.096c-1.432-4.445-2.146-9.705-2.146-15.778v-35.79
		V237.71h16.03v18.216v1.538v34.892c0,6.16,1.26,10.759,3.783,13.793c2.52,3.036,5.925,4.552,10.216,4.552
		c4.063,0,7.316-1.516,9.765-4.552c2.443-3.034,3.668-7.633,3.668-13.793v-36.43V237.71H341.698z"/>
	<path fill="#DA1C5C" d="M382.224,327.25c-5.42,0-10.539-1.176-15.353-3.528c-4.817-2.35-9.015-5.558-12.589-9.618
		c-3.574-4.063-6.396-8.832-8.465-14.305c-2.07-5.473-3.105-11.291-3.105-17.449c0-6.24,1.035-12.1,3.105-17.572
		c2.068-5.476,4.891-10.264,8.465-14.37c3.574-4.102,7.771-7.33,12.589-9.684c4.813-2.351,9.933-3.53,15.353-3.53
		c4.814,0,9.404,0.945,13.771,2.824c4.363,1.884,8.469,4.576,12.307,8.08l-11.631,15.523c-2.105-1.965-4.346-3.354-6.717-4.17
		c-2.369-0.812-4.949-1.218-7.73-1.218c-2.861,0-5.572,0.642-8.129,1.924c-2.561,1.282-4.798,3.016-6.719,5.195
		c-1.916,2.182-3.441,4.726-4.567,7.634c-1.129,2.909-1.692,6.029-1.692,9.363c0,3.253,0.563,6.33,1.692,9.238
		c1.126,2.906,2.651,5.453,4.567,7.635c1.921,2.179,4.158,3.912,6.719,5.194c2.558,1.28,5.269,1.925,8.129,1.925
		c5.566,0,10.387-1.798,14.447-5.389l11.631,15.395c-3.463,3.507-7.471,6.201-12.023,8.079
		C391.724,326.312,387.039,327.25,382.224,327.25z"/>
	<path fill="#DA1C5C" d="M427.603,327.122v-71.841h-19.529V237.71h55.77v17.571H443.75v71.841H427.603z"/>
	<path fill="#DA1C5C" d="M491.5,310.958c2.936,0,5.324-0.726,7.168-2.18c1.844-1.455,2.764-3.507,2.764-6.158
		c0-1.11-0.164-2.158-0.506-3.144c-0.338-0.98-0.979-1.944-1.92-2.886c-0.939-0.94-2.295-1.88-4.064-2.821
		c-1.768-0.94-4.047-1.968-6.83-3.079c-3.463-1.54-6.545-3.123-9.256-4.746c-2.707-1.624-4.986-3.464-6.826-5.519
		c-1.846-2.052-3.26-4.443-4.234-7.184c-0.98-2.735-1.467-5.984-1.467-9.748c0-3.763,0.578-7.226,1.744-10.392
		c1.17-3.164,2.861-5.879,5.082-8.146c2.217-2.265,4.875-4.019,7.961-5.261c3.084-1.238,6.545-1.86,10.385-1.86
		c4.293,0,8.596,0.792,12.926,2.375c4.326,1.583,8.184,4.296,11.572,8.145l-8.693,13.599c-2.637-2.223-5.289-4.043-7.957-5.454
		c-2.676-1.409-5.553-2.116-8.637-2.116c-2.635,0-4.725,0.707-6.266,2.116c-1.545,1.411-2.314,3.231-2.314,5.454
		c0,1.198,0.203,2.292,0.619,3.271c0.414,0.985,1.166,1.969,2.26,2.95c1.088,0.983,2.574,2.011,4.457,3.079
		c1.883,1.071,4.328,2.246,7.342,3.528c3.309,1.456,6.223,3.015,8.744,4.682c2.521,1.668,4.648,3.552,6.383,5.645
		c1.729,2.098,3.045,4.45,3.947,7.059c0.906,2.609,1.357,5.622,1.357,9.043c0,4.103-0.662,7.804-1.975,11.095
		c-1.32,3.296-3.127,6.051-5.424,8.274c-2.295,2.226-5.02,3.938-8.186,5.133c-3.154,1.198-6.545,1.795-10.156,1.795
		c-5.045,0-9.992-1.002-14.846-3.014c-4.855-2.01-9.428-5.28-13.719-9.815l9.256-13.468c2.637,2.649,5.498,4.938,8.584,6.862
		C483.857,309.995,487.435,310.958,491.5,310.958z"/>
	<path fill="#FFFFFF" d="M536.425,327.122v-71.841H516.9V237.71h55.764v17.571h-20.092v71.841H536.425z"/>
	<path fill="#FFFFFF" d="M615.673,237.325h16.369v89.797h-16.369v-19.243h-25.852v19.243h-16.369v-89.797h16.369v53.495h25.852
		V237.325z"/>
	<path fill="#FFFFFF" d="M651.123,319.682l-2.711,7.698h-15.578l27.879-89.544h15.582l27.885,89.544H687.13l-2.027-7.698H651.123z
		 M655.974,303.39h24.385l-12.191-40.024L655.974,303.39z"/>
	<path fill="#FFFFFF" d="M709.037,327.122v-71.841h-19.533V237.71h55.768v17.571h-20.092v71.841H709.037z"/>
	<path fill="#FFFFFF" d="M77.311,423.951H26.737v-89.669h49.896v17.061h-33.75v29.121h34.429v16.806h-34.43v9.879h34.429V423.951z"
		/>
	<path fill="#FFFFFF" d="M150.123,334.282v19.112v70.813h-14.788L97.518,367.25v56.958H80.47v-70.813v-19.112h15.58l22.353,32.969
		l14.899,22.321v-30.789v-5.389v-19.112H150.123z"/>
	<path fill="#FFFFFF" d="M211.196,365.968c0,3.509-0.376,6.888-1.12,10.134c-0.75,3.254-1.777,6.224-3.087,8.918
		c-1.309,2.694-2.88,5.088-4.71,7.184c-1.829,2.099-3.828,3.701-5.998,4.81l16.946,27.197H194.26l-14.401-23.221h-10.207v23.221
		h-16.368v-89.927h29.857c4.508,0,8.34,0.729,11.489,2.18c3.157,1.455,5.936,3.551,8.341,6.285c0.976,1.199,1.971,2.65,2.983,4.361
		c1.014,1.714,1.899,3.572,2.65,5.58c0.751,2.014,1.37,4.152,1.858,6.416C210.951,361.373,211.196,363.66,211.196,365.968z
		 M194.825,366.866c0-4.702-1.247-8.468-3.74-11.289c-2.495-2.824-5.784-4.234-9.866-4.234h-11.566v33.355H181.9
		c2.041,0,3.855-0.532,5.441-1.603c1.588-1.072,2.949-2.457,4.083-4.17c1.135-1.713,1.983-3.615,2.553-5.711
		C194.544,371.124,194.825,369.006,194.825,366.866z"/>
	<path fill="#FFFFFF" d="M215.146,334.154h16.144v89.926h-16.144V334.154z"/>
	<path fill="#FFFFFF" d="M272.494,424.209c-5.418,0-10.538-1.176-15.354-3.529c-4.816-2.35-9.015-5.559-12.589-9.616
		c-3.572-4.065-6.396-8.833-8.466-14.306c-2.071-5.473-3.103-11.29-3.103-17.447c0-6.242,1.031-12.102,3.103-17.574
		c2.07-5.473,4.894-10.262,8.466-14.369c3.574-4.104,7.772-7.33,12.589-9.682c4.815-2.354,9.936-3.53,15.354-3.53
		c4.815,0,9.405,0.94,13.772,2.821c4.364,1.883,8.467,4.576,12.307,8.082l-11.631,15.524c-2.107-1.97-4.345-3.356-6.715-4.173
		c-2.373-0.811-4.949-1.219-7.733-1.219c-2.862,0-5.568,0.644-8.127,1.926c-2.562,1.281-4.801,3.015-6.717,5.193
		c-1.922,2.183-3.446,4.727-4.573,7.633c-1.129,2.91-1.693,6.029-1.693,9.365c0,3.25,0.564,6.33,1.693,9.237
		c1.127,2.908,2.651,5.453,4.573,7.635c1.916,2.18,4.155,3.913,6.717,5.192c2.559,1.284,5.265,1.925,8.127,1.925
		c5.566,0,10.387-1.795,14.448-5.386l11.631,15.393c-3.464,3.508-7.473,6.2-12.025,8.081
		C281.993,423.269,277.31,424.209,272.494,424.209z"/>
	<path fill="#FFFFFF" d="M342.822,334.282h16.371v89.798h-16.371v-19.244h-25.852v19.244h-16.37v-89.798h16.37v53.495h25.852
		V334.282z"/>
	<path fill="#FFFFFF" d="M430.539,424.08v-71.838h-19.529v-17.575h55.77v17.575h-20.096v71.838H430.539L430.539,424.08z"/>
	<path fill="#FFFFFF" d="M509.785,334.282h16.369v89.798h-16.369v-19.244h-25.854v19.244h-16.367v-89.798h16.367v53.495h25.854
		V334.282L509.785,334.282z"/>
	<path fill="#FFFFFF" d="M580.001,423.951h-50.576v-89.669h49.9v17.061H545.57v29.121h34.432v16.806H545.57v9.879h34.432V423.951z"
		/>
	<path fill="#FFFFFF" d="M43.105,504.106h31.836v17.062H26.737v-90.057h16.369L43.105,504.106L43.105,504.106z"/>
	<path fill="#FFFFFF" d="M74.374,431.111h16.145v89.924H74.374V431.111z"/>
	<path fill="#FFFFFF" d="M142.22,430.858h16.936L132.85,520.91h-15.015L91.42,430.858h17.609l16.258,61.57L142.22,430.858z"/>
	<path fill="#FFFFFF" d="M210.403,520.91h-50.574v-89.67h49.897v17.062h-33.752v29.123h34.429v16.804h-34.429v9.879h34.429V520.91z"
		/>
	<path fill="#FFFFFF" d="M240.431,504.879c2.937,0,5.325-0.729,7.169-2.186c1.846-1.452,2.769-3.504,2.769-6.154
		c0-1.109-0.171-2.16-0.51-3.145c-0.34-0.982-0.979-1.944-1.92-2.891c-0.941-0.936-2.296-1.877-4.064-2.816
		c-1.768-0.94-4.046-1.968-6.829-3.079c-3.463-1.542-6.548-3.119-9.254-4.746c-2.711-1.627-4.991-3.469-6.833-5.52
		c-1.846-2.052-3.256-4.444-4.233-7.184c-0.978-2.735-1.468-5.984-1.468-9.75c0-3.767,0.582-7.228,1.751-10.388
		c1.164-3.166,2.857-5.881,5.079-8.147c2.218-2.268,4.872-4.021,7.96-5.261c3.085-1.241,6.546-1.858,10.384-1.858
		c4.291,0,8.598,0.79,12.927,2.37c4.328,1.589,8.185,4.295,11.572,8.15l-8.694,13.597c-2.634-2.229-5.287-4.041-7.959-5.453
		c-2.669-1.414-5.549-2.118-8.636-2.118c-2.634,0-4.722,0.704-6.263,2.118c-1.546,1.412-2.315,3.225-2.315,5.453
		c0,1.198,0.208,2.289,0.621,3.27c0.412,0.987,1.167,1.972,2.258,2.953c1.091,0.983,2.575,2.006,4.46,3.079
		c1.879,1.07,4.326,2.246,7.337,3.522c3.311,1.456,6.226,3.019,8.748,4.686c2.52,1.67,4.646,3.548,6.38,5.646
		c1.73,2.096,3.045,4.444,3.95,7.053c0.902,2.61,1.354,5.626,1.354,9.044c0,4.106-0.659,7.808-1.976,11.097
		c-1.316,3.295-3.123,6.053-5.418,8.273c-2.298,2.227-5.024,3.937-8.185,5.131c-3.158,1.202-6.547,1.799-10.161,1.799
		c-5.04,0-9.988-1.008-14.845-3.016c-4.854-2.009-9.426-5.28-13.718-9.815l9.259-13.469c2.633,2.654,5.493,4.938,8.58,6.867
		C232.792,503.916,236.367,504.879,240.431,504.879z"/>
	<path fill="#FFFFFF" d="M357.158,431.24c5.493,0,10.647,1.176,15.467,3.528c4.816,2.354,9.013,5.563,12.587,9.62
		c3.574,4.066,6.396,8.833,8.465,14.307c2.068,5.472,3.105,11.333,3.105,17.572c0,6.244-1.037,12.105-3.105,17.573
		c-2.068,5.477-4.891,10.247-8.465,14.306c-3.574,4.063-7.771,7.271-12.587,9.62c-4.818,2.354-9.974,3.53-15.467,3.53
		c-5.494,0-10.649-1.178-15.465-3.53c-4.818-2.349-9.014-5.558-12.588-9.62c-3.574-4.059-6.396-8.829-8.468-14.306
		c-2.069-5.468-3.103-11.329-3.103-17.573c0-6.239,1.032-12.102,3.103-17.572c2.071-5.474,4.894-10.239,8.468-14.307
		c3.574-4.059,7.77-7.266,12.588-9.62C346.509,432.416,351.664,431.24,357.158,431.24z M357.158,503.337
		c3.233,0,6.324-0.725,9.257-2.179c2.935-1.454,5.495-3.422,7.678-5.902c2.184-2.481,3.913-5.343,5.191-8.598
		c1.28-3.244,1.92-6.714,1.92-10.391c0-3.848-0.64-7.48-1.92-10.902c-1.278-3.42-3.009-6.396-5.191-8.916
		c-2.183-2.521-4.743-4.514-7.678-5.965c-2.933-1.456-6.022-2.184-9.257-2.184c-3.386,0-6.545,0.728-9.48,2.184
		c-2.935,1.451-5.459,3.442-7.563,5.965c-2.108,2.521-3.767,5.496-4.968,8.916c-1.205,3.422-1.807,7.056-1.807,10.902
		c0,3.677,0.602,7.146,1.807,10.391c1.201,3.255,2.858,6.115,4.968,8.598c2.104,2.48,4.63,4.448,7.563,5.902
		C350.613,502.612,353.772,503.337,357.158,503.337z"/>
	<path fill="#FFFFFF" d="M398.589,431.111h51.25v17.062h-34.883v28.734h30.82v17.065h-30.82v27.193h-16.367V431.111z"/>
	<path fill="#FFFFFF" d="M65.007,528.199c5.492,0,10.648,1.177,15.465,3.528c4.817,2.354,9.012,5.56,12.588,9.62
		c3.573,4.063,6.395,8.833,8.465,14.303c2.07,5.476,3.104,11.337,3.104,17.582c0,6.239-1.033,12.098-3.104,17.572
		c-2.071,5.472-4.893,10.239-8.465,14.301c-3.576,4.063-7.771,7.271-12.588,9.62c-4.817,2.354-9.973,3.525-15.465,3.525
		c-5.493,0-10.65-1.171-15.468-3.525c-4.815-2.349-9.012-5.558-12.586-9.62c-3.577-4.062-6.396-8.829-8.467-14.301
		c-2.071-5.476-3.104-11.333-3.104-17.572c0-6.245,1.033-12.106,3.104-17.582c2.071-5.47,4.89-10.238,8.467-14.303
		c3.574-4.062,7.771-7.267,12.586-9.62C54.356,529.376,59.514,528.199,65.007,528.199z M65.007,600.293
		c3.234,0,6.321-0.723,9.257-2.179c2.935-1.454,5.491-3.422,7.676-5.899c2.182-2.481,3.911-5.348,5.193-8.595
		c1.279-3.25,1.918-6.712,1.918-10.388c0-3.854-0.64-7.489-1.918-10.908c-1.282-3.423-3.011-6.392-5.193-8.916
		c-2.185-2.521-4.741-4.514-7.676-5.965c-2.936-1.452-6.022-2.183-9.257-2.183c-3.389,0-6.549,0.729-9.484,2.183
		c-2.935,1.451-5.456,3.442-7.564,5.965c-2.106,2.524-3.763,5.493-4.965,8.916c-1.205,3.419-1.806,7.056-1.806,10.908
		c0,3.676,0.601,7.138,1.806,10.388c1.202,3.247,2.859,6.112,4.965,8.595c2.108,2.479,4.63,4.445,7.564,5.899
		C58.458,599.57,61.618,600.293,65.007,600.293z"/>
	<path fill="#FFFFFF" d="M123.709,617.999v-71.837h-19.53v-17.58h55.769v17.58h-20.095v71.837H123.709z"/>
	<path fill="#FFFFFF" d="M202.955,528.199h16.372v89.8h-16.372v-19.243h-25.85v19.243h-16.37v-89.8h16.37v53.498h25.85V528.199z"/>
	<path fill="#FFFFFF" d="M273.174,617.874h-50.575v-89.675h49.896v17.062H238.74v29.122h34.434v16.805H238.74v9.878h34.434V617.874z
		"/>
	<path fill="#FFFFFF" d="M334.244,559.889c0,3.505-0.371,6.886-1.121,10.128c-0.749,3.255-1.776,6.228-3.087,8.92
		c-1.31,2.695-2.877,5.089-4.707,7.185c-1.832,2.096-3.832,3.702-5.999,4.811l16.947,27.196h-18.966l-14.402-23.22h-10.206v23.22
		h-16.371V528.2h29.858c4.504,0,8.338,0.729,11.491,2.183c3.152,1.454,5.934,3.551,8.336,6.286c0.979,1.201,1.972,2.649,2.984,4.362
		c1.015,1.71,1.9,3.569,2.65,5.58c0.752,2.009,1.372,4.146,1.859,6.412C334,555.293,334.244,557.578,334.244,559.889z
		 M317.874,560.782c0-4.699-1.248-8.465-3.741-11.286c-2.493-2.825-5.783-4.234-9.866-4.234h-11.563v33.356h12.243
		c2.044,0,3.856-0.537,5.443-1.606c1.589-1.065,2.946-2.457,4.082-4.17c1.136-1.71,1.983-3.607,2.554-5.704
		C317.59,565.042,317.874,562.925,317.874,560.782z"/>
	<path fill="#FFFFFF" d="M361.451,601.838c2.935,0,5.325-0.729,7.169-2.185c1.841-1.456,2.766-3.505,2.766-6.155
		c0-1.112-0.169-2.163-0.508-3.145c-0.337-0.982-0.979-1.94-1.919-2.886c-0.941-0.944-2.299-1.881-4.064-2.825
		c-1.771-0.939-4.046-1.967-6.832-3.078c-3.462-1.537-6.547-3.119-9.256-4.746c-2.709-1.623-4.985-3.462-6.828-5.52
		c-1.846-2.049-3.256-4.444-4.235-7.181c-0.979-2.732-1.465-5.982-1.465-9.748c0-3.764,0.582-7.229,1.748-10.394
		c1.167-3.161,2.859-5.88,5.082-8.147c2.218-2.264,4.872-4.019,7.956-5.256c3.086-1.237,6.55-1.859,10.388-1.859
		c4.292,0,8.598,0.79,12.926,2.374c4.326,1.58,8.184,4.295,11.573,8.145l-8.694,13.597c-2.634-2.222-5.288-4.037-7.961-5.45
		c-2.67-1.409-5.551-2.117-8.634-2.117c-2.637,0-4.723,0.708-6.267,2.117c-1.543,1.413-2.313,3.229-2.313,5.45
		c0,1.198,0.204,2.292,0.621,3.276c0.412,0.979,1.165,1.963,2.257,2.945c1.09,0.983,2.576,2.015,4.457,3.079
		c1.884,1.07,4.327,2.246,7.339,3.53c3.312,1.454,6.229,3.014,8.75,4.678c2.521,1.67,4.646,3.551,6.377,5.646
		c1.73,2.096,3.047,4.444,3.951,7.056c0.904,2.61,1.355,5.626,1.355,9.045c0,4.105-0.658,7.803-1.977,11.093
		c-1.318,3.297-3.125,6.056-5.419,8.279c-2.296,2.224-5.021,3.934-8.186,5.129c-3.16,1.198-6.545,1.795-10.158,1.795
		c-5.045,0-9.99-1.002-14.846-3.016c-4.854-2.006-9.428-5.277-13.718-9.81l9.258-13.472c2.635,2.649,5.494,4.938,8.581,6.863
		C353.813,600.872,357.386,601.838,361.451,601.838z"/>
	<path fill="#FFFFFF" d="M391.539,592.568h23.979v25.559h-23.979V592.568z"/>
</g>
</svg>
