<?xml version="1.0" encoding="utf-8"?>
<!-- Generator: Adobe Illustrator 16.0.0, SVG Export Plug-In . SVG Version: 6.00 Build 0)  -->
<!DOCTYPE svg PUBLIC "-//W3C//DTD SVG 1.1 Tiny//EN" "http://www.w3.org/Graphics/SVG/1.1/DTD/svg11-tiny.dtd">
<svg version="1.1" baseProfile="tiny" id="Layer_1" xmlns="http://www.w3.org/2000/svg" xmlns:xlink="http://www.w3.org/1999/xlink"
	 x="0px" y="0px" width="300px" height="300px" viewBox="0 0 300 300" xml:space="preserve">
<g>
	<path d="M85.689,53.298c0,15.203-10.929,26.382-29.621,26.382c-17.58,0-29.364-11.179-29.364-26.382
		c0-15.565,11.724-26.594,29.674-26.594C74.332,26.704,85.329,37.733,85.689,53.298z M32.498,273.296V103.234h47.028v170.062H32.498
		z"/>
	<path d="M114.799,103.234h41.956l3.471,18.417c6.938-11.091,25.969-24.37,54.411-24.37c34.678,0,58.659,20.209,58.659,70.07
		v105.944h-46.847v-98.424c0-21.82-13.505-36.703-32.579-36.703c-14.569,0-26.537,10.039-30.354,19.74
		c-1.392,3.451-1.743,8.309-1.743,13.152v102.234h-46.975V103.234z"/>
</g>
</svg>
