<?xml version="1.0" encoding="utf-8"?>
<!-- Generator: Adobe Illustrator 16.0.0, SVG Export Plug-In . SVG Version: 6.00 Build 0)  -->
<!DOCTYPE svg PUBLIC "-//W3C//DTD SVG 1.1 Tiny//EN" "http://www.w3.org/Graphics/SVG/1.1/DTD/svg11-tiny.dtd">
<svg version="1.1" baseProfile="tiny" id="Layer_1" xmlns="http://www.w3.org/2000/svg" xmlns:xlink="http://www.w3.org/1999/xlink"
	 x="0px" y="0px" width="300px" height="300px" viewBox="0 0 300 300" xml:space="preserve">
<g>
	<path fill-rule="evenodd" d="M245.674,21.25H54.345c-18.194,0-33.086,14.853-33.086,33.008v191.504
		c0,18.148,14.892,32.988,33.086,32.988h191.329c18.194,0,33.067-14.84,33.067-32.988V54.257
		C278.741,36.102,263.868,21.25,245.674,21.25z M205.218,61.667c0-5.37,4.389-9.764,9.771-9.764h23.361
		c5.376,0,9.777,4.395,9.777,9.764v23.335c0,5.369-4.401,9.757-9.777,9.757h-23.361c-5.382,0-9.771-4.388-9.771-9.757V61.667z
		 M150.912,95.5c30.463,0,55.158,24.676,55.158,55.113s-24.695,55.119-55.158,55.119c-30.47,0-55.169-24.682-55.169-55.119
		S120.442,95.5,150.912,95.5z M254.405,243.965c0,5.623-4.598,10.201-10.235,10.201H56.117c-5.631,0-10.231-4.578-10.231-10.201
		V131.508h26.529c-1.39,5.899-2.204,12.014-2.204,18.338c0,44.08,35.768,79.808,79.888,79.808c44.118,0,79.886-35.729,79.886-79.808
		c0-6.331-0.896-12.433-2.295-18.338h26.716V243.965z"/>
</g>
</svg>
