<?xml version="1.0" encoding="utf-8"?>
<!-- Generator: Adobe Illustrator 16.0.0, SVG Export Plug-In . SVG Version: 6.00 Build 0)  -->
<!DOCTYPE svg PUBLIC "-//W3C//DTD SVG 1.1 Tiny//EN" "http://www.w3.org/Graphics/SVG/1.1/DTD/svg11-tiny.dtd">
<svg version="1.1" baseProfile="tiny" id="Layer_1" xmlns="http://www.w3.org/2000/svg" xmlns:xlink="http://www.w3.org/1999/xlink"
	 x="0px" y="0px" width="300px" height="300px" viewBox="0 0 300 300" xml:space="preserve">
<path d="M265.043,149.768c0-63.891-50.096-114.898-114.193-114.898c-4.503,0-10.615,0.019-16.824,0.032
	c-11.403-7.656-25.146-12.133-39.934-12.133c-39.488,0-71.495,31.877-71.495,71.21c0,14.775,4.522,28.498,12.256,39.875
	c-0.033,5.886-0.065,12.347-0.065,16.707c0,63.897,51.111,114.343,115.208,114.343c4.716,0,10.472,0,15.72,0
	c11.453,7.772,25.287,12.327,40.191,12.327c39.488,0,71.494-31.884,71.494-71.21c0-14.841-4.566-28.608-12.359-40.019
	C265.043,160.356,265.043,154.646,265.043,149.768z M208.582,204.896c-10.621,14.964-31.404,23.646-58.592,23.646
	c-36.755,0-51.938-14.316-59.394-25.016c-4.826-6.926-7.275-13.8-7.275-20.429c0-8.38,7.107-15.066,16.598-15.066
	c8.005,0,13.128,4.864,16.675,13.153c9.31,21.224,23.491,22.839,33.402,22.839c9.394,0,15.648-1.428,22.316-5.976
	c5.652-3.851,8.141-9.484,8.141-15.138c0-4.465-1.436-7.966-4.387-10.719c-6.158-5.73-15.189-8.089-32.976-11.791
	c-11.791-2.513-21.812-5.498-29.777-8.87c-16.223-6.868-26.877-18.749-26.877-36.878c0-8.541,2.597-16.242,7.721-22.877
	c10.279-13.341,30.068-20.468,55.395-20.468c20.357,0,35.263,4.994,45.283,12.786c9.988,7.766,14.602,16.772,14.602,25.255
	c0,4.038-1.57,7.714-4.658,10.912c-6.648,6.874-17.328,5.459-21.455,1.815c-2.133-1.874-4.336-4.788-6.785-8.98
	c-5.781-10.938-11.332-17.586-28.814-17.586c-16.856,0-27.083,8.341-27.083,16.346c0,10.938,18.039,15.189,18.181,15.229
	c0.11,0.032,30.346,7.035,40.844,10.375c15.041,4.788,26.051,11.333,32.252,22.296c3.063,5.427,4.619,12.127,4.619,19.912
	C216.535,188.978,213.861,197.467,208.582,204.896z"/>
</svg>
