<?xml version="1.0" encoding="utf-8"?>
<!-- Generator: Adobe Illustrator 16.0.0, SVG Export Plug-In . SVG Version: 6.00 Build 0)  -->
<!DOCTYPE svg PUBLIC "-//W3C//DTD SVG 1.1 Tiny//EN" "http://www.w3.org/Graphics/SVG/1.1/DTD/svg11-tiny.dtd">
<svg version="1.1" baseProfile="tiny" id="Layer_1" xmlns="http://www.w3.org/2000/svg" xmlns:xlink="http://www.w3.org/1999/xlink"
	 x="0px" y="0px" width="465px" height="132.389px" viewBox="-0.25 0 465 132.389" xml:space="preserve">
<g>
	<path fill="#FFFFFF" d="M17.986,73.398h-7.034v-6.075h7.141V52.508h7.142v14.815h13.428v6.075H25.234v27.283
		c0,12.576,7.993,14.175,12.043,14.175c1.492,0,2.451-0.212,2.451-0.212v6.501c0,0-1.279,0.212-3.091,0.212
		c-6.182,0-18.651-2.022-18.651-19.93V73.398z"/>
	<path fill="#FFFFFF" d="M35.999,54.64c0-1.493-0.852-2.345-2.344-2.345h-4.477v-6.289h7.567c4.583,0,6.502,1.918,6.502,6.289
		v22.701c0,2.451-0.214,4.37-0.214,4.37h0.214c2.024-5.116,9.166-13.323,21.208-13.323c13.323,0,18.012,7.567,18.012,20.783V112.3
		c0,1.599,0.853,2.345,2.345,2.345h4.476v6.289h-7.567c-4.583,0-6.502-1.92-6.502-6.501V88.746c0-8.42-1.279-15.882-11.724-15.882
		c-9.059,0-16.946,6.289-19.397,15.242c-0.64,2.132-0.852,4.583-0.852,7.141v25.687h-7.248V54.64z"/>
	<path fill="#FFFFFF" d="M106.236,66.044c14.815,0,22.488,11.404,22.488,24.728c0,1.277-0.212,3.624-0.212,3.624h-41.14
		c0.212,13.535,9.699,21.314,20.783,21.314c9.805,0,16.093-6.608,16.093-6.608l3.518,5.436c0,0-7.781,7.675-19.931,7.675
		c-15.88,0-28.031-11.511-28.031-28.031C79.804,76.594,91.848,66.044,106.236,66.044z M121.264,88.638
		c-0.426-11.085-7.247-16.52-15.134-16.52c-8.847,0-16.626,5.755-18.438,16.52H121.264z"/>
	<path fill="#FFFFFF" d="M136.932,50.854h-11.187V33.736h11.695v-23.56h21.017v23.56h19.662v17.118h-19.662V85.77
		c0,14.237,11.187,16.271,17.119,16.271c2.373,0,3.898-0.339,3.898-0.339v18.813c0,0-2.712,0.509-6.611,0.509
		c-12.034,0-35.933-3.561-35.933-32.543V50.854z"/>
	<path fill="#FFFFFF" d="M207.781,31.702c24.747,0,38.305,18.136,38.305,41.017c0,2.544-0.508,7.967-0.508,7.967h-59.662
		c1.695,15.255,12.881,23.221,25.933,23.221c13.898,0,24.236-9.661,24.236-9.661l8.984,14.915c0,0-13.223,13.052-34.747,13.052
		c-28.645,0-46.441-20.679-46.441-45.255C163.883,50.346,181.849,31.702,207.781,31.702z M224.052,65.77
		c-0.339-10.339-7.457-17.457-16.271-17.457c-11.017,0-18.813,6.609-21.185,17.457H224.052z"/>
	<path fill="#FFFFFF" d="M284.393,65.939h2.713v-0.677c0-12.373-4.916-16.949-15.934-16.949c-3.898,0-11.525,1.017-11.525,5.763
		v4.576h-20v-9.153c0-16.102,22.713-17.797,31.695-17.797c28.814,0,37.289,15.085,37.289,34.407v32.203
		c0,2.374,1.355,3.729,3.729,3.729h6.779v18.136h-19.322c-7.967,0-11.018-4.406-11.018-9.491c0-2.204,0.17-3.729,0.17-3.729h-0.338
		c0,0-6.611,15.255-26.104,15.255c-15.424,0-29.49-9.662-29.49-26.949C233.037,68.142,270.326,65.939,284.393,65.939z
		 M267.783,105.432c11.525,0,19.66-12.205,19.66-22.713v-2.034h-3.729c-11.188,0-28.984,1.525-28.984,13.56
		C254.73,100.008,258.969,105.432,267.783,105.432z"/>
	<path fill="#FFFFFF" d="M311.006,55.769c0-2.542-1.357-3.729-3.73-3.729h-6.779V33.736h19.832c7.627,0,11.355,3.559,11.355,9.661
		v2.543c0,1.863-0.17,3.729-0.17,3.729h0.34c4.066-8.476,14.406-17.967,27.965-17.967c13.053,0,21.527,6.102,25.254,17.797h0.34
		c4.576-9.321,15.764-17.797,29.492-17.797c17.967,0,28.305,10.169,28.305,32.882v33.729c0,2.374,1.357,3.729,3.73,3.729h6.609
		v18.136h-20.34c-8.135,0-11.523-3.39-11.523-11.524V68.652c0-9.831-1.865-17.289-11.865-17.289c-10.68,0-18.305,8.982-20.68,19.831
		c-1.016,3.391-1.355,6.949-1.355,11.017v37.967H366.26V68.652c0-9.322-1.355-17.289-11.695-17.289
		c-10.848,0-18.135,8.982-20.848,20c-0.848,3.391-1.355,6.949-1.355,10.848v37.967h-21.355V55.769z"/>
</g>
</svg>
