<?xml version="1.0" encoding="utf-8"?>
<!-- Generator: Adobe Illustrator 16.0.0, SVG Export Plug-In . SVG Version: 6.00 Build 0)  -->
<!DOCTYPE svg PUBLIC "-//W3C//DTD SVG 1.1//EN" "http://www.w3.org/Graphics/SVG/1.1/DTD/svg11.dtd">
<svg version="1.1" id="Layer_1" xmlns="http://www.w3.org/2000/svg" xmlns:xlink="http://www.w3.org/1999/xlink" x="0px" y="0px"
	 width="300px" height="300px" viewBox="0 0 300 300" enable-background="new 0 0 300 300" xml:space="preserve">
<path d="M288.162,64.289c-10.176,4.513-21.092,7.563-32.566,8.932c11.711-7.018,20.693-18.126,24.926-31.363
	c-10.947,6.496-23.09,11.213-36,13.757c-10.344-11.022-25.076-17.898-41.377-17.898c-31.314,0-56.69,25.383-56.69,56.691
	c0,4.441,0.507,8.768,1.468,12.917c-47.104-2.37-88.887-24.94-116.843-59.234c-4.886,8.376-7.687,18.104-7.687,28.502
	c0,19.665,10.002,37.013,25.221,47.19c-9.3-0.297-18.041-2.848-25.68-7.096c0,0.233,0,0.478,0,0.713
	c0,27.468,19.539,50.377,45.472,55.604c-4.752,1.301-9.759,1.979-14.931,1.979c-3.651,0-7.211-0.35-10.668-1.01
	c7.211,22.523,28.147,38.906,52.954,39.35c-19.395,15.209-43.842,24.283-70.4,24.283c-4.576,0-9.091-0.289-13.523-0.793
	c25.087,16.096,54.892,25.471,86.905,25.471c104.271,0,161.291-86.381,161.291-161.299c0-2.463-0.045-4.909-0.162-7.344
	C270.941,85.648,280.563,75.667,288.162,64.289z"/>
</svg>
