<?xml version="1.0" encoding="utf-8"?>
<!-- Generator: Adobe Illustrator 16.0.0, SVG Export Plug-In . SVG Version: 6.00 Build 0)  -->
<!DOCTYPE svg PUBLIC "-//W3C//DTD SVG 1.1//EN" "http://www.w3.org/Graphics/SVG/1.1/DTD/svg11.dtd">
<svg version="1.1" id="Layer_1" xmlns="http://www.w3.org/2000/svg" xmlns:xlink="http://www.w3.org/1999/xlink" x="0px" y="0px"
	 width="100px" height="100px" viewBox="0 0 100 100" enable-background="new 0 0 100 100" xml:space="preserve">
<g>
	<path fill="#FFFFFF" d="M50.002,17.608c14.484,0,29.9,4.828,29.9,13.704c0,2.414-1.09,4.438-3.035,6.229H23.218
		c-1.869-1.791-3.115-3.815-3.115-6.229C20.103,22.436,35.52,17.608,50.002,17.608 M50.867,30.424c0.561,0,1.045-0.166,1.395-0.514
		c1.09-1.09,0.391-3.504-1.559-5.451c-1.324-1.325-2.866-2.037-4.06-2.037c-0.56,0-1.042,0.156-1.391,0.479
		c-1.09,1.09-0.389,3.504,1.558,5.451C48.135,29.677,49.674,30.424,50.867,30.424 M61.549,32.789c1.199,0,2.764-0.733,4.105-2.021
		c1.945-1.946,2.646-4.36,1.557-5.451c-0.348-0.349-0.832-0.514-1.393-0.514c-1.193,0-2.734,0.748-4.059,2.072
		c-1.945,1.947-2.646,4.36-1.557,5.451C60.543,32.639,61.01,32.789,61.549,32.789 M31.493,32.789c1.199,0,2.763-0.733,4.104-2.021
		c1.869-1.946,2.57-4.36,1.558-5.451c-0.349-0.349-0.841-0.514-1.41-0.514c-1.21,0-2.77,0.748-4.041,2.072
		c-1.947,1.947-2.647,4.36-1.558,5.451C30.486,32.639,30.953,32.789,31.493,32.789 M74.92,42.525c4.127,0,7.475,3.348,7.475,7.475
		c0,4.126-3.348,7.474-7.475,7.474H25.086c-4.127,0-7.475-3.348-7.475-7.474c0-4.127,3.348-7.475,7.475-7.475H74.92 M83.744,61.473
		c0.912,0,1.811,0.309,2.545,0.986c1.479,1.4,1.557,3.736,0.154,5.217c-2.646,2.725-4.75,4.672-7.941,5.84
		c0,0.156,0.078,0.313,0.078,0.467c0,5.996-8.254,8.41-28.578,8.41c-20.322,0-28.732-2.414-28.732-8.41c0-0.078,0-0.154,0.078-0.232
		c-3.27-1.168-4.983-3.115-7.786-6.074c-1.402-1.479-1.324-3.814,0.156-5.217c0.734-0.678,1.631-0.986,2.515-0.986
		c0.335,0,0.668,0.045,0.989,0.131c0.701,0.154,1.324,0.467,1.791,0.936c3.051,3.188,5.746,4.76,9.012,4.76
		c2.235,0,4.738-0.736,7.807-2.191c3.979-1.875,8.03-2.885,12.153-2.885c0.154,0,0.307,0.002,0.461,0.004
		c4.127,0,8.409,0.936,12.926,2.803c3.602,1.498,6.682,2.254,9.414,2.254c3.947,0,7.172-1.57,10.207-4.744
		c0.467-0.469,1.09-0.779,1.713-0.936C83.049,61.516,83.398,61.473,83.744,61.473 M50.002,11.378
		c-17.401,0-36.13,6.238-36.13,19.934c0,2.839,0.89,5.517,2.651,7.994C13.39,41.82,11.381,45.68,11.381,50
		c0,2.105,0.478,4.101,1.33,5.886c-1.179,0.447-2.271,1.119-3.219,1.994l-0.029,0.025l-0.029,0.027
		c-1.918,1.818-3.02,4.271-3.101,6.91c-0.083,2.658,0.879,5.186,2.707,7.115l0.444,0.471c1.98,2.096,3.771,3.99,6.21,5.49
		c1.841,5.158,7.156,7.498,10.578,8.496c5.163,1.504,12.704,2.205,23.73,2.205c11.017,0,18.537-0.701,23.666-2.209
		c3.453-1.016,8.852-3.422,10.584-8.768c2.57-1.539,4.58-3.488,6.66-5.631l0.027-0.027l0.025-0.027
		c3.758-3.969,3.582-10.26-0.395-14.025l-0.029-0.027l-0.029-0.025c-0.945-0.873-2.039-1.545-3.219-1.992
		c0.852-1.785,1.33-3.782,1.33-5.888c0-4.291-1.982-8.128-5.08-10.643c1.721-2.424,2.588-5.118,2.588-8.045
		C86.133,17.615,67.404,11.378,50.002,11.378L50.002,11.378z"/>
</g>
</svg>
