<?xml version="1.0" encoding="utf-8"?>
<!-- Generator: Adobe Illustrator 16.0.0, SVG Export Plug-In . SVG Version: 6.00 Build 0)  -->
<!DOCTYPE svg PUBLIC "-//W3C//DTD SVG 1.1//EN" "http://www.w3.org/Graphics/SVG/1.1/DTD/svg11.dtd">
<svg version="1.1" id="Layer_1" xmlns="http://www.w3.org/2000/svg" xmlns:xlink="http://www.w3.org/1999/xlink" x="0px" y="0px"
	 width="100px" height="100px" viewBox="0 0 100 100" enable-background="new 0 0 100 100" xml:space="preserve">
<g>
	<path fill="#FFFFFF" d="M24.103,88.074c-1.885-0.471-3.298-1.979-3.58-3.862l-3.769-26.663H9.311c-1.696,0-3.204-0.942-4.051-2.45
		c-0.753-1.507-0.66-3.297,0.377-4.615c15.357-22.142,40.701-39.666,41.832-40.419c1.507-1.036,3.581-1.036,5.088,0
		c0.565,0.377,7.16,4.994,15.546,12.154v-9.893c0-1.696,1.318-3.015,3.015-3.015h9.045c1.695,0,3.015,1.319,3.015,3.015v24.401
		c3.862,4.052,7.537,8.479,10.834,13.19c0.755,0.849,1.226,1.885,1.226,3.109c0,2.543-2.073,4.522-4.522,4.522H83.27l-3.862,26.663
		c-0.188,1.884-1.696,3.392-3.486,3.862c-8.573,1.696-17.241,2.639-25.91,2.639C41.344,90.713,32.582,89.771,24.103,88.074z
		 M62.448,63.767c0-0.848-0.282-1.602-0.848-2.261c-0.565-0.565-1.318-0.942-2.167-0.942H40.59c-0.849,0-1.602,0.377-2.167,0.942
		c-0.565,0.659-0.848,1.413-0.848,2.261l0.753,12.06c0.094,1.508,1.225,2.638,2.638,2.827c3.015,0.282,6.03,0.471,9.044,0.471
		c3.016,0,6.031-0.188,9.045-0.471c1.413-0.189,2.544-1.319,2.639-2.827L62.448,63.767z"/>
</g>
</svg>
