<?xml version="1.0" encoding="utf-8"?>
<!-- Generator: Adobe Illustrator 16.0.0, SVG Export Plug-In . SVG Version: 6.00 Build 0)  -->
<!DOCTYPE svg PUBLIC "-//W3C//DTD SVG 1.1//EN" "http://www.w3.org/Graphics/SVG/1.1/DTD/svg11.dtd">
<svg version="1.1" id="Layer_1" xmlns="http://www.w3.org/2000/svg" xmlns:xlink="http://www.w3.org/1999/xlink" x="0px" y="0px"
	 width="100px" height="100px" viewBox="0 0 100 100" enable-background="new 0 0 100 100" xml:space="preserve">
<g>
	<path fill="#04B3B2" d="M81.123,12.636c1.107,0,2.201,0.365,3.066,1.069c1.324,0.934,2.023,2.568,1.947,4.126
		c-0.078,1.168-1.17,28.888-7.865,60.19c-0.391,1.479-1.322,2.803-2.727,3.426c-0.699,0.39-1.479,0.545-2.18,0.545
		c-0.779,0-1.561-0.233-2.26-0.545l-16.273-8.254L47.59,84.716c-0.856,1.636-2.569,2.646-4.282,2.646
		c-0.468,0-0.857-0.076-1.324-0.153c-2.18-0.546-3.192-2.646-3.192-4.906V66.811l24.917-28.578L30.15,60.035L16.602,54.04
		c-1.479-0.778-2.491-2.259-2.725-3.895c-0.156-1.713,0.545-3.348,1.791-4.438c27.953-22.814,62.527-32.471,64.005-32.859
		C80.148,12.707,80.637,12.636,81.123,12.636 M81.123,6.405c-1.066,0-2.125,0.151-3.146,0.448
		C75.729,7.467,40.564,17.346,11.729,40.88l-0.083,0.067l-0.08,0.07c-2.771,2.424-4.226,6.047-3.893,9.693l0.015,0.158l0.021,0.157
		c0.52,3.636,2.758,6.822,5.989,8.522l0.188,0.101l0.195,0.086L27.63,65.73l3.085,1.365l1.849-1.201v0.912v15.494
		c0,5.448,3.104,9.746,7.909,10.949l0.247,0.063l0.251,0.041l0.159,0.026c0.528,0.091,1.252,0.212,2.181,0.212
		c3.951,0,7.71-2.236,9.66-5.728l4.115-6.55L68.291,87l0.141,0.07l0.146,0.063c1.613,0.718,3.229,1.083,4.791,1.083
		c1.742,0,3.451-0.412,4.959-1.197c2.926-1.393,5.094-4.082,5.971-7.42l0.037-0.14l0.028-0.142
		c5.79-27.068,7.505-51.479,7.972-60.719l0.021-0.373l0.002-0.034l0.004-0.061c0.182-3.679-1.5-7.26-4.404-9.399
		C86.025,7.233,83.607,6.405,81.123,6.405L81.123,6.405z"/>
</g>
</svg>
