<?xml version="1.0" encoding="utf-8"?>
<!-- Generator: Adobe Illustrator 16.0.0, SVG Export Plug-In . SVG Version: 6.00 Build 0)  -->
<!DOCTYPE svg PUBLIC "-//W3C//DTD SVG 1.1 Tiny//EN" "http://www.w3.org/Graphics/SVG/1.1/DTD/svg11-tiny.dtd">
<svg version="1.1" baseProfile="tiny" id="Layer_1" xmlns="http://www.w3.org/2000/svg" xmlns:xlink="http://www.w3.org/1999/xlink"
	 x="0px" y="0px" width="800px" height="340px" viewBox="0 0 800 340" xml:space="preserve">
<g id="Graffos_1_">
	<path id="G_1_" fill="#B7B7B7" d="M295.822,257.611c-9.108-39.215-27.807-13.133-27.807-13.133
		c-38.229,19.349-64.04,3.549-79.769-15.287c2.775-10.387,6.923-35.887,16.171-67.799c-15.533-7.803-15.646-22.876-13.493-32.037
		c3.132-13.325,10.342-26.291,34.12-29.892c5.864-25.116,13.91-41.647,10.307-48.984c-9.914-20.193-69.595-28.219-74.725-28.841
		C50.411,8.303-4.596,148.814,110.389,181.868c19.872,5.718,38.365-2.257,39.255-2.841c5.691-3.707-4.822,21.095-4.822,21.095
		l-32.269-7.972c-30.802-5.551-60.937,2.063-74.991,25.352c-12.862,21.325-11.559,37.521-4.13,57.502
		c8.224,22.122,29.354,38.051,54.35,40.395c0.4,0.054,0.787,0.064,1.189,0.113c30.664,3.826,55.983-16.275,55.983-16.275
		c7.481-5.014,13.796-11.353,19.232-18.367c-9.159-10.791-29.162-28.301-31.23-29.756c-0.146-0.108-0.24-0.176-0.24-0.176
		c-0.001,0.004-0.003,0.004-0.005,0.006c-1.11,1.548-2.818,2.885-2.818,2.885c-6.992,6.337-22.055,11.285-30.549,5.906
		c-10.965-11.696,1.961-22.444,1.961-22.444c18.467-12.962,65.594,39.851,65.665,39.94c12.495,13.041,48.327,47.924,80.395,55.379
		C286.979,341.828,304.934,296.824,295.822,257.611z M183.608,77.713l-15.492,53.162l-0.38,1.304l-0.97,0.952
		c-8.098,7.956-16.856,11.988-26.031,11.988c-15.043,0-28.131-11.655-32.092-22.926c-3.432-9.767-1.504-19.927-1.421-20.355
		l0.043-0.213l0.059-0.211c5.72-20.091,26.2-31.153,57.668-31.153c8.271,0,14.103,0.81,14.346,0.843l5.952,0.839L183.608,77.713z"/>
	<path id="raf_1_" fill="#B7B7B7" d="M576.428,8.708c-3.762,8.192-51.735,38.523-92.45,47.661
		c-24.912,5.594-43.492-2.806-50.23-10.185c4.722,2.862,7.892,4.127,13.637,5.624c21.847,4.96,34.648-1.113,35.045-1.263
		c-5.729-14.421-13.314-21.621-18.3-25.312c-0.092-0.077-0.172-0.193-0.266-0.257c-0.15-0.094-0.301-0.177-0.454-0.275
		c-2.407-1.701-3.972-2.375-3.972-2.375l0.005,0.02c-31.815-17.89-53.133-4.537-55.597-2.955
		c-46.652,29.981-25.401,86.811,16.561,90.826c0,0,16.438,51.483,23.853,90.49c-20.267,12.79-29.337-10.955-29.524-24.698
		c-0.213-15.774,6.954-38.036,8.211-41.795c-0.021-0.223-0.058-0.41-0.086-0.601c-0.147-0.918-0.372-1.584-0.715-1.888
		c-33.583-30.292-35.765-10.753-35.765-10.753l-0.462,3.416c-19.643-7.97-35.815-5.592-48.207,4.51
		c-7.052,5.75-14.075,13.582-17.389,24.342c-9.015,29.269-3.402,45.154-2.523,46.201c2.979,4.093-20.038,21.964-28.661,1.438
		c-7.356-17.52,6.174-46.47,23.619-44.722c2.726-11.373,12.208-27.245,21.089-32.576c-8.183-18.282-27.414-48.745-41.858-13.268
		c-18.68,45.905-62.176,18.022-62.176,18.022c24.837,10.286,22.784,1.391,22.784,1.391c-2.417-19.557-20.862-24.373-30.633-23.566
		c-2.702,0.221-5.287,0.986-7.683,2.226c-0.101,0.048-0.192,0.129-0.292,0.176c-8.91,4.764-15.312,15.504-16.664,24.823
		c-0.182,1.254-0.288,2.492-0.283,3.682c0.086,12.034,7.727,17.966,14.218,20.854c0.033,0.013,0.064,0.028,0.094,0.039
		c0.64,0.29,1.277,0.557,1.886,0.778c3.913,1.456,6.995,1.81,6.995,1.81s-2.093,5.476,8.447,18.329
		c0.618,0.76,1.259,1.528,1.965,2.325c12.781,14.532,18.583-4.409,18.583-4.409l2.734-21.476c8.67-2.342,14.467-4.393,18.173-5.954
		c-7.213,6.013-27.716,24.959-11.888,52.031c25.546,43.703,68.467,10.889,68.437,10.902c16.239,22.03,41.616,23.818,69.818,5.451
		c18.802-18.266,3.809,1.05-0.249,5.654c11.368,10.639,38.5,7.986,49.4-3.334c3.354,32.424-1.146,52.589-23.208,57.926
		c-10.938,2.656-1.624,14.563,10.288,13.439c42.181-3.953,66.911-30.906,55.696-107.932c-1.142-7.865,16.356,0.496,26.252-9.884
		c0.808-0.854-7.277-28.353-9.075-27.923c-2.735,0.646-15.186,3.005-17.396-0.956c-6.016-10.787-2.554-37.002-1.365-37.383
		c9.518-3.09,44.358,0.511,75.125-0.066c2.561-1.83,3.32-3.965,4.229-5.939c2.677-5.817,15.853-4.398,22.756,2.425
		c16-2.315,23.188-4.718,27.188-15.086C627.822,58.361,586.232-12.607,576.428,8.708z M385.954,176.753
		c-3.328,12.917-17.166,24.64-26.896,21.593c-6.028-1.894-16.308-13.793-9.713-33.127c8.475-24.8,28.603-16.888,28.603-16.888
		C384.745,152.399,388.996,164.959,385.954,176.753z"/>
	<path id="f_1_" fill="#B7B7B7" d="M594.195,117.717c-2.445-2.583-5.261-5.196-6.87-6.787c-6.903-6.826-15.106-10.089-17.78-4.274
		c-0.908,1.979-2.361,4.097-4.923,5.923c-4.874,3.482-13.832,5.895-31.168,4.189c-0.845-0.083-41.412-7.893-21.387,30.005
		c0,0,5.508,16.578,8.288,27.672c6.486,25.861,11.603,61.156-7.157,65.703c-6.085,1.47-0.898,6.862,5.73,7.478
		c12.079,1.112,21.292-1.017,28.049-12.791c2.997-5.229,6.345-19.228,6.902-29.456c0.478-8.673-0.422-16.163,0.192-16.145
		c3.833,0.121,10.649-2.297,14.893-5.444c0.136-4.656,0.666-9.64,1.773-15.065c0.33-1.628,0.751-3.151,1.154-4.694
		c-5.53,2.321-13.075,4.294-18.43,3.645c-0.173-0.02-1.004-11.713-2.172-19.722c-1.248-5.085,11.878-2.623,18.525-1.071l0,0
		c0.915,0.213,1.691,0.404,2.307,0.562c2.108,0.265,5.33,0.031,8.349-2.892c3.957-5.961,10.478-15.186,15.477-19.89l-0.016-0.007
		C595.935,124.657,596.673,120.286,594.195,117.717z"/>
	<path id="os_1_" fill="#B7B7B7" d="M744.818,146.053c-19.351-10.232-33.799-29.531-33.563-29.92c0,0-10.985-12.722-11.831-21.688
		c0,0,6.218,15.949,13.628,17.804c9.009-10.645,10.266-24.258-5.686-33.498c-14.44-8.369-39.746-2.92-41.436,20.915
		c-0.782,14.442,9.521,28.586,10.964,34.872c4.232,18.441-10.439,22.931-10.875,23.118c-4.268-20.862-20.861-33.462-35.782-35.772
		c-20.935-3.239-49.133,11.756-55.163,50.707c-6.036,38.95,13.302,56.701,33.924,61.511c18.167,4.26,42.094-4.394,51.564-33.404
		c0.129-0.635,1.021-1.748,1.078-3.273c0.457-12.408,12.769-24.186,28.153-24.771c0.949-0.039,6.883,0.185,7.842,0.219
		c11.212-8.158,7.472-20.533,7.472-20.533c23.167,3.321,49.953,49.215,30.226,67.534c-14.14,13.137-26.2,6.704-29.763,1.853
		c-13.201,5.344-20.796-0.18-20.796-0.18c13.887,1.219,22.721-3.785,23.925-4.51c20.099-12.889,10.418-44.287-19.239-40.331
		c-17.444,2.321-23.501,18.161-24.446,21.233c-10.427,28.572,29.897,73.371,76.41,54.393
		C799.828,228.491,780.107,164.71,744.818,146.053z M629.17,198.701c-3.938,4.717-8.825,6.967-13.487,6.244
		c-8.729-1.353-16.928-10.395-14.415-26.641c2.515-16.231,9.572-28.549,23.687-26.146c5.187,0.888,9.117,5.271,10.953,12.072
		c-8.14,3.042-9.253,10.339-9.253,10.339c1.338,1.859,8.942,8.437,9.327,8.769C634.648,189.801,632.231,195.034,629.17,198.701z"/>
</g>
</svg>
