<?xml version="1.0" encoding="utf-8"?>
<!-- Generator: Adobe Illustrator 16.0.0, SVG Export Plug-In . SVG Version: 6.00 Build 0)  -->
<!DOCTYPE svg PUBLIC "-//W3C//DTD SVG 1.1//EN" "http://www.w3.org/Graphics/SVG/1.1/DTD/svg11.dtd">
<svg version="1.1" id="Layer_1" xmlns="http://www.w3.org/2000/svg" xmlns:xlink="http://www.w3.org/1999/xlink" x="0px" y="0px"
	 width="550px" height="550px" viewBox="0 0 550 550" enable-background="new 0 0 550 550" xml:space="preserve">
<path fill="#282E3A" d="M413.456,224.243v-9.118h-10.471v-12.548H391.79v12.548h-6.229v9.118h5.957v20.041
	c0,5.051,1.372,8.638,3.431,11.196c-1.139,1.267-2.377,2.646-3.695,4.115v-8.088h-3.612c-1.262,0-1.984-0.722-1.984-1.985v-17.965
	c0-12.188-5.867-17.513-16.069-17.513c-9.3,0-14.265,5.687-16.251,9.57h-0.181c0,0,0.181-0.994,0.181-1.987v-1.354
	c0-3.251-1.987-5.146-6.048-5.146h-10.562v7.632c-3.363-5.304-9.063-8.714-16.878-8.714c-9.766,0-17.393,4.978-21.033,12.896v-2.515
	c0-7.943-10.741-10.38-16.7-10.38c-11.897,0-20.154,6.297-23.509,14.959c-2.256-8.744-8.982-14.959-19.55-14.959
	c-13.813,0-23.382,9.931-23.382,24.103c0,4.736,1.256,9.192,3.564,12.961c-1.44-0.107-2.586-0.522-3.379-2.037l-6.229-12.368
	c-1.173-2.347-3.161-3.25-3.161-3.25v-0.181c2.708-0.542,10.653-5.327,10.653-16.882c0-12.097-8.215-19.319-19.95-19.319h-28.708
	v10.021h5.867v54.077h11.828v-23.923h5.959c3.339,0,4.693,0.452,6.048,2.979l8.215,16.16c2.077,4.063,4.152,4.786,8.938,4.786h6.228
	v-6.94c2.793,3.185,6.496,5.63,10.996,6.94h-7.192c-4.514,0-6.952,1.083-7.855,5.236l-8.847,38.188
	c-0.813,3.61-1.084,6.771-1.084,6.771h-0.182c0,0-0.271-3.069-1.264-6.771l-11.012-43.244h-10.021l-11.647,43.244
	c-0.992,3.701-1.354,6.771-1.354,6.771h-0.181c0,0-0.271-3.16-1.083-6.771l-8.757-38.188c-0.992-4.153-3.43-5.236-7.944-5.236
	h-7.674v10.021h1.715c1.534,0,2.527,0.451,2.889,1.988l13.271,52.089h13.723l10.201-36.29c1.173-4.155,1.716-7.945,1.716-7.945h0.18
	c0,0,0.543,3.881,1.625,7.945l9.75,36.29h13.633l13.359-52.089c0.361-1.537,1.265-1.988,2.89-1.988h1.716v-9.883
	c2.255,0.601,4.684,0.945,7.297,0.945c11.465,0,18.507-6.951,18.507-6.951l-4.785-7.946c0,0-5.508,5.146-12.909,5.146
	c-6.954,0-12.91-4.243-13.815-12.368h29.609c0.921,12.422,10.42,22.117,24.825,22.117c12.55,0,19.41-8.305,19.41-8.305l-4.783-7.944
	c0,0-5.78,6.23-13.633,6.23c-7.404,0-14.354-4.786-14.354-14.175c0-8.306,5.688-14.354,13.632-14.354
	c2.799,0,6.589,1.083,6.589,3.611v2.528h9.002c-0.797,2.551-1.242,5.327-1.242,8.304c0,13.09,9.479,24.104,24.738,24.104
	c11.465,0,18.503-6.951,18.503-6.951l-4.784-7.946c0,0-5.506,5.146-12.909,5.146c-6.95,0-12.909-4.243-13.812-12.368h31.777
	c0,0,0.272-2.889,0.272-4.243c0-4.039-0.813-7.789-2.352-11.013h2.437c1.264,0,1.985,0.633,1.985,1.985v34.306h11.376v-21.125
	c0-2.167,0.271-4.243,0.903-6.139c1.622-5.506,6.227-9.389,12.365-9.389c5.781,0,7.226,3.792,7.226,9.389v21.125
	c0,4.333,1.804,6.139,6.139,6.139h9.511c-12.117,13.484-30.619,34.034-48.987,54.436c-2.138-0.004-3.039-0.366-3.758-1.712
	l-5.235-9.933c-1.623-2.978-3.249-3.609-3.249-3.609v-0.181c0,0,1.442-0.723,3.431-3.61l11.646-17.336h-12.73l-9.387,14.535
	c-0.996,1.446-2.891,1.714-4.334,1.714h-3.433v-29.068c0-4.243-1.895-5.236-6.139-5.236h-10.923v9.75h3.613
	c1.263,0,1.983,0.632,1.983,1.985v5.762c-0.372-0.038-0.818-0.074-1.258-0.074c-7.044,0-12.55,5.236-14.623,11.827h-0.182
	c0,0,0.182-1.173,0.182-2.89v-2.71c0-3.881-2.077-5.596-6.141-5.596h-10.473v9.264c-4.513-6.408-12.202-10.347-21.029-10.347
	c-13.992,0-25.188,10.021-25.188,24.104c0,14.173,11.196,24.104,25.188,24.104c14.083,0,25.278-9.931,25.278-24.104
	c0-5.04-1.453-9.544-3.939-13.271h3.302c1.263,0,1.986,0.631,1.986,1.984v34.307h11.374v-18.235c0-2.709,0.361-5.236,0.994-7.492
	c2.075-6.861,7.675-9.661,12.548-9.661c0.8,0,1.486,0.044,1.981,0.088v35.301h11.466v-20.131h2.531c1.443,0,3.341,0.09,4.241,1.714
	l7.675,14.445c1.229,2.273,2.349,3.28,4.152,3.697c-25.581,28.415-48.89,54.316-51.687,57.517c-0.35,0.4,1.363,0.153,1.64-0.161
	c6.294-7.196,116.364-129.253,122.659-136.451c0.336-0.385-1.221-0.171-1.587,0.124c-0.275-0.907-0.441-1.951-0.441-3.178v-18.598
	h10.466V224.243z M195.548,227.133h-9.389V207.09h9.57c5.777,0,9.299,3.612,9.299,9.931
	C205.027,223.431,201.504,227.133,195.548,227.133z M227.771,232.188c1.265-5.778,5.418-9.299,11.286-9.299
	c4.694,0,8.486,3.792,8.667,9.299H227.771z M308.563,232.188c1.265-5.778,5.416-9.299,11.285-9.299c4.693,0,8.485,3.792,8.667,9.299
	H308.563z M248.814,316.599c-7.403,0-13.633-5.778-13.633-14.354c0-8.486,6.23-14.354,13.633-14.354
	c7.493,0,13.723,5.868,13.723,14.354C262.537,310.82,256.307,316.599,248.814,316.599z"/>
<polygon fill="#D7DF23" points="136.543,213.695 166.757,231.139 136.543,248.583 "/>
</svg>
