<?xml version="1.0" encoding="utf-8"?>
<!-- Generator: Adobe Illustrator 16.0.0, SVG Export Plug-In . SVG Version: 6.00 Build 0)  -->
<!DOCTYPE svg PUBLIC "-//W3C//DTD SVG 1.1//EN" "http://www.w3.org/Graphics/SVG/1.1/DTD/svg11.dtd">
<svg version="1.1" id="Layer_1" xmlns="http://www.w3.org/2000/svg" xmlns:xlink="http://www.w3.org/1999/xlink" x="0px" y="0px"
	 width="400px" height="400px" viewBox="0 0 400 400" enable-background="new 0 0 400 400" xml:space="preserve">
<g>
	<path fill="#FFFFFF" d="M209,241.236v29.453c6,0,12-5.336,12-11.781v-17.672c0-2.576,2.934-6.236,5.51-6.236h17.672
		c6.443,0,11.781-5,11.781-11H226.51C217.489,224,209,232.215,209,241.236z"/>
	<path fill="#FFFFFF" d="M200,4.833C92.212,4.833,4.833,92.212,4.833,200S92.212,395.167,200,395.167S395.167,307.788,395.167,200
		S307.788,4.833,200,4.833z M274,229.453c0,16.385-42.526,58.543-58.903,58.543l-3.593,0.18c-2.389,0.188-3.909,0.188-8.513,0.188
		c-41.603,0-68.688-5.893-69.788-6.08c-4.049-0.92-7.203-4.594-7.203-8.65V126.368c0-4.237,3.131-7.733,7.181-8.653
		c1.101-0.187,28.071-6.078,69.674-6.078c41.969,0,63.552,5.891,64.474,6.258c3.869,1.107,6.672,4.603,6.672,8.473V229.453z"/>
</g>
</svg>
