<?xml version="1.0" encoding="utf-8"?>
<!-- Generator: Adobe Illustrator 16.0.0, SVG Export Plug-In . SVG Version: 6.00 Build 0)  -->
<!DOCTYPE svg PUBLIC "-//W3C//DTD SVG 1.1//EN" "http://www.w3.org/Graphics/SVG/1.1/DTD/svg11.dtd">
<svg version="1.1" id="Layer_1" xmlns="http://www.w3.org/2000/svg" xmlns:xlink="http://www.w3.org/1999/xlink" x="0px" y="0px"
	 width="100px" height="100px" viewBox="0 0 100 100" enable-background="new 0 0 100 100" xml:space="preserve">
<g>
	<path fill="#FFFFFF" d="M93.364,94.027c-0.512,0.104-9.796,2.754-35.507,3.266l-3.265-14.486c2.959-2.043,6.021-5.818,6.021-8.672
		c0-4.285-5.308-6.838-10.613-6.838c-5.307,0-10.612,2.553-10.612,6.838c0,2.854,3.061,6.629,6.02,8.775l-3.265,14.383
		c-25.611-0.512-35.099-3.162-35.506-3.266c-1.635-0.51-2.552-2.141-2.245-3.873c2.037-9.594,7.344-14.695,14.591-19.285
		c2.038-1.229,4.489-2.244,7.244-3.369c4.896-1.938,10.608-4.182,11.733-7.959c0.817-2.451-0.204-5.816-2.958-10.101
		c-8.571-13.675-10.103-25.511-4.593-35C34.695,7.097,42.043,2.708,50,2.708c8.061,0,15.305,4.389,19.59,11.733
		c5.511,9.489,3.979,21.325-4.593,35c-2.755,4.284-3.672,7.649-2.958,10.101c1.224,3.777,6.837,6.021,11.734,7.959
		c2.753,1.125,5.206,2.141,7.242,3.369c7.249,4.59,12.45,9.691,14.591,19.285C95.915,91.887,94.999,93.518,93.364,94.027z"/>
</g>
</svg>
