<?xml version="1.0" encoding="utf-8"?>
<!-- Generator: Adobe Illustrator 16.0.0, SVG Export Plug-In . SVG Version: 6.00 Build 0)  -->
<!DOCTYPE svg PUBLIC "-//W3C//DTD SVG 1.1//EN" "http://www.w3.org/Graphics/SVG/1.1/DTD/svg11.dtd">
<svg version="1.1" id="Layer_1" xmlns="http://www.w3.org/2000/svg" xmlns:xlink="http://www.w3.org/1999/xlink" x="0px" y="0px"
	 width="100px" height="100px" viewBox="0 0 100 100" enable-background="new 0 0 100 100" xml:space="preserve">
<g>
	<path fill="#FFFFFF" d="M98.278,12.987v54.714c0,3.119-2.21,5.734-5.33,6.34c-0.603,0.101-12.874,2.212-30.074,3.016V84.7
		l20.217,5.636c1.511,0.503,2.517,2.009,2.313,3.621c-0.299,1.508-1.607,2.714-3.217,2.714H17.813c-1.609,0-2.914-1.206-3.217-2.714
		c-0.201-1.612,0.805-3.118,2.313-3.621L37.126,84.7v-7.644c-17.198-0.804-29.469-2.915-30.074-3.016
		c-3.118-0.605-5.33-3.221-5.33-6.34V12.987c0-3.119,2.314-5.837,5.33-6.339C7.857,6.549,27.169,3.329,50,3.329
		c22.832,0,42.045,3.22,42.851,3.319C95.966,7.15,98.278,9.869,98.278,12.987z M85.404,62.474v-44.66
		C78.264,16.909,64.787,15.5,50,15.5c-14.783,0-28.263,1.409-35.403,2.313v44.66c6.94,0.904,20.318,2.313,35.403,2.412
		C65.087,64.787,78.464,63.378,85.404,62.474z M52.212,54.625c-1.002-0.301-5.629-3.518-10.259-7.241l-2.513,6.238
		c-0.304,0.702-1.006,1.204-1.71,1.204h-0.102c-0.703,0-1.406-0.399-1.708-1.004c-0.303-0.601-7.142-13.88-8.449-25.849
		c-0.103-0.502,0.099-1.107,0.601-1.511c0.405-0.502,1.006-0.704,1.611-0.602c12.27,1.61,25.145,8.146,25.646,8.448
		c0.707,0.401,1.108,1.107,1.108,1.811c0,0.806-0.504,1.407-1.206,1.709l-6.438,2.717c3.621,4.525,6.94,9.352,7.341,10.16
		c0.604,1.305,0.303,2.211-0.704,3.217C54.428,54.929,53.723,55.031,52.212,54.625z"/>
</g>
</svg>
