<?xml version="1.0" encoding="utf-8"?>
<!-- Generator: Adobe Illustrator 16.0.0, SVG Export Plug-In . SVG Version: 6.00 Build 0)  -->
<!DOCTYPE svg PUBLIC "-//W3C//DTD SVG 1.1//EN" "http://www.w3.org/Graphics/SVG/1.1/DTD/svg11.dtd">
<svg version="1.1" id="Layer_1" xmlns="http://www.w3.org/2000/svg" xmlns:xlink="http://www.w3.org/1999/xlink" x="0px" y="0px"
	 width="100px" height="100px" viewBox="0 0 100 100" enable-background="new 0 0 100 100" xml:space="preserve">
<g>
	<path fill="#FFFFFF" d="M85.655,50c0,11.646-0.299,23.198-1.015,34.745c-0.297,6.18-5.169,11.444-11.241,12.256
		c-7.696,1.113-15.599,1.62-23.398,1.62c-7.799,0-15.702-0.507-23.402-1.62c-6.076-0.812-10.939-6.076-11.243-12.256
		C14.653,73.298,14.345,61.646,14.345,50c0-11.649,0.305-23.197,1.012-34.742c0.304-6.18,5.167-11.347,11.243-12.255
		c7.7-1.115,15.603-1.624,23.402-1.624c7.8,0,15.702,0.505,23.398,1.624c6.076,0.909,10.944,6.076,11.241,12.255
		C85.356,26.803,85.655,38.351,85.655,50z M37.036,54.055c0-0.609-0.304-1.214-0.81-1.621c-0.507-0.304-1.217-0.304-1.721,0
		l-10.537,5.673c-0.503,0.302-0.91,0.913-0.91,1.617c0,0.713,0.407,1.318,0.91,1.62l10.537,5.677
		c0.201,0.096,0.503,0.203,0.807,0.203s0.61-0.102,0.914-0.305c0.506-0.307,0.81-0.91,0.81-1.521V54.055z M37.946,79.174
		c0-4.052-3.237-7.296-7.295-7.296c-4.052,0-7.393,3.244-7.393,7.296c0,4.049,3.341,7.293,7.393,7.293
		C34.709,86.467,37.946,83.223,37.946,79.174z M27.112,40.278c0.097,1.821,1.517,3.24,3.241,3.24h39.301
		c1.721,0,3.139-1.418,3.238-3.24c0.204-7.396,0.098-14.889-0.406-22.386c0-1.521-1.21-2.836-2.832-3.038
		c-6.586-0.711-13.068-1.119-19.653-1.119c-6.586,0-13.068,0.407-19.647,1.116c-1.626,0.205-2.837,1.521-2.941,3.041
		C27.006,25.386,26.906,32.882,27.112,40.278z M57.395,59.724c0-4.055-3.242-7.296-7.296-7.296c-4.049,0-7.394,3.241-7.394,7.296
		c0,4.052,3.345,7.289,7.394,7.289C54.152,67.013,57.395,63.775,57.395,59.724z M57.395,79.174c0-4.052-3.242-7.296-7.296-7.296
		c-4.049,0-7.394,3.244-7.394,7.296c0,4.049,3.345,7.293,7.394,7.293C54.152,86.467,57.395,83.223,57.395,79.174z M76.841,79.174
		c0-4.052-3.234-7.296-7.289-7.296c-4.056,0-7.394,3.244-7.394,7.296c0,4.049,3.338,7.293,7.394,7.293
		C73.606,86.467,76.841,83.223,76.841,79.174z M76.944,59.724c0-0.71-0.4-1.317-1.017-1.619l-10.432-5.677
		c-0.504-0.304-1.213-0.304-1.72,0c-0.507,0.406-0.813,1.018-0.813,1.621v11.347c0,0.61,0.307,1.211,0.813,1.521
		c0.304,0.199,0.61,0.303,0.906,0.303c0.304,0,0.504-0.104,0.808-0.207l10.434-5.669C76.544,61.042,76.944,60.435,76.944,59.724z"/>
</g>
</svg>
