<?xml version="1.0" encoding="utf-8"?>
<!-- Generator: Adobe Illustrator 16.0.0, SVG Export Plug-In . SVG Version: 6.00 Build 0)  -->
<!DOCTYPE svg PUBLIC "-//W3C//DTD SVG 1.1//EN" "http://www.w3.org/Graphics/SVG/1.1/DTD/svg11.dtd">
<svg version="1.1" id="Layer_1" xmlns="http://www.w3.org/2000/svg" xmlns:xlink="http://www.w3.org/1999/xlink" x="0px" y="0px"
	 width="75px" height="75px" viewBox="0 0 75 75" enable-background="new 0 0 75 75" xml:space="preserve">
<g>
	<path fill="#FFFFFF" d="M37.501,2.103C17.955,2.103,2.107,17.954,2.107,37.5c-0.005,19.55,15.844,35.396,35.395,35.396
		c19.545,0,35.391-15.846,35.391-35.391C72.893,17.954,57.047,2.103,37.501,2.103z M37.501,68.154
		c-16.9,0-30.653-13.752-30.653-30.649c0-16.897,13.753-30.651,30.653-30.651C54.398,6.845,68.15,20.598,68.15,37.505
		C68.15,54.402,54.398,68.154,37.501,68.154z"/>
	<path fill="#FFFFFF" d="M51.037,29.748L37.331,43.455l-13.71-13.707c-0.923-0.925-2.426-0.925-3.352,0
		c-0.924,0.922-0.924,2.427,0,3.353l15.378,15.374c0.466,0.473,1.078,0.699,1.684,0.695c0.611,0,1.216-0.229,1.685-0.695
		l15.373-15.374c0.924-0.926,0.924-2.431,0-3.353C53.463,28.823,51.963,28.823,51.037,29.748z"/>
</g>
</svg>
