<?xml version="1.0" encoding="utf-8"?>
<!-- Generator: Adobe Illustrator 16.0.0, SVG Export Plug-In . SVG Version: 6.00 Build 0)  -->
<!DOCTYPE svg PUBLIC "-//W3C//DTD SVG 1.1//EN" "http://www.w3.org/Graphics/SVG/1.1/DTD/svg11.dtd">
<svg version="1.1" id="Layer_1" xmlns="http://www.w3.org/2000/svg" xmlns:xlink="http://www.w3.org/1999/xlink" x="0px" y="0px"
	 width="300px" height="300px" viewBox="0 0 300 300" enable-background="new 0 0 300 300" xml:space="preserve">
<path opacity="0.6" fill="#FFDD15" d="M150.952,48.964c-41.346,0-74.986,33.638-74.986,74.982v1.134
	c-0.004,20.863-0.01,34.647,21.465,71.094c2.425,4.109,2.462,4.176,4.424,7.197c1.856,2.862,5.72,8.807,15.733,24.593
	c1.748,2.761,5.409,3.583,8.171,1.828c2.763-1.746,3.578-5.407,1.828-8.168c-10.044-15.837-13.931-21.82-15.799-24.699
	c-1.841-2.83-1.841-2.83-4.154-6.756c-19.836-33.665-19.834-45.49-19.823-65.081v-1.137c0-34.82,28.324-63.146,63.141-63.146
	c34.818,0,63.15,28.326,63.15,63.146v1.137c0.006,19.591,0.011,31.416-19.83,65.081c-2.312,3.926-2.312,3.926-4.153,6.756
	c-1.862,2.879-5.753,8.864-15.797,24.699c-1.752,2.761-0.935,6.419,1.832,8.168c0.981,0.628,2.078,0.919,3.164,0.919
	c1.958,0,3.877-0.965,5.004-2.745c10.006-15.779,13.869-21.729,15.728-24.592c1.966-3.021,2.01-3.091,4.429-7.198
	c21.478-36.447,21.469-50.233,21.464-71.096v-1.132C225.937,82.6,192.296,48.964,150.952,48.964z"/>
<path fill="#FFDD15" d="M152.025,35.174c2.728,0,4.933-2.21,4.933-4.931V8.288c0-2.728-2.207-4.933-4.933-4.933
	c-2.72,0-4.93,2.207-4.93,4.933v21.955C147.096,32.968,149.306,35.174,152.025,35.174z"/>
<path fill="#FFDD15" d="M204.171,51.811c0.864,0.617,1.862,0.91,2.85,0.91c1.543,0,3.07-0.721,4.03-2.073l12.712-17.894
	c1.579-2.224,1.053-5.306-1.168-6.882c-2.219-1.576-5.298-1.056-6.88,1.163l-12.712,17.897
	C201.427,47.152,201.95,50.234,204.171,51.811z"/>
<path fill="#FFDD15" d="M243.32,98.606l20.732-7.221c2.571-0.899,3.935-3.712,3.032-6.284c-0.896-2.572-3.713-3.929-6.279-3.036
	l-20.731,7.225c-2.574,0.896-3.929,3.711-3.035,6.285c0.707,2.032,2.618,3.31,4.658,3.31
	C242.235,98.883,242.78,98.793,243.32,98.606z"/>
<path fill="#FFDD15" d="M265.692,153.039l-21.089-6.119c-2.624-0.754-5.354,0.749-6.114,3.361c-0.757,2.618,0.751,5.357,3.364,6.111
	l21.089,6.12c0.455,0.132,0.924,0.195,1.376,0.195c2.139,0,4.107-1.404,4.738-3.56C269.811,156.538,268.303,153.799,265.692,153.039
	z"/>
<path fill="#FFDD15" d="M88.945,50.648c0.962,1.352,2.479,2.073,4.029,2.073c0.984,0,1.982-0.293,2.846-0.91
	c2.224-1.577,2.745-4.659,1.165-6.879L84.268,27.034c-1.575-2.218-4.654-2.739-6.874-1.163c-2.221,1.577-2.745,4.659-1.167,6.882
	L88.945,50.648z"/>
<path fill="#FFDD15" d="M59.92,89.29l-20.728-7.225c-2.579-0.894-5.385,0.463-6.283,3.036c-0.897,2.572,0.463,5.385,3.034,6.284
	l20.728,7.221c0.54,0.188,1.083,0.277,1.627,0.277c2.039,0,3.947-1.276,4.657-3.313C63.852,93.001,62.499,90.187,59.92,89.29z"/>
<path fill="#FFDD15" d="M55.392,146.92l-21.083,6.119c-2.618,0.757-4.125,3.499-3.361,6.109c0.624,2.155,2.598,3.56,4.734,3.56
	c0.453,0,0.92-0.063,1.376-0.195l21.085-6.12c2.616-0.754,4.123-3.496,3.36-6.111C60.743,147.666,58.014,146.161,55.392,146.92z"/>
<path fill="#5E4230" d="M150,296.645c12.557,0,22.733-10.178,22.733-22.736h-45.468C127.263,286.467,137.443,296.645,150,296.645z"
	/>
<path fill="#5E4230" d="M172.732,162.434l-22.731-54.907l-22.735,54.907l0.001,99.029l45.468,0.003L172.732,162.434z
	 M157.484,167.332c-4.135,0.003-7.483-4.471-7.483-6.198c0,1.725-3.351,6.201-7.484,6.201c-4.133,0-8.999-3.394-8.999-3.394
	l13.064-31.548l6.839-0.003l13.063,31.548C166.483,163.938,161.619,167.332,157.484,167.332z"/>
</svg>
