<?xml version="1.0" encoding="utf-8"?>
<!-- Generator: Adobe Illustrator 16.0.0, SVG Export Plug-In . SVG Version: 6.00 Build 0)  -->
<!DOCTYPE svg PUBLIC "-//W3C//DTD SVG 1.1//EN" "http://www.w3.org/Graphics/SVG/1.1/DTD/svg11.dtd">
<svg version="1.1" id="Capa_1" xmlns="http://www.w3.org/2000/svg" xmlns:xlink="http://www.w3.org/1999/xlink" x="0px" y="0px"
	 width="1000px" height="1000px" viewBox="0 0 1000 1000" enable-background="new 0 0 1000 1000" xml:space="preserve">
<path fill="#EFEFEF" d="M489,378c-24.8,0-45-20.3-45-45V185c0-24.8,20.3-45,45-45h11V17.9h-59.9C315.2,17.9,214,119.2,214,244v512
	c0,124.8,101.2,226.1,226.1,226.1H500V378H489z"/>
<path fill="#D4D4D4" d="M786,756V244c0-124.8-101.2-226.1-226.1-226.1H500V140h11c24.8,0,45,20.3,45,45v148c0,24.8-20.3,45-45,45
	h-11v604.1h60C684.8,982.1,786,880.8,786,756z"/>
<path fill="#626262" d="M489,378h11h11c24.7,0,45-20.2,45-45V185c0-24.7-20.2-45-45-45h-11h-11c-24.7,0-45,20.2-45,45v148
	C444,357.7,464.2,378,489,378z"/>
</svg>
