<?xml version="1.0" encoding="utf-8"?>
<!-- Generator: Adobe Illustrator 16.0.0, SVG Export Plug-In . SVG Version: 6.00 Build 0)  -->
<!DOCTYPE svg PUBLIC "-//W3C//DTD SVG 1.1//EN" "http://www.w3.org/Graphics/SVG/1.1/DTD/svg11.dtd">
<svg version="1.1" id="Layer_1" xmlns="http://www.w3.org/2000/svg" xmlns:xlink="http://www.w3.org/1999/xlink" x="0px" y="0px"
	 width="800px" height="235.322px" viewBox="0 0 800 235.322" enable-background="new 0 0 800 235.322" xml:space="preserve">
<path fill="#C4D92E" d="M709.084,108.399c0-9.577,9.9-14.683,24.266-14.683c8.938,0,20.434,3.828,20.434,11.492v7.98h35.756V96.267
	c0-26.495-35.119-33.838-57.145-33.838c-33.844,0-63.219,15.003-63.219,47.568c0,52.678,85.885,52.362,85.885,75.345
	c0,10.855-9.578,15.965-22.031,15.965c-27.775,0-48.529-23.945-48.529-23.945l-12.648,17.498c-5.924-0.282-8.701-1.767-10.963-6.006
	l-18.52-35.115c-5.746-10.539-11.492-12.773-11.492-12.773v-0.637c0,0,5.107-2.555,12.133-12.773l41.182-61.298h-45.014
	l-33.205,51.405c-3.512,5.105-10.215,6.066-15.324,6.066h-12.133V20.922c0-15.003-6.701-18.515-21.709-18.515h-38.633v34.479h12.773
	c4.469,0,7.023,2.234,7.023,7.022v20.377c-1.316-0.138-2.908-0.264-4.455-0.264c-24.906,0-44.381,18.519-51.721,41.827h-0.641
	c0,0,0.641-4.152,0.641-10.218v-9.578c0-13.73-7.344-19.796-21.711-19.796h-37.039v32.751
	c-15.957-22.654-43.15-36.579-74.365-36.579c-25.938,0-49.089,9.803-65.313,26.244l11.236-43.806
	c1.277-5.426,4.473-7.023,10.219-7.023h6.066V2.407h-27.456c-15.965,0-24.586,3.828-27.779,18.515l-31.288,135.05
	c-2.873,12.769-3.829,23.945-3.829,23.945h-0.639c0,0-0.96-10.855-4.472-23.945L176.477,3.044h-35.438L99.854,155.972
	c-3.514,13.09-4.789,23.945-4.789,23.945h-0.639c0,0-0.959-11.176-3.832-23.945L59.627,20.922
	C56.113,6.235,47.495,2.407,31.53,2.407H4.395v35.436h6.063c5.428,0,8.941,1.598,10.217,7.023l46.933,184.216h48.529l36.077-128.343
	c4.15-14.687,6.063-28.097,6.063-28.097h0.639c0,0,1.916,13.73,5.749,28.097l34.479,128.343h48.21l15.154-59.086
	c9.849,37.887,44.438,62.918,86.172,62.918c49.803,0,89.395-35.12,89.395-85.243c0-17.822-5.137-33.756-13.93-46.932h11.676
	c4.469,0,7.023,2.234,7.023,7.023v121.32h40.225v-64.49c0-9.577,1.277-18.519,3.516-26.499c7.34-24.265,27.135-34.164,44.377-34.164
	c2.826,0,5.262,0.156,7.01,0.312v124.84h40.545v-71.197h8.943c5.107,0,11.811,0.32,15.002,6.066l27.139,51.084
	c6.385,11.812,11.813,14.046,25.543,14.046h30.012v-9.058c11.258,6.677,27.217,12.89,47.875,12.89
	c35.441,0,62.576-19.156,62.576-49.807C795.605,128.832,709.084,133.942,709.084,108.399z M348.68,198.436
	c-26.179,0-48.209-20.437-48.209-50.764c0-30.011,22.03-50.764,48.209-50.764c26.499,0,48.53,20.753,48.53,50.764
	C397.21,177.999,375.179,198.436,348.68,198.436z"/>
</svg>
