<?xml version="1.0" encoding="utf-8"?>
<!-- Generator: Adobe Illustrator 16.0.0, SVG Export Plug-In . SVG Version: 6.00 Build 0)  -->
<!DOCTYPE svg PUBLIC "-//W3C//DTD SVG 1.1//EN" "http://www.w3.org/Graphics/SVG/1.1/DTD/svg11.dtd">
<svg version="1.1" id="Layer_1" xmlns="http://www.w3.org/2000/svg" xmlns:xlink="http://www.w3.org/1999/xlink" x="0px" y="0px"
	 width="800px" height="205px" viewBox="0 0 800 205" enable-background="new 0 0 800 205" xml:space="preserve">
<path fill="#FFFFFF" d="M419,160.195v-50.824c0-34.48-16.73-49.496-45.591-49.496C347.102,59.875,332.926,76,327.307,87h-0.511
	c0,0,0.204-2.914,0.204-5.723v-3.832C327,68.251,321.688,63,310.194,63H280v26.105c-12-18.135-34.371-29.283-59.353-29.283
	c-39.587,0-71.179,28.35-71.179,68.193c0,5.023,0.537,9.857,1.484,14.471c-5.106,5.178-24.399,22.563-53.53,22.563
	c-32.947,0-58.988-28.605-58.988-64.105c0-37.801,25.562-61.042,57.999-61.042c15.835,0,37.567,6.13,37.567,19.411V69h30V49.351
	c0-30.903-45.283-40.609-68.524-40.609c-52.613,0-91.856,39.843-91.856,92.202c0,53.633,37.844,95.264,93.267,95.264
	c34.095,0,57.323-16.57,67.392-25.543c12.988,15.953,33.4,25.543,56.515,25.543c39.843,0,71.519-28.329,71.519-68.427
	c0-14.246-4.06-26.78-11.083-37.78h9.3c3.576,0,5.471,2.259,5.471,6.09V193h32v-59.621c0-6.131,0.931-12.004,2.718-17.367
	c4.598-15.58,17.553-26.562,34.92-26.562c16.346,0,20.362,10.726,20.362,26.562v59.764c0,12.26,5.413,17.225,17.673,17.225H435v-28
	h-10.64C420.785,165,419,163.771,419,160.195z M220.804,168.625c-20.943,0-38.565-16.346-38.565-40.609
	c0-24.008,17.623-40.609,38.565-40.609c21.199,0,38.821,16.602,38.821,40.609C259.625,152.279,242.003,168.625,220.804,168.625z"/>
<path fill="#FFFFFF" d="M790.96,165.814c-8.938,0-25.96-3.064-25.96-24.518V88h30V63h-30V27h-31v36h-18v7.443
	c-10-7.82-26.547-10.621-37.271-10.621c-44.696,0-71.248,31.007-71.248,67.786c0,14.008,3.806,27.392,10.759,37.392h-8.453
	c-3.575,0-5.786-1.229-5.786-4.805V111.67c0-29.116-12.796-51.848-56.215-51.848C534.249,59.822,500,62.376,500,86.64V100h30v-6.464
	c0-7.151,11.805-8.684,17.68-8.684c16.602,0,24.32,6.896,24.32,25.541V111h-4.355c-21.198,0-77.387,3.526-77.387,44.392
	c0,3.611,0.531,7.099,1.295,10.261c-9.237-0.504-23.553-4.508-23.553-24.355V88h29V63h-29V27h-32v36h-18v25h17v57.383
	c0,43.674,35.959,49.037,54.092,49.037c5.875,0,9.908-0.766,9.908-0.766v-12.227c9,9.639,21.663,14.669,35.474,14.669
	c29.371,0,39.556-23.097,39.556-23.097h0.512c0,0-0.256,2.338-0.256,5.658c0,7.662,4.597,14.342,16.602,14.342H620v-24.59
	c12,16.879,32.27,27.797,57.979,27.797c35.502,0,54.912-23.496,54.912-23.496l-13.535-22.477c0,0-16.346,17.623-38.565,17.623
	c-20.943,0-40.609-13.535-40.609-40.098c0-23.496,15.896-40.609,38.371-40.609c7.917,0,18.448,3.065,18.448,10.217V104h29V89.193
	c0-0.174-0.021-0.193-0.025-1.193H733v57.383c0,43.674,35.959,49.037,54.092,49.037c5.875,0,9.908-0.766,9.908-0.766v-28.35
	C797,165.305,794.537,165.814,790.96,165.814z M572,136.699c0,15.834-12.138,34.223-29.506,34.223
	c-13.28,0-19.605-8.489-19.605-17.173c0-18.135,26.878-20.749,43.734-20.749H572V136.699z"/>
</svg>
