<?xml version="1.0" encoding="utf-8"?>
<!-- Generator: Adobe Illustrator 16.0.0, SVG Export Plug-In . SVG Version: 6.00 Build 0)  -->
<!DOCTYPE svg PUBLIC "-//W3C//DTD SVG 1.1//EN" "http://www.w3.org/Graphics/SVG/1.1/DTD/svg11.dtd">
<svg version="1.1" id="Layer_1" xmlns="http://www.w3.org/2000/svg" xmlns:xlink="http://www.w3.org/1999/xlink" x="0px" y="0px"
	 width="1756.119px" height="1685.15px" viewBox="0 0 1756.119 1685.15" enable-background="new 0 0 1756.119 1685.15"
	 xml:space="preserve">
<g>
	<g id="OUTLINE">
		<path d="M70.174,905.96C-46.278,664.605,6.523,437.595,97.197,289.803C238.638,59.279,459.777,11.234,627.527,34.544
			c81.729,11.343,326.646,89.209,401.988,144.863c189.979,140.364,411.213,402.393,379.375,590.98
			c-20.778,122.909-41.053,272.313-135.162,381.57c-134.219,155.845-346.082,241.354-503.111,267.334
			c-63.795,10.54-147.387-19.024-218.632-36.625l15.732,56.351c0,0-224.286-93.125-202.185-332.904
			c0,0,21.297-171.431,207.581-235.354c0,0-140.511-163.926-404.695,39.885C168.347,910.644,95.203,957.81,70.174,905.96z"/>
		<g id="HEAD_FEATHERS_1_">
			<path d="M852.982,107.359c-16.153,23.163-23.311,46.07-29.272,41.934c-5.943-4.134,2.324-26.309,18.481-49.434
				c16.151-23.162,54.172-38.384,60.174-34.213C938.884,91.187,872.652,79.223,852.982,107.359z"/>
			<path d="M862.607,110.287c-25.321,12.479-42.595,29.127-45.865,22.614c-3.188-6.514,14.726-21.917,40.026-34.432
				c25.322-12.478,65.978-7.502,69.192-0.989C945.725,137.438,893.455,95.103,862.607,110.287z"/>
			<path d="M843.361,44.899c13.961-24.516,31.578-40.835,25.247-44.421c-6.329-3.586-22.742,13.356-36.722,37.945
				c-13.938,24.553-11.396,65.425-5.028,69.01C865.609,129.499,826.418,74.832,843.361,44.899z"/>
		</g>
		<g id="TAIL_2_">
			<path fill="#414042" d="M791.714,1544.656c-25.247-42.227-34.907-83.022-45.776-76.512c-10.9,6.515,0.75,46.03,26.07,88.332
				c25.249,42.227,89.596,73.399,100.461,66.853C939.138,1583.408,822.521,1596.067,791.714,1544.656z"/>
			<path d="M783.735,1491.416c-47.989-11.013-39.265-14.854-42.117-2.521c-2.834,12.403-2.174,41.75,45.832,52.839
				c47.984,11.086,115.021-13.648,117.879-26.056C922.746,1439.972,842.117,1504.919,783.735,1491.416z"/>
			<path d="M770.929,1601.265c21.242,44.459,49.947,74.938,38.478,80.464c-11.471,5.453-37.964-26.09-59.238-70.549
				c-21.241-44.421-11.729-115.226-0.293-120.748C820.053,1456.912,745.079,1547.255,770.929,1601.265z"/>
			<path fill="#414042" d="M868.792,1547.108c33.958-5.014,63.103-16.063,57.025,5.891c-1.241,4.502-3.878,10.283-8.271,17.896
				c-6.424,10.94-77.757,14.638-120.293-10.209c-42.519-24.845-71.793-53.859-65.407-64.767
				c6.44-10.978,34.473,20.125,77.022,44.971C826.163,1550.914,848.336,1550.146,868.792,1547.108z"/>
			<path fill="#333333" d="M872.871,1620.221c0,0,17.29-10.103,16.614-14.713c0,0,2.357-8.671-26.313-16.393
				c0,0,21.772,8.16,18.774,15.516C881.982,1604.669,879.658,1611.473,872.871,1620.221z"/>
			<path fill="#333333" d="M805.729,1679.532c0,0,15.225,3.771-25.709-52.398C739.114,1571.005,816.449,1680.888,805.729,1679.532z"
				/>
		</g>
	</g>
	<g id="TAIL">
		<g>
			<path fill="#ED1C24" d="M1476.808,397.784c3.001-6.879,5.38-14.052,7.064-21.589c0,0,9.767-32.383,9.583-58.729
				c-0.071-6.987-0.766-13.54-2.523-18.917c-1.097-3.367-5.523-23.125-11.345-39.08c-6.328-17.418-14.048-31.249-15.694-35.858
				c-2.015-5.71-2.893-10.466-2.893-14.418c0.514-0.403,0.953-0.695,1.463-0.988c-0.363-1.463-0.622-2.817-0.803-4.134
				c9.622-36.227,128.066,37.395,82.694,146.802c-5.966,14.38-14.709,29.345-26.859,44.751c0,0-31.538,40.068-92.281,76.768
				c-14.27,8.639-30.112,17.089-47.564,24.771C1377.684,497.202,1449.804,461.854,1476.808,397.784z"/>
		</g>
		<g>
			<path fill="#ED1C24" d="M1415.003,461.27c6.993-16.866,18.592-53.605,4.904-86.025c0,0-10.428-30.443-23.636-39.921
				c-1.723-1.206-10.688-9.222-19.027-14.893c-9.146-6.22-17.747-10.172-20.053-11.855c-3.771-2.635-6.148-5.159-7.393-7.573
				c-12.845-24.442,97.698-30.409,93.084,71.938c0,0-1.133,27.224-15.293,63.12c-3.771,9.479-8.449,19.539-14.158,29.932
				C1413.945,464.453,1414.456,462.879,1415.003,461.27z"/>
		</g>
		<g>
			<path fill="#ED1C24" d="M1442.961,423.874c7.682-18.625,13.208-41.642,8.417-64.913c0,0-4.905-36.81-17.637-50.568
				c-1.646-1.792-9.99-12.881-18.114-21.224c-8.854-9.112-17.672-15.551-19.979-17.966c-3.364-3.513-5.45-6.696-6.44-9.477
				c-11.16-31.65,117.53-13.757,88.733,101.87c0,0-1.902,7.575-6.729,19.76c-6.624,16.43-18.59,41.311-38.823,67.546
				C1436.189,441.546,1439.96,433.094,1442.961,423.874z"/>
		</g>
	</g>
	<g id="PEAK">
		
			<linearGradient id="SVGID_1_" gradientUnits="userSpaceOnUse" x1="797.3579" y1="392.0962" x2="217.4504" y2="1043.2222" gradientTransform="matrix(1 0 0 1 99.5 -492.1602)">
			<stop  offset="0" style="stop-color:#8DC63F"/>
			<stop  offset="0.1994" style="stop-color:#A1CD3A"/>
			<stop  offset="0.6054" style="stop-color:#D2DE26"/>
			<stop  offset="1" style="stop-color:#FFF200"/>
		</linearGradient>
		<path fill="url(#SVGID_1_)" d="M828.854,112.776c-74.646-24.003-267.721-79.513-394.179-43.361
			c-69.615,19.905-127.922,48.703-176.441,83.794c-22.449,16.174-42.758,33.736-61.183,52.361
			c-23.012,23.271-43.029,48.228-60.3,74.317c-15.697,23.711-29.072,48.41-40.508,73.657
			c147.575,55.949,252.444,198.58,252.444,365.729c0,27.771-2.93,54.849-8.435,80.975c10.19-2.415,20.013-3.951,29.216-4.501
			c2.672-33.333,13.868-75.157,36.775-113.103c16.632-27.556,39.44-53.095,69.687-71.863c20.748-12.882,44.99-22.614,73.146-27.628
			c0.075,0,0.146-0.037,0.222-0.037c1.425-0.255,2.926-0.477,4.334-0.694c1.575-0.219,3.076-0.512,4.647-0.729
			c1.574-0.22,3.106-0.402,4.646-0.585c1.538-0.186,3.109-0.367,4.688-0.552c1.569-0.146,3.106-0.292,4.72-0.438
			c1.646-0.11,3.348-0.22,4.994-0.33c1.568-0.109,3.068-0.182,4.646-0.255c2.249-0.073,4.48-0.146,6.771-0.186
			c2.028-0.035,4.063-0.035,6.107-0.035c2.214,0,4.434,0,6.645,0.072c1.537,0.035,3.075,0.108,4.575,0.146
			c1.977,0.073,4.005,0.182,6.019,0.292c1.573,0.072,3.146,0.183,4.721,0.328c2.105,0.146,4.207,0.33,6.294,0.586
			c1.575,0.146,3.109,0.292,4.647,0.438c2.471,0.256,5.031,0.586,7.573,0.915c1.208,0.186,2.359,0.329,3.565,0.512
			c3.696,0.514,7.445,1.101,11.198,1.76c1.148,0.182,2.357,0.438,3.51,0.622c2.781,0.548,5.526,1.06,8.327,1.607
			c1.5,0.33,2.963,0.658,4.464,0.951c2.579,0.55,5.212,1.172,7.827,1.757c1.538,0.366,3.076,0.77,4.577,1.133
			c2.798,0.696,5.65,1.467,8.506,2.196c1.338,0.365,2.691,0.731,4.042,1.097c4.229,1.209,8.51,2.381,12.772,3.732
			C704.114,597.499,824.061,112.265,828.854,112.776z"/>
		
			<linearGradient id="SVGID_2_" gradientUnits="userSpaceOnUse" x1="567.7993" y1="663.7822" x2="394.8264" y2="718.5871" gradientTransform="matrix(1 0 0 1 99.5 -492.1602)">
			<stop  offset="0" style="stop-color:#8DC63F;stop-opacity:0.78"/>
			<stop  offset="0.1994" style="stop-color:#A1CD3A;stop-opacity:0.6245"/>
			<stop  offset="0.6054" style="stop-color:#D2DE26;stop-opacity:0.3078"/>
			<stop  offset="1" style="stop-color:#FFF200;stop-opacity:0"/>
		</linearGradient>
		<path fill="url(#SVGID_2_)" d="M787.45,112.776c0,0-157.414,62.167-136.504,196.64c0,0-84.306-227.743-162.724-207.214
			C488.226,102.202,521.487,46.107,787.45,112.776z"/>
		<path fill="#ED1C24" d="M97.381,353.984C-20.207,613.78,75.35,934.61,137.354,899.521
			c59.697-33.813,140.108-83.538,204.016-98.834c5.487-26.091,8.434-53.203,8.434-80.939
			C349.804,552.601,244.935,409.932,97.381,353.984z"/>
		
			<linearGradient id="SVGID_3_" gradientUnits="userSpaceOnUse" x1="77.9478" y1="1203.0439" x2="166.5858" y2="891.721" gradientTransform="matrix(1 0 0 1 99.5 -492.1602)">
			<stop  offset="0.0429" style="stop-color:#A12321"/>
			<stop  offset="0.1058" style="stop-color:#AC2322"/>
			<stop  offset="0.2827" style="stop-color:#C62124"/>
			<stop  offset="0.4758" style="stop-color:#D91F24"/>
			<stop  offset="0.6956" style="stop-color:#E71D24"/>
			<stop  offset="1" style="stop-color:#ED1C24"/>
		</linearGradient>
		<path fill="url(#SVGID_3_)" d="M107.896,383.331C2.92,615.281,88.194,901.788,143.611,870.468
			c53.277-30.148,125.105-74.606,182.169-88.222c4.923-23.345,7.502-47.53,7.502-72.303
			C333.319,560.688,239.646,433.277,107.896,383.331z"/>
		<g>
			
				<linearGradient id="SVGID_4_" gradientUnits="userSpaceOnUse" x1="268.9619" y1="1206.5186" x2="605.0371" y2="1206.5186" gradientTransform="matrix(1 0 0 1 99.5 -492.1602)">
				<stop  offset="0" style="stop-color:#C1D82F"/>
				<stop  offset="0.4123" style="stop-color:#BED42F"/>
				<stop  offset="0.5609" style="stop-color:#B4CB31"/>
				<stop  offset="0.6667" style="stop-color:#A5BE34"/>
				<stop  offset="0.7523" style="stop-color:#92AF36"/>
				<stop  offset="0.8256" style="stop-color:#7A9C37"/>
				<stop  offset="0.8905" style="stop-color:#5E8736"/>
				<stop  offset="0.9478" style="stop-color:#3D7234"/>
				<stop  offset="1" style="stop-color:#0A5C2F"/>
			</linearGradient>
			<path fill="url(#SVGID_4_)" d="M368.462,795.712c0,0,149.622-31.981,265.506,79.769l70.569-257.161l-20.84-59.938
				C683.697,558.382,413.288,497.349,368.462,795.712z"/>
		</g>
		<g>
			<path fill="#006838" d="M683.403,557.247c0,0-153.115-30.149-343.003,76.843c0,0,20.305,76.548,1.004,166.602
				c0,0-0.438-1.537,27.058-4.941C368.462,795.712,410.212,535.694,683.403,557.247z"/>
		</g>
		<g opacity="0.57">
			<g>
				<g>
					<path fill="#F7941E" d="M313.011,552.197c12.293,25.322,22.305,59.936,28.563,90.088c2.122,10.354,3.712,20.527,4.718,30.407
						c43.729-50.974,116.197-108.529,221.963-111.055c31.706-0.732,78.431-15.334,115.445-3.294
						C683.697,558.382,514.519,501.153,313.011,552.197z"/>
				</g>
			</g>
		</g>
	</g>
	<g id="BODY">
		<g>
			<path d="M1335.788,459.917c-59.317-99.164-171.87-196.312-252.554-248.418c-60.156-38.859-128.215-68.572-199.292-86.978
				c-0.037,0-0.095-0.035-0.095-0.035l0,0c-16.175-4.171-32.476-7.795-48.922-10.794c-2.509,0.329-6.002-0.915-6.002-0.915
				C715.473,145.086,671.401,229.539,660.131,321.09c-15.26,122.982,28.505,258.772,42.553,298.182L632.03,872.665
				c0.527,0.328,0.97,0.621,1.429,0.806c1.646,2.085,4.974,5.524,9.237,10.245c3.604,3.621,7.172,7.063,9.751,8.488
				c15.808,19.723,163.181,148.12-42.189,300.924c0,0-41.256,37.396-59.422,91.149c-8.802,25.979-12.221,55.729-2.93,86.978
				c55.455,126.679,245.874,58.875,273.686,54.702C1492.396,1239.23,1523.862,774.452,1335.788,459.917z"/>
			<g>
				<path opacity="0.4" fill="#414042" enable-background="new    " d="M1051.29,1054.85
					c-13.687,2.121-95.504,16.246-122.835-46.178c-13.98-47.203,46.214-81.78,46.214-81.78
					c73.364-54.595,62.46-110.651,47.971-141.021c-39.149-82.037-252.495-125.106-81.085-343.006
					c50.752-45.482,106.188-61.911,159.866-57.155c-30.774-32.529-63.632-60.376-97.151-82.001
					c-50.349-32.565-107.303-57.411-166.8-72.779l-0.069-0.073l0,0c-13.575-3.513-27.242-6.512-41.001-9.001
					c-2.087,0.258-5.053-0.804-5.053-0.804c-62.807,17.929-100.185,54.887-121.062,100.04
					c-15.223,122.982,28.542,258.772,42.556,298.182l-70.622,253.393c0.479,0.328,0.974,0.621,1.395,0.806
					c1.646,2.085,4.978,5.524,9.258,10.245c3.586,3.621,7.154,7.063,9.73,8.488c15.811,19.723,163.144,148.12-42.188,300.924
					c0,0-21.131,19.176-39.794,49.802c54.665,20.419,108.841,38.713,139.01,38.202c98.246-1.646,181.876-25.395,257.49-65.827
					c1.465,1.534,2.93,3.036,4.464,4.5c42.446,40.434,97.919,41.35,103.407,35.677c5.341-5.673-39.921-15.733-81.963-54.85
					c8.487-5.16,16.938-10.394,25.28-15.954c34.728,18.439,68.5,18.003,72.672,13.61c3.986-4.206-19.725-10.794-49.359-29.748
					c65.461-47.202,125.943-107.028,186.54-175.345c5.78-12.147,10.978-24.442,15.368-36.849
					C1204.46,996.633,1138.12,1030.735,1051.29,1054.85z"/>
				<path d="M1138.854,392.442c-12.328-3.331-24.812-5.637-37.433-6.733c11.38,11.892,22.356,24.443,32.968,37.579
					c105.711,130.483,175.272,316.988,132.201,490.429c-3.548,14.345-7.865,28.578-13.062,42.666
					c10.83-8.781,20.815-17.93,30.005-27.333C1330.625,739.251,1254.515,535.22,1138.854,392.442z"/>
			</g>
		</g>
	</g>
	<g id="WINS">
		<path fill="#414042" d="M592.311,882.979c-5.104,2.931-14.232,7.395-19.115,10.319
			c-321.217,192.982-155.896,393.611-70.695,482.675c30.313,31.76,56.203,50.021,56.203,50.021
			c-133.432-137.912,74.682-273.594,74.682-273.594C780.371,1023.527,592.311,882.979,592.311,882.979z"/>
		<g>
			<g>
				<path fill="#333333" d="M680.057,1043.726c-1.685,1.063-3.073,4.136-4.444,8.563c0.146,13.609-1.609,27.332-6.42,39.921
					c-2.271,5.854-5.692,11.345-9.919,16.429c7.265-6.221,13.229-13.43,16.375-21.588
					C680.768,1073.475,681.557,1058.142,680.057,1043.726z"/>
				<path fill="#333333" d="M652.027,1021.99c-1.83,1.063-3.263,4.392-4.756,9.146c0.16,14.563-1.725,29.272-6.883,42.735
					c-2.415,6.295-6.107,12.149-10.646,17.64c7.794-6.695,14.161-14.345,17.529-23.127
					C652.814,1053.824,653.689,1037.432,652.027,1021.99z"/>
				<path fill="#333333" d="M675.609,1052.251c-3.896,12.076-8.288,34.03-22.561,50.787c-5.287,6.186-11.473,11.124-17.729,15.188
					c-5.688,5.487-11.945,10.171-18.202,14.123c13.062-5.156,29.601-13.063,42.149-23.747c4.228-5.123,7.647-10.572,9.918-16.43
					C674,1079.621,675.755,1065.863,675.609,1052.251z"/>
				<path fill="#1A1A1A" d="M674.749,1038.018c-8.03,4.794-9.403,45.595-33.771,74.17c-1.795,2.159-3.698,4.136-5.655,6.038
					c-5.688,5.488-11.945,10.171-18.202,14.123c-8.928,5.563-17.876,9.81-25.341,13.247c-6.975,5.779-12.204,9.188-12.204,9.188
					c18.883-6.262,58.969-21.406,79.658-46.146c4.226-5.122,7.632-10.575,9.919-16.429c4.794-12.589,6.603-26.313,6.419-39.921
					C675.534,1047.493,675.225,1042.701,674.749,1038.018z"/>
			</g>
			<path fill="#414042" d="M640.646,1091.184c8.013-21.037,9.259-44.604,6.896-66.89c-9.935,5.818-11.653,56.278-41.712,91.589
				c-18.131,21.332-52.563,40.873-70.363,49.105c-8.653,7.135-15.06,11.306-15.06,11.306
				C548.511,1167.074,624.234,1133.996,640.646,1091.184z"/>
		</g>
	</g>
	<g id="ORANGE_EYE_PART">
		<path fill="#F15A29" d="M982.352,479.675c-156.719,199.128,38.239,238.499,74.063,313.513
			c13.283,27.736,23.198,78.965-43.836,128.873c0,0-55.032,31.613-42.227,74.72c24.95,57.011,99.744,44.093,112.262,42.229
			c96.854-26.933,171.869-78.708,218.338-126.276c43.033-173.479-32.604-348.677-138.315-479.196
			C1103.431,417.433,1039.616,428.337,982.352,479.675z"/>
		
			<linearGradient id="SVGID_5_" gradientUnits="userSpaceOnUse" x1="830.3955" y1="1216.0068" x2="1282.4199" y2="1216.0068" gradientTransform="matrix(1 0 0 1 99.5 -492.1602)">
			<stop  offset="0" style="stop-color:#F7941E"/>
			<stop  offset="1" style="stop-color:#F9ED32"/>
		</linearGradient>
		<path fill="url(#SVGID_5_)" d="M989.999,469.393c-156.646,199.129,38.272,238.499,74.134,313.514
			c13.245,27.809,23.197,79.001-43.835,128.911c0,0-55.032,31.612-42.228,74.681c24.957,57.011,99.748,44.129,112.261,42.3
			C1665.984,868.527,1256.751,230.234,989.999,469.393z"/>
		
			<linearGradient id="SVGID_6_" gradientUnits="userSpaceOnUse" x1="1262.6729" y1="1202.7803" x2="1307.3322" y2="1071.7096" gradientTransform="matrix(0.9976 -0.0699 0.0699 0.9976 -3.5452 -391.4871)">
			<stop  offset="0" style="stop-color:#F9ED32"/>
			<stop  offset="1" style="stop-color:#F7941E"/>
		</linearGradient>
		<path fill="url(#SVGID_6_)" d="M1350.896,717.042c14.123,19.979,1.573,76.549,6.73,69.048
			c29.236-42.704,26.273-124.521-13.5-183.396c0,0,3.912,59.205-44.534,117.055C1299.596,719.787,1338.896,700.099,1350.896,717.042
			z"/>
	</g>
	<g id="EYE">
		
			<linearGradient id="SVGID_7_" gradientUnits="userSpaceOnUse" x1="938.4297" y1="1158.8662" x2="1197.1318" y2="1158.8662" gradientTransform="matrix(0.9891 0.1472 -0.1472 0.9891 320.3856 -693.1965)">
			<stop  offset="0" style="stop-color:#00AEEF"/>
			<stop  offset="0.1811" style="stop-color:#00ABED"/>
			<stop  offset="0.3137" style="stop-color:#00A7E9"/>
			<stop  offset="0.4309" style="stop-color:#009FE3"/>
			<stop  offset="0.5391" style="stop-color:#0095DA"/>
			<stop  offset="0.6412" style="stop-color:#0088CE"/>
			<stop  offset="0.7388" style="stop-color:#0077C0"/>
			<stop  offset="0.8328" style="stop-color:#0064B1"/>
			<stop  offset="0.9215" style="stop-color:#074DA1"/>
			<stop  offset="1" style="stop-color:#2E3192"/>
		</linearGradient>
		<path fill="url(#SVGID_7_)" d="M1333.882,629.259c-12.255,82.292-79.476,140.546-150.132,130.007
			c-70.657-10.537-118.007-85.769-105.748-168.098c12.221-82.294,79.438-140.51,150.098-130.009
			C1298.757,471.661,1346.104,546.892,1333.882,629.259z"/>
		<g>
			<g>
				<g>
					<path fill="#FFFFFF" d="M1312.146,589.155c-15.146,46.943-59.135,74.792-112.555,57.521
						c-46.947-15.185-72.671-65.568-57.521-112.553c15.222-46.948,65.573-72.709,112.59-57.521
						C1301.683,491.785,1327.332,542.173,1312.146,589.155z"/>
				</g>
			</g>
			<g>
				<path fill="#FFFFFF" d="M1149.243,547.331c-1.063,3.331-1.388,6.697-1.063,9.989c0.404-4.244,1.063-8.488,2.161-12.733
					C1149.903,545.464,1149.502,546.379,1149.243,547.331z"/>
			</g>
		</g>
		<path d="M1227.256,482.455c43.766,0,79.258,35.458,79.258,79.221c0,43.764-35.49,79.256-79.258,79.256
			c-43.761,0-79.254-35.492-79.254-79.256C1148.002,517.913,1183.495,482.455,1227.256,482.455z"/>
		<g>
			<path fill="#414042" d="M1227.256,489.298c39.958,0,72.378,32.42,72.378,72.377c0,39.995-32.42,72.414-72.378,72.414
				c-39.994,0-72.378-32.419-72.378-72.414C1154.878,521.718,1187.262,489.298,1227.256,489.298z"/>
		</g>
		<path fill="#FFFFFF" d="M1169.991,533.939c12.88,0,23.309,10.428,23.309,23.307c0,12.844-10.429,23.271-23.309,23.271
			c-12.878,0-23.313-10.429-23.313-23.271C1146.681,544.367,1157.113,533.939,1169.991,533.939z"/>
		<path fill="#FFFFFF" d="M1176.322,583.813c9.146,0,16.608,7.431,16.608,16.576c0,9.186-7.465,16.611-16.608,16.611
			c-9.148,0-16.613-7.428-16.613-16.611C1159.709,591.241,1167.174,583.813,1176.322,583.813z"/>
		<path fill="#FFFFFF" d="M1199.666,568.225c5.526,0,10.027,4.466,10.027,9.988c0,5.526-4.501,9.99-10.027,9.99
			c-5.525,0-10.027-4.464-10.027-9.99C1189.639,572.688,1194.141,568.225,1199.666,568.225z"/>
		<g opacity="0.15">
			<path fill="#D1D3D4" d="M1295.023,546.49c0,0-12.149-17.967-30.737-25.285c-34.799-13.612-86.463-11.746-84.017,61.876
				c0,0,2.415,49.764,44.751,62.937c0,0,34.653,9-14.159,48.851c0,0-11.015,13.905,6.439,10.246
				C1217.304,705.112,1368.243,671.044,1295.023,546.49z"/>
		</g>
		<path opacity="0.4" enable-background="new    " d="M1297.146,556.224c2.378,24.626-11.054,46.067-14.896,46.473
			c-3.844,0.364,13.134-19.688,10.687-44.313c-2.453-24.552-19.538-44.787-15.698-45.188
			C1281.118,512.825,1294.656,531.634,1297.146,556.224z"/>
	</g>
</g>
</svg>
