<?xml version="1.0" encoding="utf-8"?>
<!-- Generator: Adobe Illustrator 16.0.0, SVG Export Plug-In . SVG Version: 6.00 Build 0)  -->
<!DOCTYPE svg PUBLIC "-//W3C//DTD SVG 1.1//EN" "http://www.w3.org/Graphics/SVG/1.1/DTD/svg11.dtd">
<svg version="1.1" id="Layer_1" xmlns="http://www.w3.org/2000/svg" xmlns:xlink="http://www.w3.org/1999/xlink" x="0px" y="0px"
	 width="1756.119px" height="1685.15px" viewBox="0 0 1756.119 1685.15" enable-background="new 0 0 1756.119 1685.15"
	 xml:space="preserve">
<g>
	<g>
		<g id="OUTLINE">
			<path d="M70.174,905.96C-46.278,664.605,6.523,437.595,97.197,289.803C238.638,59.279,459.777,11.234,627.527,34.544
				c81.729,11.343,326.647,89.209,401.99,144.863c189.979,140.364,411.211,402.393,379.375,590.982
				c-20.78,122.909-41.053,272.312-135.164,381.57c-134.217,155.845-346.081,241.355-503.111,267.334
				c-63.795,10.54-147.387-19.024-218.632-36.625l15.734,56.351c0,0-224.286-93.125-202.185-332.906
				c0,0,21.297-171.429,207.581-235.354c0,0-140.511-163.926-404.695,39.885C168.347,910.644,95.203,957.81,70.174,905.96z"/>
			<g id="HEAD_FEATHERS_1_">
				<path d="M852.983,107.359c-16.154,23.163-23.31,46.07-29.273,41.934c-5.943-4.134,2.324-26.309,18.481-49.434
					c16.153-23.162,54.172-38.384,60.174-34.213C938.884,91.187,872.652,79.223,852.983,107.359z"/>
				<path d="M862.608,110.287c-25.322,12.479-42.594,29.127-45.866,22.614c-3.187-6.514,14.726-21.917,40.028-34.432
					c25.322-12.478,65.976-7.502,69.192-0.989C945.725,137.438,893.455,95.103,862.608,110.287z"/>
				<path d="M843.361,44.899c13.961-24.516,31.578-40.835,25.247-44.421c-6.329-3.586-22.742,13.356-36.72,37.945
					c-13.938,24.553-11.397,65.425-5.03,69.01C865.609,129.499,826.418,74.832,843.361,44.899z"/>
			</g>
			<g id="TAIL_2_">
				<path fill="#414042" d="M791.714,1544.656c-25.247-42.225-34.907-83.022-45.776-76.511c-10.902,6.514,0.75,46.031,26.07,88.331
					c25.249,42.227,89.596,73.401,100.461,66.853C939.138,1583.408,822.521,1596.067,791.714,1544.656z"/>
				<path d="M783.735,1491.416c-47.989-11.013-39.263-14.854-42.117-2.522c-2.834,12.404-2.174,41.75,45.832,52.838
					c47.986,11.086,115.022-13.648,117.879-26.054C922.746,1439.972,842.117,1504.919,783.735,1491.416z"/>
				<path d="M770.929,1601.265c21.242,44.459,49.947,74.938,38.476,80.464c-11.47,5.453-37.964-26.09-59.238-70.549
					c-21.241-44.421-11.729-115.226-0.293-120.748C820.053,1456.912,745.079,1547.255,770.929,1601.265z"/>
				<path fill="#414042" d="M868.792,1547.108c33.958-5.012,63.103-16.063,57.025,5.891c-1.241,4.502-3.878,10.283-8.269,17.895
					c-6.424,10.941-77.757,14.637-120.293-10.209c-42.519-24.844-71.793-53.86-65.407-64.766
					c6.44-10.978,34.471,20.125,77.022,44.971C826.163,1550.914,848.336,1550.146,868.792,1547.108z"/>
				<path fill="#333333" d="M872.871,1620.221c0,0,17.29-10.103,16.614-14.713c0,0,2.359-8.671-26.313-16.393
					c0,0,21.772,8.16,18.774,15.516C881.982,1604.669,879.658,1611.473,872.871,1620.221z"/>
				<path fill="#333333" d="M805.729,1679.532c0,0,15.223,3.771-25.709-52.398C739.114,1571.005,816.449,1680.888,805.729,1679.532z
					"/>
			</g>
		</g>
		<g id="TAIL">
			<g>
				<path fill="#ED1C24" d="M1476.808,397.784c3.001-6.879,5.38-14.052,7.064-21.589c0,0,9.767-32.382,9.583-58.729
					c-0.071-6.988-0.766-13.54-2.523-18.917c-1.097-3.367-5.525-23.125-11.345-39.08c-6.328-17.418-14.048-31.249-15.694-35.858
					c-2.015-5.71-2.893-10.466-2.893-14.418c0.514-0.403,0.953-0.695,1.463-0.988c-0.363-1.463-0.622-2.817-0.803-4.134
					c9.622-36.227,128.067,37.395,82.694,146.802c-5.966,14.38-14.709,29.345-26.859,44.751c0,0-31.538,40.068-92.281,76.768
					c-14.27,8.637-30.112,17.088-47.566,24.771C1377.684,497.202,1449.804,461.854,1476.808,397.784z"/>
			</g>
			<g>
				<path fill="#ED1C24" d="M1415.003,461.269c6.993-16.867,18.592-53.606,4.904-86.026c0,0-10.428-30.443-23.636-39.921
					c-1.721-1.206-10.686-9.221-19.027-14.892c-9.146-6.22-17.747-10.172-20.053-11.856c-3.771-2.635-6.148-5.159-7.391-7.573
					c-12.845-24.442,97.698-30.409,93.084,71.938c0,0-1.133,27.224-15.293,63.12c-3.771,9.478-8.451,19.54-14.16,29.931
					C1413.945,464.453,1414.456,462.879,1415.003,461.269z"/>
			</g>
			<g>
				<path fill="#ED1C24" d="M1442.961,423.874c7.682-18.625,13.208-41.642,8.417-64.913c0,0-4.905-36.81-17.637-50.568
					c-1.646-1.792-9.99-12.881-18.114-21.224c-8.854-9.112-17.672-15.551-19.979-17.966c-3.364-3.513-5.45-6.696-6.44-9.477
					c-11.16-31.65,117.53-13.757,88.733,101.87c0,0-1.902,7.575-6.729,19.759c-6.624,16.43-18.59,41.311-38.823,67.546
					C1436.189,441.546,1439.96,433.094,1442.961,423.874z"/>
			</g>
		</g>
		<g id="PEAK">
			
				<linearGradient id="SVGID_1_" gradientUnits="userSpaceOnUse" x1="1279.3574" y1="929.7461" x2="699.4499" y2="1580.8721" gradientTransform="matrix(1 0 0 1 -382.5 -1029.8105)">
				<stop  offset="0" style="stop-color:#8DC63F"/>
				<stop  offset="0.1994" style="stop-color:#A1CD3A"/>
				<stop  offset="0.6054" style="stop-color:#D2DE26"/>
				<stop  offset="1" style="stop-color:#FFF200"/>
			</linearGradient>
			<path fill="url(#SVGID_1_)" d="M828.854,112.776c-74.646-24.003-267.721-79.513-394.179-43.361
				c-69.615,19.905-127.922,48.703-176.441,83.794c-22.449,16.174-42.758,33.736-61.183,52.361
				c-23.012,23.271-43.029,48.228-60.3,74.317c-15.697,23.711-29.072,48.41-40.508,73.657
				c147.575,55.949,252.444,198.58,252.444,365.729c0,27.771-2.929,54.849-8.434,80.975c10.19-2.415,20.013-3.951,29.216-4.501
				c2.672-33.333,13.868-75.157,36.775-113.102c16.632-27.555,39.442-53.094,69.687-71.864
				c20.748-12.882,44.99-22.614,73.146-27.628c0.075,0,0.146-0.037,0.222-0.037c1.425-0.255,2.926-0.475,4.334-0.694
				c1.575-0.219,3.076-0.512,4.647-0.731c1.575-0.219,3.108-0.402,4.646-0.585c1.538-0.184,3.109-0.367,4.687-0.55
				c1.571-0.146,3.108-0.292,4.72-0.438c1.646-0.11,3.348-0.22,4.994-0.33c1.57-0.109,3.07-0.182,4.646-0.255
				c2.249-0.073,4.48-0.146,6.769-0.184c2.029-0.036,4.063-0.036,6.109-0.036c2.214,0,4.432,0,6.643,0.073
				c1.537,0.035,3.075,0.108,4.575,0.146c1.977,0.073,4.005,0.182,6.019,0.292c1.573,0.073,3.146,0.183,4.721,0.328
				c2.105,0.146,4.207,0.33,6.294,0.586c1.575,0.146,3.109,0.292,4.647,0.439c2.471,0.256,5.031,0.586,7.573,0.915
				c1.208,0.184,2.361,0.329,3.567,0.512c3.696,0.512,7.445,1.099,11.198,1.758c1.149,0.182,2.357,0.438,3.51,0.622
				c2.781,0.548,5.526,1.06,8.327,1.609c1.5,0.33,2.963,0.658,4.464,0.951c2.579,0.55,5.212,1.172,7.827,1.757
				c1.538,0.366,3.076,0.768,4.577,1.133c2.798,0.696,5.651,1.465,8.506,2.196c1.338,0.365,2.691,0.731,4.042,1.097
				c4.229,1.209,8.51,2.379,12.772,3.732C704.114,597.499,824.061,112.265,828.854,112.776z"/>
			
				<linearGradient id="SVGID_2_" gradientUnits="userSpaceOnUse" x1="1049.7969" y1="1201.4326" x2="876.8239" y2="1256.2375" gradientTransform="matrix(1 0 0 1 -382.5 -1029.8105)">
				<stop  offset="0" style="stop-color:#8DC63F;stop-opacity:0.78"/>
				<stop  offset="0.1994" style="stop-color:#A1CD3A;stop-opacity:0.6245"/>
				<stop  offset="0.6054" style="stop-color:#D2DE26;stop-opacity:0.3078"/>
				<stop  offset="1" style="stop-color:#FFF200;stop-opacity:0"/>
			</linearGradient>
			<path fill="url(#SVGID_2_)" d="M787.45,112.776c0,0-157.414,62.167-136.504,196.64c0,0-84.304-227.743-162.722-207.214
				C488.226,102.202,521.487,46.107,787.45,112.776z"/>
			<path fill="#ED1C24" d="M97.381,353.984C-20.207,613.78,75.35,934.61,137.354,899.521
				c59.697-33.812,140.108-83.538,204.016-98.833c5.487-26.09,8.434-53.204,8.434-80.94
				C349.804,552.601,244.935,409.932,97.381,353.984z"/>
			
				<linearGradient id="SVGID_3_" gradientUnits="userSpaceOnUse" x1="559.9473" y1="1740.6934" x2="648.585" y2="1429.3715" gradientTransform="matrix(1 0 0 1 -382.5 -1029.8105)">
				<stop  offset="0.0429" style="stop-color:#A12321"/>
				<stop  offset="0.1058" style="stop-color:#AC2322"/>
				<stop  offset="0.2827" style="stop-color:#C62124"/>
				<stop  offset="0.4758" style="stop-color:#D91F24"/>
				<stop  offset="0.6956" style="stop-color:#E71D24"/>
				<stop  offset="1" style="stop-color:#ED1C24"/>
			</linearGradient>
			<path fill="url(#SVGID_3_)" d="M107.896,383.331C2.92,615.281,88.194,901.788,143.611,870.468
				c53.277-30.15,125.105-74.608,182.169-88.222c4.923-23.345,7.502-47.53,7.502-72.303
				C333.319,560.687,239.646,433.277,107.896,383.331z"/>
			<g>
				
					<linearGradient id="SVGID_4_" gradientUnits="userSpaceOnUse" x1="750.9619" y1="1744.1699" x2="1087.0371" y2="1744.1699" gradientTransform="matrix(1 0 0 1 -382.5 -1029.8105)">
					<stop  offset="0" style="stop-color:#C1D82F"/>
					<stop  offset="0.4123" style="stop-color:#BED42F"/>
					<stop  offset="0.5609" style="stop-color:#B4CB31"/>
					<stop  offset="0.6667" style="stop-color:#A5BE34"/>
					<stop  offset="0.7523" style="stop-color:#92AF36"/>
					<stop  offset="0.8256" style="stop-color:#7A9C37"/>
					<stop  offset="0.8905" style="stop-color:#5E8736"/>
					<stop  offset="0.9478" style="stop-color:#3D7234"/>
					<stop  offset="1" style="stop-color:#0A5C2F"/>
				</linearGradient>
				<path fill="url(#SVGID_4_)" d="M368.462,795.712c0,0,149.622-31.981,265.506,79.769l70.569-257.163l-20.84-59.936
					C683.697,558.382,413.288,497.349,368.462,795.712z"/>
			</g>
			<g>
				<path fill="#006838" d="M683.403,557.247c0,0-153.115-30.149-343.003,76.843c0,0,20.305,76.548,1.004,166.6
					c0,0-0.438-1.537,27.058-4.941C368.462,795.712,410.212,535.694,683.403,557.247z"/>
			</g>
			<g opacity="0.57">
				<g>
					
						<image overflow="visible" opacity="0.75" enable-background="new    " width="66" height="41" xlink:href="E0072F11.png"  transform="matrix(8.9926 0 0 8.9925 223.7813 441.8037)">
					</image>
					<g>
						<path fill="#F7941E" d="M313.011,552.197c12.293,25.322,22.304,59.936,28.562,90.088c2.122,10.354,3.712,20.527,4.718,30.407
							c43.729-50.972,116.197-108.529,221.963-111.053c31.706-0.734,78.431-15.334,115.445-3.294
							C683.697,558.382,514.519,501.153,313.011,552.197z"/>
					</g>
				</g>
			</g>
		</g>
		<g id="BODY">
			<g>
				<path d="M1335.788,459.917c-59.317-99.164-171.87-196.312-252.554-248.418c-60.156-38.859-128.215-68.572-199.292-86.978
					c-0.037,0-0.093-0.035-0.093-0.035l0,0c-16.175-4.171-32.476-7.795-48.922-10.794c-2.509,0.329-6.002-0.915-6.002-0.915
					c-113.452,32.309-157.524,116.762-168.794,208.313c-15.26,122.982,28.505,258.772,42.553,298.181l-70.655,253.393
					c0.529,0.328,0.97,0.621,1.429,0.806c1.646,2.085,4.974,5.524,9.237,10.245c3.605,3.621,7.172,7.063,9.751,8.488
					c15.808,19.723,163.181,148.12-42.189,300.924c0,0-41.256,37.397-59.422,91.149c-8.802,25.979-12.221,55.729-2.93,86.978
					c55.455,126.679,245.874,58.875,273.686,54.702C1492.396,1239.231,1523.862,774.452,1335.788,459.917z"/>
				<g>
					<path opacity="0.4" fill="#414042" enable-background="new    " d="M1051.29,1054.85
						c-13.687,2.121-95.504,16.246-122.835-46.178c-13.98-47.203,46.214-81.78,46.214-81.78
						c73.364-54.595,62.46-110.653,47.971-141.022c-39.151-82.037-252.496-125.106-81.085-343.006
						c50.752-45.482,106.188-61.911,159.866-57.155c-30.774-32.529-63.632-60.376-97.151-82.001
						c-50.349-32.565-107.303-57.411-166.8-72.779l-0.071-0.073l0,0c-13.575-3.513-27.242-6.512-41.001-9.001
						c-2.087,0.258-5.051-0.804-5.051-0.804c-62.807,17.929-100.185,54.887-121.062,100.04
						c-15.222,122.982,28.542,258.772,42.556,298.181l-70.622,253.392c0.478,0.328,0.972,0.621,1.393,0.806
						c1.646,2.085,4.978,5.524,9.258,10.245c3.586,3.621,7.154,7.063,9.732,8.488c15.809,19.723,163.142,148.12-42.188,300.924
						c0,0-21.131,19.176-39.794,49.802c54.665,20.419,108.841,38.713,139.01,38.202c98.246-1.648,181.876-25.395,257.49-65.827
						c1.465,1.534,2.93,3.036,4.464,4.5c42.446,40.432,97.919,41.348,103.407,35.676c5.341-5.672-39.921-15.734-81.963-54.849
						c8.488-5.16,16.939-10.394,25.281-15.954c34.727,18.439,68.5,18.003,72.671,13.61c3.988-4.206-19.723-10.794-49.359-29.748
						c65.461-47.202,125.943-107.028,186.54-175.345c5.78-12.147,10.977-24.442,15.368-36.847
						C1204.46,996.633,1138.12,1030.735,1051.29,1054.85z"/>
					<path d="M1138.854,392.442c-12.33-3.331-24.812-5.636-37.433-6.733c11.38,11.892,22.356,24.443,32.968,37.579
						c105.711,130.483,175.272,316.988,132.201,490.429c-3.548,14.345-7.865,28.578-13.062,42.666
						c10.83-8.781,20.817-17.93,30.005-27.333C1330.625,739.251,1254.515,535.22,1138.854,392.442z"/>
				</g>
			</g>
		</g>
		<g id="WINS">
			<path fill="#414042" d="M592.31,882.979c-5.104,2.929-14.233,7.393-19.116,10.319
				c-321.217,192.982-155.896,393.611-70.695,482.675c30.314,31.76,56.203,50.021,56.203,50.021
				c-133.43-137.912,74.682-273.593,74.682-273.593C780.371,1023.527,592.31,882.979,592.31,882.979z"/>
			<g>
				<g>
					<path fill="#333333" d="M680.057,1043.726c-1.685,1.063-3.075,4.134-4.446,8.563c0.146,13.609-1.609,27.332-6.42,39.921
						c-2.271,5.854-5.692,11.345-9.919,16.429c7.265-6.221,13.229-13.43,16.375-21.588
						C680.768,1073.475,681.557,1058.142,680.057,1043.726z"/>
					<path fill="#333333" d="M652.027,1021.99c-1.83,1.063-3.261,4.392-4.756,9.148c0.162,14.563-1.723,29.272-6.881,42.735
						c-2.415,6.295-6.109,12.15-10.648,17.64c7.794-6.696,14.161-14.345,17.529-23.127
						C652.814,1053.824,653.69,1037.432,652.027,1021.99z"/>
					<path fill="#333333" d="M675.609,1052.251c-3.896,12.076-8.288,34.03-22.559,50.787c-5.287,6.186-11.473,11.124-17.729,15.188
						c-5.688,5.487-11.945,10.171-18.202,14.123c13.062-5.158,29.601-13.063,42.151-23.747c4.226-5.123,7.647-10.574,9.918-16.43
						C674,1079.621,675.755,1065.863,675.609,1052.251z"/>
					<path fill="#1A1A1A" d="M674.749,1038.018c-8.03,4.794-9.403,45.593-33.771,74.17c-1.794,2.159-3.698,4.134-5.655,6.038
						c-5.688,5.488-11.945,10.171-18.202,14.123c-8.928,5.563-17.876,9.808-25.341,13.247c-6.973,5.779-12.204,9.186-12.204,9.186
						c18.883-6.26,58.969-21.406,79.658-46.144c4.226-5.122,7.632-10.575,9.919-16.429c4.794-12.589,6.603-26.312,6.419-39.921
						C675.534,1047.493,675.225,1042.701,674.749,1038.018z"/>
				</g>
				<path fill="#414042" d="M640.646,1091.184c8.013-21.038,9.259-44.604,6.896-66.89c-9.934,5.818-11.653,56.278-41.712,91.589
					c-18.131,21.332-52.563,40.873-70.363,49.105c-8.655,7.135-15.06,11.306-15.06,11.306
					C548.511,1167.074,624.234,1133.996,640.646,1091.184z"/>
			</g>
		</g>
		<g id="ORANGE_EYE_PART">
			<path fill="#F15A29" d="M982.351,479.675c-156.718,199.128,38.24,238.499,74.063,313.513
				c13.283,27.736,23.198,78.963-43.836,128.873c0,0-55.032,31.613-42.227,74.718c24.952,57.011,99.746,44.093,112.262,42.229
				c96.856-26.933,171.869-78.708,218.338-126.277c43.033-173.478-32.603-348.676-138.315-479.197
				C1103.431,417.433,1039.616,428.337,982.351,479.675z"/>
			
				<linearGradient id="SVGID_5_" gradientUnits="userSpaceOnUse" x1="1312.3955" y1="1753.6553" x2="1764.4199" y2="1753.6553" gradientTransform="matrix(1 0 0 1 -382.5 -1029.8105)">
				<stop  offset="0" style="stop-color:#F7941E"/>
				<stop  offset="1" style="stop-color:#F9ED32"/>
			</linearGradient>
			<path fill="url(#SVGID_5_)" d="M989.999,469.393c-156.646,199.128,38.272,238.499,74.134,313.512
				c13.245,27.809,23.197,79.001-43.835,128.911c0,0-55.032,31.614-42.228,74.681c24.957,57.011,99.748,44.129,112.261,42.3
				C1665.984,868.527,1256.751,230.234,989.999,469.393z"/>
			
				<linearGradient id="SVGID_6_" gradientUnits="userSpaceOnUse" x1="1673.293" y1="1811.7256" x2="1717.9524" y2="1680.6545" gradientTransform="matrix(0.9976 -0.0699 0.0699 0.9976 -455.745 -970.2681)">
				<stop  offset="0" style="stop-color:#F9ED32"/>
				<stop  offset="1" style="stop-color:#F7941E"/>
			</linearGradient>
			<path fill="url(#SVGID_6_)" d="M1350.896,717.042c14.123,19.979,1.575,76.549,6.732,69.048
				c29.236-42.704,26.273-124.521-13.5-183.396c0,0,3.912,59.205-44.534,117.055
				C1299.596,719.787,1338.896,700.099,1350.896,717.042z"/>
		</g>
		<g id="EYE">
			
				<linearGradient id="SVGID_7_" gradientUnits="userSpaceOnUse" x1="1553.7383" y1="1530.4922" x2="1812.4395" y2="1530.4922" gradientTransform="matrix(0.9891 0.1472 -0.1472 0.9891 -233.5127 -1151.3442)">
				<stop  offset="0" style="stop-color:#00AEEF"/>
				<stop  offset="0.1811" style="stop-color:#00ABED"/>
				<stop  offset="0.3137" style="stop-color:#00A7E9"/>
				<stop  offset="0.4309" style="stop-color:#009FE3"/>
				<stop  offset="0.5391" style="stop-color:#0095DA"/>
				<stop  offset="0.6412" style="stop-color:#0088CE"/>
				<stop  offset="0.7388" style="stop-color:#0077C0"/>
				<stop  offset="0.8328" style="stop-color:#0064B1"/>
				<stop  offset="0.9215" style="stop-color:#074DA1"/>
				<stop  offset="1" style="stop-color:#2E3192"/>
			</linearGradient>
			<path fill="url(#SVGID_7_)" d="M1333.882,629.259c-12.255,82.292-79.476,140.546-150.132,130.007
				c-70.657-10.537-118.007-85.769-105.748-168.098c12.221-82.294,79.438-140.51,150.098-130.009
				C1298.757,471.661,1346.104,546.892,1333.882,629.259z"/>
			<g>
				<g>
					
						<image overflow="visible" opacity="0.75" enable-background="new    " width="45" height="45" xlink:href="E0072F13.png"  transform="matrix(8.9926 0 0 8.9927 1049.6797 413.5537)">
					</image>
					<g>
						<path fill="#FFFFFF" d="M1312.146,589.155c-15.146,46.945-59.133,74.792-112.553,57.521
							c-46.949-15.185-72.671-65.57-57.522-112.553c15.222-46.948,65.573-72.709,112.59-57.522
							C1301.683,491.785,1327.332,542.173,1312.146,589.155z"/>
					</g>
				</g>
				<g>
					<path fill="#FFFFFF" d="M1149.243,547.331c-1.063,3.331-1.388,6.697-1.063,9.989c0.404-4.244,1.063-8.488,2.161-12.733
						C1149.903,545.464,1149.502,546.379,1149.243,547.331z"/>
				</g>
			</g>
			<path d="M1227.256,482.455c43.766,0,79.258,35.458,79.258,79.221c0,43.763-35.492,79.256-79.258,79.256
				c-43.761,0-79.254-35.493-79.254-79.256C1148.002,517.913,1183.495,482.455,1227.256,482.455z"/>
			<g>
				<path fill="#414042" d="M1227.256,489.298c39.958,0,72.378,32.42,72.378,72.377c0,39.995-32.42,72.414-72.378,72.414
					c-39.994,0-72.378-32.419-72.378-72.414C1154.878,521.718,1187.262,489.298,1227.256,489.298z"/>
			</g>
			<path fill="#FFFFFF" d="M1169.991,533.939c12.88,0,23.309,10.428,23.309,23.307c0,12.844-10.429,23.272-23.309,23.272
				c-12.878,0-23.312-10.429-23.312-23.272C1146.681,544.367,1157.113,533.939,1169.991,533.939z"/>
			<path fill="#FFFFFF" d="M1176.322,583.813c9.146,0,16.61,7.429,16.61,16.576c0,9.184-7.465,16.611-16.61,16.611
				c-9.148,0-16.613-7.428-16.613-16.611C1159.709,591.241,1167.174,583.813,1176.322,583.813z"/>
			<path fill="#FFFFFF" d="M1199.666,568.225c5.526,0,10.027,4.464,10.027,9.988c0,5.526-4.501,9.99-10.027,9.99
				c-5.525,0-10.027-4.464-10.027-9.99C1189.639,572.688,1194.141,568.225,1199.666,568.225z"/>
			<g opacity="0.15">
				<path fill="#D1D3D4" d="M1295.023,546.49c0,0-12.149-17.967-30.737-25.285c-34.799-13.612-86.463-11.746-84.015,61.876
					c0,0,2.415,49.764,44.751,62.937c0,0,34.653,9-14.161,48.849c0,0-11.013,13.905,6.441,10.246
					C1217.304,705.112,1368.243,671.044,1295.023,546.49z"/>
			</g>
			<path opacity="0.4" enable-background="new    " d="M1297.146,556.224c2.378,24.626-11.052,46.067-14.894,46.471
				c-3.844,0.366,13.134-19.686,10.686-44.312c-2.454-24.552-19.539-44.787-15.699-45.19
				C1281.118,512.825,1294.656,531.634,1297.146,556.224z"/>
		</g>
	</g>
</g>
</svg>
