<?xml version="1.0" encoding="utf-8"?>
<!-- Generator: Adobe Illustrator 16.0.0, SVG Export Plug-In . SVG Version: 6.00 Build 0)  -->
<!DOCTYPE svg PUBLIC "-//W3C//DTD SVG 1.1//EN" "http://www.w3.org/Graphics/SVG/1.1/DTD/svg11.dtd">
<svg version="1.1" id="Layer_1" xmlns="http://www.w3.org/2000/svg" xmlns:xlink="http://www.w3.org/1999/xlink" x="0px" y="0px"
	 width="1756.119px" height="1685.15px" viewBox="0 0 1756.119 1685.15" enable-background="new 0 0 1756.119 1685.15"
	 xml:space="preserve">
<g>
	<g id="Rama">
		<path fill="#8B5E3C" d="M739.294,1442.787l-326.428,70.841c0,0-95.136,0.55-56.807,130.741c0,0,8.893,58.289,108.291,27.368
			c99.361-30.846,314.022-120.566,329.722-131.652c15.661-11.125,536.481-240.625,727.23-279.959
			c53.058-10.904,362.982-81.158,174.867-83.866c-60.852-0.879-88.441,19.538-199.385,44.787
			c-123.165,28.065-339.234,82.257-388.596,86.608c-49.327,4.32-254.091,103.812-254.091,103.812L739.294,1442.787z"/>
		<path fill="#754C29" d="M900.644,1442.057l-359.323,98.979c0,0,691.424-227.377,712.209-229.828
			C1274.276,1308.791,900.644,1442.057,900.644,1442.057z"/>
		<path fill="#754C29" d="M440.933,1538.876c0,0-73.293-9.843-79.092,47.825c-5.815,57.63,36.756,74.83,79.092,66.082
			C483.269,1644.001,526.995,1527.753,440.933,1538.876z"/>
	</g>
	<g id="hojas">
		<path fill="#82A53C" d="M1432.825,1132.388c0,0-91.989,78.815-26.857,140.324
			C1405.968,1272.712,1518.741,1278.093,1432.825,1132.388z"/>
		<path fill="#C4D82E" d="M1367.327,1133.557c0,0-44.605,112.664,41.75,136.633
			C1409.077,1270.224,1511.276,1222.363,1367.327,1133.557z"/>
		<path fill="#9FBC2E" d="M1390.343,1161.109c0,0-54.263,77.756,7.208,111.641
			C1397.551,1272.75,1484.018,1254.674,1390.343,1161.109z"/>
	</g>
	<g id="hojas_1_">
		<path fill="#82A53C" d="M1633.124,1311.206c0,0,53.387-54.739,8.928-89.684C1642.127,1221.559,1570.919,1224.56,1633.124,1311.206
			z"/>
		<path fill="#C4D82E" d="M1674.252,1306.778c0,0,21.626-73.291-33.955-83.501
			C1640.297,1223.314,1578.749,1259.175,1674.252,1306.778z"/>
		<path fill="#9FBC2E" d="M1658.229,1290.717c0,0,29.638-51.924-10.871-69.635
			C1647.355,1221.082,1594.046,1237.292,1658.229,1290.717z"/>
	</g>
	<g id="PATA_IZQUIERDA">
		<g>
			<g>
				
					<radialGradient id="SVGID_1_" cx="1033.2256" cy="2577.5322" r="59.0125" gradientTransform="matrix(0.986 -0.1667 0.1667 0.986 -590.5371 -908.4055)" gradientUnits="userSpaceOnUse">
					<stop  offset="0" style="stop-color:#FBB040"/>
					<stop  offset="0.3148" style="stop-color:#FBAC3B"/>
					<stop  offset="0.6576" style="stop-color:#FAA32F"/>
					<stop  offset="1" style="stop-color:#F7941E"/>
				</radialGradient>
				<path fill="url(#SVGID_1_)" stroke="#F7941E" stroke-width="0.1957" stroke-miterlimit="10" d="M856.06,1399.867
					c-17.235-3.694-35.459-0.586-50.168,10.428c-28.104,20.93,26.968,17.638,49.308,47.568
					c12.916,17.345,12.021,41.935,14.453,55.545c1.775,9.953,5.251,14.125,17.053,5.307c28.063-20.969,32.748-62.205,10.482-92.136
					C886.558,1412.271,871.72,1403.232,856.06,1399.867z"/>
			</g>
		</g>
		<g>
			<g>
				
					<radialGradient id="SVGID_2_" cx="1208.4502" cy="2500.4678" r="59.0363" gradientTransform="matrix(1 0 0 1 -382.5 -1029.8105)" gradientUnits="userSpaceOnUse">
					<stop  offset="0" style="stop-color:#FBB040"/>
					<stop  offset="0.3148" style="stop-color:#FBAC3B"/>
					<stop  offset="0.6576" style="stop-color:#FAA32F"/>
					<stop  offset="1" style="stop-color:#F7941E"/>
				</radialGradient>
				<path fill="url(#SVGID_2_)" stroke="#F7941E" stroke-width="0.1957" stroke-miterlimit="10" d="M834.288,1410.296
					c-16.376-6.589-34.891-6.515-51.229,1.864c-31.214,15.992,23.694,21.884,40.688,55.182c9.864,19.284,4.887,43.321,4.996,57.19
					c0.074,10.101,2.8,14.783,15.953,8.016c31.212-15.954,42.719-55.876,25.704-89.101
					C862.279,1427.602,849.16,1416.261,834.288,1410.296z"/>
				<path opacity="0.6" fill="#FFFFFF" enable-background="new    " d="M905.785,1487.026c-2.817,9.696-8.635,16.576-12.97,15.296
					c-4.354-1.282,2.285-7.905,5.141-17.563c2.796-9.771,0.77-18.882,5.086-17.639
					C907.395,1468.438,908.622,1477.329,905.785,1487.026z"/>
			</g>
		</g>
		<g>
			<g>
				
					<radialGradient id="SVGID_3_" cx="1173.1514" cy="2503.6943" r="59.0302" gradientTransform="matrix(1 0 0 1 -382.5 -1029.8105)" gradientUnits="userSpaceOnUse">
					<stop  offset="0" style="stop-color:#FBB040"/>
					<stop  offset="0.3148" style="stop-color:#FBAC3B"/>
					<stop  offset="0.6576" style="stop-color:#FAA32F"/>
					<stop  offset="1" style="stop-color:#F7941E"/>
				</radialGradient>
				<path fill="url(#SVGID_3_)" stroke="#F7941E" stroke-width="0.1957" stroke-miterlimit="10" d="M798.995,1413.477
					c-16.374-6.511-34.892-6.477-51.229,1.939c-31.214,15.953,23.674,21.846,40.689,55.145c9.862,19.247,4.923,43.324,4.994,57.156
					c0.074,10.136,2.8,14.817,15.953,8.05c31.214-15.954,42.721-55.802,25.671-89.103
					C826.986,1430.823,813.867,1419.406,798.995,1413.477z"/>
				<path opacity="0.4" fill="#FFFFFF" enable-background="new    " d="M842.794,1476.122c0.97,18.554-4.994,33.922-13.267,34.36
					c-8.284,0.438-0.784-15.041-1.719-33.555c-0.985-18.554-10.081-33.188-1.774-33.593
					C834.359,1442.934,841.861,1457.571,842.794,1476.122z"/>
			</g>
		</g>
	</g>
	<g id="PATA_IZQUIERDA_1_">
		<g>
			<g>
				
					<radialGradient id="SVGID_4_" cx="1329.874" cy="2505.4736" r="45.2711" gradientTransform="matrix(0.986 -0.1667 0.1667 0.986 -590.5371 -908.4055)" gradientUnits="userSpaceOnUse">
					<stop  offset="0" style="stop-color:#FBB040"/>
					<stop  offset="0.3148" style="stop-color:#FBAC3B"/>
					<stop  offset="0.6576" style="stop-color:#FAA32F"/>
					<stop  offset="1" style="stop-color:#F7941E"/>
				</radialGradient>
				<path fill="url(#SVGID_4_)" stroke="#F7941E" stroke-width="0.1501" stroke-miterlimit="10" d="M1136.95,1293.605
					c-13.245-2.89-27.227-0.476-38.494,7.938c-21.517,16.103,20.711,13.576,37.834,36.521c9.919,13.245,9.221,32.09,11.126,42.628
					c1.316,7.61,3.95,10.794,13.062,4.025c21.552-16.102,25.139-47.681,8.052-70.657
					C1160.294,1303.083,1148.951,1296.168,1136.95,1293.605z"/>
			</g>
		</g>
		<g>
			<g>
				
					<radialGradient id="SVGID_5_" cx="1496.3467" cy="2377.6377" r="45.2543" gradientTransform="matrix(1 0 0 1 -382.5 -1029.8105)" gradientUnits="userSpaceOnUse">
					<stop  offset="0" style="stop-color:#FBB040"/>
					<stop  offset="0.3148" style="stop-color:#FBAC3B"/>
					<stop  offset="0.6576" style="stop-color:#FAA32F"/>
					<stop  offset="1" style="stop-color:#F7941E"/>
				</radialGradient>
				<path fill="url(#SVGID_5_)" stroke="#F7941E" stroke-width="0.1501" stroke-miterlimit="10" d="M1120.229,1301.511
					c-12.552-4.977-26.713-4.94-39.264,1.463c-23.929,12.222,18.147,16.797,31.176,42.264c7.611,14.782,3.809,33.297,3.879,43.909
					c0.074,7.721,2.162,11.306,12.223,6.11c23.932-12.26,32.714-42.812,19.686-68.242
					C1141.708,1314.828,1131.681,1306.12,1120.229,1301.511z"/>
				<path opacity="0.6" fill="#FFFFFF" enable-background="new    " d="M1175.077,1360.386c-2.194,7.429-6.658,12.696-9.988,11.709
					c-3.332-0.951,1.755-6.001,3.915-13.467c2.195-7.427,0.622-14.417,3.917-13.464
					C1176.285,1346.149,1177.201,1352.956,1175.077,1360.386z"/>
			</g>
		</g>
		<g>
			<g>
				
					<radialGradient id="SVGID_6_" cx="1469.2998" cy="2380.126" r="45.2463" gradientTransform="matrix(1 0 0 1 -382.5 -1029.8105)" gradientUnits="userSpaceOnUse">
					<stop  offset="0" style="stop-color:#FBB040"/>
					<stop  offset="0.3148" style="stop-color:#FBAC3B"/>
					<stop  offset="0.6576" style="stop-color:#FAA32F"/>
					<stop  offset="1" style="stop-color:#F7941E"/>
				</radialGradient>
				<path fill="url(#SVGID_6_)" stroke="#F7941E" stroke-width="0.1501" stroke-miterlimit="10" d="M1093.188,1304.033
					c-12.552-5.012-26.713-4.975-39.227,1.465c-24.005,12.224,18.077,16.761,31.104,42.265c7.609,14.745,3.804,33.223,3.911,43.835
					c0,7.721,2.162,11.344,12.188,6.146c23.893-12.221,32.785-42.883,19.688-68.277
					C1114.628,1317.279,1104.605,1308.571,1093.188,1304.033z"/>
				<path opacity="0.4" fill="#FFFFFF" enable-background="new    " d="M1126.849,1352.042c0.735,14.233-3.879,25.979-10.243,26.309
					c-6.329,0.367-0.587-11.524-1.316-25.758c-0.732-14.199-7.682-25.396-1.316-25.689
					C1120.266,1326.538,1126.083,1337.771,1126.849,1352.042z"/>
			</g>
		</g>
	</g>
</g>
</svg>
