<?xml version="1.0" encoding="utf-8"?>
<!-- Generator: Adobe Illustrator 16.0.0, SVG Export Plug-In . SVG Version: 6.00 Build 0)  -->
<!DOCTYPE svg PUBLIC "-//W3C//DTD SVG 1.1//EN" "http://www.w3.org/Graphics/SVG/1.1/DTD/svg11.dtd">
<svg version="1.1" id="Layer_1" xmlns="http://www.w3.org/2000/svg" xmlns:xlink="http://www.w3.org/1999/xlink" x="0px" y="0px"
	 width="300px" height="300px" viewBox="0 0 300 300" enable-background="new 0 0 300 300" xml:space="preserve">
<g>
	<path fill="#FFFFFF" d="M199.343,176.076c1.653-2.205,4.135-3.584,7.168-3.584c1.654,0,4.687,1.654,4.687,1.654l61.204,30.878
		c3.033,1.654,4.963,4.688,4.963,8.271c-1.103,15.163-7.443,30.326-17.369,39.976c-11.304,11.304-27.294,16.817-45.489,16.817
		c-37.219,0-84.087-21.78-123.236-60.929C32.822,150.437,11.594,73.242,45.78,39.056c9.649-9.649,26.467-14.612,41.354-15.99
		c3.584,0,6.341,1.93,7.995,4.962l33.635,61.205c0.827,1.654,1.378,3.033,1.378,4.962c0,2.757-1.378,5.238-3.308,7.168
		l-26.191,25.915c-2.757,3.033-3.308,7.444-1.103,11.028c7.444,12.406,16.542,24.261,27.569,35.013
		c11.028,11.028,22.883,20.401,35.013,27.846c3.584,2.205,7.995,1.654,11.028-1.379L199.343,176.076z"/>
</g>
</svg>
