<?xml version="1.0" encoding="utf-8"?>
<!-- Generator: Adobe Illustrator 16.0.0, SVG Export Plug-In . SVG Version: 6.00 Build 0)  -->
<!DOCTYPE svg PUBLIC "-//W3C//DTD SVG 1.1//EN" "http://www.w3.org/Graphics/SVG/1.1/DTD/svg11.dtd">
<svg version="1.1" id="Layer_1" xmlns="http://www.w3.org/2000/svg" xmlns:xlink="http://www.w3.org/1999/xlink" x="0px" y="0px"
	 width="300px" height="300px" viewBox="0 0 300 300" enable-background="new 0 0 300 300" xml:space="preserve">
<g id="P" display="none">
	<path display="inline" fill="#FFFFFF" d="M199.343,176.076c1.653-2.205,4.135-3.584,7.168-3.584c1.654,0,4.687,1.654,4.687,1.654
		l61.204,30.878c3.033,1.654,4.963,4.688,4.963,8.271c-1.103,15.163-7.443,30.326-17.369,39.976
		c-11.304,11.304-27.294,16.817-45.489,16.817c-37.219,0-84.087-21.78-123.236-60.929C32.822,150.437,11.594,73.242,45.78,39.056
		c9.649-9.649,26.467-14.612,41.354-15.99c3.584,0,6.341,1.93,7.995,4.962l33.635,61.205c0.827,1.654,1.378,3.033,1.378,4.962
		c0,2.757-1.378,5.238-3.308,7.168l-26.191,25.915c-2.757,3.033-3.308,7.444-1.103,11.028c7.444,12.406,16.542,24.261,27.569,35.013
		c11.028,11.028,22.883,20.401,35.013,27.846c3.584,2.205,7.995,1.654,11.028-1.379L199.343,176.076z"/>
</g>
<g id="M" display="none">
	<path display="inline" fill="#FFFFFF" d="M29.685,67.604V55.02c0-4.377,3.283-7.934,7.386-8.481
		c38.026-5.471,76.599-8.207,115.172-8.207c38.573,0,77.147,2.736,114.899,8.207c4.377,0.547,7.66,4.104,7.66,8.481v12.584
		c-0.821,3.009-3.01,8.207-9.575,14.499l-93.287,70.581c-5.198,4.104-12.311,6.019-19.697,6.019c-7.386,0-14.499-1.915-19.696-6.019
		L39.26,82.103C32.694,75.811,30.505,70.613,29.685,67.604z M274.803,109.733v122.012c0,4.376-3.283,7.934-7.66,8.48
		c-37.752,5.472-76.6,8.207-114.899,8.207c-38.299,0-77.146-2.735-115.172-8.207c-4.104-0.547-7.386-4.104-7.386-8.48V109.733
		l86.721,66.478c10.122,7.659,22.98,10.942,35.837,10.942c12.858,0,25.716-3.283,35.838-10.942L274.803,109.733z"/>
</g>
<g id="Sent">
	<path fill="#FFFFFF" d="M263.844,43.704c-0.249,3.711-3.714,91.805-24.993,191.281c-1.237,4.701-4.206,8.908-8.661,10.889
		c-2.228,1.237-4.703,1.732-6.929,1.732c-2.477,0-4.95-0.744-7.177-1.732l-51.718-26.231l-23.013,36.623
		c-2.723,5.196-8.166,8.415-13.61,8.415c-1.485,0-2.723-0.249-4.207-0.494c-6.929-1.732-10.146-8.415-10.146-15.592v-49.242
		l79.185-90.815L85.924,177.822L42.867,158.77c-4.702-2.476-7.919-7.177-8.661-12.374c-0.495-5.443,1.733-10.64,5.691-14.104
		C128.733,59.788,238.602,29.104,243.305,27.867c4.948-1.485,10.393-0.496,14.352,2.721
		C261.863,33.558,264.09,38.754,263.844,43.704z"/>
</g>
</svg>
