<?xml version="1.0" encoding="utf-8"?>
<!-- Generator: Adobe Illustrator 16.0.0, SVG Export Plug-In . SVG Version: 6.00 Build 0)  -->
<!DOCTYPE svg PUBLIC "-//W3C//DTD SVG 1.1//EN" "http://www.w3.org/Graphics/SVG/1.1/DTD/svg11.dtd">
<svg version="1.1" id="Layer_1" xmlns="http://www.w3.org/2000/svg" xmlns:xlink="http://www.w3.org/1999/xlink" x="0px" y="0px"
	 width="300px" height="300px" viewBox="0 0 300 300" enable-background="new 0 0 300 300" xml:space="preserve">
<path fill="#FFFFFF" d="M286.997,61.831v178.851c0,7.143-5.429,13.142-12.571,13.428c-41.428,3.429-83.139,5.141-124.565,5.141
	c-41.427,0-83.14-1.712-124.566-5.141c-7.143-0.286-12.57-6.285-12.57-13.428V61.831c0-7.144,5.427-13.142,12.57-13.428
	c41.427-3.429,82.854-5.142,124.566-5.142c41.712,0,83.137,1.713,124.565,5.142C281.568,48.689,286.997,54.688,286.997,61.831z
	 M40.152,78.116v27.427h219.417V78.116H40.152z M40.152,169.54h54.854v-36.569H40.152V169.54z M40.152,224.396h54.854v-27.429
	H40.152V224.396z M122.434,169.54h137.134v-36.569H122.434V169.54z M259.568,224.396v-27.429H122.434v27.429H259.568z"/>
</svg>
