<?xml version="1.0" encoding="utf-8"?>
<!-- Generator: Adobe Illustrator 16.0.0, SVG Export Plug-In . SVG Version: 6.00 Build 0)  -->
<!DOCTYPE svg PUBLIC "-//W3C//DTD SVG 1.1//EN" "http://www.w3.org/Graphics/SVG/1.1/DTD/svg11.dtd">
<svg version="1.1" id="Layer_1" xmlns="http://www.w3.org/2000/svg" xmlns:xlink="http://www.w3.org/1999/xlink" x="0px" y="0px"
	 width="300px" height="300px" viewBox="0 0 300 300" enable-background="new 0 0 300 300" xml:space="preserve">
<path fill="#FFFFFF" d="M24.909,254.811c-2.468-0.272-4.937-1.92-6.309-4.115c-1.372-2.196-1.922-4.938-1.372-7.405
	c4.388-20.575,17.83-37.858,36.486-49.381c4.663-2.743,10.423-4.937,16.459-7.408c10.698-4.112,22.769-9.051,24.963-16.185
	c1.92-5.762-2.744-14.539-6.858-20.574c-20.301-31.55-23.866-60.903-10.698-83.123c10.425-17.009,28.806-27.16,49.106-27.16
	c20.574,0,38.955,10.15,49.105,27.16c13.441,22.22,9.875,51.573-10.426,82.848c-4.389,6.311-8.778,15.088-7.133,20.85
	c2.195,7.134,14.268,12.07,24.965,16.185c6.035,2.472,11.796,4.665,16.46,7.408c18.93,11.521,31.821,28.806,36.485,49.381
	c0.549,2.467,0,5.209-1.369,7.405c-1.647,2.195-3.569,3.843-6.037,4.115c-1.098,0.273-28.803,4.114-102.051,4.114
	C53.437,258.925,26.008,255.084,24.909,254.811z M280.313,83.352v17.558h-70.229V83.352H280.313z M210.084,136.024v-17.557h70.229
	v17.557H210.084z"/>
</svg>
