<?xml version="1.0" encoding="utf-8"?>
<!-- Generator: Adobe Illustrator 16.0.0, SVG Export Plug-In . SVG Version: 6.00 Build 0)  -->
<!DOCTYPE svg PUBLIC "-//W3C//DTD SVG 1.1//EN" "http://www.w3.org/Graphics/SVG/1.1/DTD/svg11.dtd">
<svg version="1.1" id="Layer_1" xmlns="http://www.w3.org/2000/svg" xmlns:xlink="http://www.w3.org/1999/xlink" x="0px" y="0px"
	 width="300px" height="300px" viewBox="0 0 300 300" enable-background="new 0 0 300 300" xml:space="preserve">
<path fill="#FFFFFF" d="M283.135,172.577c0,9.45-1.111,18.899-3.335,27.792c-2.778,10.283-10.282,18.064-20.845,19.732
	c-0.833,0.277-1.389,0.277-2.223,0.556v26.403c0,9.728-8.06,17.785-17.785,17.785h-17.788c-9.728,0-17.786-8.059-17.786-17.785
	V227.05c-18.066,1.392-35.854,2.224-53.362,2.224c-17.509,0-35.296-0.832-53.36-2.224v20.011c0,9.729-8.06,17.787-17.788,17.787
	H61.076c-9.727,0-17.787-8.06-17.787-17.787v-26.402c-0.833-0.277-1.389-0.277-2.223-0.557c-10.56-1.668-18.065-9.449-20.566-19.731
	c-2.223-9.171-3.613-18.343-3.613-27.792c-0.277-13.896,2.224-27.792,6.949-41.41c3.334-8.893,10.004-15.285,19.176-16.954
	l14.73-53.638c4.725-16.119,20.566-30.016,36.963-32.517c0.834,0,21.956-3.335,55.029-3.335c32.793,0,53.64,3.335,54.473,3.335
	c16.675,2.501,32.516,16.397,36.963,32.517l14.729,53.361c9.729,1.39,16.953,8.06,20.289,17.509
	C280.912,144.23,283.135,158.402,283.135,172.577z M89.702,171.465c0-13.34-10.839-23.9-24.18-23.9c-13.34,0-23.9,10.561-23.9,23.9
	c0,13.342,10.56,23.901,23.9,23.901C78.863,195.366,89.702,184.807,89.702,171.465z M92.203,68.635l-12.228,45.023h138.96
	l-11.951-45.023c-0.834-2.502-5.279-6.392-7.78-6.948c-0.278,0-19.455-2.779-49.471-2.779c-30.293,0-49.748,2.779-49.748,2.779
	C97.207,62.244,92.76,66.133,92.203,68.635z M258.4,171.465c0-13.34-10.84-23.9-23.9-23.9c-13.341,0-24.18,10.561-24.18,23.9
	c0,13.342,10.839,23.901,24.18,23.901C247.561,195.366,258.4,184.807,258.4,171.465z"/>
</svg>
