<?xml version="1.0" encoding="utf-8"?>
<!-- Generator: Adobe Illustrator 16.0.0, SVG Export Plug-In . SVG Version: 6.00 Build 0)  -->
<!DOCTYPE svg PUBLIC "-//W3C//DTD SVG 1.1//EN" "http://www.w3.org/Graphics/SVG/1.1/DTD/svg11.dtd">
<svg version="1.1" id="Layer_1" xmlns="http://www.w3.org/2000/svg" xmlns:xlink="http://www.w3.org/1999/xlink" x="0px" y="0px"
	 width="200px" height="279px" viewBox="0 0 200 279" enable-background="new 0 0 200 279" xml:space="preserve">
<g id="Background_5_">
	<g>
		<path fill="#EBEBEB" d="M181.429,48.769h-5.287l-3.265-11.384c-0.643-2.237-3.112-4.021-5.527-4.021H45.854
			c-2.415,0-4.885,1.784-5.527,4.021l-3.265,11.384h-5.287c-2.431,0-4.401,1.971-4.401,4.401v11.004
			c0,2.431,1.971,4.401,4.401,4.401h6.342c-0.212,0.877-0.343,1.791-0.287,2.757l9.532,167.227c0.254,4.475,4.086,8.085,8.621,8.248
			v6.633c0,2.431,1.971,4.401,4.402,4.401h92.432c2.431,0,4.401-1.971,4.401-4.401v-6.633c4.535-0.163,8.367-3.773,8.621-8.248
			l9.533-167.227c0.054-0.967-0.075-1.88-0.288-2.757h6.343c2.431,0,4.401-1.971,4.401-4.401V53.17
			C185.83,50.739,183.859,48.769,181.429,48.769z"/>
	</g>
</g>
<g id="Semi_6_">
	<g>
		<path fill="#D9DDEA" d="M168.224,37.765H18.571c0,0-1.834,8.436-2.201,8.803c-0.366,0.368,2.201,4.402,2.201,4.402h151.854
			L168.224,37.765z M40.579,227.031l107.838,2.2v-26.409H38.378L40.579,227.031z"/>
	</g>
</g>
<g id="Base_8_">
	<g>
		<path fill="#34495E" d="M168.224,35.564h-5.287l-3.265-11.384c-0.643-2.237-3.111-4.021-5.527-4.021H32.65
			c-2.415,0-4.885,1.784-5.527,4.021l-3.265,11.384h-5.287c-2.431,0-4.401,1.971-4.401,4.401v11.004
			c0,2.431,1.971,4.401,4.401,4.401h6.342c-0.212,0.877-0.343,1.791-0.287,2.757l9.532,167.227c0.254,4.475,4.086,8.085,8.621,8.249
			v6.632c0,2.431,1.971,4.401,4.402,4.401h92.433c2.431,0,4.401-1.971,4.401-4.401v-6.632c4.534-0.164,8.366-3.774,8.62-8.249
			l9.534-167.227c0.054-0.967-0.075-1.88-0.288-2.757h6.342c2.431,0,4.401-1.971,4.401-4.401V39.965
			C172.625,37.535,170.654,35.564,168.224,35.564z M33.977,26.761h118.841l2.955,8.803H31.023L33.977,26.761z M137.413,238.035
			H49.382v-4.402h88.031V238.035z M146.216,227.031H40.579l-0.881-19.808h107.399L146.216,227.031z M147.39,200.621H39.405
			l-6.458-145.25h120.9L147.39,200.621z M166.023,48.769H20.772v-6.603h145.251V48.769z"/>
	</g>
</g>
<g id="Orange_7_">
	<g>
		<circle fill="#FFFFFF" cx="93.397" cy="130.197" r="28.61"/>
	</g>
</g>
</svg>
