<?xml version="1.0" encoding="utf-8"?>
<!-- Generator: Adobe Illustrator 16.0.0, SVG Export Plug-In . SVG Version: 6.00 Build 0)  -->
<!DOCTYPE svg PUBLIC "-//W3C//DTD SVG 1.1//EN" "http://www.w3.org/Graphics/SVG/1.1/DTD/svg11.dtd">
<svg version="1.1" id="Layer_1" xmlns="http://www.w3.org/2000/svg" xmlns:xlink="http://www.w3.org/1999/xlink" x="0px" y="0px"
	 width="300px" height="300px" viewBox="0 0 300 300" enable-background="new 0 0 300 300" xml:space="preserve">
<path fill="#FFFFFF" d="M59.968,243.957c-0.861,0.285-2.299,0.574-3.45,0.574c-3.166,0-6.62-2.014-8.058-5.176l-13.519-28.193
	c-2.302-4.602-0.289-10.355,4.315-12.658c15.823-8.057,25.027-15.533,29.918-27.904c-14.096-0.287-27.907-1.15-41.715-3.164
	c-4.027-0.576-7.192-3.742-8.054-7.479c-2.302-14.384-3.74-29.056-3.74-43.438c0-15.248,1.15-30.207,3.74-44.878
	c0.861-4.027,4.027-7.192,8.054-7.768c15.823-2.302,31.935-3.451,48.042-3.451c16.111,0,32.219,1.149,48.331,3.451
	c3.737,0.576,6.903,3.741,7.48,7.768c3.166,17.261,4.027,34.809,4.027,53.22C135.341,175.49,114.629,219.504,59.968,243.957z
	 M207.26,243.957c-0.863,0.285-2.301,0.574-3.451,0.574c-3.164,0-6.617-2.014-8.059-5.176l-13.52-28.193
	c-2.299-4.602-0.287-10.355,4.316-12.658c15.822-8.057,25.025-15.533,29.919-27.904c-14.097-0.287-27.907-1.15-41.715-3.164
	c-4.026-0.576-7.192-3.742-8.056-7.479c-2.588-14.672-3.737-29.63-3.737-44.301c0-14.671,1.149-29.344,3.737-44.015
	c0.863-4.027,4.029-7.192,8.056-7.768c15.821-2.302,31.935-3.451,48.041-3.451c16.11,0,32.219,1.149,48.33,3.451
	c3.737,0.576,6.903,3.741,7.481,7.768c3.164,17.261,4.025,34.809,4.025,53.22C282.631,175.49,261.92,219.504,207.26,243.957z"/>
</svg>
