<?xml version="1.0" encoding="utf-8"?>
<!-- Generator: Adobe Illustrator 16.0.0, SVG Export Plug-In . SVG Version: 6.00 Build 0)  -->
<!DOCTYPE svg PUBLIC "-//W3C//DTD SVG 1.1//EN" "http://www.w3.org/Graphics/SVG/1.1/DTD/svg11.dtd">
<svg version="1.1" id="Layer_1" xmlns="http://www.w3.org/2000/svg" xmlns:xlink="http://www.w3.org/1999/xlink" x="0px" y="0px"
	 width="300px" height="300px" viewBox="0 0 300 300" enable-background="new 0 0 300 300" xml:space="preserve">
<path fill="#FFFFFF" d="M81.625,199.783v34.994c-14.762-0.82-51.397-13.67-59.597-51.396c-2.461-9.566-2.188-19.41,0.272-28.979
	c6.289-42.102,66.98-110.72,77.643-118.647c7.109-5.743,15.311-10.662,23.509-12.85c8.476-3.554,43.469-6.835,80.651-6.835
	c19.683,0,39.64,1.367,56.317,4.102c14.761,2.459,15.854,15.855,11.205,21.87c0,0-68.62,89.67-69.438,90.217
	c-3.008,3.828-7.653,6.288-12.578,6.288H85.18c-11.482,0-36.361,10.39-30.893,37.727c1.914,10.115,9.021,18.318,18.864,21.871
	C75.336,198.963,79.166,199.51,81.625,199.783z M210.934,234.777c3.012,0,9.025-0.273,13.127-6.562l56.86-85.023
	c6.292-13.396-3.825-22.144-11.479-22.144h-7.108l-59.597,78.734h-25.151c0-8.748-0.274-25.698,9.021-34.993h-68.891
	c-1.641,0-3.008,0.548-4.375,1.368c-5.468,3.006-14.217,12.574-14.217,28.433v66.978c0,3.281,1.914,5.742,4.647,7.109
	c3.009,1.639,6.561,1.366,9.295-0.548l25.149-17.224l25.974,17.224c1.367,1.095,3.281,1.642,4.924,1.642
	c1.638,0,3.005-0.273,4.098-1.094c3.008-1.367,4.648-3.828,4.648-7.109v-26.789h33.076V234.777z"/>
</svg>
