<?xml version="1.0" encoding="utf-8"?>
<!-- Generator: Adobe Illustrator 16.0.0, SVG Export Plug-In . SVG Version: 6.00 Build 0)  -->
<!DOCTYPE svg PUBLIC "-//W3C//DTD SVG 1.1//EN" "http://www.w3.org/Graphics/SVG/1.1/DTD/svg11.dtd">
<svg version="1.1" id="Layer_1" xmlns="http://www.w3.org/2000/svg" xmlns:xlink="http://www.w3.org/1999/xlink" x="0px" y="0px"
	 width="300px" height="300px" viewBox="0 0 300 300" enable-background="new 0 0 300 300" xml:space="preserve">
<path fill="#FFFFFF" d="M287.671,150.943c0,75.979-61.644,137.623-137.621,137.623c-75.98,0-137.624-61.645-137.624-137.623
	c0-75.978,61.644-137.621,137.624-137.621C226.027,13.322,287.671,74.966,287.671,150.943z M207.104,150.943
	c0-31.537-25.518-57.055-57.055-57.055c-31.54,0-57.057,25.518-57.057,57.055c0,31.539,25.518,57.057,57.058,57.057
	C181.587,208,207.104,182.482,207.104,150.943z M168.396,150.943c0,10.035-8.315,18.352-18.348,18.352
	c-10.035,0-18.353-8.314-18.353-18.352c0-10.035,8.317-18.349,18.353-18.349C160.081,132.595,168.396,140.908,168.396,150.943z
	 M266.167,150.943c0-63.936-52.183-116.117-116.117-116.117v12.041c57.341,0,104.077,46.734,104.077,104.076H266.167z
	 M238.645,150.943c0-48.74-39.854-88.592-88.595-88.592v12.04c42.147,0,76.55,34.407,76.55,76.554h12.045V150.943z"/>
</svg>
