<?xml version="1.0" encoding="utf-8"?>
<!-- Generator: Adobe Illustrator 16.0.0, SVG Export Plug-In . SVG Version: 6.00 Build 0)  -->
<!DOCTYPE svg PUBLIC "-//W3C//DTD SVG 1.1//EN" "http://www.w3.org/Graphics/SVG/1.1/DTD/svg11.dtd">
<svg version="1.1" id="Layer_1" xmlns="http://www.w3.org/2000/svg" xmlns:xlink="http://www.w3.org/1999/xlink" x="0px" y="0px"
	 width="300px" height="300px" viewBox="0 0 300 300" enable-background="new 0 0 300 300" xml:space="preserve">
<path fill="#FFFFFF" d="M61.096,278.177c-7.039,0-13.263-4.06-15.971-10.557c-15.158-35.728-19.214-76.058-19.214-107.726
	c0-11.099,2.164-22.193,4.599-33.021c1.625-7.849,8.931-13.263,17.052-13.263h38.977v25.983c0,25.985-8.663,34.646-8.663,51.968
	c0,36.811,51.971,36.811,51.971,0c0-17.322-8.662-25.982-8.662-51.968V113.61h86.613c21.384,0,41.142,5.683,53.864,19.217
	c11.365,11.91,16.236,27.878,15.154,47.637c-2.436,43.31-43.305,71.726-84.445,77.142c-1.354,3.521-2.438,6.766-3.792,10.015
	c-2.708,6.497-8.931,10.557-15.97,10.557H61.096z M34.841,96.288c-2.707-33.833,24.9-63.607,60.36-60.628
	c12.176-11.097,28.689-17.323,45.741-17.323c37.353,0,66.855,29.232,66.855,65.231c0,4.332,0,8.661-0.811,12.721h-24.633
	c0,0,0.543-5.414,0.543-12.721c0-21.652-18.947-39.519-41.956-39.519c-12.181,0-23.818,5.144-31.667,14.075
	c-2.978,3.52-7.849,5.144-12.452,4.061c-2.435-0.542-4.599-0.812-6.495-0.812c-14.616,0-33.564,12.993-30.043,34.916L34.841,96.288
	L34.841,96.288z M243.252,178.572c1.626-30.316-21.109-31.941-37.079-31.398c2.435,20.84,2.435,44.661-3.247,72.539
	C222.412,212.945,242.171,199.141,243.252,178.572z"/>
</svg>
