<?xml version="1.0" encoding="utf-8"?>
<!-- Generator: Adobe Illustrator 16.0.0, SVG Export Plug-In . SVG Version: 6.00 Build 0)  -->
<!DOCTYPE svg PUBLIC "-//W3C//DTD SVG 1.1//EN" "http://www.w3.org/Graphics/SVG/1.1/DTD/svg11.dtd">
<svg version="1.1" id="Layer_1" xmlns="http://www.w3.org/2000/svg" xmlns:xlink="http://www.w3.org/1999/xlink" x="0px" y="0px"
	 width="300px" height="300px" viewBox="0 0 300 300" enable-background="new 0 0 300 300" xml:space="preserve">
<path fill="#FFFFFF" d="M265.844,38.485v155.011c0,24.64-63.67,88.027-88.58,88.027c-7.752,0.275-16.886,0.555-26.574,0.555
	c-62.56,0-102.975-8.855-104.633-9.135c-6.091-1.385-10.52-6.644-10.52-13.012V38.485c0-6.091,4.429-11.625,10.52-13.01
	c1.66-0.277,42.074-9.136,104.633-9.136c62.836,0,102.973,8.858,104.635,9.136C261.413,26.859,265.844,32.394,265.844,38.485z
	 M163.975,257.164c7.198,0,13.289-6.921,13.289-14.116v-36.263c0-7.197,5.812-13.289,13.287-13.289h35.432
	c7.476,0,13.287-6.087,13.287-13.284V49.556c-15.228-2.49-47.06-7.474-88.58-7.474c-41.799,0-73.079,4.983-88.58,7.474v200.135
	c15.501,2.49,47.058,7.748,88.58,7.748L163.975,257.164z M100.863,164.709c-6.92-0.553-12.18-6.365-12.18-13.286v-50.935
	c0-7.195,5.812-13.286,13.288-13.286h14.393l9.135-13.84c1.662-2.491,4.428-3.875,7.474-3.875h35.431
	c3.047,0,5.813,1.384,7.476,3.875l9.136,13.84h14.393c7.199,0,13.289,6.09,13.289,13.286v50.935c0,6.921-5.262,12.733-12.18,13.286
	c-16.61,1.383-33.219,2.215-49.828,2.215C134.081,166.924,117.472,166.092,100.863,164.709z M179.2,122.636
	c0-15.78-12.733-28.512-28.513-28.512c-15.778,0-28.511,12.732-28.511,28.512c0,15.777,12.732,28.509,28.511,28.509
	C166.467,151.145,179.2,138.413,179.2,122.636z"/>
</svg>
