<?xml version="1.0" encoding="utf-8"?>
<!-- Generator: Adobe Illustrator 16.0.0, SVG Export Plug-In . SVG Version: 6.00 Build 0)  -->
<!DOCTYPE svg PUBLIC "-//W3C//DTD SVG 1.1//EN" "http://www.w3.org/Graphics/SVG/1.1/DTD/svg11.dtd">
<svg version="1.1" id="Layer_1" xmlns="http://www.w3.org/2000/svg" xmlns:xlink="http://www.w3.org/1999/xlink" x="0px" y="0px"
	 width="300px" height="300px" viewBox="-83.5 0 300 300" enable-background="new -83.5 0 300 300" xml:space="preserve">
<g>
	<g>
		<path fill="#FFFFFF" d="M66.501,18.277c23.6,0,47.202,1.646,70.799,4.668c12.351,1.918,21.953,12.073,22.775,24.698
			c1.922,34.576,3.019,69.152,3.019,103.454c0,34.851-1.097,68.881-3.019,102.085c-0.817,12.625-10.425,23.054-22.775,24.697
			c-23.602,3.019-47.199,3.845-70.799,3.845c-23.601,0-47.474-0.824-71.075-3.845c-12.349-1.644-21.952-12.072-22.5-24.697
			c-1.922-32.656-3.017-67.782-3.017-103.181c0-34.302,0.824-69.156,3.017-102.358c0.55-12.625,10.153-22.777,22.5-24.698
			C19.027,19.923,42.901,18.277,66.501,18.277 M10.245,211.468h112.509c2.196,0,3.845-1.646,3.845-3.842
			c1.647-26.892,2.47-49.397,2.47-71.621c-0.274-23.602-1.374-47.475-3.566-76.563c-0.273-2.196-1.648-3.842-3.844-4.119
			c-19.21-2.194-37.049-3.294-55.159-3.294c-18.111,0-36.223,1.098-55.156,3.294c-2.195,0.276-3.841,1.92-4.117,4.119
			c-1.919,28.537-3.02,55.157-3.02,82.327c0,21.401,0.55,42.809,1.922,65.858C6.403,209.821,8.05,211.468,10.245,211.468
			 M66.501,264.981c9.879,0,18.386-8.232,18.386-18.388c0-9.881-8.507-17.837-18.386-17.837c-10.154,0-17.835,7.956-17.835,17.837
			C48.663,256.749,56.348,264.981,66.501,264.981 M66.501,5.689c-23.491,0-47.939,1.603-72.672,4.764l-0.168,0.022l-0.172,0.03
			c-18.357,2.853-32.269,18.164-33.137,36.433C-41.663,77.488-42.685,112.16-42.685,150c0,34.635,1.022,69.57,3.036,103.833
			c0.865,18.705,14.9,34.057,33.413,36.524c21.104,2.698,44.195,3.953,72.738,3.953c28.354,0,51.36-1.255,72.395-3.944
			c18.366-2.448,32.53-17.737,33.744-36.366c2.021-34.97,3.044-69.559,3.044-102.904c0-32.811-1.022-67.854-3.035-104.152
			l-0.005-0.059l-0.004-0.061c-1.209-18.511-14.943-33.445-33.404-36.318l-0.17-0.03l-0.17-0.022
			C114.169,7.292,89.811,5.689,66.501,5.689L66.501,5.689z M19.343,67.111c16.219-1.674,31.708-2.49,47.159-2.49
			c15.164,0,30.584,0.813,46.941,2.477c1.844,25.687,2.788,47.21,3.036,68.977c0,19.248-0.609,38.895-1.975,62.805H18.25
			c-0.975-18.781-1.452-37.544-1.452-57.11C16.798,118.411,17.608,94.525,19.343,67.111L19.343,67.111z M66.501,252.392
			c-3.444,0-5.246-2.919-5.246-5.8c0-3.038,2.206-5.247,5.246-5.247c3.086,0,5.796,2.455,5.796,5.247
			C72.298,249.682,69.588,252.392,66.501,252.392L66.501,252.392z"/>
	</g>
</g>
</svg>
