<?xml version="1.0" encoding="utf-8"?>
<!-- Generator: Adobe Illustrator 16.0.0, SVG Export Plug-In . SVG Version: 6.00 Build 0)  -->
<!DOCTYPE svg PUBLIC "-//W3C//DTD SVG 1.1//EN" "http://www.w3.org/Graphics/SVG/1.1/DTD/svg11.dtd">
<svg version="1.1" id="Layer_1" xmlns="http://www.w3.org/2000/svg" xmlns:xlink="http://www.w3.org/1999/xlink" x="0px" y="0px"
	 width="300px" height="300px" viewBox="0 0 300 300" enable-background="new 0 0 300 300" xml:space="preserve">
<path fill="#FFFFFF" d="M57.277,267.752H12.333V105.957h44.944V267.752z M281.714,140.226l-1.403,19.381
	c-6.74,87.359-8.146,108.145-92.697,108.145c-37.639,0-51.123-8.984-62.919-16.287c-9.552-6.18-17.136-10.677-39.327-10.677H75.255
	V108.767c53.933-12.642,58.426-42.697,62.921-64.888c2.81-12.922,5.619-27.809,21.35-27.809c5.896,0.281,10.394,2.809,14.043,7.303
	c11.801,13.483,10.677,43.538,7.022,82.584h70.228c6.178,0,16.853,0.562,23.873,8.146
	C280.311,120.282,282.561,129.552,281.714,140.226z"/>
</svg>
