<?xml version="1.0" encoding="utf-8"?>
<!-- Generator: Adobe Illustrator 16.0.0, SVG Export Plug-In . SVG Version: 6.00 Build 0)  -->
<!DOCTYPE svg PUBLIC "-//W3C//DTD SVG 1.1//EN" "http://www.w3.org/Graphics/SVG/1.1/DTD/svg11.dtd">
<svg version="1.1" id="Layer_1" xmlns="http://www.w3.org/2000/svg" xmlns:xlink="http://www.w3.org/1999/xlink" x="0px" y="0px"
	 width="300px" height="300px" viewBox="-83.5 0 300 300" enable-background="new -83.5 0 300 300" xml:space="preserve">
<g>
	<path fill="#FFFFFF" d="M210.828,238.7c0,34.581-32.175,35.183-144.328,35.183c-112.156,0-144.328-0.602-144.328-35.183
		c0-18.038,9.621-26.157,28.865-33.373V50.172c0-9.322,6.916-17.14,16.238-18.642c1.805-0.303,46.306-5.413,99.226-5.413
		c52.619,0,97.421,5.11,99.226,5.413c9.322,1.502,16.237,9.32,16.237,18.642v155.155C201.205,212.543,210.828,220.662,210.828,238.7
		z M143.476,196.907V65.804c-19.246-2.106-45.704-4.809-76.976-4.809c-31.27,0-57.729,2.708-76.973,4.809v131.104H143.476
		L143.476,196.907z M51.165,158.42c-1.805,0-3.305-0.903-4.21-2.407c-0.602-1.504-16.235-32.174-18.943-59.84
		c0-1.502,0.303-2.703,1.504-3.906c0.905-0.903,2.405-1.199,3.608-1.199c28.566,3.305,58.333,18.339,59.837,18.938
		c1.5,0.904,2.402,2.407,2.402,4.212c0,1.803-1.201,3.604-2.703,4.208l-14.437,6.015c8.119,10.822,15.636,21.648,16.538,23.449
		c1.204,3.313,0.602,5.716-2.102,8.123c-2.406,2.407-4.212,3.009-7.817,1.806c-2.407-0.603-12.632-7.823-23.454-16.543
		l-6.015,14.437C54.773,157.216,52.97,158.42,51.165,158.42z"/>
</g>
</svg>
