<?xml version="1.0" encoding="utf-8"?>
<!-- Generator: Adobe Illustrator 16.0.0, SVG Export Plug-In . SVG Version: 6.00 Build 0)  -->
<!DOCTYPE svg PUBLIC "-//W3C//DTD SVG 1.1//EN" "http://www.w3.org/Graphics/SVG/1.1/DTD/svg11.dtd">
<svg version="1.1" id="Layer_1" xmlns="http://www.w3.org/2000/svg" xmlns:xlink="http://www.w3.org/1999/xlink" x="0px" y="0px"
	 width="300px" height="300px" viewBox="-83.5 0 300 300" enable-background="new -83.5 0 300 300" xml:space="preserve">
<g>
	<path fill="#FFFFFF" d="M205.516,97.29v163.633c0,9.266-6.663,17.084-15.64,18.532c-40.837,6.375-82.252,9.561-123.376,9.561
		c-41.125,0-82.831-3.186-123.376-9.561c-8.977-1.448-15.64-9.267-15.64-18.532V97.29c0-0.868,0-2.027,0.29-2.896H29.429v64.872
		h74.141V94.395h101.653C205.224,95.263,205.516,96.422,205.516,97.29z M32.036,75.858h-95.572
		c11.583-14.191,24.327-32.147,39.387-53.578c3.185-4.633,8.107-7.242,13.323-7.821c20.272-2.027,40.835-3.186,61.397-3.475
		L32.036,75.858z M100.965,75.858L82.43,10.984c20.562,0.29,41.124,1.448,61.397,3.475c5.212,0.579,10.137,3.188,13.322,7.821
		c15.06,21.431,27.802,39.387,39.387,53.578H100.965z"/>
</g>
</svg>
