<?xml version="1.0" encoding="utf-8"?>
<!-- Generator: Adobe Illustrator 16.0.0, SVG Export Plug-In . SVG Version: 6.00 Build 0)  -->
<!DOCTYPE svg PUBLIC "-//W3C//DTD SVG 1.1//EN" "http://www.w3.org/Graphics/SVG/1.1/DTD/svg11.dtd">
<svg version="1.1" id="Layer_1" xmlns="http://www.w3.org/2000/svg" xmlns:xlink="http://www.w3.org/1999/xlink" x="0px" y="0px"
	 width="300px" height="300px" viewBox="-83.5 0 300 300" enable-background="new -83.5 0 300 300" xml:space="preserve">
<g>
	<path fill="#FFFFFF" d="M57.116,74.922c0,36.366-29.328,65.694-65.695,65.694s-65.697-29.328-65.697-65.694
		c0-36.367,29.326-65.697,65.697-65.697C27.79,9.225,57.116,38.55,57.116,74.922z M-74.275,225.081
		c0-36.367,29.326-65.695,65.695-65.695c36.366,0,65.697,29.328,65.697,65.695c0,36.362-29.328,65.694-65.695,65.694
		S-74.275,261.447-74.275,225.081z M30.718,225.081c0-21.705-17.597-39.302-39.299-39.302c-21.705,0-39.299,17.599-39.299,39.302
		c0,21.7,17.597,39.299,39.301,39.299C13.124,264.38,30.718,246.783,30.718,225.081z M75.886,74.922
		c0-36.367,29.328-65.695,65.695-65.695c36.366,0,65.694,29.328,65.694,65.695c0,36.366-29.328,65.694-65.694,65.694
		C105.214,140.616,75.886,111.288,75.886,74.922z M75.886,225.081c0-36.367,29.328-65.695,65.695-65.695
		c36.366,0,65.694,29.328,65.694,65.695c0,36.366-29.326,65.694-65.694,65.694C105.214,290.775,75.886,261.447,75.886,225.081z
		 M180.882,74.922c0-21.705-17.599-39.302-39.301-39.302c-21.698,0-39.302,17.597-39.302,39.302
		c0,21.702,17.599,39.299,39.302,39.299C163.281,114.221,180.882,96.622,180.882,74.922z M180.882,225.081
		c0-21.705-17.599-39.302-39.301-39.302c-21.698,0-39.302,17.599-39.302,39.302c0,21.7,17.599,39.299,39.302,39.299
		C163.281,264.38,180.882,246.783,180.882,225.081z"/>
</g>
</svg>
