<?xml version="1.0" encoding="utf-8"?>
<!-- Generator: Adobe Illustrator 16.0.0, SVG Export Plug-In . SVG Version: 6.00 Build 0)  -->
<!DOCTYPE svg PUBLIC "-//W3C//DTD SVG 1.1//EN" "http://www.w3.org/Graphics/SVG/1.1/DTD/svg11.dtd">
<svg version="1.1" id="Layer_1" xmlns="http://www.w3.org/2000/svg" xmlns:xlink="http://www.w3.org/1999/xlink" x="0px" y="0px"
	 width="300px" height="300px" viewBox="-83.5 0 300 300" enable-background="new -83.5 0 300 300" xml:space="preserve">
<g>
	<path fill="#FFFFFF" d="M208.889,50.029v199.645c0,7.119-5.34,13.348-12.16,14.535c-43.31,6.229-86.623,9.197-130.229,9.197
		c-43.607,0-86.916-2.968-130.226-9.197c-6.825-1.188-12.162-7.416-12.162-14.535V50.029c0-7.119,5.339-13.645,12.162-14.535
		c41.826-5.935,86.028-8.9,130.226-8.9c44.2,0,88.399,2.966,130.229,8.9C203.551,36.384,208.889,42.91,208.889,50.029z
		 M180.412,62.19c-37.971-5.043-75.348-7.418-113.021-7.418c-37.673,0-75.35,2.375-114.803,7.418v175.027
		c8.901,1.183,17.504,2.073,26.402,2.963L99.132,169.28c3.263-2.073,7.119-2.964,11.271-2.964c6.229,0,12.759,2.671,17.207,7.708
		l52.803,60.521V62.19z M19.037,102.535c-15.724,0-28.48,12.752-28.48,28.478c0,15.723,12.756,28.481,28.48,28.481
		c15.723,0,28.477-12.759,28.477-28.481S34.76,102.535,19.037,102.535z"/>
</g>
</svg>
