<?xml version="1.0" encoding="utf-8"?>
<!-- Generator: Adobe Illustrator 16.0.0, SVG Export Plug-In . SVG Version: 6.00 Build 0)  -->
<!DOCTYPE svg PUBLIC "-//W3C//DTD SVG 1.1//EN" "http://www.w3.org/Graphics/SVG/1.1/DTD/svg11.dtd">
<svg version="1.1" id="Layer_1" xmlns="http://www.w3.org/2000/svg" xmlns:xlink="http://www.w3.org/1999/xlink" x="0px" y="0px"
	 width="300px" height="300px" viewBox="-83.5 0 300 300" enable-background="new -83.5 0 300 300" xml:space="preserve">
<g>
	<path fill="#FFFFFF" d="M189.374,31.854V197.26c0,26.285-67.935,93.925-94.52,93.925c-8.271,0.295-18.015,0.591-28.355,0.591
		c-66.753,0-109.875-9.448-111.649-9.742c-6.498-1.475-11.225-7.095-11.225-13.884V31.854c0-6.498,4.728-12.406,11.225-13.884
		c1.775-0.295,44.898-9.746,111.651-9.746c67.046,0,109.874,9.451,111.647,9.746C184.646,19.449,189.374,25.357,189.374,31.854z
		 M80.678,265.194c7.68,0,14.177-7.384,14.177-15.063v-38.693c0-7.68,6.202-14.178,14.177-14.178h37.803
		c7.976,0,14.178-6.497,14.178-14.177V43.669c-16.237-2.658-50.207-7.973-94.515-7.973c-44.6,0-77.975,5.315-94.517,7.973v213.554
		c16.542,2.655,50.212,8.271,94.517,8.271L80.678,265.194z M4.476,134.937c8.859-5.909,31.604-6.498,15.655-25.403
		C9.498,97.127,10.973,82.95,15.108,75.565c4.727-7.384,14.474-10.632,23.038-10.632s18.313,3.249,22.744,10.632
		c4.431,7.387,5.905,21.562-4.728,33.968c-15.949,18.903,6.794,19.494,15.358,25.403c10.93,7.386,13.881,13.588,13.881,24.517
		H-9.112C-9.112,148.524-6.454,142.322,4.476,134.937z"/>
</g>
</svg>
