<?xml version="1.0" encoding="utf-8"?>
<!-- Generator: Adobe Illustrator 16.0.0, SVG Export Plug-In . SVG Version: 6.00 Build 0)  -->
<!DOCTYPE svg PUBLIC "-//W3C//DTD SVG 1.1//EN" "http://www.w3.org/Graphics/SVG/1.1/DTD/svg11.dtd">
<svg version="1.1" id="Layer_1" xmlns="http://www.w3.org/2000/svg" xmlns:xlink="http://www.w3.org/1999/xlink" x="0px" y="0px"
	 width="300px" height="300px" viewBox="-83.5 0 300 300" enable-background="new -83.5 0 300 300" xml:space="preserve">
<g>
	<path fill="#FFFFFF" d="M191.221,150.002c0,6.377-2.838,12.758-7.794,17.008c-3.543,2.833-91.062,76.53-205.15,122.946
		c-2.835,1.063-5.669,1.77-8.859,1.77c-3.897,0-8.148-1.063-11.693-3.187c-6.023-3.543-10.273-9.922-10.628-17.008
		c-0.354-2.479-5.316-59.88-5.316-121.529c0-61.651,4.96-119.049,5.316-121.176c0.355-7.087,4.605-13.464,10.628-17.363
		c3.543-2.125,7.44-3.188,11.693-3.188c2.835,0,6.024,0.708,8.859,1.772C92.365,56.46,179.884,130.159,183.427,133.348
		C188.383,137.244,191.221,143.625,191.221,150.002z"/>
</g>
</svg>
