<?xml version="1.0" encoding="utf-8"?>
<!-- Generator: Adobe Illustrator 16.0.0, SVG Export Plug-In . SVG Version: 6.00 Build 0)  -->
<!DOCTYPE svg PUBLIC "-//W3C//DTD SVG 1.1//EN" "http://www.w3.org/Graphics/SVG/1.1/DTD/svg11.dtd">
<svg version="1.1" id="Layer_1" xmlns="http://www.w3.org/2000/svg" xmlns:xlink="http://www.w3.org/1999/xlink" x="0px" y="0px"
	 width="300px" height="300px" viewBox="-83.5 0 300 300" enable-background="new -83.5 0 300 300" xml:space="preserve">
<g>
	<path fill="#FFFFFF" d="M-71.965,288.15c-3.236-3.232-4.706-7.645-3.822-12.351l29.114-133.811c0.295-2.65,1.766-5.003,3.823-7.061
		L80.374,11.703c5.293-5.292,14.116-5.292,19.411,0l105.284,104.993c5.295,5.587,5.295,14.114,0,19.703L81.552,259.622
		c-1.766,1.766-4.414,3.234-7.063,3.823c0,0-135.87,28.82-136.75,28.82C-65.79,292.27-69.318,290.794-71.965,288.15z
		 M166.541,117.576l-19.114-19.41L48.32,197.275c-7.94,7.94-20.882,7.94-28.821,0c-7.941-7.94-7.941-20.587,0-28.528l99.109-99.403
		L99.492,50.227L0.381,149.339c-5.883,5.879-14.116,7.354-21.469,4.704l-10.294,54.111L8.32,248.152l54.408-10.589
		c-2.649-7.058-0.884-15.293,4.704-20.88L166.541,117.576z"/>
</g>
</svg>
