<?xml version="1.0" encoding="utf-8"?>
<!-- Generator: Adobe Illustrator 16.0.0, SVG Export Plug-In . SVG Version: 6.00 Build 0)  -->
<!DOCTYPE svg PUBLIC "-//W3C//DTD SVG 1.1//EN" "http://www.w3.org/Graphics/SVG/1.1/DTD/svg11.dtd">
<svg version="1.1" id="Layer_1" xmlns="http://www.w3.org/2000/svg" xmlns:xlink="http://www.w3.org/1999/xlink" x="0px" y="0px"
	 width="300px" height="300px" viewBox="0 0 300 300" enable-background="new 0 0 300 300" xml:space="preserve">
<path fill="#FFFFFF" d="M284.923,55.544v189.313c0,5.088-4.233,9.326-9.323,9.326h-93.809
	c-5.936,10.455-18.083,18.084-32.496,18.084c-14.412,0-26.561-7.629-32.495-18.084H22.992c-5.086,0-9.325-4.238-9.325-9.326V55.544
	c0-5.086,4.239-9.325,9.325-9.325h17.8v162.754c0,5.088,3.956,9.043,9.042,9.043H76.96c21.192,0,50.013,3.672,65.555,20.627
	c3.671,3.957,9.889,3.674,13.562,0c15.541-16.955,44.36-20.627,65.555-20.627h27.406c4.806,0,8.76-3.955,8.76-9.043V46.219H275.6
	C280.688,46.219,284.923,50.458,284.923,55.544z M58.877,28.136H78.09c31.083,0,48.6,4.239,62.162,27.974v157.951
	c-19.495-11.303-44.079-14.129-63.292-14.129H58.877V28.136z M220.785,28.136h18.93v171.796h-17.801
	c-19.214,0-44.082,2.826-63.575,14.129V56.109C171.9,32.375,189.701,28.136,220.785,28.136z"/>
</svg>
