<?xml version="1.0" encoding="utf-8"?>
<!-- Generator: Adobe Illustrator 16.0.0, SVG Export Plug-In . SVG Version: 6.00 Build 0)  -->
<!DOCTYPE svg PUBLIC "-//W3C//DTD SVG 1.1//EN" "http://www.w3.org/Graphics/SVG/1.1/DTD/svg11.dtd">
<svg version="1.1" id="Layer_1" xmlns="http://www.w3.org/2000/svg" xmlns:xlink="http://www.w3.org/1999/xlink" x="0px" y="0px"
	 width="300px" height="300px" viewBox="0 0 300 300" enable-background="new 0 0 300 300" xml:space="preserve">
<path fill="#FFFFFF" d="M261.908,35.893v155.552c0,24.725-63.887,88.332-88.889,88.332l-4.998,0.279
	c-3.613,0.277-5.834,0.277-12.779,0.277c-62.776,0-103.332-8.891-104.998-9.165c-6.112-1.389-10.556-6.667-10.556-13.058V35.893
	c0-6.113,4.443-11.667,10.556-13.056c1.666-0.278,42.222-9.167,104.998-9.167c63.334,0,95.555,8.889,96.943,9.445
	C258.02,24.78,261.908,30.058,261.908,35.893z M155.8,156.445c1.11-0.834,34.72-23.054,54.444-51.665
	c1.388-2.222,1.667-5,0.277-7.224c-1.113-2.499-3.613-3.889-6.393-3.889H173.02c-2.777-15.832-4.998-28.333-7.223-31.943
	c-2.499-3.889-7.22-6.389-14.722-6.389c-7.498,0-12.222,2.5-14.721,6.389c-2.778,4.167-5.002,16.111-7.776,31.943H97.465
	c-2.778,0-5.277,1.39-6.388,3.889c-1.389,2.223-1.389,5.001,0.278,7.224c19.72,28.611,53.886,50.831,54.997,51.665
	c1.39,1.111,3.057,1.668,4.724,1.668S154.411,157.559,155.8,156.445z M181.908,235.891v-26.666c0-3.89,5.001-8.89,8.89-8.89h26.666
	c9.722,0,17.78-8.056,17.78-17.778h-44.446c-13.61,0-26.665,13.057-26.665,26.668v44.445
	C173.021,253.67,181.908,245.611,181.908,235.891z"/>
</svg>
