<?xml version="1.0" encoding="utf-8"?>
<!-- Generator: Adobe Illustrator 16.0.0, SVG Export Plug-In . SVG Version: 6.00 Build 0)  -->
<!DOCTYPE svg PUBLIC "-//W3C//DTD SVG 1.1//EN" "http://www.w3.org/Graphics/SVG/1.1/DTD/svg11.dtd">
<svg version="1.1" id="Layer_1" xmlns="http://www.w3.org/2000/svg" xmlns:xlink="http://www.w3.org/1999/xlink" x="0px" y="0px"
	 width="300px" height="300px" viewBox="0 0 300 300" enable-background="new 0 0 300 300" xml:space="preserve">
<path fill="#FFFFFF" d="M281.664,79.78v175.276c0,8.777-6.311,16.185-14.813,17.555c-38.676,6.035-77.899,9.052-116.852,9.052
	c-38.95,0-78.45-3.017-116.851-9.052c-8.502-1.37-14.812-8.776-14.812-17.555V79.78c0-9.601,7.954-17.555,17.555-17.555h61.443
	v35.11H53.447v142.909c31.818,4.391,64.186,6.584,96.553,6.584c32.37,0,64.461-2.193,96.555-6.584V97.335h-43.889v-35.11h61.441
	C273.708,62.225,281.664,70.179,281.664,79.78z M160.973,193.889h-21.946c-0.272,0-2.743-28.254-3.291-35.111H94.591
	c-4.938,0-9.326-3.018-11.794-7.131c-2.194-4.39-2.194-9.328,0.273-13.441c1.372-1.92,7.681-10.697,31.818-32.092V44.669h-13.167
	c-7.131,0-13.166-6.034-13.166-13.167c0-6.855,6.035-13.165,13.166-13.165h96.556c6.855,0,13.162,6.31,13.162,13.165
	c0,7.133-6.307,13.167-13.162,13.167h-13.172v61.443c18.927,16.732,26.886,25.785,30.174,29.625c2.199,2.468,3.57,5.76,3.57,9.327
	c0,7.405-5.763,13.713-13.17,13.713h-41.418C163.716,165.635,161.244,193.889,160.973,193.889z"/>
</svg>
