<?xml version="1.0" encoding="utf-8"?>
<!-- Generator: Adobe Illustrator 16.0.0, SVG Export Plug-In . SVG Version: 6.00 Build 0)  -->
<!DOCTYPE svg PUBLIC "-//W3C//DTD SVG 1.1//EN" "http://www.w3.org/Graphics/SVG/1.1/DTD/svg11.dtd">
<svg version="1.1" id="Layer_1" xmlns="http://www.w3.org/2000/svg" xmlns:xlink="http://www.w3.org/1999/xlink" x="0px" y="0px"
	 width="300px" height="300px" viewBox="0 0 300 300" enable-background="new 0 0 300 300" xml:space="preserve">
<path fill="#FFFFFF" d="M270.957,243.809c-2.501,10.267-10.824,18.59-21.368,20.258c-34.128,6.379-67.698,9.431-101.55,9.431
	c-34.129,0-67.704-3.052-101.553-9.431c-10.545-1.668-18.87-9.991-21.366-20.258c-13.596-62.707-13.596-126.523,0-189.23
	c2.496-10.266,10.821-18.591,21.366-20.257c33.849-6.38,67.702-9.433,101.553-9.433c33.852,0,67.422,3.053,101.55,9.433
	c10.544,1.666,18.867,9.991,21.368,20.257C284.553,117.284,284.553,181.102,270.957,243.809z M56.473,78.161
	c0,11.376,9.157,20.533,20.533,20.533c11.375,0,20.532-9.157,20.532-20.533c0-11.375-9.156-20.533-20.532-20.533
	S56.473,66.786,56.473,78.161z M72.011,226.328c25.249,2.219,50.777,3.329,76.027,3.329c25.249,0,50.772-1.11,76.026-3.329
	c3.883-0.277,7.213-3.33,8.045-7.491c4.717-30.521,6.381-59.378,4.717-87.957c-0.276-4.717-4.159-8.324-8.879-8.324H68.126
	c-4.716,0-8.601,3.607-8.878,8.324c-1.666,28.579,0,57.437,4.717,87.957C64.798,222.998,68.126,226.051,72.011,226.328z
	 M210.189,166.95H85.885v-17.758h124.305V166.95z M85.885,184.709h124.305v17.757H85.885V184.709z M168.568,78.161
	c0-11.375-9.155-20.533-20.53-20.533c-11.377,0-20.534,9.158-20.534,20.533c0,11.376,9.157,20.533,20.534,20.533
	C159.413,98.694,168.568,89.537,168.568,78.161z M239.6,78.161c0-11.375-9.156-20.533-20.527-20.533
	c-11.379,0-20.533,9.158-20.533,20.533c0,11.376,9.154,20.533,20.533,20.533C230.441,98.694,239.6,89.537,239.6,78.161z"/>
</svg>
