<?xml version="1.0" encoding="utf-8"?>
<!-- Generator: Adobe Illustrator 16.0.0, SVG Export Plug-In . SVG Version: 6.00 Build 0)  -->
<!DOCTYPE svg PUBLIC "-//W3C//DTD SVG 1.1//EN" "http://www.w3.org/Graphics/SVG/1.1/DTD/svg11.dtd">
<svg version="1.1" id="Layer_1" xmlns="http://www.w3.org/2000/svg" xmlns:xlink="http://www.w3.org/1999/xlink" x="0px" y="0px"
	 width="300px" height="300px" viewBox="0 0 300 300" enable-background="new 0 0 300 300" xml:space="preserve">
<path fill="#FFFFFF" d="M280.355,169.539c0,3.557-1.914,6.566-4.65,7.938L64.997,282.831c-1.369,0.544-2.464,0.817-3.833,0.817
	c-2.737,0-5.199-1.094-6.84-3.285c-2.464-3.006-2.736-7.659,0-10.942l66.769-81.001l-98.512-45.7
	c-3.01-1.368-4.926-4.377-4.926-7.661c0-3.286,1.916-6.568,4.652-7.938L233.016,22.042c3.558-1.915,7.936-1.094,10.399,2.19
	c2.735,3.01,2.735,7.663,0.271,10.945l-66.768,81l98.512,45.698C278.441,163.244,280.355,166.254,280.355,169.539z"/>
</svg>
