<?xml version="1.0" encoding="utf-8"?>
<!-- Generator: Adobe Illustrator 16.0.0, SVG Export Plug-In . SVG Version: 6.00 Build 0)  -->
<!DOCTYPE svg PUBLIC "-//W3C//DTD SVG 1.1//EN" "http://www.w3.org/Graphics/SVG/1.1/DTD/svg11.dtd">
<svg version="1.1" id="Layer_1" xmlns="http://www.w3.org/2000/svg" xmlns:xlink="http://www.w3.org/1999/xlink" x="0px" y="0px"
	 width="300px" height="300px" viewBox="0 0 300 300" enable-background="new 0 0 300 300" xml:space="preserve">
<path fill="#FFFFFF" d="M35.452,255.865c-8.648-1.081-15.133-8.376-15.133-17.295V46.431c0-9.458,7.836-17.295,17.295-17.295H89.5
	c5.674,0,11.079,2.973,14.322,7.836l12.161,18.106h111.878c9.459,0,17.296,7.836,17.296,17.295v17.294H105.172
	c-19.186,0-31.077,11.891-35.13,28.106c-2.432,8.916-24.591,92.961-26.483,101.068c-2.163,7.839,3.513,12.702,8.107,13.513
	c5.945,0.811,12.43-2.434,14.593-9.188c0.811-2.974,24.32-92.152,26.482-101.07c1.623-6.756,8.648-15.133,18.377-15.133h151.333
	c5.406,0,10.539,2.432,13.783,7.025c3.242,4.326,4.322,9.73,2.703,15.135l-32.701,114.04c-1.891,6.216-6.758,10.538-12.971,11.89
	c-0.271,0-0.271,0-0.543,0l-2.701,0.812c-35.942,4.596-66.746,6.757-97.285,6.757C102.201,262.622,71.394,260.461,35.452,255.865z"
	/>
</svg>
