<?xml version="1.0" encoding="utf-8"?>
<!-- Generator: Adobe Illustrator 16.0.0, SVG Export Plug-In . SVG Version: 6.00 Build 0)  -->
<!DOCTYPE svg PUBLIC "-//W3C//DTD SVG 1.1//EN" "http://www.w3.org/Graphics/SVG/1.1/DTD/svg11.dtd">
<svg version="1.1" id="Layer_1" xmlns="http://www.w3.org/2000/svg" xmlns:xlink="http://www.w3.org/1999/xlink" x="0px" y="0px"
	 width="300px" height="300px" viewBox="0 0 300 300" enable-background="new 0 0 300 300" xml:space="preserve">
<path fill="#FFFFFF" d="M261.666,118.568c6.123,14.478,9.465,30.07,9.465,46.774c0,66.541-53.736,120.277-120.275,120.277
	c-66.543,0-120.279-53.736-120.279-120.277c0-16.705,3.341-32.576,9.466-46.774c-11.137-10.581-18.375-25.616-18.375-42.32
	c0-32.02,25.893-57.912,57.912-57.912c21.438,0,40.092,11.694,50.115,28.677c6.961-1.113,13.922-1.949,21.162-1.949
	c7.236,0,14.477,0.836,21.438,1.949c10.023-16.983,28.678-28.677,49.838-28.677c32.018,0,57.913,25.893,57.913,57.912
	C280.043,92.953,273.082,107.987,261.666,118.568z M102.688,53.695c-6.125-6.682-14.478-10.579-23.944-10.579
	c-18.098,0-32.576,14.478-32.576,32.297c0,6.961,2.228,13.363,5.848,18.655C65.101,76.526,82.361,62.604,102.688,53.695z
	 M218.508,187.616c0-35.081-30.068-63.758-67.652-63.758c-37.588,0-68.214,28.677-68.214,63.758
	c0,35.358,30.626,63.759,68.214,63.759C188.439,251.375,218.508,222.975,218.508,187.616z M119.67,173.418
	c0-9.188,6.961-20.048,31.184-20.048c24.5,0,31.183,10.858,31.183,20.048c0,18.375-13.921,32.018-31.183,32.018
	S119.67,191.793,119.67,173.418z M255.264,75.69c0-17.819-14.479-32.296-32.3-32.296c-9.466,0-17.819,3.899-23.666,10.581
	c20.048,8.63,37.31,22.831,50.117,40.094C253.033,88.776,255.264,82.374,255.264,75.69z"/>
</svg>
